<svg width="512" height="512" version="1.1" viewBox="0 0 384 384" xmlns="http://www.w3.org/2000/svg"><defs><filter id="a" x="-.05282" y="-.043987" width="1.1056" height="1.088" style="color-interpolation-filters:sRGB"><feGaussianBlur stdDeviation="6.2570508"/></filter></defs><path d="m133.35 21.3-82.729 25.633s-0.38818 0.001254-0.38818 0.38965c0 0-0.38818-2.12e-4 -0.38818 0.38818v2.3306l18.255 88.942c0 0.38838 0.38797 0.77616 0.77637 1.1646l24.857 19.419-18.253 8.5459s-0.38965-2.2e-4 -0.38965 0.38818c0 0 2.11e-4 0.38819-0.38818 0.38818v0.77637l13.983 66.804c0 0.3884 0.38797 0.77762 0.77637 1.166l17.477 16.312-11.651 6.9902-0.38818 0.38818s2.12e-4 0.38819-0.38818 0.38819v1.166l10.875 51.656c0 0.38839 0.38819 0.77762 0.38819 1.166l42.335 46.607h0.38818s0.38818-2.1e-4 0.38818 0.38819h1.9424l55.928-44.666c0.3884-0.3884 0.77783-1.1643 0.77783-1.5527l-1.166-30.684 18.643 15.536s0.38819-2.1e-4 0.38819 0.38818h1.9424l45.054-35.732c0.3884-0.38839 0.77637-0.77741 0.77637-1.5542l1.5542-22.526 13.594 9.3223h1.5527s0.38965-0.00126 0.38965-0.38965l36.508-29.128c0.38839-0.3884 0.77783-0.77762 0.77783-1.166l6.602-47.773v-0.77637s2.1e-4 -0.38818-0.38818-0.38818c0 0-0.38819 2e-4 -0.38819-0.38819l-46.608-26.023c-0.77679-0.38839-1.5525-0.38839-1.9409 0l-39.617 24.081h-0.38818v2.3306l-0.38819 20.974-15.924-10.487c-0.77679-0.38839-1.5538-0.38839-2.3306 0l-23.692 13.206-1.166-23.304v-1.9424h-0.38818l-24.081-15.924 22.528-11.651c0.77679-0.3884 1.1646-1.1656 1.1646-1.9424l-4.2715-88.166v-0.38818s-0.00126-0.38818-0.38965-0.38818c0 0 2.2e-4 -0.38818-0.38818-0.38818l-60.977-29.518c-0.3884-0.3884-0.77762-0.38818-1.166-0.38818zm-61.755 115.35 48.5 38.106 0.0498 0.34424-48.549-38.451zm125.84 38.451 2.7188 62.533-2.7188-62.145-67.141 38.423-0.05127-0.35889 67.192-38.452zm132.44 2.3306-5.8257 42.335-32.237 25.633 31.849-25.633 5.7832-42.028 0.43066-0.30762zm-38.483 24.448 0.03223 0.02051-3.8833 44.666-12.817-9.3223 12.817 8.9341 3.8511-44.298zm-19.775 16.721-0.01758 0.29151-43.484 31.169 0.38672 45.521-0.38672 0.30908-0.38819-45.831 43.89-31.46zm-67.192 16.312 19.808 15.148 0.38818 45.831-18.255-15.146-0.00293-0.07031 17.87 14.829-0.38819-45.442-19.419-14.851v-0.29737zm-112.63 0.38965 43.433 40.718 0.06738 0.45117-43.5-41.169zm6.9902 34.178 0.48633 0.47314 9.2241 44.193 38.451 40.781-38.839-40.781-9.3223-44.666zm103.72 23.338 1.144 22.882-52.433 41.558 52.044-41.558-0.75586-22.882z" style="filter:url(#a);font-feature-settings:normal;font-variant-alternates:normal;font-variant-caps:normal;font-variant-ligatures:normal;font-variant-numeric:normal;font-variant-position:normal;isolation:auto;mix-blend-mode:normal;opacity:.5;shape-padding:0;text-decoration-color:#000000;text-decoration-line:none;text-decoration-style:solid;text-indent:0;text-orientation:mixed;text-transform:none;white-space:normal"/><path d="m221.15 209.97c0.0441-0.0279 0.0291 0.0933-0.28442 0.2152 0.0871-0.0632 0.25494-0.19647 0.28442-0.2152z" color="#000000" color-rendering="auto" dominant-baseline="auto" image-rendering="auto" shape-rendering="auto" solid-color="#000000" style="font-feature-settings:normal;font-variant-alternates:normal;font-variant-caps:normal;font-variant-ligatures:normal;font-variant-numeric:normal;font-variant-position:normal;isolation:auto;mix-blend-mode:normal;shape-padding:0;text-decoration-color:#000000;text-decoration-line:none;text-decoration-style:solid;text-indent:0;text-orientation:mixed;text-transform:none;white-space:normal"/><path d="m291.43 201.52-3.884 44.665-12.817-8.9331 1.5536-22.527v-0.77679l-0.77679-0.77679-27.576-18.255 0.3884-19.808zm-67.581 48.549-19.808-15.147v3.4956c0 0.77679-0.38839 1.5536-0.77679 1.942l-14.759 10.098 16.313 13.205 0.3884 0.3884v0.77679l0.77679 15.536 18.255 15.147zm-124.67 19.42 9.3215 44.665 38.451 40.782-6.6027-45.054zm36.121 6.6027-9.3215-62.532-46.607-38.84 12.429 60.59zm-14.759-100.98-12.817-88.554-53.599-33.402 17.478 83.505z" fill="#004712" style="fill:#087142;stroke-width:3.884"/><path d="m329.49 177.44-5.8259 42.335-31.848 25.634 3.884-43.5zm-101.37 72.63 0.38839 45.831 40.782-32.625 2.7188-44.665zm-26.411 18.643-57.483 41.17 6.9911 47.384 52.045-41.558zm-1.5536-31.072-2.7188-62.143-67.192 38.451 9.3215 64.474zm-4.2724-98.264-3.4956-83.893-80.786 31.072 13.205 90.108z" fill="#00b259" style="fill:#0ca15e;stroke-width:3.884"/><path d="m334.15 172.77v-0.77679s0-0.3884-0.38839-0.3884c0 0-0.3884 0-0.3884-0.38839l-46.607-26.023c-0.77679-0.38839-1.5536-0.38839-1.942 0l-39.616 24.081h-0.38839v2.3304l-0.3884 20.973-15.924-10.487c-0.77679-0.38839-1.5536-0.38839-2.3304 0l-23.692 13.205-1.1652-23.304v-1.942h-0.38839l-24.081-15.924 22.527-11.652c0.77679-0.3884 1.1652-1.1652 1.1652-1.942l-4.2724-88.166v-0.3884s0-0.3884-0.38839-0.3884c0 0 0-0.3884-0.3884-0.3884l-60.978-29.518c-0.3884-0.3884-0.77679-0.3884-1.1652-0.3884l-82.728 25.634s-0.3884 0-0.3884 0.3884c0 0-0.3884 0-0.3884 0.3884v2.3304l18.255 88.943c0 0.38839 0.3884 0.77679 0.77679 1.1652l24.857 19.42-18.255 8.5447s-0.3884 0-0.3884 0.3884c0 0 0 0.38839-0.3884 0.38839v0.77679l13.982 66.804c0 0.3884 0.3884 0.77679 0.77679 1.1652l17.478 16.313-11.652 6.9911-0.3884 0.3884s0 0.38839-0.3884 0.38839v1.1652l10.875 51.657c0 0.38839 0.3884 0.77679 0.3884 1.1652l42.335 46.607h0.3884s0.38839 0 0.38839 0.3884h1.942l55.929-44.665c0.3884-0.3884 0.77679-1.1652 0.77679-1.5536l-1.1652-30.683 18.643 15.536s0.3884 0 0.3884 0.38839h1.942l45.054-35.732c0.3884-0.38839 0.77679-0.77679 0.77679-1.5536l1.5536-22.527 13.594 9.3215h1.5536s0.3884 0 0.3884-0.38839l36.509-29.13c0.38839-0.3884 0.77679-0.77679 0.77679-1.1652l6.6027-47.773zm-42.335 72.63 3.884-43.5 34.179-24.469-5.8259 42.335zm-17.089-8.1563 1.5536-22.527v-0.77679l-0.77679-0.77679-27.576-18.255 0.3884-19.808 43.112 26.799-3.884 44.665zm-5.8259 26.022-40.782 32.625-0.3884-45.831 43.889-31.46zm-65.25 52.433-52.433 41.558-6.9911-47.384 57.094-40.782zm-95.545-1.5536-9.3215-44.665 41.558 40.393 6.6027 45.054zm-0.77679-227.6 12.817 88.554-48.549-38.451-17.478-83.505zm85.059-31.072 3.4956 83.893-71.076 37.286-13.205-90.108zm7.7679 182.16-60.59 40.393-9.3215-64.474 67.192-38.451zm-74.184-23.692 9.3215 62.532-43.5-41.17-12.429-60.59zm79.621 50.88v-0.77679l-0.38839-0.3884-16.313-13.205 14.759-10.098c0.77679-0.3884 0.77679-1.1652 0.77679-1.942v-3.4956l19.808 15.147 0.3884 45.831-18.255-15.147z" style="stroke-width:3.884"/></svg>
