<svg width="512" height="512" version="1.1" viewBox="0 0 384 384" xmlns="http://www.w3.org/2000/svg"><defs><filter id="a" x="-.048342" y="-.051505" width="1.0965" height="1.1039" color-interpolation-filters="sRGB"><feGaussianBlur stdDeviation="6.7452852"/></filter></defs><path d="m193.84 27.216-175.09 94.81 85.701 49.484 87.543-47.405 85.701 49.484 87.543-47.405zm-175.62 95.678v32.65l85.701 49.484v-0.21648l87.66-47.469v-32.65l-87.66 47.469v0.21649zm173.85 2.1671v32.65l85.701 49.484v-32.65zm173.75 1.9263-87.269 47.255v65.303l87.269-47.257zm-347.6 29.341v32.65l171.4 98.967v-32.65l-0.23415-0.13467 87.545-47.405-85.701-49.484-87.543 47.405zm0 33.304v65.301l171.4 98.967v-65.301zm347.7 3.9101-88.345 47.838v-32.65l-87.66 47.467v32.65l0.19659-0.10602v65.303l175.81-95.201z" filter="url(#a)" opacity=".3" stroke="#fff" stroke-width="1.125"/><g transform="matrix(1.131 0 0 1.1311 2.0636 8.2306)" stroke-width=".66313"><g stroke="#fff" stroke-width=".99469"><g transform="matrix(.86603 .5 0 1.1547 0 0)"><rect transform="skewX(-50)" x="110" y="-72" width="175" height="75" fill="#272a34"/><rect transform="skewX(-50)" x="110" y="3" width="87.5" height="75" fill="#b3b3b3"/><rect x="16.5" y="78.9" width="87.5" height="25" fill="#b3b3b3"/><rect x="16.5" y="104.5" width="175" height="25" fill="#60636e"/><rect x="16.5" y="130" width="175" height="50" fill="#e32f2f"/><rect transform="skewY(-40)" x="104" y="166" width="89.5" height="25" fill="#b3b3b3"/><rect transform="skewX(-50)" x="228.3" y="29.5" width="87.5" height="75" fill="#60636e"/><rect transform="skewY(-40)" x="191.8" y="266" width="89.5" height="25" fill="#60636e"/><rect transform="skewY(-40)" x="192" y="291" width="179.5" height="50" fill="#e32f2f"/><rect transform="skewY(-40)" x="282.3" y="240" width="89.1" height="50" fill="#272a34"/><rect x="194" y="3.7" width="87.5" height="25" fill="#272a34"/></g><line x1="93" x2="93" y1="57" y2="88"/><line x1="169" x2="92" y1="131" y2="88"/><line x1="92" x2="14" y1="88" y2="128"/></g></g></svg>
