<svg width="220" height="220" version="1.1" viewBox="0 0 165 165" xmlns="http://www.w3.org/2000/svg"><path d="m18.654 37.89 127.69-25.897v141.01l-127.69-25.896z" fill="#fff" opacity=".6" stroke-linecap="round" stroke-linejoin="round" stroke-width="1.5"/><path d="m146.35 11.993-74.653 15.294v52.16h74.653v-5.6279zm-80.759 16.224-46.934 9.6731v41.558h46.934zm-46.934 57.336v41.558l46.934 9.5164v-51.074zm53.04 0v52.16l74.653 15.294v-67.454z" fill="#4aaee6" stroke-linecap="round" stroke-linejoin="round" stroke-width=".79053"/><path d="m120.04 131.24v28.732h17.625v-17.616h-11.116v-4.6058h11.116v-6.5104h-12.064zm22.231 0v17.625h11.106v11.106h6.509v-28.732h-6.509v11.116h-4.5975v-11.116zm-15.722 17.625h4.6058v4.5975h-4.6058z" color="#000000" color-rendering="auto" dominant-baseline="auto" fill="#fff" image-rendering="auto" shape-rendering="auto" solid-color="#000000" stop-color="#000000" stroke-width=".95251" style="font-feature-settings:normal;font-variant-alternates:normal;font-variant-caps:normal;font-variant-east-asian:normal;font-variant-ligatures:normal;font-variant-numeric:normal;font-variant-position:normal;font-variation-settings:normal;inline-size:0;isolation:auto;mix-blend-mode:normal;shape-margin:0;shape-padding:0;text-decoration-color:#000000;text-decoration-line:none;text-decoration-style:solid;text-indent:0;text-orientation:mixed;text-transform:none;white-space:normal"/><path d="m114.85 125.96v39.037h27.929v-5.6983h-6e-3v-5.4137h5.4179v5.4137h-4e-3v5.6983h16.814v-5.5588h3e-3v-33.474h-44.456v-4e-3h-5.6983zm5.6983 5.7025h16.527v5.4081h-11.107v5.6983h11.107v16.53h-16.527v-27.637zm22.225 0h5.4179v11.107h5.6983v-11.107h5.4164v27.637h-5.4164v-11.112h-11.116v-16.524zm-16.804 16.524v5.6983h5.6984v-5.6983z" color="#000000" color-rendering="auto" dominant-baseline="auto" image-rendering="auto" shape-rendering="auto" solid-color="#000000" stop-color="#000000" stroke-width=".71438" style="font-feature-settings:normal;font-variant-alternates:normal;font-variant-caps:normal;font-variant-east-asian:normal;font-variant-ligatures:normal;font-variant-numeric:normal;font-variant-position:normal;font-variation-settings:normal;inline-size:0;isolation:auto;mix-blend-mode:normal;shape-margin:0;shape-padding:0;text-decoration-color:#000000;text-decoration-line:none;text-decoration-style:solid;text-indent:0;text-orientation:mixed;text-transform:none;white-space:normal"/></svg>
