<svg width="512" height="512" version="1.1" viewBox="0 0 384 384" xmlns="http://www.w3.org/2000/svg"><defs><filter id="a" x="-.048005" y="-.047995" width="1.096" height="1.096" style="color-interpolation-filters:sRGB"><feGaussianBlur stdDeviation="9.1988686"/></filter></defs><g transform="matrix(.75 0 0 .75 .026225 .000375)"><path d="m256.04 26.001c-126.84 0-230.02 103.13-230.02 229.9 0 5.523 4.477 10 10 10h84.986c5.523 0 10-4.477 10-10 0-68.732 56.038-124.65 124.92-124.65 15.426 0 30.999 2.8095 46.305 8.3535 32.255 11.619 58.459 37.793 70.109 70.049 14.874 40.708 9.8124 83.537-13.891 117.51-21.425 30.704-55.34 50.097-92.156 53.158v-74.119c0-5.522-4.478-10-10-10h-84.807c-5.523 0-10 4.478-10 10v74.812h-45.381v-44.646c0-5.522-4.477-10-10-10h-54.646c-5.523 0-10 4.478-10 10v54.646c0 5.522 4.477 10 10 10h44.648v55.289c0 5.522 4.477 10 10 10h65.379c5.523 0 10-4.478 10-10v-55.289h64.543v74.982c0 5.522 4.477 10 10 10 36.669 0 73.163-8.8601 105.54-25.623 31.311-16.212 58.927-39.833 79.865-68.309 43.935-59.755 56.016-136.02 33.152-209.21-10.477-33.799-29.466-65.097-54.914-90.51-25.376-25.341-56.692-44.356-90.58-54.996-24.134-7.534-48.709-11.354-73.043-11.354z" style="filter:url(#a);opacity:.3"/><path d="m106.1 456.3h65.38v-65.289h-65.38zm-54.646-119.94v54.647h54.646v-54.647zm413.57-150.54c-20.404-65.823-73.098-118.25-138.92-138.92-150.9-47.106-290.09 65.114-290.09 209h84.986c0-90.308 89.598-160.12 184.61-125.7 35.217 12.686 63.427 40.896 76.114 76.025 34.685 94.922-35.22 184.34-125.44 184.52v0.267h-0.265v84.983c144.24 0 256.2-139.1 209-290.18zm-208.74 204.92v-84.545h-84.808v84.812h84.542v-0.267z" style="fill:#367bf0"/><path d="m256.02 486c-5.523 0-10-4.478-10-10v-74.983h-64.542v55.289c0 5.522-4.477 10-10 10h-65.38c-5.523 0-10-4.478-10-10v-55.289h-44.647c-5.523 0-10-4.478-10-10v-54.647c0-5.522 4.477-10 10-10h54.646c5.523 0 10 4.478 10 10v44.647h45.38v-74.812c0-5.522 4.477-10 10-10h84.808c5.522 0 10 4.478 10 10v74.119c36.816-3.061 70.73-22.455 92.155-53.159 23.703-33.969 28.766-76.797 13.892-117.5-11.65-32.256-37.855-58.43-70.11-70.049-15.306-5.544-30.879-8.353-46.305-8.353-68.878 0-124.92 55.917-124.92 124.65 0 5.523-4.477 10-10 10h-84.987c-5.523 0-10-4.477-10-10 0-126.77 103.19-229.9 230.02-229.9 24.334 0 48.908 3.82 73.042 11.354 33.888 10.64 65.204 29.656 90.58 54.997 25.448 25.413 44.437 56.71 54.914 90.509 22.864 73.19 10.782 149.45-33.153 209.2-20.938 28.476-48.554 52.097-79.865 68.309-32.374 16.763-68.868 25.623-105.54 25.623zm10-85.598v65.356c62.813-3.035 121.78-34.523 159.29-85.538 40.126-54.573 51.123-124.34 30.17-191.41-19.235-62.053-69.956-112.76-132.37-132.36-22.187-6.926-44.756-10.441-67.066-10.441-112.45 0-204.54 88.792-209.79 199.9h65.094c5.16-75.116 68.031-134.65 144.57-134.65 17.756 0 35.622 3.211 53.1 9.542 37.774 13.607 68.478 44.275 82.113 82.03 17.132 46.884 11.199 96.387-16.288 135.78-25.215 36.138-65.364 58.767-108.82 61.794zm-149.92 45.904h45.38v-45.289h-45.38zm65.38-65.289h64.808v-64.812h-64.808zm-120.03 0h34.646v-34.647h-34.646z" style="fill:#2656a8"/></g></svg>
