<svg width="512" height="512" version="1.1" viewBox="0 0 384 384" xmlns="http://www.w3.org/2000/svg"><defs><filter id="a" x="-.03953" y="-.06109" width="1.0791" height="1.1222" color-interpolation-filters="sRGB"><feGaussianBlur stdDeviation="7.9329087"/></filter></defs><path transform="matrix(.75 0 0 .75 0 3)" d="m213.95 106.58v49.207h-98.418v49.209h-49.207v50.303h-42.08l-0.69531 7.4394c-2.3113 24.839 1.0985 49.698 11.359 72.389l4.4219 9 0.49609 0.83789c30.356 51.55 83.663 73.27 141.77 73.27 112.46 0 205.22-50.236 247.82-156.35 28.471 1.4914 57.595-6.9328 71.525-34.117l3.5547-6.9414-6.7578-3.9004c-16.469-9.5055-38.41-10.805-57.096-5.3086-2.3005-19.861-15.353-37.283-30.871-49.75l-6.1621-4.957-5.1738 5.9824c-10.39 12.017-13.489 32.001-12.068 47.355 1.0416 11.287 4.5884 22.738 11.535 31.807-5.2746 3.1742-11.275 5.6976-16.623 7.5117-10.881 3.6864-22.698 5.7324-34.189 5.7324h-24.879v-50.303h-49.209v-98.416z" fill="#383c4a" fill-rule="evenodd" filter="url(#a)" opacity=".3" stroke-width="9.7656"/><g transform="matrix(.22037 0 0 .22037 196.2 364.75)" fill-rule="evenodd" stroke-width="33.236"><path d="m38.81-957.5h167.48v171.2h84.675c39.111 0 79.329-6.9653 116.36-19.512 18.201-6.1743 38.621-14.758 56.572-25.562-23.643-30.864-35.713-69.836-39.258-108.25-4.834-52.258 5.7129-120.27 41.074-161.17l17.607-20.361 20.977 16.868c52.815 42.429 97.236 101.73 105.07 169.32 63.596-18.706 138.27-14.282 194.32 18.069l22.998 13.271-12.1 23.628c-47.41 92.52-146.53 121.19-243.43 116.11-145 361.15-460.68 532.13-843.44 532.13-197.75 0-379.17-73.923-482.49-249.37l-1.6919-2.8564-15.051-30.63c-34.922-77.227-46.523-161.83-38.657-246.36l2.3657-25.32h143.22v-171.2h167.47v-167.48h334.96v-167.48h200.98v334.95" fill="#383c4a"/><path transform="matrix(3.4034 0 0 3.4034 -890.32 -1655.2)" d="m404.64 168.26c-13.715 15.856-15.844 57.414 5.6719 74.908-12.008 10.666-37.311 20.332-63.221 20.332h-315.36c-1.0619 11.406-0.55792 22.321 0.87695 32.857h-0.28711l-0.003906 0.00195c0.26519 1.9618 0.5814 3.9028 0.92969 5.8301 0.013998 0.07742 0.03079 0.15311 0.044921 0.23047 1.0907 5.974 2.5906 11.77 4.457 17.383 0.068509 0.20603 0.13555 0.41168 0.20508 0.61719 1.9106 5.647 4.1833 11.111 6.8457 16.346l3.5859 6.5644a121.44 121.44 0 0 0 7.4355 11.156c0.002029 1.3e-4 0.003831-1.4e-4 0.00586 0 12.965 0.83249 24.917 1.1179 35.854 0.87695 0.001786-4e-5 0.004073 4e-5 0.00586 0h0.003906c21.493-0.47344 39.03-3.0118 52.322-7.6172a3.7898 3.7898 0 0 1 2.4805 7.1562c-0.00246 8.6e-4 -0.00535 0.0011-0.00781 0.00195a3.7898 3.7898 0 0 0 0-0.00195c-1.7684 0.61528-3.6098 1.1881-5.5117 1.7324-6.1e-4 1.8e-4 -0.00134-1.7e-4 -0.00195 0h-0.00586c-0.01506 0.0043-0.03347 0.00758-0.04883 0.01172-10.45 2.9807-21.657 4.9892-36.111 5.8809 0.86083 0.01507-0.89415 0.12891-0.89844 0.12891-0.07178 0.0047-0.15797 0.01344-0.23437 0.01953-0.00642-0.00329-0.01312-0.00648-0.01953-0.00977-0.50521 0.02142-1.1839 0.03236-1.6191 0.05664-1.0317 0.05771-2.137 0.08743-3.1934 0.13672-4.7427 0.18669-9.5899 0.31446-14.68 0.31446-6.8779 0-13.65-0.13022-21.223-0.51758l-0.11719 0.07617c-0.11599-0.0058-0.22165-0.0058-0.33789-0.01172 19.707 22.152 47.89 37.69 82.477 44.074 0.00322 5.9e-4 0.00654 0.00136 0.00976 0.00195 0.04677 0.00864 0.0958 0.01289 0.14258 0.02149 5.697 1.0467 11.565 1.8458 17.6 2.3848 0.06745 0.00602 0.13564 0.01163 0.20313 0.01758 6.0676 0.53578 12.3 0.8125 18.689 0.8125h0.00781 0.00586c6.5596-2.4e-4 13.052-0.194 19.484-0.54687 0.5693-0.03122 1.1349-0.07147 1.7031-0.10547 6.0021-0.35931 11.944-0.8746 17.82-1.5469 0.58387-0.06677 1.1694-0.12738 1.752-0.19726 6.2395-0.74872 12.411-1.6571 18.492-2.7656 0.0865-0.01576 0.17136-0.03495 0.25782-0.05078 6.0173-1.1024 11.945-2.3995 17.793-3.8594 0.59607-0.14877 1.187-0.30646 1.7812-0.45898 5.4783-1.4065 10.877-2.9723 16.191-4.6992 0.55966-0.18181 1.1219-0.35758 1.6797-0.54297 5.649-1.878 11.211-3.9202 16.658-6.168 0.01484-0.00612 0.03009-0.01145 0.04492-0.01757 0.1624-0.06704 0.32022-0.14163 0.48243-0.20899 5.3459-2.2206 10.582-4.6342 15.719-7.2168 0.56738-0.28521 1.1286-0.57948 1.6934-0.86914 4.8197-2.4726 9.5418-5.1075 14.162-7.9062 0.55628-0.3369 1.1166-0.66615 1.6699-1.0078 4.9104-3.0328 9.7135-6.2361 14.381-9.6465 0.22246-0.16252 0.43826-0.33467 0.66015-0.49805 4.5492-3.3503 8.9704-6.8938 13.273-10.609 0.53834-0.46477 1.0692-0.93964 1.6035-1.4102 4.0343-3.5528 7.9522-7.2712 11.754-11.154 0.50723-0.518 1.0205-1.0269 1.5234-1.5508 4.0431-4.2121 7.9621-8.5982 11.723-13.195 0.24383-0.29804 0.47808-0.60854 0.7207-0.90821 3.6356-4.4911 7.1272-9.174 10.482-14.033 0.46099-0.66753 0.91163-1.347 1.3672-2.0215 2.3054-3.4139 4.5647-6.8866 6.7285-10.48h-0.18554c7.9541-13.19 15.056-27.452 20.967-43.115 29.044 2.9806 56.958-4.4276 69.654-29.215-20.225-11.67-46.233-7.9498-61.209-0.42187l-0.00977 0.00195c3.2991-25.644-15.892-45.784-27.793-55.348z" fill="#439dcf" stroke-width="9.7656"/><path d="m581.4-894.16c11.228-87.275-54.082-155.82-94.585-188.37-46.677 53.965-53.928 195.4 19.299 254.94-40.869 36.299-126.98 69.199-215.16 69.199h-1009.8c-4.3799 140.96 47.93 247.96 140.48 312.65h0.022c73.147-1.6113 132.83-10.254 178.07-25.928a12.898 12.898 0 0 1 8.4448 24.36c-6.0205 2.0947-12.29 4.043-18.765 5.896h-0.022c-35.618 10.173-77.095 17.893-126.37 20.933-0.0147 0-1.1938-1.1353-1.2085-1.1353 126.25 64.761 309.3 64.526 519.18-16.091 235.33-90.41 454.31-262.65 607.1-459.65-2.2998 1.04-4.541 2.102-6.7163 3.1934" fill="#4aaee6"/><path d="m-636.69-929.59h145.15v145.15h-145.15zm12.092 12.1h11.455v120.96h-11.455zm21.533 0h11.917v120.96h-11.909v-120.96zm21.987 0h11.916v120.96h-11.916zm22.002 0h11.909v120.96h-11.909zm21.995 0h11.909v120.96h-11.909zm21.987 0h11.462v120.96h-11.462zm45.879-179.58h145.16v145.14h-145.17v-145.14zm12.1 12.1h11.448v120.95h-11.448zm21.533 0h11.909v120.95h-11.902v-120.95zm21.987 0h11.909v120.95h-11.909zm21.995 0h11.909v120.95h-11.909zm21.995 0h11.917v120.95h-11.917zm21.987 0h11.47v120.95h-11.47z" fill="#20a8af"/><path d="m-469.21-929.59h145.16v145.15h-145.17v-145.15zm12.1 12.1h11.448v120.96h-11.448zm21.533 0h11.909v120.96h-11.902v-120.96zm21.987 0h11.909v120.96h-11.909zm21.995 0h11.909v120.96h-11.909zm21.995 0h11.917v120.96h-11.917zm21.987 0h11.47v120.96h-11.47z" fill="#20a8af"/><path d="m-301.73-929.59h145.15v145.15h-145.15zm12.092 12.1h11.448v120.96h-11.448zm21.533 0h11.909v120.96h-11.909zm21.995 0h11.909v120.96h-11.909zm21.995 0h11.909v120.96h-11.909zm21.987 0h11.924v120.96h-11.924zm21.995 0h11.455v120.96h-11.455z" fill="#20a8af"/><path d="m-301.73-1097.1h145.15v145.14h-145.15zm12.092 12.1h11.448v120.95h-11.448zm21.533 0h11.909v120.95h-11.909zm21.995 0h11.909v120.95h-11.909zm21.995 0h11.909v120.95h-11.909zm21.987 0h11.924v120.95h-11.924zm21.995 0h11.455v120.95h-11.455zm45.879 155.38h145.15v145.15h-145.15zm12.1 12.1h11.448v120.96h-11.448zm21.533 0h11.909v120.96h-11.909zm21.987 0h11.909v120.96h-11.909zm21.995 0h11.917v120.96h-11.917zm21.995 0h11.917v120.96h-11.917zm21.995 0h11.455v120.96h-11.455z" fill="#20a8af"/><path d="m-134.25-1097.1h145.15v145.14h-145.15zm12.1 12.1h11.448v120.95h-11.448zm21.533 0h11.909v120.95h-11.909zm21.987 0h11.909v120.95h-11.909zm21.995 0h11.917v120.95h-11.917zm21.995 0h11.917v120.95h-11.917zm21.995 0h11.455v120.95h-11.455z" fill="#20a8af"/><path d="m-134.25-1264.5h145.15v145.17h-145.15zm12.1 12.092h11.448v120.97h-11.448v-120.97zm21.533 0h11.909v120.97h-11.909v-120.97zm21.987 0h11.909v120.97h-11.909v-120.97zm21.995 0h11.917v120.97h-11.917v-120.97zm21.995 0h11.917v120.97h-11.917v-120.97zm21.995 0h11.455v120.97h-11.455v-120.97z" fill="#20a8af"/><path d="m33.222-929.59h145.15v145.15h-145.15zm12.085 12.1h11.462v120.96h-11.455v-120.96zm21.533 0h11.917v120.96h-11.909v-120.96zm22.002 0h11.917v120.96h-11.917zm21.987 0h11.916v120.96h-11.916zm22.002 0h11.909v120.96h-11.909zm21.987 0h11.455v120.96h-11.455z" fill="#20a8af"/><path d="m-333.14-549.1a40.049 40.049 0 1 1-0.0147 80.09 40.049 40.049 0 0 1 0.0147-80.09" fill="#d3ecec"/><path d="m-333.14-537.74c3.6621 0 7.1558 0.68847 10.378 1.9409-10.329 5.9961-6.0984 21.794 5.8447 21.826 4.4312 0 8.2764-2.4536 10.269-6.0864 10.875 26.197-18.815 50.581-42.399 34.841s-12.457-52.513 15.907-52.522" fill="#383c4a"/><path d="m-226.7-260.54c-99.17-47.058-153.6-111.04-183.88-180.86-36.841 10.51-81.116 17.234-132.57 20.12-19.38 1.084-39.771 1.6406-61.157 1.6406-24.668 0-50.662-0.73242-77.952-2.1753 90.945 90.894 202.82 160.87 409.98 162.14 15.293 0 30.469-0.29297 45.579-0.86426" fill="#bdd9d7"/><path d="m-373.75-376.97c-13.718-18.625-27.026-42.034-36.812-64.453-36.841 10.525-81.13 17.249-132.59 20.142 35.347 19.182 85.891 36.958 169.41 44.312" fill="#d3ecec"/></g></svg>
