<svg width="512" height="512" version="1.1" viewBox="0 0 384 384" xmlns="http://www.w3.org/2000/svg"><defs><filter id="a" x="-.048029" y="-.16561" width="1.0961" height="1.3312" color-interpolation-filters="sRGB"><feGaussianBlur stdDeviation="5.6313693"/></filter><filter id="b" x="-.032283" y="-.093541" width="1.0646" height="1.1871" color-interpolation-filters="sRGB"><feGaussianBlur stdDeviation="3.7410479"/></filter><linearGradient id="c" x1="-947.29" x2="-868.36" y1="289.59" y2="79.308" gradientTransform="matrix(1.4424 0 0 -1.4424 1557.8 465.34)" gradientUnits="userSpaceOnUse"><stop stop-color="#3ccbf4" style="stop-color:#20a8af" offset="0"/><stop stop-color="#2892df" style="stop-color:#439dcf" offset="1"/></linearGradient><linearGradient id="e" x1="-938.14" x2="-954.78" y1="184.4" y2="178.78" gradientTransform="matrix(1.4424 0 0 -1.4424 1557.8 465.34)" gradientUnits="userSpaceOnUse"><stop stop-opacity=".3" offset="0"/><stop stop-opacity=".2" offset=".071"/><stop stop-opacity=".1" offset=".321"/><stop stop-opacity=".05" offset=".623"/><stop stop-opacity="0" offset="1"/></linearGradient><linearGradient id="f" x1="-960.61" x2="-1032.5" y1="283.4" y2="70.972" gradientTransform="matrix(1.4424 0 0 -1.4424 1557.8 465.34)" gradientUnits="userSpaceOnUse"><stop stop-color="#114a8b" style="stop-color:#2251a0" offset="0"/><stop stop-color="#0669bc" style="stop-color:#316fd8" offset="1"/></linearGradient><filter id="d" x="-.046617" y="-.049467" width="1.0932" height="1.0989" style="color-interpolation-filters:sRGB"><feGaussianBlur stdDeviation="6.5546019"/></filter></defs><path d="m135.76 32.997a15.794 15.794 0 0 0-8.2837 2.4829 15.924 15.924 0 0 0-1.0166 0.51856 15.794 15.794 0 0 0-1.6714 1.6479 15.924 15.924 0 0 0-1.8735 1.8882 15.794 15.794 0 0 0-0.49072 0.93896 15.924 15.924 0 0 0-1.752 3.356l-96.589 286.19a15.9 15.9 0 0 0-0.63281 4.6289 15.881 15.881 0 0 0-0.15674 1.147 15.9 15.9 0 0 0 1.1265 4.7886 15.881 15.881 0 0 0 0.26953 1.084 15.9 15.9 0 0 0 2.9019 4.1118 15.881 15.881 0 0 0 0.58594 0.81591 15.9 15.9 0 0 0 4.9629 3.2007 15.881 15.881 0 0 0 0.10693 0.06885 15.9 15.9 0 0 0 0.001465 0 15.9 15.9 0 0 0 5.9004 1.1382h79.772a17.041 17.041 0 0 0 1.5205-0.55957 15.926 15.926 0 0 0 3.3369-1.229 17.041 17.041 0 0 0 1.0371-0.52295 15.926 15.926 0 0 0 7.144-8.521l10.875-32.222 8.395-24.744 22.418 20.909 45.631 42.587a15.998 15.998 0 0 0 0.14209 0.10254l0.50391 0.47022a16.252 16.252 0 0 0 0.70898 0.40576 15.998 15.998 0 0 0 3.4541 1.9805 16.252 16.252 0 0 0 1.1543 0.45556 15.998 15.998 0 0 0 4.812 0.87012 16.252 16.252 0 0 0 0.09668 0.01758h114.7a15.901 15.901 0 0 0 15.064-20.985l-96.595-286.21a15.9 15.9 0 0 0-15.064-10.815h-112.49zm56.306 129.47 25.838 76.559h-51.809l1.0386-3.0776 24.932-73.481z" style="filter:url(#d);opacity:.3;stroke-width:1.4424"/><path d="m135.76 32.997h99.87l-103.67 307.17a15.926 15.926 0 0 1-15.089 10.833h-77.722a15.9 15.9 0 0 1-15.066-20.984l96.588-286.19a15.924 15.924 0 0 1 15.089-10.833z" fill="url(#a)" style="fill:url(#f);stroke-width:1.4424"/><path d="m280.89 239.03h-158.37a7.3318 7.3318 0 0 0-5.0023 12.693l101.77 94.979a15.998 15.998 0 0 0 10.915 4.3027h89.671z" fill="#0078d4" style="fill:#367bf0;stroke-width:1.4424"/><path d="m135.76 32.997a15.794 15.794 0 0 0-15.121 11.04l-96.437 285.72a15.881 15.881 0 0 0 14.991 21.244h79.728a17.041 17.041 0 0 0 13.081-11.127l19.227-56.672 68.695 64.069a16.252 16.252 0 0 0 10.225 3.7301h89.339l-39.185-111.97-114.22 0.026 69.914-206.06z" fill="url(#b)" style="fill:url(#e);stroke-width:1.4424"/><path d="m263.32 43.812a15.9 15.9 0 0 0-15.065-10.815h-111.3a15.901 15.901 0 0 1 15.066 10.815l96.594 286.21a15.901 15.901 0 0 1-15.066 20.986h111.3a15.901 15.901 0 0 0 15.065-20.986z" fill="url(#c)" style="fill:url(#c);stroke-width:1.4424"/></svg>
