<svg width="512" height="512" version="1.1" viewBox="0 0 384 384" xmlns="http://www.w3.org/2000/svg"><defs><filter id="a" x="-.048029" y="-.16561" width="1.0961" height="1.3312" color-interpolation-filters="sRGB"><feGaussianBlur stdDeviation="5.6313693"/></filter><filter id="b" x="-.032283" y="-.093541" width="1.0646" height="1.1871" color-interpolation-filters="sRGB"><feGaussianBlur stdDeviation="3.7410479"/></filter></defs><path d="m318.01 214.42c-4.3512 0.1767-9.0355 0.16143-10.41-0.034-1.374-0.19537-4.7468-0.76664-7.4949-1.2695-2.7482-0.50284-7.8674-1.8257-11.376-2.9397-3.8418-1.2197-7.4029-2.9871-8.9522-4.443-2.4268-2.2804-2.5728-2.7692-2.5728-8.6155 0-3.7037 0.40216-6.6025 0.99933-7.2032 0.54962-0.55289 1.5802-1.0035 2.2901-1.0014 0.70993 3e-3 4.2501 1.1618 7.8671 2.577s9.3648 3.1098 12.773 3.7658c3.4081 0.65594 9.3095 1.1926 13.114 1.1926 4.5717 0 8.7516-0.56983 12.326-1.6803 4.0573-1.2606 6.137-2.4918 8.3258-4.9289 1.8611-2.0722 3.1263-4.4909 3.4938-6.6793 0.33391-1.9881 0.1751-4.6532-0.3777-6.3381-0.52464-1.5991-2.198-4.0063-3.7186-5.3493s-5.3388-3.4173-8.485-4.6095-10.779-3.7869-16.963-5.766c-7.6397-2.4452-12.839-4.6726-16.225-6.9508-2.7402-1.8438-6.3926-5.2372-8.1163-7.5409s-3.7894-6.0733-4.5902-8.377c-0.95562-2.7488-1.4368-6.5408-1.3999-11.032 0.0487-5.9257 0.40995-7.5657 2.6949-12.235 1.5411-3.149 4.3298-6.9828 6.7044-9.2172 2.2361-2.1041 6.306-4.9632 9.0441-6.3536s8.1154-3.1674 11.95-3.9489c5.1866-1.0571 9.0154-1.2861 14.956-0.89452 4.3917 0.28952 10.836 1.2599 14.32 2.1563 3.4845 0.89645 7.7711 2.367 9.5258 3.2678 1.7546 0.90082 3.8627 2.3858 4.6845 3.2999 1.2232 1.3606 1.4498 2.8582 1.2491 8.2567-0.22807 6.1377-0.37642 6.6134-2.1409 6.8653-1.0427 0.14884-5.3523-0.98207-9.5768-2.5131-7.3194-2.6526-8.2298-2.7837-19.34-2.7837-10.454 0-12.016 0.19238-15.119 1.8614-1.9033 1.0238-4.2265 2.8409-5.1626 4.038-0.93612 1.1971-1.9482 3.8277-2.249 5.8457-0.40741 2.733-0.15262 4.4812 0.99873 6.8521 0.89468 1.8424 3.161 4.2689 5.3809 5.7614 2.297 1.5442 10.228 4.6848 19.774 7.83 10.716 3.5309 17.509 6.2736 20.731 8.3707 2.6358 1.7155 5.7675 4.4119 6.9591 5.992 1.1917 1.5801 2.7646 4.0409 3.4953 5.4684 0.73074 1.4275 1.7879 5.1029 2.3493 8.1676 0.8046 4.3925 0.80532 6.7478 2e-3 11.125-0.55945 3.0543-1.967 7.4387-3.1278 9.7431-1.1608 2.3043-3.8718 5.9614-6.0244 8.1267s-6.3373 5.1236-9.2994 6.574-7.6342 3.2236-10.382 3.9406c-2.7481 0.71695-8.5567 1.4481-12.908 1.6248zm-269.4-0.44653c-3.6642-0.0235-8.7141-0.59745-11.222-1.2754-2.508-0.67795-6.0896-2.1344-7.9592-3.2365-1.8695-1.1021-4.9884-3.7382-6.9309-5.8581-1.9425-2.1198-4.2785-5.6065-5.1911-7.7482-0.91263-2.1417-2.0802-6.6169-2.5945-9.945-0.6832-4.4206-0.68953-7.5422-0.02354-11.585 0.50143-3.044 1.8513-7.5991 2.9998-10.123 1.1485-2.5234 3.9885-6.4997 6.3111-8.8362 2.4266-2.4409 6.4649-5.3033 9.493-6.7288 2.8985-1.3644 7.8604-3.0328 11.026-3.7075 3.166-0.67472 8.567-1.231 12.002-1.2363 3.4352-4e-3 9.8058 0.53717 14.157 1.2054 4.3512 0.66828 9.1292 1.4671 10.618 1.7752l2.7065 0.56012v-7.0492c0-3.8771-0.57807-9.2959-1.2846-12.042-0.70657-2.746-2.3192-6.2856-3.5836-7.8658-1.2644-1.5801-3.6803-3.5941-5.3685-4.4754s-5.7025-2.0123-8.9206-2.5134c-4.2791-0.66627-7.757-0.65451-12.945 0.0438-3.9015 0.52513-11.75 2.5366-17.442 4.4699-8.5856 2.9165-10.566 3.3328-11.631 2.4442-0.93648-0.78182-1.2828-2.689-1.2828-7.0647 0-3.8672 0.42642-6.6062 1.2018-7.7198 0.661-0.94934 3.4745-2.752 6.2522-4.006 2.7777-1.2539 8.7012-3.2263 13.163-4.383 6.5597-1.7004 10.186-2.1112 18.939-2.1454 7.1949-0.02805 12.714 0.40952 16.455 1.3049 3.0957 0.74105 7.5318 2.3175 9.8579 3.5032s5.7891 3.739 7.6956 5.674 4.2909 5.214 5.2985 7.2867c1.0077 2.0727 2.4536 6.0267 3.2131 8.7867 1.1099 4.0331 1.4926 11.02 1.9499 35.594l0.56898 30.576 2.6719 5.7703c1.4696 3.1737 2.6719 6.8412 2.6719 8.15 0 2.0043-0.88517 2.9769-5.6123 6.1669-3.7174 2.5086-6.5041 3.7873-8.2536 3.7873-1.9496 0-3.229-0.70255-4.8852-2.6824-1.2341-1.4753-3.3487-4.6517-4.699-7.0586l-2.4552-4.3762-4.2837 4.11c-2.356 2.2604-6.7777 5.4283-9.8261 7.0396-3.0483 1.6113-7.9396 3.4981-10.87 4.1928-2.9299 0.69474-8.3251 1.2439-11.989 1.2204zm5.413-17.571c2.9771 0.0149 7.3856-0.50118 9.7967-1.1468 2.411-0.64564 6.0134-2.1346 8.0052-3.3089 1.9919-1.1742 4.8441-3.5356 6.3383-5.2474 1.4942-1.7119 3.2831-4.4593 3.9754-6.1053 0.69226-1.6461 1.4437-6.4375 1.6699-10.648l0.41128-7.6546-6.1461-1.123c-3.3804-0.61766-10.643-1.1312-16.139-1.1412-9.3186-0.0169-10.319 0.14289-14.824 2.368-3.3041 1.632-5.5307 3.45-7.0452 5.7521-1.6544 2.5148-2.2997 4.7137-2.5517 8.696-0.18557 2.9315-0.09194 6.6462 0.20804 8.2547 0.29998 1.6086 1.5127 4.081 2.695 5.4944s3.5095 3.2926 5.1716 4.1761c2.0585 1.0942 4.748 1.615 8.435 1.6335zm107.29 14.9c-4.736 0.10655-9.4006-0.1442-10.366-0.55711-0.96525-0.4129-2.3459-2.2364-3.0682-4.0522-0.72228-1.8158-8.0832-25.956-16.358-53.645-8.2745-27.689-15.044-51.039-15.044-51.89s0.4497-1.9996 0.99933-2.5525c0.64646-0.65031 3.9953-1.0053 9.4845-1.0053 6.8508 0 8.8266 0.28239 10.258 1.466 1.4301 1.1828 3.8202 9.5957 12.376 43.56 5.8317 23.152 10.795 42.094 11.03 42.094 0.23501 1.4e-4 2.0501-7.0678 4.0336-15.707 1.9835-8.6388 6.376-27.581 9.7611-42.094 4.9596-21.263 6.4987-26.672 7.9256-27.854 1.4238-1.1787 3.3953-1.466 10.061-1.466 4.5596 0 8.9756 0.36902 9.8133 0.82003 0.83775 0.45101 1.8805 1.8646 2.3172 3.1414 0.43666 1.2768 5.0433 20.698 10.237 43.159s9.6717 40.838 9.9512 40.838c0.27947 0 4.7684-16.869 9.9754-37.487s10.165-39.829 11.018-42.692c0.93441-3.1355 2.2775-5.7169 3.3779-6.4922 1.3343-0.94013 3.9767-1.2871 9.8025-1.2871 5.093 0 8.337 0.36335 8.9751 1.0053 0.54963 0.55289 0.99933 1.8144 0.99933 2.8034 0 0.98899-7.2683 25.458-16.152 54.375-8.8834 28.917-16.765 53.195-17.516 53.951-1.0575 1.0654-3.4088 1.4378-10.462 1.6569-8.6224 0.26784-9.1976 0.18027-11.006-1.6754-1.5719-1.6126-3.5982-9.1626-11.485-42.796-5.2672-22.461-9.7642-40.835-9.9932-40.832-0.22902 2e-3 -4.7128 18.344-9.964 40.758-5.7693 24.625-10.106 41.447-10.959 42.508-1.2468 1.5504-2.4165 1.7779-10.022 1.9489z" fill="#383c4a" stroke="#fff" stroke-linejoin="round" stroke-width="15"/><path transform="matrix(1.2446 0 0 1.252 -46.97 -19.612)" d="m293.24 189.64c-3.496 0.14113-7.2596 0.12894-8.3636-0.0272-1.104-0.15604-3.8138-0.61232-6.0217-1.014-2.208-0.40163-6.321-1.4582-9.1401-2.348-3.0867-0.97422-5.9478-2.3858-7.1927-3.5487-1.9498-1.8214-2.0671-2.2118-2.0671-6.8814 0-2.9582 0.32312-5.2735 0.80291-5.7533 0.44159-0.4416 1.2696-0.80153 1.84-0.79984 0.57039 2e-3 3.4148 0.92793 6.3208 2.0583 2.906 1.1304 7.5241 2.4839 10.262 3.0078 2.7383 0.52391 7.4797 0.95258 10.537 0.95258 3.6731 0 7.0314-0.45513 9.9031-1.3421 3.2598-1.0069 4.9308-1.9902 6.6894-3.9368 1.4953-1.6551 2.5118-3.587 2.8071-5.3349 0.26828-1.588 0.14069-3.7166-0.30346-5.0624-0.42152-1.2772-1.766-3.1999-2.9877-4.2726s-4.2895-2.7294-6.8173-3.6817c-2.5278-0.95226-8.6607-3.0247-13.629-4.6054-6.1381-1.953-10.315-3.7321-13.036-5.5517-2.2016-1.4727-5.1361-4.1831-6.521-6.0231s-3.0446-4.8509-3.688-6.6908c-0.76779-2.1955-1.1544-5.2242-1.1248-8.811 0.0391-4.733 0.32937-6.0428 2.1652-9.772 1.2382-2.5152 3.4787-5.5773 5.3866-7.3619 1.7966-1.6806 5.0666-3.9642 7.2665-5.0747s6.5203-2.5298 9.6009-3.1541c4.1672-0.84436 7.2434-1.0273 12.017-0.71447 3.5285 0.23124 8.7061 1.0063 11.506 1.7223 2.7996 0.71601 6.2437 1.8905 7.6535 2.61s3.1034 1.9056 3.7637 2.6357c0.98277 1.0867 1.1648 2.2829 1.0036 6.5948-0.18324 4.9023-0.30243 5.2822-1.7201 5.4834-0.83777 0.11888-4.3003-0.78439-7.6945-2.0072-5.8807-2.1187-6.6122-2.2234-15.538-2.2234-8.3991 0-9.6546 0.15366-12.148 1.4868-1.5292 0.81774-3.3957 2.2691-4.1479 3.2252-0.75212 0.95616-1.5652 3.0572-1.807 4.669-0.32733 2.1829-0.12262 3.5792 0.80243 5.4729 0.71883 1.4715 2.5397 3.4097 4.3233 4.6017 1.8455 1.2334 8.2178 3.7418 15.888 6.254 8.6101 2.8202 14.068 5.0108 16.657 6.6858 2.1178 1.3702 4.6339 3.5239 5.5913 4.7859 0.95744 1.2621 2.2212 3.2275 2.8083 4.3677 0.58711 1.1401 1.4365 4.0758 1.8875 6.5236 0.64645 3.5084 0.64703 5.3896 2e-3 8.8861-0.44949 2.4395-1.5804 5.9414-2.513 7.7819-0.93266 1.8405-3.1108 4.7614-4.8403 6.4909-1.7295 1.7294-5.0917 4.0923-7.4716 5.2508s-6.1336 2.5748-8.3416 3.1474c-2.208 0.57264-6.8749 1.1566-10.371 1.2978zm-216.45-0.35665c-2.944-0.0188-7.0014-0.47719-9.0164-1.0187-2.0151-0.54149-4.8927-1.7048-6.3948-2.585-1.5021-0.88028-4.008-2.9858-5.5686-4.6789-1.5607-1.6931-3.4375-4.478-4.1708-6.1886-0.73325-1.7106-1.6713-5.285-2.0846-7.9432-0.54892-3.5308-0.554-6.024-0.01891-9.2535 0.40287-2.4313 1.4875-6.0695 2.4102-8.085 0.92274-2.0155 3.2046-5.1914 5.0707-7.0576 1.9496-1.9496 5.1942-4.2358 7.6272-5.3744 2.3288-1.0898 6.3154-2.4223 8.8592-2.9612 2.5438-0.53891 6.8832-0.98325 9.6431-0.98748 2.76-3e-3 7.8785 0.42905 11.374 0.96281 3.496 0.53376 7.3349 1.1718 8.5309 1.4179l2.1745 0.44738v-5.6303c0-3.0967-0.46445-7.4248-1.0321-9.6181-0.56769-2.1933-1.8634-5.0204-2.8793-6.2825s-2.9569-2.8706-4.3133-3.5745c-1.3564-0.70391-4.5817-1.6073-7.1673-2.0075-3.438-0.53216-6.2323-0.52277-10.4 0.035-3.1347 0.41943-9.4408 2.026-14.014 3.5702-6.8981 2.3295-8.4896 2.662-9.3448 1.9523-0.75242-0.62445-1.0306-2.1478-1.0306-5.6427 0-3.0888 0.34261-5.2764 0.96562-6.1659 0.53108-0.75825 2.7916-2.1981 5.0234-3.1997 2.2318-1.0015 6.991-2.5769 10.576-3.5007 5.2703-1.3582 8.1837-1.6862 15.216-1.7136 5.7807-0.0224 10.215 0.32709 13.22 1.0423 2.4873 0.59189 6.0514 1.851 7.9203 2.798 1.8689 0.94703 4.6513 2.9864 6.183 4.5319 1.5318 1.5455 3.4475 4.1645 4.2571 5.82 0.80965 1.6555 1.9713 4.8136 2.5815 7.0181 0.89172 3.2213 1.1992 8.8019 1.5666 28.43l0.45715 24.422 2.1467 4.6089c1.1807 2.5349 2.1467 5.4642 2.1467 6.5095 0 1.6008-0.71119 2.3777-4.5092 4.9256-2.9868 2.0037-5.2257 3.025-6.6314 3.025-1.5664 0-2.5944-0.56114-3.925-2.1425-0.99153-1.1784-2.6905-3.7154-3.7754-5.6378l-1.9726-3.4953-3.4417 3.2827c-1.8929 1.8054-5.4456 4.3357-7.8947 5.6227-2.4492 1.287-6.3791 2.794-8.7331 3.3489s-6.6888 0.99354-9.6327 0.97476zm4.3491-14.034c2.392 0.0119 5.934-0.4003 7.8711-0.91597 1.9371-0.51568 4.8314-1.7049 6.4318-2.6428 1.6004-0.93786 3.892-2.8239 5.0925-4.1912s2.6378-3.5617 3.194-4.8764c0.5562-1.3148 1.16-5.1417 1.3417-8.5044l0.33044-6.1139-4.9381-0.897c-2.716-0.49334-8.5512-0.90353-12.967-0.91152-7.487-0.0135-8.291 0.11413-11.91 1.8914-2.6547 1.3035-4.4436 2.7556-5.6605 4.5943-1.3293 2.0086-1.8477 3.7649-2.0502 6.9456-0.1491 2.3415-0.07387 5.3084 0.16715 6.5932s1.2154 3.2596 2.1653 4.3885c0.94989 1.1289 2.8197 2.6299 4.1552 3.3356 1.6539 0.87393 3.8148 1.2899 6.7771 1.3047zm86.205 11.901c-3.8051 0.0851-7.5529-0.11518-8.3284-0.44498-0.77553-0.32979-1.8848-1.7862-2.4651-3.2365-0.58031-1.4503-6.4944-20.731-13.143-42.847-6.6481-22.115-12.087-40.766-12.087-41.446 0-0.67971 0.36131-1.5971 0.80291-2.0387 0.5194-0.51941 3.21-0.80291 7.6204-0.80291 5.5043 0 7.0918 0.22555 8.2415 1.1709 1.149 0.94476 3.0693 7.6643 9.9431 34.792 4.6855 18.492 8.6736 33.621 8.8624 33.622 0.18882 1.1e-4 1.6472-5.6452 3.2408-12.545 1.5936-6.9 5.1228-22.03 7.8426-33.622 3.9848-16.983 5.2214-21.304 6.3678-22.247 1.1439-0.94146 2.728-1.1709 8.0834-1.1709 3.6634 0 7.2114 0.29474 7.8845 0.65497s1.5109 1.4893 1.8617 2.5091c0.35083 1.0198 4.0521 16.532 8.2249 34.472 4.1729 17.94 7.7707 32.618 7.9953 32.618 0.22454 0 3.8312-13.474 8.0147-29.942 4.1836-16.468 8.1673-31.812 8.8528-34.099 0.75075-2.5044 1.8298-4.5662 2.714-5.1854 1.0721-0.7509 3.195-1.028 7.8758-1.028 4.092 0 6.6984 0.29021 7.2111 0.80291 0.4416 0.4416 0.80291 1.4492 0.80291 2.2392 0 0.78992-5.8397 20.333-12.977 43.43-7.1374 23.097-13.47 42.488-14.073 43.091-0.84965 0.85097-2.7388 1.1484-8.4057 1.3234-6.9276 0.21393-7.3898 0.14399-8.8432-1.3382-1.2629-1.288-2.8909-7.3183-9.228-34.182-4.232-17.94-7.845-32.616-8.029-32.613-0.18401 2e-3 -3.7865 14.652-8.0056 32.554-4.6353 19.669-8.1198 33.104-8.8051 33.952-1.0017 1.2383-1.9416 1.42-8.0525 1.5566z" filter="url(#b)" opacity=".3" stroke-width=".80107"/><path transform="matrix(1.2446 0 0 1.252 -46.97 -19.612)" d="m164.44 284.74c-29.641-3.5586-57.738-16.629-90.051-41.879-10.129-7.9141-21.277-17.543-22.219-19.188-1.4102-2.457-1.0781-5.3281 0.83203-7.2383 2.9648-2.9688 5.2734-2.3906 17.473 4.3711 37.965 21.043 62.137 30.766 88.625 35.641 10.082 1.8555 41.16 1.8711 53.035 0.0273 24.598-3.8203 42.574-8.7578 67.129-18.43 14.086-5.5508 15.785-5.7344 19.309-2.0547 2.3008 2.4023 2.6523 6.1758 0.83203 8.9531-1.5469 2.3594-10.395 8.5156-20.387 14.188-35.324 20.047-79.215 29.855-114.58 25.609zm141.66-24.492c-0.78124-0.78125-1.4219-2.207-1.4219-3.1641s1.7305-6.9648 3.8476-13.348c4.4727-13.496 5.3594-18.316 3.6719-20.004-1.8164-1.8164-7.2539-2.2266-16.418-1.2383-15.918 1.7148-18.062 1.75-19.609 0.35157-2.1406-1.9375-1.8633-6.0234 0.56641-8.3008 2.5977-2.4336 8.9414-5.9258 13.809-7.6016 9.7539-3.3555 29.836-3.8438 36.516-0.88672 4.8906 2.1641 5.7539 4.082 5.6289 12.523-0.20312 13.797-6.1484 28.844-15.062 38.117-4.2461 4.418-5.0781 4.9766-7.4414 4.9766-1.7109 0-3.168-0.50781-4.0859-1.4258z" filter="url(#a)" opacity=".3" stroke-width=".80108"/><path d="m157.69 333.49c-36.892-4.4554-71.863-20.82-112.08-52.433-12.607-9.9085-26.482-21.964-27.655-24.024-1.7552-3.0762-1.3418-6.6708 1.0356-9.0624 3.6901-3.717 6.5635-2.993 21.747 5.4727 47.253 26.346 77.338 38.519 110.31 44.623 12.548 2.3231 51.229 2.3426 66.009 0.0342 30.616-4.783 52.989-10.965 83.551-23.075 17.532-6.9496 19.647-7.1795 24.033-2.5725 2.8637 3.0077 3.3012 7.7322 1.0356 11.209-1.9253 2.954-12.938 10.662-25.374 17.764-43.965 25.099-98.594 37.379-142.61 32.063zm176.31-30.664c-0.97237-0.97813-1.7698-2.7632-1.7698-3.9615 0-1.1982 2.1538-8.72 4.789-16.712 5.5669-16.897 6.6705-22.932 4.5702-25.045-2.2608-2.2742-9.0284-2.7877-20.434-1.5504-19.812 2.1469-22.481 2.191-24.406 0.44015-2.6643-2.4258-2.3191-7.5414 0.70497-10.393 3.2332-3.0469 11.129-7.4192 17.187-9.5173 12.14-4.2011 37.135-4.8125 45.449-1.1102 6.087 2.7095 7.1615 5.1107 7.0059 15.679-0.25281 17.274-7.6525 36.113-18.747 47.723-5.2848 5.5314-6.3204 6.2308-9.2618 6.2308-2.1294 0-3.943-0.63578-5.0854-1.7851z" fill="#e32f2f"/><path d="m221.15 209.97c0.0441-0.0279 0.0291 0.0933-0.28442 0.2152 0.0871-0.0632 0.25494-0.19647 0.28442-0.2152z" color="#000000" color-rendering="auto" dominant-baseline="auto" image-rendering="auto" shape-rendering="auto" solid-color="#000000" style="font-feature-settings:normal;font-variant-alternates:normal;font-variant-caps:normal;font-variant-ligatures:normal;font-variant-numeric:normal;font-variant-position:normal;isolation:auto;mix-blend-mode:normal;shape-padding:0;text-decoration-color:#000000;text-decoration-line:none;text-decoration-style:solid;text-indent:0;text-orientation:mixed;text-transform:none;white-space:normal"/><path d="m279.78 205.73c-2.4268-2.2804-2.5728-2.7692-2.5728-8.6155 0-3.7037 0.40216-6.6025 0.99933-7.2032 0.54962-0.55289 1.5802-1.0035 2.2901-1.0014 14.539 4.4231 42.189 14.291 54.406 0.9262 8.4954-10.394 1.202-19.001-9.0875-22.976-14.101-5.824-31.395-7.3201-41.304-20.258-11.988-17.025-5.4176-37.951 12.453-47.215 15.421-6.607 35.236-7.1564 50.752 0.58068 1.7546 0.90082 3.8627 2.3858 4.6845 3.2999 1.2232 1.3606 1.4498 2.8582 1.2491 8.2567-0.22807 6.1377-0.37642 6.6134-2.1409 6.8653-14.268-2.8563-31.973-9.8044-44.036-3.4354-9.82 5.2776-9.2924 16.818-1.032 22.497 13.114 8.303 37.211 9.0362 47.464 22.193 12.335 16.587 5.714 40.029-12.605 49.205-2.9621 1.4504-7.6342 3.2236-10.382 3.9406-13.294 3.1132-41.181 1.9335-51.138-7.0599zm-265.06-19.824c-3.6363-26.21 16.676-42.032 41.808-42.217 3.4352-4e-3 9.8058 0.53717 14.157 1.2054 4.3512 0.66828 9.1292 1.4671 10.618 1.7752l2.7065 0.56012v-7.0492c0-3.8771-0.57807-9.2959-1.2846-12.042-6.3983-21.604-33.083-15.432-48.26-10.341-8.5856 2.9165-10.566 3.3328-11.631 2.4442-0.93648-0.78182-1.2828-2.689-1.2828-7.0647 0-3.8672 0.42642-6.6062 1.2018-7.7198 0.661-0.94934 3.4745-2.752 6.2522-4.006 19.864-7.9878 58.976-13.625 71.409 11.24 1.0077 2.0727 2.4536 6.0267 3.2131 8.7867 1.1099 4.0331 1.4926 11.02 1.9499 35.594l0.56898 30.576 2.6719 5.7703c1.4696 3.1737 2.6719 6.8412 2.6719 8.15 0 2.0043-0.88517 2.9769-5.6123 6.1669-3.7174 2.5086-6.5041 3.7873-8.2536 3.7873-1.9496 0-3.229-0.70255-4.8852-2.6824-1.2341-1.4753-3.3487-4.6517-4.699-7.0586l-2.4552-4.3762-4.2837 4.11c-2.356 2.2604-6.7777 5.4283-9.8261 7.0396-3.0483 1.6113-7.9396 3.4981-10.87 4.1928-21.607 4.5753-42.124-3.3041-45.885-26.842zm49.107 9.3454c13.35-3.7782 19.244-12.48 19.989-25.31l0.41128-7.6546-6.1461-1.123c-3.3804-0.61766-10.643-1.1312-16.139-1.1412-12.86-1e-3 -23.497 3.3026-24.421 16.816-0.18557 2.9315-0.09194 6.6462 0.20804 8.2547 0.29998 1.6086 1.5127 4.081 2.695 5.4944 6.1722 6.6904 14.938 6.8455 23.403 4.6632zm97.493 16.047c-4.736 0.10655-9.4006-0.1442-10.366-0.55711-0.96525-0.4129-2.3459-2.2364-3.0682-4.0522-0.72228-1.8158-8.0832-25.956-16.358-53.645-8.2745-27.689-15.044-51.039-15.044-51.89s0.4497-1.9996 0.99933-2.5525c0.64646-0.65031 3.9953-1.0053 9.4845-1.0053 6.8508 0 8.8266 0.28239 10.258 1.466 1.4301 1.1828 3.8202 9.5957 12.376 43.56 5.8317 23.152 10.795 42.094 11.03 42.094 0.23501 1.4e-4 2.0501-7.0678 4.0336-15.707 1.9835-8.6388 6.376-27.581 9.7611-42.094 4.9596-21.263 6.4987-26.672 7.9256-27.854 1.4238-1.1787 3.3953-1.466 10.061-1.466 4.5596 0 8.9756 0.36902 9.8133 0.82003 0.83775 0.45101 1.8805 1.8646 2.3172 3.1414 0.43666 1.2768 5.0433 20.698 10.237 43.159s9.6717 40.838 9.9512 40.838c0.27947 0 4.7684-16.869 9.9754-37.487s10.165-39.829 11.018-42.692c0.93441-3.1355 2.2775-5.7169 3.3779-6.4922 1.3343-0.94013 3.9767-1.2871 9.8025-1.2871 5.093 0 8.337 0.36335 8.9751 1.0053 0.54963 0.55289 0.99933 1.8144 0.99933 2.8034 0 0.98899-7.2683 25.458-16.152 54.375-8.8834 28.917-16.765 53.195-17.516 53.951-1.0575 1.0654-3.4088 1.4378-10.462 1.6569-8.6224 0.26784-9.1976 0.18027-11.006-1.6754-1.5719-1.6126-3.5982-9.1626-11.485-42.796-5.2672-22.461-9.7642-40.835-9.9932-40.832-0.22902 2e-3 -4.7128 18.344-9.964 40.758-5.7693 24.625-10.106 41.447-10.959 42.508-1.2468 1.5504-2.4165 1.7779-10.022 1.9489z" fill="#272a34" stroke-width=".99999"/></svg>
