<svg width="220" height="220" version="1.1" viewBox="0 0 165 165" xmlns="http://www.w3.org/2000/svg"><defs><filter id="d" x="-.03375" y="-.03375" width="1.0675" height="1.0675" style="color-interpolation-filters:sRGB"><feGaussianBlur stdDeviation="3.79692"/></filter><filter id="c" x="-.03375" y="-.03375" width="1.0675" height="1.0675" style="color-interpolation-filters:sRGB"><feGaussianBlur stdDeviation="3.79692"/></filter><filter id="b" x="-.013667" y="-.017571" width="1.0273" height="1.0351" style="color-interpolation-filters:sRGB"><feGaussianBlur stdDeviation="2.05"/></filter><filter id="a" x="-.013667" y="-.017571" width="1.0273" height="1.0351" style="color-interpolation-filters:sRGB"><feGaussianBlur stdDeviation="2.05"/></filter></defs><g transform="matrix(.46384 0 0 .46384 -6.5565 -6.5556)" stroke-width="1.4062"><path d="m267.94 360.75c14.024 0 25.312-11.288 25.312-25.312v-219.38c0-14.024-11.288-25.312-25.312-25.312h-219.38c-14.024 0-25.312 11.288-25.312 25.312v219.38c0 14.024 11.288 25.312 25.312 25.312zm-42.188-67.5h-135v-135h135z" opacity=".3" style="filter:url(#d)"/><path d="m335.44 293.25c14.024 0 25.312-11.288 25.312-25.312v-219.38c0-14.024-11.288-25.312-25.312-25.312h-219.38c-14.024 0-25.312 11.288-25.312 25.312v42.188h202.5v135h-135v-67.5h-67.5v109.69c0 14.024 11.288 25.312 25.312 25.312z" opacity=".3" style="filter:url(#c)"/><path d="m267.94 360.75c14.024 0 25.312-11.288 25.312-25.312v-219.37c0-14.024-11.288-25.312-25.312-25.312h-219.37c-14.024 0-25.312 11.288-25.312 25.312v219.37c0 14.024 11.288 25.312 25.312 25.312zm-42.187-67.5h-135v-135h135z" fill="#ffc72e" style="fill:#fd9733"/><path d="m335.44 293.25c14.024 0 25.312-11.288 25.312-25.312v-219.37c0-14.024-11.288-25.312-25.312-25.312h-219.37c-14.024 0-25.312 11.288-25.312 25.312v42.188h202.5v135h-135v-67.5h-67.5v109.69c0 14.024 11.288 25.312 25.312 25.312z" fill="#4aaee6" style="fill:#367bf0"/></g><g transform="matrix(.34788 0 0 .34788 -6.5565 -6.5556)" fill="#fff" stroke-width="1.875"><path d="m64.75 119.23c-18.699 0-33.75 15.051-33.75 33.75v10c0-18.699 15.051-33.75 33.75-33.75h292.5c18.699 0 33.75 15.051 33.75 33.75v-10c0-18.699-15.051-33.75-33.75-33.75zm56.25 270v10h180v-10z" opacity=".3" style="filter:url(#b);opacity:.2"/><path d="m154.75 29.233c-18.699 0-33.75 15.051-33.75 33.75v10c0-18.699 15.051-33.75 33.75-33.75h292.5c18.699 0 33.75 15.051 33.75 33.75v-10c0-18.699-15.051-33.75-33.75-33.75zm56.25 270v10h180v-10z" opacity=".3" style="filter:url(#a);opacity:.3"/></g><path d="m120.04 131.24v28.732h17.625v-17.616h-11.116v-4.6058h11.116v-6.5104h-12.064zm22.231 0v17.625h11.106v11.106h6.509v-28.732h-6.509v11.116h-4.5975v-11.116zm-15.722 17.625h4.6058v4.5975h-4.6058z" style="color-rendering:auto;color:#000000;dominant-baseline:auto;fill:#fff;font-feature-settings:normal;font-variant-alternates:normal;font-variant-caps:normal;font-variant-east-asian:normal;font-variant-ligatures:normal;font-variant-numeric:normal;font-variant-position:normal;font-variation-settings:normal;image-rendering:auto;inline-size:0;isolation:auto;mix-blend-mode:normal;shape-margin:0;shape-padding:0;shape-rendering:auto;solid-color:#000000;stop-color:#000000;stroke-width:.95251;text-decoration-color:#000000;text-decoration-line:none;text-decoration-style:solid;text-indent:0;text-orientation:mixed;text-transform:none;white-space:normal"/><path d="m114.85 125.96v39.037h27.929v-5.6983h-6e-3v-5.4137h5.4179v5.4137h-4e-3v5.6983h16.814v-5.5588h3e-3v-33.474h-44.456v-4e-3h-5.6983zm5.6983 5.7025h16.527v5.4081h-11.107v5.6983h11.107v16.53h-16.527v-27.637zm22.225 0h5.4179v11.107h5.6983v-11.107h5.4164v27.637h-5.4164v-11.112h-11.116v-16.524zm-16.804 16.524v5.6983h5.6984v-5.6983z" style="color-rendering:auto;color:#000000;dominant-baseline:auto;font-feature-settings:normal;font-variant-alternates:normal;font-variant-caps:normal;font-variant-east-asian:normal;font-variant-ligatures:normal;font-variant-numeric:normal;font-variant-position:normal;font-variation-settings:normal;image-rendering:auto;inline-size:0;isolation:auto;mix-blend-mode:normal;shape-margin:0;shape-padding:0;shape-rendering:auto;solid-color:#000000;stop-color:#000000;stroke-width:.71438;text-decoration-color:#000000;text-decoration-line:none;text-decoration-style:solid;text-indent:0;text-orientation:mixed;text-transform:none;white-space:normal"/></svg>
