<svg width="220" height="220" version="1.1" viewBox="0 0 165 165" xmlns="http://www.w3.org/2000/svg"><defs><filter id="b" x="-.036848" y="-.043991" width="1.0737" height="1.088" style="color-interpolation-filters:sRGB"><feGaussianBlur stdDeviation="4.52087"/></filter><filter id="a" x="-.026999" y="-.027001" width="1.054" height="1.054" style="color-interpolation-filters:sRGB"><feGaussianBlur stdDeviation="3.7601175"/></filter></defs><path transform="matrix(.46839 0 0 .46839 -7.4326 -7.4303)" d="m267.94 43.652c-3.0684-1.5342-6.2984-3.0526-9.6152-4.4803-3.0368-1.3251-6.0539-2.5438-9.142-3.6718-14.861-5.5609-29.737-8.9487-44.633-10.112-24.496-1.9759-49.042 1.9049-73.731 11.646-8.2782 3.2813-16.115 7.0241-23.51 11.26-14.577 8.365-27.39 18.584-38.295 30.601-12.143 13.319-22.09 28.913-29.843 46.786-7.1463 16.466-11.595 32.983-13.358 49.291-0.15776 1.5697-0.29974 3.0329-0.42594 4.5-1.3054 16.095-0.06705 32.032 3.6205 48.001 2.0114 8.6647 4.6775 17.207 8.0298 25.714 9.7769 24.689 23.734 45.319 41.841 61.801 11.102 10.112 23.719 18.655 37.873 25.698 0.0552 0.0158 0.0907 0.0354 0.12621 0.0513 1.0924 0.54821 2.1494 1.0609 3.0526 1.4671 1.7274 0.82821 3.2616 1.5342 4.7997 2.2046 0.3865 0.15776 0.67046 0.29973 0.97019 0.42199 3.3365 1.4474 6.6691 2.7726 9.8479 3.9557 0.82822 0.29974 1.5894 0.57975 2.3269 0.84399 6.7243 2.3663 13.484 4.291 20.086 5.7542 2.7883 0.59947 5.5767 1.1477 8.294 1.6052 0.33523 0.071 0.68624 0.10649 0.95442 0.1617 4.1096 0.65075 8.1875 1.1477 12.262 1.4829 24.638 1.9207 49.133-1.9601 73.715-11.666 8.5977-3.3878 16.698-7.2883 24.287-11.702 12.388-7.1818 23.454-15.709 33.212-25.588 1.4671-1.4829 2.8948-3.0013 4.3265-4.5552 2.9619-3.2656 5.8212-6.6888 8.5582-10.27 7.0753-9.2326 13.251-19.447 18.564-30.601 0.91893-1.9443 1.8181-3.9202 2.7016-5.9474 0.0867-0.21297 0.19326-0.44171 0.28002-0.65469 0.0552-0.10648 0.0908-0.21297 0.14198-0.31946 0.98992-2.3269 1.9246-4.6735 2.8593-7.0556 4.1135-10.818 7.1108-21.762 8.9487-32.845 0.24847-1.5539 0.49299-3.23 0.74146-4.9062 0.31551-2.5951 0.61524-5.2414 0.82822-7.9785 0.0355-0.50875 0.0867-1.1082 0.14197-1.7471 0.4575-6.8111 0.4575-13.658 0.0355-20.611-0.15776-2.2598-0.35495-4.5552-0.59947-6.9176-0.071-0.65469-0.16171-1.3606-0.24846-2.0666-0.70596-5.7857-1.7472-11.595-3.1591-17.542-1.9246-8.1678-4.5355-16.497-7.8365-24.847-9.7217-24.618-23.648-45.197-41.861-61.805-6.6178-6.0342-13.886-11.575-21.723-16.568-4.8904-3.1433-9.9899-6.0381-15.444-8.7909z" fill="#2861bf" stroke-width="1.0096" style="fill:#000;filter:url(#a);opacity:.3"/><path d="m118.07 13.016c-1.4372-0.7186-2.9501-1.4298-4.5036-2.0985-1.4224-0.62066-2.8356-1.1915-4.282-1.7198-6.9607-2.6047-13.928-4.1915-20.906-4.7363-11.474-0.92549-22.971 0.89223-34.535 5.4549-3.8774 1.5369-7.5481 3.29-11.012 5.2741-6.8277 3.9181-12.829 8.7045-17.937 14.333-5.6876 6.2385-10.347 13.543-13.978 21.914-3.3472 7.7125-5.431 15.449-6.2567 23.087-0.07389 0.73523-0.1404 1.4206-0.1995 2.1077-0.61144 7.5387-0.0314 15.003 1.6958 22.483 0.94212 4.0584 2.1909 8.0595 3.7611 12.044 4.5794 11.564 11.117 21.227 19.598 28.947 5.2001 4.7363 11.11 8.7378 17.739 12.037 0.02585 7e-3 0.04248 0.0166 0.05911 0.024 0.51167 0.25678 1.0068 0.49692 1.4298 0.68718 0.80909 0.38792 1.5277 0.7186 2.2481 1.0326 0.18103 0.0739 0.31404 0.14039 0.45443 0.19766 1.5628 0.67795 3.1237 1.2987 4.6126 1.8528 0.38793 0.14039 0.74446 0.27154 1.0899 0.39531 3.1496 1.1084 6.3158 2.0099 9.4081 2.6952 1.306 0.28078 2.6121 0.53757 3.8848 0.75185 0.15702 0.0333 0.32143 0.0499 0.44704 0.0757 1.9249 0.3048 3.8349 0.53757 5.7434 0.69457 11.54 0.89964 23.013-0.91809 34.527-5.4642 4.0271-1.5868 7.8212-3.4138 11.376-5.4811 5.8024-3.3639 10.986-7.3579 15.556-11.985 0.68718-0.69456 1.3559-1.4058 2.0265-2.1336 1.3873-1.5296 2.7266-3.133 4.0086-4.8104 3.314-4.3244 6.2066-9.1088 8.6952-14.333 0.43043-0.91069 0.85158-1.8362 1.2654-2.7857 0.0406-0.0998 0.0905-0.20689 0.13116-0.30665 0.0259-0.0499 0.0425-0.0997 0.0665-0.14963 0.46366-1.0899 0.90146-2.189 1.3393-3.3048 1.9267-5.067 3.3306-10.193 4.1915-15.384 0.11638-0.72783 0.23091-1.5129 0.34729-2.298 0.14778-1.2155 0.28818-2.455 0.38793-3.737 0.0166-0.23829 0.0406-0.51907 0.0665-0.81832 0.21429-3.1902 0.21429-6.3973 0.0166-9.654-0.0739-1.0585-0.16626-2.1336-0.28079-3.2401-0.0333-0.30665-0.0757-0.63729-0.11638-0.96797-0.33065-2.71-0.81836-5.431-1.4797-8.2165-0.90147-3.8257-2.1244-7.727-3.6705-11.638-4.5535-11.531-11.076-21.17-19.607-28.949-3.0997-2.8264-6.504-5.4216-10.175-7.7603-2.2906-1.4723-4.6792-2.8282-7.2338-4.1176z" fill="#2861bf" stroke-width=".47288" style="fill:#265ab1"/><path d="m145.94 81.578c0 2.0616-0.0831 4.088-0.24753 6.083-1.306 15.194-7.498 28.321-18.6 39.421-12.563 12.565-27.731 18.848-45.504 18.848s-32.941-6.2825-45.506-18.848c-11.083-11.083-17.283-24.194-18.589-39.421-0.17365-1.9341-0.25677-3.992-0.25677-6.083 0-17.773 6.2825-32.941 18.846-45.506 12.565-12.563 27.733-18.846 45.506-18.846s32.941 6.2825 45.504 18.846c12.565 12.565 18.848 27.733 18.848 45.506zm0 0" fill="none" stroke="#fff" stroke-linecap="round" stroke-linejoin="round" stroke-width="9.2165"/><path d="m81.585 21.836c-16.687 0-30.449 5.7008-42.247 17.496-11.795 11.797-17.497 25.561-17.497 42.247 0 0.51214 0.05163 0.97027 0.06234 1.4748h19.633a4.6088 4.6088 0 0 1 4.4203 3.305l5.4225 18.388 13.918-65.818a4.6088 4.6088 0 0 1 8.9992-0.08313l9.6685 41.904 8.0999-41.746a4.6088 4.6088 0 0 1 8.9378-0.45096l13.395 44.498h26.871c0.0104-0.49607 0.0596-0.97378 0.0596-1.4748 0-16.687-5.7012-30.45-17.499-42.247-11.795-11.795-25.559-17.496-42.245-17.496z" fill="#357af0" style="fill:#367bf0;stroke-width:.46839"/><path d="m145.69 87.662h-34.718l-14.383-47.776-12.234 63.054-14.549-63.054-17.69 83.654-10.579-35.876h-24.046c1.306 15.227 7.5055 28.337 18.589 39.421 12.565 12.565 27.733 18.848 45.506 18.848s32.941-6.2825 45.504-18.848c11.102-11.1 17.294-24.227 18.6-39.421z" fill="#4a87f0" stroke-width=".47288"/><path d="m97.557 59.086-8.6797 44.731a4.6088 4.6088 0 0 1-9.0137 0.15795l-9.8624-42.743-13.377 63.261a4.6088 4.6088 0 0 1-8.9284 0.34914l-9.6048-32.57h-15.373c2.0074 12.043 7.4591 22.392 16.62 31.553 11.797 11.797 25.56 17.499 42.247 17.499s30.45-5.7003 42.245-17.497a4.6088 4.6088 0 0 1 1e-3 -1e-3c9.1734-9.172 14.621-19.534 16.629-31.553h-29.489a4.6088 4.6088 0 0 1-4.4127-3.2808z" fill="#2861bf" style="fill:#265ab1;stroke-width:.46839"/><path transform="matrix(.46839 0 0 .46839 -7.4326 -7.4303)" d="m190.05 50.38c-40.263 0-75.645 14.655-104.11 43.117-28.462 28.466-43.117 63.848-43.117 104.11 0 4.7252 0.18634 9.397 0.58764 13.867a9.8397 9.8397 0 0 0 9.7986 8.9586h43.982l20.504 69.539a9.8397 9.8397 0 0 0 19.063-0.74737l28.56-135.06 21.056 91.258a9.8397 9.8397 0 0 0 19.246-0.33918l18.528-95.494 19.219 63.84a9.8397 9.8397 0 0 0 9.422 7.0024h74.122a9.8397 9.8397 0 0 0 9.8045-9.0296c0.37353-4.5324 0.56202-9.1299 0.56202-13.796 0-40.263-14.654-75.645-43.121-104.11-28.463-28.463-63.844-43.117-104.11-43.117zm0 19.676c35.626 0 65.011 12.172 90.193 37.355 25.186 25.186 37.359 54.571 37.359 90.197 0 1.0697-0.10597 2.0901-0.12818 3.1492h-57.37l-28.599-95.003a9.8397 9.8397 0 0 0-19.081 0.9623l-17.294 89.126-20.642-89.465a9.8397 9.8397 0 0 0-19.213 0.17748l-29.713 140.52-11.577-39.26a9.8397 9.8397 0 0 0-9.4378-7.0556h-41.916c-0.02282-1.0772-0.13212-2.0558-0.13212-3.1492 0-35.626 12.172-65.01 37.355-90.197 25.187-25.183 54.571-37.355 90.197-37.355z" opacity=".3" style="filter:url(#b);opacity:.2"/><path d="m81.585 12.62c-18.859 0-35.431 6.8638-48.764 20.195-13.331 13.333-20.196 29.906-20.196 48.764 0 2.1961 0.08727 4.367 0.27224 6.446a4.6088 4.6088 0 0 0 0.0014 0.0305c5.15e-4 6e-3 0.0015 0.0125 0.0021 0.0187 1.3965 16.232 8.1635 30.511 19.92 42.267 13.333 13.333 29.905 20.197 48.764 20.197 18.858 0 35.431-6.8642 48.764-20.197 11.781-11.779 18.54-26.079 19.933-42.286a4.6088 4.6088 0 0 0 4.7e-4 -0.0139 4.6088 4.6088 0 0 0 0-1e-3c0.17495-2.1229 0.26324-4.2763 0.26324-6.4619 0-18.859-6.8638-35.431-20.197-48.764-13.332-13.332-29.904-20.195-48.764-20.195zm0 9.216c16.687 0 30.45 5.7012 42.245 17.496 11.797 11.797 17.499 25.561 17.499 42.247 0 0.50104-0.0492 0.97874-0.0596 1.4748h-26.871l-13.395-44.498a4.6088 4.6088 0 0 0-0.59021-1.2448 4.6088 4.6088 0 0 0-0.2764-0.36853 4.6088 4.6088 0 0 0-0.31104-0.33944 4.6088 4.6088 0 0 0-0.71697-0.57706 4.6088 4.6088 0 0 0-1.2531-0.57218 4.6088 4.6088 0 0 0-1.3661-0.17595 4.6088 4.6088 0 0 0-0.45997 0.03325 4.6088 4.6088 0 0 0-0.89706 0.20228 4.6088 4.6088 0 0 0-0.83959 0.37685 4.6088 4.6088 0 0 0-0.38792 0.24938 4.6088 4.6088 0 0 0-0.36022 0.28679 4.6088 4.6088 0 0 0-0.32974 0.32143 4.6088 4.6088 0 0 0-0.95598 1.5621 4.6088 4.6088 0 0 0-0.13578 0.43988 4.6088 4.6088 0 0 0-0.0575 0.25561 4.6088 4.6088 0 0 0 0 0.0014l-8.0998 41.745-9.6685-41.904a4.6088 4.6088 0 0 0 0-7.03e-4 4.6088 4.6088 0 0 0-0.12608-0.44266 4.6088 4.6088 0 0 0-0.16972-0.4288 4.6088 4.6088 0 0 0-0.21197-0.40871 4.6088 4.6088 0 0 0-0.25146-0.38654 4.6088 4.6088 0 0 0-0.61167-0.68717 4.6088 4.6088 0 0 0-1.5669-0.94694 4.6088 4.6088 0 0 0-4.68e-4 0 4.6088 4.6088 0 0 0-0.89294-0.22167 4.6088 4.6088 0 0 0-0.91926-0.04018 4.6088 4.6088 0 0 0-0.90886 0.1434 4.6088 4.6088 0 0 0-1.1215 0.46482 4.6088 4.6088 0 0 0-1.1915 0.97397 4.6088 4.6088 0 0 0-0.28402 0.36229 4.6088 4.6088 0 0 0 0 7.02e-4 4.6088 4.6088 0 0 0-0.24661 0.38862 4.6088 4.6088 0 0 0 0 7.02e-4 4.6088 4.6088 0 0 0-0.06858 0.13716 4.6088 4.6088 0 0 0-0.30134 0.7045 4.6088 4.6088 0 0 0-0.08798 0.32489 4.6088 4.6088 0 0 0-0.03255 0.11984 4.6088 4.6088 0 0 0 0 7.03e-4 4.6088 4.6088 0 0 0-0.0055 0.02424 4.6088 4.6088 0 0 0 0 7.03e-4l-13.918 65.818-5.4225-18.388a4.6088 4.6088 0 0 0-0.34706-0.85275 4.6088 4.6088 0 0 0-0.23552-0.39555 4.6088 4.6088 0 0 0-0.27363-0.37061 4.6088 4.6088 0 0 0-0.30965-0.34082 4.6088 4.6088 0 0 0-1.1098-0.81602 4.6088 4.6088 0 0 0-2.1447-0.52923h-19.633c-0.01071-0.50455-0.06234-0.96268-0.06234-1.4748 0-16.687 5.7017-30.45 17.497-42.247 11.797-11.795 25.56-17.496 42.247-17.496zm15.972 37.255 9.0015 29.9a4.6088 4.6088 0 0 0 1.1783 1.9528 4.6088 4.6088 0 0 0 1.9687 1.1492 4.6088 4.6088 0 0 0 4.7e-4 0 4.6088 4.6088 0 0 0 0.4482 0.1046 4.6088 4.6088 0 0 0 4.7e-4 0 4.6088 4.6088 0 0 0 0.45581 0.0589 4.6088 4.6088 0 0 0 4.7e-4 0 4.6088 4.6088 0 0 0 0.36022 0.0139h29.489c-2.0077 12.019-7.4554 22.382-16.629 31.554a4.6088 4.6088 0 0 0-1e-3 0c-11.795 11.797-25.559 17.499-42.245 17.499-16.687 0-30.449-5.7012-42.247-17.499-9.1612-9.1612-14.613-19.512-16.62-31.554h15.373l9.6038 32.571a4.6088 4.6088 0 0 0 1.1672 1.959 4.6088 4.6088 0 0 0 0.7128 0.58118 4.6088 4.6088 0 0 0 4.68e-4 0 4.6088 4.6088 0 0 0 0.81397 0.4281 4.6088 4.6088 0 0 0 4.68e-4 0 4.6088 4.6088 0 0 0 0.43572 0.15101 4.6088 4.6088 0 0 0 0.44681 0.10669 4.6088 4.6088 0 0 0 0.0014 0 4.6088 4.6088 0 0 0 0.91579 0.0769 4.6088 4.6088 0 0 0 4.68e-4 0 4.6088 4.6088 0 0 0 0.53616-0.0436 4.6088 4.6088 0 0 0 0.82226-0.18496 4.6088 4.6088 0 0 0 0.26462-0.10114 4.6088 4.6088 0 0 0 0.57706-0.27086 4.6088 4.6088 0 0 0 0.75022-0.53199 4.6088 4.6088 0 0 0 0.33182-0.31935 4.6088 4.6088 0 0 0 1.1513-2.2015l13.377-63.256 9.8624 42.743a4.6088 4.6088 0 0 0 8.2582 1.6154 4.6088 4.6088 0 0 0 0.45236-0.8015 4.6088 4.6088 0 0 0 0.16279-0.42603 4.6088 4.6088 0 0 0 1e-3 -4e-3 4.6088 4.6088 0 0 0 0.11915-0.44058 4.6088 4.6088 0 0 0 4.7e-4 -4e-3 4.6088 4.6088 0 0 0 0.0201-0.0984z" fill="#fff" style="stroke-width:.46839"/><path d="m120.04 131.24v28.732h17.625v-17.616h-11.116v-4.6058h11.116v-6.5104h-12.064zm22.231 0v17.625h11.106v11.106h6.509v-28.732h-6.509v11.116h-4.5975v-11.116zm-15.722 17.625h4.6058v4.5975h-4.6058z" style="color-rendering:auto;color:#000000;dominant-baseline:auto;fill:#fff;font-feature-settings:normal;font-variant-alternates:normal;font-variant-caps:normal;font-variant-east-asian:normal;font-variant-ligatures:normal;font-variant-numeric:normal;font-variant-position:normal;font-variation-settings:normal;image-rendering:auto;inline-size:0;isolation:auto;mix-blend-mode:normal;shape-margin:0;shape-padding:0;shape-rendering:auto;solid-color:#000000;stop-color:#000000;stroke-width:.95251;text-decoration-color:#000000;text-decoration-line:none;text-decoration-style:solid;text-indent:0;text-orientation:mixed;text-transform:none;white-space:normal"/><path d="m114.85 125.96v39.037h27.929v-5.6983h-6e-3v-5.4137h5.4179v5.4137h-4e-3v5.6983h16.814v-5.5588h3e-3v-33.474h-44.456v-4e-3h-5.6983zm5.6983 5.7025h16.527v5.4081h-11.107v5.6983h11.107v16.53h-16.527v-27.637zm22.225 0h5.4179v11.107h5.6983v-11.107h5.4164v27.637h-5.4164v-11.112h-11.116v-16.524zm-16.804 16.524v5.6983h5.6984v-5.6983z" style="color-rendering:auto;color:#000000;dominant-baseline:auto;font-feature-settings:normal;font-variant-alternates:normal;font-variant-caps:normal;font-variant-east-asian:normal;font-variant-ligatures:normal;font-variant-numeric:normal;font-variant-position:normal;font-variation-settings:normal;image-rendering:auto;inline-size:0;isolation:auto;mix-blend-mode:normal;shape-margin:0;shape-padding:0;shape-rendering:auto;solid-color:#000000;stop-color:#000000;stroke-width:.71438;text-decoration-color:#000000;text-decoration-line:none;text-decoration-style:solid;text-indent:0;text-orientation:mixed;text-transform:none;white-space:normal"/></svg>
