<svg width="220" height="220" version="1.1" viewBox="0 0 165 165" xmlns="http://www.w3.org/2000/svg"><defs><filter id="d" x="-.03375" y="-.03375" width="1.0675" height="1.0675" style="color-interpolation-filters:sRGB"><feGaussianBlur stdDeviation="3.79692"/></filter><filter id="c" x="-.03375" y="-.03375" width="1.0675" height="1.0675" style="color-interpolation-filters:sRGB"><feGaussianBlur stdDeviation="3.79692"/></filter><filter id="b" x="-.013667" y="-.017571" width="1.0273" height="1.0351" style="color-interpolation-filters:sRGB"><feGaussianBlur stdDeviation="2.05"/></filter><filter id="a" x="-.013667" y="-.017571" width="1.0273" height="1.0351" style="color-interpolation-filters:sRGB"><feGaussianBlur stdDeviation="2.05"/></filter></defs><g transform="matrix(.46384 0 0 .46384 -6.5565 -6.5556)" stroke-width="1.4062"><path d="m267.94 360.75c14.024 0 25.312-11.288 25.312-25.312v-219.38c0-14.024-11.288-25.312-25.312-25.312h-219.38c-14.024 0-25.312 11.288-25.312 25.312v219.38c0 14.024 11.288 25.312 25.312 25.312zm-42.188-67.5h-135v-135h135z" opacity=".3" style="filter:url(#d)"/><path d="m335.44 293.25c14.024 0 25.312-11.288 25.312-25.312v-219.38c0-14.024-11.288-25.312-25.312-25.312h-219.38c-14.024 0-25.312 11.288-25.312 25.312v42.188h202.5v135h-135v-67.5h-67.5v109.69c0 14.024 11.288 25.312 25.312 25.312z" opacity=".3" style="filter:url(#c)"/><path d="m267.94 360.75c14.024 0 25.312-11.288 25.312-25.312v-219.37c0-14.024-11.288-25.312-25.312-25.312h-219.37c-14.024 0-25.312 11.288-25.312 25.312v219.37c0 14.024 11.288 25.312 25.312 25.312zm-42.187-67.5h-135v-135h135z" fill="#ffc72e" style="fill:#fd9733"/><path d="m335.44 293.25c14.024 0 25.312-11.288 25.312-25.312v-219.37c0-14.024-11.288-25.312-25.312-25.312h-219.37c-14.024 0-25.312 11.288-25.312 25.312v42.188h202.5v135h-135v-67.5h-67.5v109.69c0 14.024 11.288 25.312 25.312 25.312z" fill="#4aaee6" style="fill:#367bf0"/></g><g transform="matrix(.34788 0 0 .34788 -6.5565 -6.5556)" fill="#fff" stroke-width="1.875"><path d="m64.75 119.23c-18.699 0-33.75 15.051-33.75 33.75v10c0-18.699 15.051-33.75 33.75-33.75h292.5c18.699 0 33.75 15.051 33.75 33.75v-10c0-18.699-15.051-33.75-33.75-33.75zm56.25 270v10h180v-10z" opacity=".3" style="filter:url(#b);opacity:.2"/><path d="m154.75 29.233c-18.699 0-33.75 15.051-33.75 33.75v10c0-18.699 15.051-33.75 33.75-33.75h292.5c18.699 0 33.75 15.051 33.75 33.75v-10c0-18.699-15.051-33.75-33.75-33.75zm56.25 270v10h180v-10z" opacity=".3" style="filter:url(#a);opacity:.3"/></g><path d="m148.18 131.49v4e-3h-5.5633v5.7087h5.7086v-3e-3h5.4178v5.4291h-5.4178v-3e-3h-5.7086v5.5674h-3e-3v5.7086h3e-3v5.5618h11.126v9.5e-4h5.7086v-5.7086h-5.5632v-9.5e-4h-5.5662v-5.4178h5.4207v9.5e-4h5.7086v-16.845h-5.5632v-4e-3zm-27.834 4e-3v5.7087h11.132v5.4262h-11.132v5.7086h11.136v5.4178h-11.136v5.7086h16.845v-16.836h-4e-3v-5.4262h4e-3v-5.7086h-11.136z" style="color-rendering:auto;color:#000000;dominant-baseline:auto;fill:#fff;font-feature-settings:normal;font-variant-alternates:normal;font-variant-caps:normal;font-variant-east-asian:normal;font-variant-ligatures:normal;font-variant-numeric:normal;font-variant-position:normal;font-variation-settings:normal;image-rendering:auto;inline-size:0;isolation:auto;mix-blend-mode:normal;shape-margin:0;shape-padding:0;shape-rendering:auto;solid-color:#000000;stop-color:#000000;stroke-width:.95423;text-decoration-color:#000000;text-decoration-line:none;text-decoration-style:solid;text-indent:0;text-orientation:mixed;text-transform:none;white-space:normal"/><path d="m114.82 125.96v39.037h50.172v-5.5688h4e-3v-33.463h-44.538v-4e-3zm5.6373 5.6415h16.628v27.758h-16.628v-5.4948h11.139v-5.6373h-11.139v-5.4986h11.139v-5.6374h-11.139zm22.265 0h16.634v16.626h-11.135v5.6373h11.135v5.4948h-16.634v-16.631h11.136v-5.6373h-11.136z" style="color-rendering:auto;color:#000000;dominant-baseline:auto;font-feature-settings:normal;font-variant-alternates:normal;font-variant-caps:normal;font-variant-east-asian:normal;font-variant-ligatures:normal;font-variant-numeric:normal;font-variant-position:normal;font-variation-settings:normal;image-rendering:auto;inline-size:0;isolation:auto;mix-blend-mode:normal;shape-margin:0;shape-padding:0;shape-rendering:auto;solid-color:#000000;stop-color:#000000;stroke-width:.95423;text-decoration-color:#000000;text-decoration-line:none;text-decoration-style:solid;text-indent:0;text-orientation:mixed;text-transform:none;white-space:normal"/></svg>
