<svg width="220" height="220" version="1.1" viewBox="0 0 165 165" xmlns="http://www.w3.org/2000/svg"><defs><linearGradient id="d" x1="143" x2="143" y1="832" y2="879" gradientTransform="matrix(1.05,0,0,1.3787,-31.6,-1087.4)" gradientUnits="userSpaceOnUse"><stop style="stop-color:#fff" offset="0"/><stop style="stop-color:#fff;stop-opacity:0" offset="1"/></linearGradient><linearGradient id="a" x1="113.99" x2="113.99" y1="71.221" y2="122.43" gradientUnits="userSpaceOnUse"><stop offset="0"/><stop style="stop-opacity:0" offset="1"/></linearGradient><filter id="c" x="-.16388" y="-.11373" width="1.3278" height="1.2275" style="color-interpolation-filters:sRGB"><feGaussianBlur stdDeviation="4.5124068"/></filter><filter id="b" x="-.047893" y="-.048108" width="1.0958" height="1.0962" style="color-interpolation-filters:sRGB"><feGaussianBlur stdDeviation="2.229"/></filter></defs><g transform="matrix(1.7789 0 0 1.7789 202.74 -285.85)"><g transform="matrix(.75 0 0 .75 -156.2 123.63)"><path d="m118 55.9c-30.9 0-55.9 24.9-55.9 55.6s25 55.6 55.9 55.6c10.1 0 19.5-2.65 27.7-7.31l2.91 7.31h22.5l-8.81-21.8c7.22-9.36 11.5-21.1 11.5-33.8 0-30.7-25-55.6-55.8-55.6z" style="filter:url(#b);opacity:.3"/><path d="m118 55.9c-30.9 0-55.9 24.9-55.9 55.6s25 55.6 55.9 55.6c10.1 0 19.5-2.65 27.7-7.31l2.91 7.31h22.5l-8.81-21.8c7.22-9.36 11.5-21.1 11.5-33.8 0-30.7-25-55.6-55.8-55.6z" style="fill:#272a34"/><ellipse cx="117.5" cy="92.746" rx="37.17" ry="33.916" style="fill:url(#d);opacity:.26363;stroke-width:1.2032"/><path transform="translate(7.67,-778)" d="m116 849.43c-3.628-1.7e-4 -6.5694 2.9404-6.5703 6.5684 6e-3 2.043 0.96288 3.9668 2.5879 5.2051l-8.3438-1.2051-1.0449 5.4024 36.942 5.0117 0.45059-0.51367h3.8789l-0.52327-2.2841-2.7951-0.61627 0.31445-1.623-22.549-3.2578c2.5373-0.97057 4.2155-3.4026 4.2226-6.1191-9.1e-4 -3.628-2.9423-6.5685-6.5703-6.5684z"/><path d="m103.06 64.938c-0.057 2.19-3.87 0.283-4.03 2.78-4.22-1.88 0.329 2.87-0.0937 3.31h-0.0312l-0.312-0.0312c-0.204-0.0728-0.5-0.199-0.938-0.469-2.95 2.35-3.02 7.23-6.06 9.94-1.99 4.31-2.48 8.98-3.94 13.5-0.718 4.3-1.35 8.6-0.281 12.9 0.321 3.5-0.689 8.26 2.5 10.7 4.73 3.88 8.66 8.8 12.6 13.5 6.22 7.65 11.7 15.9 16.6 24.4 0.324-2.12 1.11 4.26 2.53 4.69-0.492-3.19-1.13-8.26-1.44-12.2-1.58-10.3-6.65-19.6-8.56-29.8-0.0587-0.43-0.128-0.872-0.188-1.31v-1.28h-0.156c-0.626-5.04-0.85-10.5 2.81-14.4 3.74-3.77 9.31-4.72 13.8-7.34 1-0.591 2.05-1.07 3.12-1.41 9e-3 -3e-3 0.0228 3e-3 0.0312 0 3.12-0.963 6.45-0.933 9.69-0.406 0.0479 8e-3 0.108 0.0233 0.156 0.0312 0.295 0.0493 0.614 0.099 0.906 0.156 2.37 0.211 7.14 1.14 8-0.5-3.27-2.79-7.99-2.59-12-3.69-0.631-0.115-1.41-0.24-2.19-0.312l-3.91-0.875-0.969-0.25v0.0312l-14-2.72c-0.222-0.202-0.464-0.409-0.688-0.562l13.6 1.69v-0.0625c0.48 0.107 0.956 0.194 1.44 0.25v0.0312l9.62 1.78c1.66 0.62 3.43 1.08 5.09 1.19 2.74 0.399 6.23 4.49 7.12 4.69-0.441-4.31-4.74-6.24-8.31-7.5-4.17-2.03-10.4-1.95-11.1-7.56-0.176-0.391-0.349-0.781-0.562-1.16l-1.62-2.16 0.0625-0.0312c-2.22-2.62-5.34-4.52-8.66-5.25-3.29-1.14-6.99-2.27-10.5-2.72-1.18 3.48-2.5-2.76-5.34-0.906-2.49 0.295-2.15 0.953-4-0.625zm17.9 10.2c0.902-0.0238 1.93 0.142 2.97 0.5 2.76 0.954 4.56 2.97 4.03 4.5s-3.21 1.99-5.97 1.03-4.56-2.93-4.03-4.47c0.331-0.959 1.5-1.52 3-1.56z" style="fill:url(#a);filter:url(#c)"/><path d="m103.06 64.938c-0.057 2.19-3.87 0.283-4.03 2.78-4.22-1.88 0.329 2.87-0.0937 3.31h-0.0312l-0.312-0.0312c-0.204-0.0728-0.5-0.199-0.938-0.469-2.95 2.35-3.02 7.23-6.06 9.94-1.99 4.31-2.48 8.98-3.94 13.5-0.718 4.3-1.35 8.6-0.281 12.9 0.321 3.5-0.689 8.26 2.5 10.7 4.73 3.88 8.66 8.8 12.6 13.5 6.22 7.65 11.7 15.9 16.6 24.4 0.324-2.12 1.11 4.26 2.53 4.69-0.492-3.19-1.13-8.26-1.44-12.2-1.58-10.3-6.65-19.6-8.56-29.8-0.0587-0.43-0.128-0.872-0.188-1.31v-1.28h-0.156c-0.626-5.04-0.85-10.5 2.81-14.4 3.74-3.77 9.31-4.72 13.8-7.34 1-0.591 2.05-1.07 3.12-1.41 9e-3 -3e-3 0.0228 3e-3 0.0312 0 3.12-0.963 6.45-0.933 9.69-0.406 0.0479 8e-3 0.108 0.0233 0.156 0.0312 0.295 0.0493 0.614 0.099 0.906 0.156 2.37 0.211 7.14 1.14 8-0.5-3.27-2.79-7.99-2.59-12-3.69-0.631-0.115-1.41-0.24-2.19-0.312l-3.91-0.875-0.969-0.25v0.0312l-14-2.72c-0.222-0.202-0.464-0.409-0.688-0.562l13.6 1.69v-0.0625c0.48 0.107 0.956 0.194 1.44 0.25v0.0312l9.62 1.78c1.66 0.62 3.43 1.08 5.09 1.19 2.74 0.399 6.23 4.49 7.12 4.69-0.441-4.31-4.74-6.24-8.31-7.5-4.17-2.03-10.4-1.95-11.1-7.56-0.176-0.391-0.349-0.781-0.562-1.16l-1.62-2.16 0.0625-0.0312c-2.22-2.62-5.34-4.52-8.66-5.25-3.29-1.14-6.99-2.27-10.5-2.72-1.18 3.48-2.5-2.76-5.34-0.906-2.49 0.295-2.15 0.953-4-0.625zm17.9 10.2c0.902-0.0238 1.93 0.142 2.97 0.5 2.76 0.954 4.56 2.97 4.03 4.5s-3.21 1.99-5.97 1.03-4.56-2.93-4.03-4.47c0.331-0.959 1.5-1.52 3-1.56z" style="fill:#fd8a19"/></g></g><path d="m120.04 131.24v28.732h17.625v-17.616h-11.116v-4.6058h11.116v-6.5104h-12.064zm22.231 0v17.625h11.106v11.106h6.509v-28.732h-6.509v11.116h-4.5975v-11.116zm-15.722 17.625h4.6058v4.5975h-4.6058z" style="color-rendering:auto;color:#000000;dominant-baseline:auto;fill:#fff;font-feature-settings:normal;font-variant-alternates:normal;font-variant-caps:normal;font-variant-east-asian:normal;font-variant-ligatures:normal;font-variant-numeric:normal;font-variant-position:normal;font-variation-settings:normal;image-rendering:auto;inline-size:0;isolation:auto;mix-blend-mode:normal;shape-margin:0;shape-padding:0;shape-rendering:auto;solid-color:#000000;stop-color:#000000;stroke-width:.95251;text-decoration-color:#000000;text-decoration-line:none;text-decoration-style:solid;text-indent:0;text-orientation:mixed;text-transform:none;white-space:normal"/><path d="m114.85 125.96v39.037h27.929v-5.6983h-6e-3v-5.4137h5.4179v5.4137h-4e-3v5.6983h16.814v-5.5588h3e-3v-33.474h-44.456v-4e-3h-5.6983zm5.6983 5.7025h16.527v5.4081h-11.107v5.6983h11.107v16.53h-16.527v-27.637zm22.225 0h5.4179v11.107h5.6983v-11.107h5.4164v27.637h-5.4164v-11.112h-11.116v-16.524zm-16.804 16.524v5.6983h5.6984v-5.6983z" style="color-rendering:auto;color:#000000;dominant-baseline:auto;font-feature-settings:normal;font-variant-alternates:normal;font-variant-caps:normal;font-variant-east-asian:normal;font-variant-ligatures:normal;font-variant-numeric:normal;font-variant-position:normal;font-variation-settings:normal;image-rendering:auto;inline-size:0;isolation:auto;mix-blend-mode:normal;shape-margin:0;shape-padding:0;shape-rendering:auto;solid-color:#000000;stop-color:#000000;stroke-width:.71438;text-decoration-color:#000000;text-decoration-line:none;text-decoration-style:solid;text-indent:0;text-orientation:mixed;text-transform:none;white-space:normal"/></svg>
