<svg width="220" height="220" version="1.1" viewBox="0 0 165 165" xmlns="http://www.w3.org/2000/svg"><defs><filter id="c" x="-.027" y="-.027" width="1.054" height="1.054" style="color-interpolation-filters:sRGB"><feGaussianBlur stdDeviation="1.7464731"/></filter></defs><radialGradient id="a" cx="106.31" cy="106.09" r="134.6" gradientTransform="matrix(.70719 0 0 .70719 4.7092 4.7092)" gradientUnits="userSpaceOnUse"><stop stop-color="#1b3f7c" style="stop-color:#2656a8" offset="0"/><stop stop-color="#2b62c0" stop-opacity="0" offset="1"/></radialGradient><linearGradient id="b" x1="61.578" x2="160.65" y1="52.014" y2="151.09" gradientTransform="matrix(.94674 0 0 .94674 4.3943 4.3943)" gradientUnits="userSpaceOnUse"><stop stop-color="#265ab1" style="stop-color:#4aaee6" offset="0"/><stop stop-color="#5cb6e8" style="stop-color:#316fd8" offset="1"/></linearGradient><path d="m82.5 4.8794c-18.086 0-34.727 6.1855-47.923 16.556-1.4662 1.1522-2.889 2.3551-4.2674 3.6079-0.69178 0.62875-1.3687 1.2753-2.0373 1.9283-0.21934 0.21423-0.44135 0.42598-0.65814 0.64278-0.43895 0.43895-0.8739 0.88235-1.3023 1.3316-1.7135 1.7972-3.3404 3.6763-4.8767 5.6313-4.05e-4 5.14e-4 -9.64e-4 8.82e-4 -0.0015 0.0015-0.76774 0.977-1.5133 1.9735-2.2343 2.9875-0.72145 1.0145-1.4188 2.0466-2.0918 3.0965-0.33653 0.52492-0.66659 1.0539-0.99074 1.5874-2.06e-4 3.38e-4 2.05e-4 0.0011 0 0.0015-0.97214 1.6-1.8888 3.2385-2.7458 4.9116-0.57144 1.1156-1.1167 2.2465-1.6349 3.3927-0.2591 0.57309-0.51187 1.1495-0.75736 1.7299-1.66e-4 3.93e-4 1.66e-4 9.64e-4 0 0.0015-0.24525 0.57987-0.48388 1.1636-0.71539 1.7507-0.46332 1.175-0.8983 2.3637-1.3051 3.566-0.20341 0.60114-0.40069 1.2061-0.58968 1.8138-0.18899 0.60769-0.3706 1.218-0.54496 1.8319-1.22e-4 4.31e-4 1.223e-4 9.64e-4 0 0.0015-0.34857 1.2275-0.66831 2.4683-0.95718 3.7197-0.43345 1.8778-0.79828 3.7809-1.0927 5.7081-0.1963 1.2848-0.36077 2.5799-0.49326 3.8846-4.68e-5 4.61e-4 4.68e-5 9.36e-4 0 0.0015-0.13243 1.3042-0.23339 2.6179-0.30043 3.9405-2.37e-5 4.65e-4 2.36e-5 9.31e-4 0 0.0014-0.033493 0.66105-0.058602 1.3245-0.075457 1.9898-1.17e-5 4.66e-4 1.19e-5 9.3e-4 0 0.0014-0.016842 0.66532-0.025152 1.333-0.025152 2.0024 0 4.019 0.30539 7.9671 0.8943 11.821 0.29445 1.9272 0.65927 3.8303 1.0927 5.7081 1.021e-4 4.4e-4 -1.023e-4 9.8e-4 0 9.8e-4 0.43338 1.8774 0.93529 3.7291 1.5021 5.5516 0.56696 1.8229 1.1998 3.6172 1.8948 5.3797 0.46332 1.175 0.95461 2.336 1.4728 3.4822s1.0634 2.277 1.6349 3.3928c1.91e-4 3.5e-4 -1.89e-4 9.6e-4 0 9.6e-4 1.1427 2.231 2.3906 4.3996 3.7365 6.499 0.67305 1.0498 1.3704 2.082 2.0918 3.0965 0.36071 0.50725 0.72724 1.011 1.0997 1.5092 0.74498 0.99615 1.5133 1.9732 2.3042 2.9316 1.1864 1.4376 2.4234 2.8315 3.7085 4.1794 0.42838 0.44933 0.86339 0.89408 1.3023 1.3331 3.5116 3.5116 7.3583 6.6883 11.488 9.4781 1.0324 0.69743 2.0813 1.3709 3.1482 2.0192 0.53346 0.32415 1.0722 0.64144 1.614 0.95295 1.0836 0.62307 2.1834 1.2213 3.2991 1.7928 1.1156 0.57146 2.2465 1.1166 3.3927 1.6349 1.1462 0.51819 2.3071 1.0095 3.4822 1.4728 1.175 0.46333 2.3637 0.8983 3.566 1.3051 1.8034 0.61024 3.637 1.1563 5.4971 1.6349 1.2401 0.31905 2.4928 0.60787 3.756 0.86633 1.2632 0.25852 2.5369 0.487 3.8217 0.6833 1.2848 0.19629 2.5799 0.36077 3.8846 0.49325 0.65236 0.0664 1.3076 0.12468 1.9647 0.17469 1.9711 0.14997 3.9627 0.22635 5.9722 0.22635s4.0011-0.0765 5.9722-0.22635c0.65704-0.0499 1.3123-0.10844 1.9647-0.17469 1.3047-0.13248 2.5998-0.29696 3.8846-0.49325s2.5585-0.42479 3.8217-0.6833c1.2632-0.25849 2.516-0.54731 3.7561-0.86633 1.8601-0.47855 3.6937-1.0246 5.4971-1.6349 1.2023-0.40684 2.391-0.84179 3.566-1.3051s2.336-0.95461 3.4822-1.4728c1.1462-0.51818 2.277-1.0634 3.3927-1.6349 1.1157-0.57145 2.2156-1.1698 3.2991-1.7928 0.54181-0.31153 1.0804-0.62883 1.614-0.95295 1.0669-0.64827 2.1158-1.3217 3.1482-2.0192 4.1294-2.7898 7.9757-5.9664 11.488-9.4781 0.43895-0.43897 0.87392-0.88371 1.3023-1.3331 1.2851-1.348 2.5221-2.7418 3.7085-4.1794 0.79093-0.9584 1.5592-1.9354 2.3042-2.9316 0.37248-0.49811 0.73897-1.0019 1.0997-1.5092 0.72145-1.0145 1.4188-2.0466 2.0918-3.0965 1.3461-2.0997 2.5936-4.269 3.7365-6.5004 0.57144-1.1157 1.1166-2.2465 1.6349-3.3928 0.51819-1.1462 1.0095-2.3072 1.4728-3.4822 0.69501-1.7626 1.3278-3.5568 1.8948-5.3797 0.56685-1.8225 1.0687-3.6743 1.5022-5.5516 1e-4 -4.6e-4 -1.2e-4 -9.5e-4 0-9.6e-4 0.43344-1.8778 0.79829-3.781 1.0927-5.7081 0.58891-3.8544 0.8943-7.8025 0.8943-11.821 0-0.67031-9e-3 -1.3375-0.0253-2.0038-0.0167-0.66531-0.042-1.3288-0.0756-1.9898-3e-5 -4.65e-4 1e-5 -9.3e-4 0-0.0014-0.0671-1.3226-0.16799-2.6362-0.30042-3.9405-4e-5 -4.62e-4 5e-5 -9.36e-4 0-0.0015-0.13249-1.3047-0.29696-2.5998-0.49328-3.8846-0.29443-1.9272-0.65926-3.8303-1.0927-5.7081-0.28887-1.2514-0.60861-2.4922-0.95718-3.7197-0.17437-0.61394-0.35597-1.2257-0.54498-1.8333-0.18898-0.60764-0.38624-1.2126-0.58967-1.8138-0.40684-1.2023-0.84177-2.391-1.3051-3.566-0.46332-1.175-0.95459-2.336-1.4728-3.4822-0.51819-1.1462-1.0634-2.277-1.6349-3.3927-1.1429-2.2314-2.3903-4.4007-3.7365-6.5004-0.67303-1.0498-1.3704-2.082-2.0918-3.0965-2.1643-3.0434-4.5422-5.9243-7.1124-8.6203-0.42838-0.44932-0.8634-0.89272-1.3023-1.3316-0.21679-0.2168-0.43881-0.42854-0.65814-0.64278-0.66864-0.65304-1.3455-1.2996-2.0373-1.9283-1.3784-1.2529-2.8012-2.4557-4.2674-3.608-13.196-10.37-29.837-16.556-47.923-16.556zm0 56.451c11.692 0 21.17 9.4774 21.17 21.17 0 11.692-9.4774 21.168-21.17 21.168-11.692 0-21.17-9.476-21.17-21.168s9.4774-21.17 21.17-21.17z" style="filter:url(#c);opacity:.3;stroke-width:.71544"/><path d="m82.5 54.917c-15.234 0-27.582 12.348-27.582 27.582 0 15.233 12.348 27.582 27.582 27.582s27.582-12.349 27.582-27.582c0-15.234-12.348-27.582-27.582-27.582zm0 12.945c8.0833 0 14.638 6.5543 14.638 14.638s-6.5543 14.638-14.638 14.638-14.638-6.5543-14.638-14.638 6.5543-14.638 14.638-14.638z" fill="#72a2f4" stroke="#5b739d" stroke-width="1.4303"/><path d="m82.5 4.8794c-18.086 0-34.727 6.1855-47.923 16.556-1.4662 1.1522-2.889 2.3551-4.2674 3.6079-0.69178 0.62875-1.3687 1.2753-2.0373 1.9283-0.21934 0.21423-0.44135 0.42598-0.65814 0.64278-0.43895 0.43895-0.8739 0.88235-1.3023 1.3316-1.7135 1.7972-3.3404 3.6763-4.8767 5.6313-4.05e-4 5.14e-4 -9.64e-4 8.82e-4 -0.0015 0.0015-0.76774 0.977-1.5133 1.9735-2.2343 2.9875-0.72145 1.0145-1.4188 2.0466-2.0918 3.0965-0.33653 0.52492-0.66659 1.0539-0.99074 1.5874-2.06e-4 3.38e-4 2.05e-4 0.0011 0 0.0015-0.97214 1.6-1.8888 3.2385-2.7458 4.9116-0.57144 1.1156-1.1167 2.2465-1.6349 3.3927-0.2591 0.57309-0.51187 1.1495-0.75736 1.7299-1.66e-4 3.93e-4 1.66e-4 9.64e-4 0 0.0015-0.24525 0.57987-0.48388 1.1636-0.71539 1.7507-0.46332 1.175-0.8983 2.3637-1.3051 3.566-0.20341 0.60114-0.40069 1.2061-0.58968 1.8138-0.18899 0.60769-0.3706 1.218-0.54496 1.8319-1.22e-4 4.31e-4 1.223e-4 9.64e-4 0 0.0015-0.34857 1.2275-0.66831 2.4683-0.95718 3.7197-0.43345 1.8778-0.79828 3.7809-1.0927 5.7081-0.1963 1.2848-0.36077 2.5799-0.49326 3.8846-4.68e-5 4.61e-4 4.68e-5 9.36e-4 0 0.0015-0.13243 1.3042-0.23339 2.6179-0.30043 3.9405-2.37e-5 4.65e-4 2.36e-5 9.31e-4 0 0.0014-0.033493 0.66105-0.058602 1.3245-0.075457 1.9898-1.17e-5 4.66e-4 1.19e-5 9.3e-4 0 0.0014-0.016842 0.66532-0.025152 1.333-0.025152 2.0024 0 4.019 0.30539 7.9671 0.8943 11.821 0.29445 1.9272 0.65927 3.8303 1.0927 5.7081 1.021e-4 4.4e-4 -1.023e-4 9.8e-4 0 9.8e-4 0.43338 1.8774 0.93529 3.7291 1.5021 5.5516 0.56696 1.8229 1.1998 3.6172 1.8948 5.3797 0.46332 1.175 0.95461 2.336 1.4728 3.4822s1.0634 2.277 1.6349 3.3928c1.91e-4 3.5e-4 -1.89e-4 9.6e-4 0 9.6e-4 1.1427 2.231 2.3906 4.3996 3.7365 6.499 0.67305 1.0498 1.3704 2.082 2.0918 3.0965 0.36071 0.50725 0.72724 1.011 1.0997 1.5092 0.74498 0.99615 1.5133 1.9732 2.3042 2.9316 1.1864 1.4376 2.4234 2.8315 3.7085 4.1794 0.42838 0.44933 0.86339 0.89408 1.3023 1.3331 3.5116 3.5116 7.3583 6.6883 11.488 9.4781 1.0324 0.69743 2.0813 1.3709 3.1482 2.0192 0.53346 0.32415 1.0722 0.64144 1.614 0.95295 1.0836 0.62307 2.1834 1.2213 3.2991 1.7928 1.1156 0.57146 2.2465 1.1166 3.3927 1.6349 1.1462 0.51819 2.3071 1.0095 3.4822 1.4728 1.175 0.46333 2.3637 0.8983 3.566 1.3051 1.8034 0.61024 3.637 1.1563 5.4971 1.6349 1.2401 0.31905 2.4928 0.60787 3.756 0.86633 1.2632 0.25852 2.5369 0.487 3.8217 0.6833 1.2848 0.19629 2.5799 0.36077 3.8846 0.49325 0.65236 0.0664 1.3076 0.12468 1.9647 0.17469 1.9711 0.14997 3.9627 0.22635 5.9722 0.22635s4.0011-0.0765 5.9722-0.22635c0.65704-0.0499 1.3123-0.10844 1.9647-0.17469 1.3047-0.13248 2.5998-0.29696 3.8846-0.49325s2.5585-0.42479 3.8217-0.6833c1.2632-0.25849 2.516-0.54731 3.7561-0.86633 1.8601-0.47855 3.6937-1.0246 5.4971-1.6349 1.2023-0.40684 2.391-0.84179 3.566-1.3051s2.336-0.95461 3.4822-1.4728c1.1462-0.51818 2.277-1.0634 3.3927-1.6349 1.1157-0.57145 2.2156-1.1698 3.2991-1.7928 0.54181-0.31153 1.0804-0.62883 1.614-0.95295 1.0669-0.64827 2.1158-1.3217 3.1482-2.0192 4.1294-2.7898 7.9757-5.9664 11.488-9.4781 0.43895-0.43897 0.87392-0.88371 1.3023-1.3331 1.2851-1.348 2.5221-2.7418 3.7085-4.1794 0.79093-0.9584 1.5592-1.9354 2.3042-2.9316 0.37248-0.49811 0.73897-1.0019 1.0997-1.5092 0.72145-1.0145 1.4188-2.0466 2.0918-3.0965 1.3461-2.0997 2.5936-4.269 3.7365-6.5004 0.57144-1.1157 1.1166-2.2465 1.6349-3.3928 0.51819-1.1462 1.0095-2.3072 1.4728-3.4822 0.69501-1.7626 1.3278-3.5568 1.8948-5.3797 0.56685-1.8225 1.0687-3.6743 1.5022-5.5516 1e-4 -4.6e-4 -1.2e-4 -9.5e-4 0-9.6e-4 0.43344-1.8778 0.79829-3.781 1.0927-5.7081 0.58891-3.8544 0.8943-7.8025 0.8943-11.821 0-0.67031-9e-3 -1.3375-0.0253-2.0038-0.0167-0.66531-0.042-1.3288-0.0756-1.9898-3e-5 -4.65e-4 1e-5 -9.3e-4 0-0.0014-0.0671-1.3226-0.16799-2.6362-0.30042-3.9405-4e-5 -4.62e-4 5e-5 -9.36e-4 0-0.0015-0.13249-1.3047-0.29696-2.5998-0.49328-3.8846-0.29443-1.9272-0.65926-3.8303-1.0927-5.7081-0.28887-1.2514-0.60861-2.4922-0.95718-3.7197-0.17437-0.61394-0.35597-1.2257-0.54498-1.8333-0.18898-0.60764-0.38624-1.2126-0.58967-1.8138-0.40684-1.2023-0.84177-2.391-1.3051-3.566-0.46332-1.175-0.95459-2.336-1.4728-3.4822-0.51819-1.1462-1.0634-2.277-1.6349-3.3927-1.1429-2.2314-2.3903-4.4007-3.7365-6.5004-0.67303-1.0498-1.3704-2.082-2.0918-3.0965-2.1643-3.0434-4.5422-5.9243-7.1124-8.6203-0.42838-0.44932-0.8634-0.89272-1.3023-1.3316-0.21679-0.2168-0.43881-0.42854-0.65814-0.64278-0.66864-0.65304-1.3455-1.2996-2.0373-1.9283-1.3784-1.2529-2.8012-2.4557-4.2674-3.608-13.196-10.37-29.837-16.556-47.923-16.556zm0 56.451c11.692 0 21.17 9.4774 21.17 21.17 0 11.692-9.4774 21.168-21.17 21.168-11.692 0-21.17-9.476-21.17-21.168s9.4774-21.17 21.17-21.17z" style="fill:url(#b);stroke-width:.71544"/><path transform="scale(.75)" d="m99.844 10.52c-2.3952 0-2.6814 2.9341-0.3457 3.5449 1.4404 0.37668 4.2164 4.4233 3.8789 5.6543-0.0849 0.30976 0.13311 0.5625 0.48438 0.5625 0.88509 0 5.4665 7.4948 5.0215 8.2148-0.42532 0.68822-5.6618 1.2592-21.055 2.2949-6.1952 0.41684-12.616 0.94134-14.268 1.166-2.9567 0.40211-2.9802 0.38841-1.4395-0.93945 0.86087-0.74194 2.6925-2.194 4.0684-3.2266 4.5362-3.4043 5.6426-4.4552 4.7188-4.4805-0.5019-0.01374-2.0585 0.9813-3.459 2.2109-1.4005 1.2296-2.8182 1.9898-3.1504 1.6895-0.33216-0.30036-0.32485-0.06692 0.01563 0.51953 0.46515 0.8012 0.29832 0.94382-0.66992 0.57226-0.70872-0.27196-1.0981-0.18725-0.86523 0.18945 0.23281 0.3767-0.62609 1.4328-1.9082 2.3457-2.0641 1.4698-3.3772 1.6754-11.461 1.8008-9.0126 0.13976-9.1332 0.16529-9.5039 1.9648-0.20651 1.0026-1.4741 3.4049-2.8164 5.3379-1.3423 1.933-2.4414 3.8951-2.4414 4.3613 0 0.46623-0.31193 0.65566-0.69336 0.41992-0.38144-0.23574-1.4678 0.67434-2.4141 2.0215-0.9463 1.3472-2.6928 3.4353-3.8809 4.6406-1.6582 1.6822-2.0647 2.6648-1.752 4.2285 0.31684 1.5842-0.44981 3.3499-3.4512 7.9453-2.1227 3.25-5.3169 8.2588-7.0977 11.131-1.7808 2.8721-3.2589 4.8999-3.2852 4.5059-0.02618-0.39402-0.35304 0.04338-0.72656 0.97266-0.37352 0.92928-1.1973 1.6895-1.8301 1.6895-1.2561 0-1.5971 2.6403-0.43359 3.3594 0.9784 0.60469 0.11183 2.6484-1.123 2.6484-1.6687 0-2.1206 2.9581-0.69336 4.5352 0.95116 1.051 1.6357 1.2381 2.6133 0.71484 1.0478-0.56074 1.4233-0.35955 1.8008 0.96289 0.49234 1.725 5.3171 24.591 6.4531 30.584 1.0528 5.554 2.8258 11.748 2.9023 10.137 0.03922-0.82603-0.39888-3.5037-0.97461-5.9512s-0.92424-6.3345-0.77539-8.6367c0.22256-3.4423 0.16017-3.718-0.3457-1.5566-0.33833 1.4455-0.66318 2.29-0.72266 1.877-0.05944-0.41301-1.0802-5.3972-2.2676-11.076-1.1874-5.6789-2.0622-10.326-1.9453-10.326 0.11692 0 1.2357 1.6065 2.4863 3.5684 1.5943 2.501 2.1575 4.1567 1.8848 5.543-0.21394 1.0874-0.02026 2.2051 0.43164 2.4844 0.45191 0.27929 0.87367 1.5864 0.93555 2.9043 0.10663 2.2708 0.12737 2.289 0.42383 0.33203 0.17206-1.1358 0.77045-2.0645 1.3281-2.0645 0.55766 0 1.131-0.35606 1.2754-0.78906 0.15769-0.47305 1.9998-0.018 4.6152 1.1387 4.8705 2.154 4.8268 1.9095 1.5879 8.9004-1.9734 4.2594-1.4504 4.7119-4.8711-4.209-0.91632-2.3897-1.8005-4.2112-1.9648-4.0469-0.16434 0.16435 0.7257 2.9566 1.9766 6.2051 1.2509 3.2484 2.2764 6.2533 2.2793 6.6758 0.01533 2.0505-4.2577 10.86-5.4141 11.162-1.9854 0.5192-3.1537-1.5276-3.0781-5.3926 0.04296-2.1954-0.06267-2.6609-0.28516-1.248-0.1951 1.239-0.65978 2.5666-1.0312 2.9492-0.85969 0.88544-3.8616-1.7268-3.2051-2.7891 0.2773-0.44866 0.10193-0.53781-0.42383-0.21289-1.5702 0.97042-7.414-4.1284-7.9531-6.9394l-0.47656-2.4883-1.5312 1.9473c-1.6367 2.0807-1.4153 4.0944 0.4668 4.248 0.63247 0.0516 1.4832 0.13591 1.8906 0.1875 0.40745 0.0516 3.1092 1.9021 6.0059 4.1113 4.2111 3.2116 5.2643 4.4159 5.25 6.0078-0.02964 3.2939-1.2341 7.4802-2.5234 8.7695-1.4399 1.4399-1.6013 4.0367-0.27539 4.4434 2.0536 0.62984 6.8953 1.0922 6.1191 0.58399-2.1075-1.3799-3.4778-6.1541-2.959-10.307 0.51435-4.1167 1.538-5.3069 2.4219-2.8145 0.25632 0.72279 0.8968 1.8219 1.4219 2.4414 0.82989 0.97919 3.3223 10.048 3.3223 12.088 0 0.44011-0.67177 0.39511-1.6895-0.11328-1.3364-0.6676-1.2549-0.47701 0.39453 0.91211 1.1529 0.97097 2.2322 2.7624 2.4141 4.0078 0.18092 1.239 1.0404 4.9292 1.9082 8.1992 0.86784 3.27 1.3754 6.8182 1.1289 7.8848-0.33739 1.4601-0.26042 1.6606 0.3125 0.8125 0.55426-0.8205 0.71336-0.106 0.58594 2.6289l-0.17383 3.7539 3.1895-0.11133c1.7539-0.0615 3.0019 0.18817 2.7754 0.55469-0.22651 0.36646 0.05604 0.48664 0.62695 0.26758 0.5709-0.2191 3.3765 0.12292 6.2344 0.75976 2.8579 0.63684 6.0152 1.2876 7.0176 1.4453 1.0024 0.15774 2.316 0.91792 2.918 1.6895 0.96097 1.2317 1.0383 1.2418 0.64062 0.0879-0.53698-1.558-0.61389-1.5489 3.8613-0.44336 1.9382 0.4788 3.7947 1.3232 4.125 1.877 0.33028 0.55374 1.2227 1.0078 1.9824 1.0078 0.75975 0 2.174 0.64183 3.1445 1.4277l1.7656 1.4297-3.6816 0.55273c-2.3808 0.35703-4.1659 0.24991-5.0508-0.30273-0.75269-0.47007-1.8393-0.85547-2.4141-0.85547-0.57476 0-1.5076-0.69208-2.0742-1.5391-0.96955-1.4492-1.0387-1.3756-1.1738 1.2578-0.07896 1.5391 0.1866 3.4145 0.58984 4.168 0.88825 1.6597 3.1549 1.7849 4.4336 0.24414 1.0985-1.3236 2.3354-1.4918 2.0664-0.28125-0.10325 0.46464 0.31798 0.99727 0.9375 1.1836 0.6681 0.20092 0.82039 0.0848 0.375-0.2832-1.6462-1.36-1.0752-2.4993 1.3145-2.625 1.3423-0.0706 3.1173-0.1864 3.9434-0.25586 0.82602-0.0695 2.3464 0.6476 3.3789 1.5918 7.5024 6.8605 12.181 11.635 11.037 11.264-0.8331-0.27046-1.1667-0.13963-0.86914 0.34179 0.2658 0.43012 0.87098 0.65238 1.3457 0.49414 1.0057-0.33524 2.2534 0.78197 2.9609 2.6504 0.60848 1.6069 2.6838 1.728 3.2734 0.19141 0.23682-0.61715 0.73379-0.93555 1.1035-0.70703 0.36973 0.22851 0.67188 0.0379 0.67188-0.42383 0-0.46177 0.39036-0.59744 0.86718-0.30273 0.47826 0.29558 0.66633 0.20848 0.41797-0.19336-0.24759-0.40063 3.2864-2.4942 7.8535-4.6524 7.8904-3.7285 8.3926-3.8659 10.096-2.75 0.98581 0.64594 1.793 1.7759 1.793 2.5098 0 3.097 3.8533 4.254 5.2812 1.5859 1.1478-2.1446-0.28657-3.707-3.4043-3.707-1.3444 0-2.8607-0.50061-3.3691-1.1133-0.78329-0.94381-0.0234-1.5501 4.9766-3.9648 6.6947-3.2332 9.5945-3.4634 17.541-1.3984 2.6846 0.69762 6.3739 1.6556 8.1992 2.1289 2.7444 0.71161 3.0709 0.9699 1.8789 1.4902-1.0696 0.4669-0.90929 0.52435 0.62304 0.22657 1.2339-0.23979 2.0645-0.0724 2.0645 0.41601 0 0.44966 0.76018 0.71013 1.6894 0.57813 1.109-0.15752 1.6894-0.75642 1.6894-1.7422 0-1.2284-0.43749-1.4669-2.4082-1.3144-1.3251 0.10248-4.3677-0.35244-6.7598-1.0098-2.392-0.65732-6.5298-1.6788-9.1973-2.2715-2.6674-0.59266-5.0863-1.4606-5.375-1.9277-0.91821-1.4857 0.18062-2.8658 2.2324-2.8027l1.9844 0.0625-2.2539 1.0312c-3.4368 1.5737-1.0234 1.2946 2.7207-0.31446 4.5937-1.9742 17.359-2.8095 18.676-1.2226 1.9125 2.3044 4.5917 1.1091 5.459-2.4336 0.3424-1.3987 0.10331-1.6895-1.3926-1.6895-1.3475 0-1.8295-0.42949-1.8945-1.6894-0.0742-1.4387-0.14199-1.4779-0.45313-0.26172-0.79542 3.109-2.6773 4.0946-8.8594 4.6348-3.2976 0.28813-5.8256 0.35349-5.6191 0.14648 0.35468-0.35559 20.12-9.2529 22.527-10.141 0.61951-0.22847-0.37941 1.1538-2.2207 3.0723-1.8413 1.9185-3.0204 3.4883-2.6211 3.4883 0.39928 0 2.3756-1.8722 4.3926-4.1602 2.2521-2.5547 5.002-4.738 7.127-5.6582 1.9031-0.8241 4.1368-1.8924 4.9629-2.375 0.82602-0.48257 3.0223-1.0634 4.8809-1.2891 2.7418-0.33301 3.3789-0.69354 3.3789-1.9121 0-0.82603 0.78854-2.6853 1.752-4.1309l1.752-2.627-2.0254 2.252c-2.2443 2.4969-2.2416 2.4777 1.1934-6.0078 3.1234-7.716 4.7326-9.9802 7.2949-10.275 1.689-0.1946 2.0892-0.65378 2.2793-2.6133 0.17984-1.854-0.10936-2.4847-1.3145-2.8672-1.7104-0.54285-1.8979-1.2693-0.82812-3.2148 0.39437-0.71718 1.807-4.2669 3.1387-7.8887 1.6487-4.484 2.6327-6.2818 3.0859-5.6328 0.42833 0.61332 0.49758 0.35372 0.19336-0.72851-0.28319-1.0073-2e-3 -2.3531 0.70117-3.3574 0.64597-0.92225 1.1758-2.2644 1.1758-2.9824s0.71858-1.9759 1.5977-2.7949c1.7579-1.6377 1.4549-3.8262-0.5293-3.8262-0.76595 0-1.0724-0.41052-0.8125-1.0879 0.24881-0.64839 0.0541-0.95349-0.48242-0.75586-0.49522 0.18242-1.8226-1.2717-2.9492-3.2305-1.1266-1.9588-3.5369-5.9273-5.3574-8.8184-1.8205-2.8911-3.2378-5.3394-3.1484-5.4414 0.54519-0.62365 7.104 2.379 7.4746 3.4219 2.0582 5.7925 2.6388 7.0992 2.2754 5.1211-0.29639-1.6133-9e-3 -2.4278 1.1426-3.2344 2.5877-1.8125 1.5288-5.498-1.5801-5.498-0.91072 0-1.4706-0.81102-1.8106-2.623-0.27052-1.4419-0.7609-2.4553-1.0898-2.252s-0.23444 1.5513 0.20898 2.9961c0.44314 1.4448 0.6372 2.7964 0.43164 3.002-0.20553 0.20555-2.1265-0.22273-4.2695-0.95117-3.3531-1.1398-4.3186-1.9501-6.9258-5.8164-4.2535-6.3078-5.9447-9.7318-6.0059-12.16-0.0445-1.765-0.14351-1.8647-0.62695-0.62891-0.482 1.2321-1.0738 0.62366-3.7012-3.7988-1.7204-2.8959-3.1289-5.4994-3.1289-5.7852s1.1618-0.51953 2.582-0.51953c2.5125 0 2.595 0.09776 3.0625 3.5684 0.70748 5.2516 1.1863 5.7373 0.73828 0.75l-0.38867-4.3184h5.3926c3.9056 0 5.7594 0.33393 6.7285 1.2109 1.2477 1.1291 1.3717 1.0761 1.8438-0.80469 0.67164-2.676-0.66963-4.0937-2.6836-2.8359-0.80272 0.50131-3.6368 1.1044-6.2988 1.3398-5.5458 0.49043-5.281 0.79856-6.1289-7.0938l-0.51563-4.8066 2.1524 1.5508c1.1836 0.85327 3.6727 3.0934 5.5312 4.9785 1.8586 1.8852 3.7076 3.4351 4.1094 3.4434 0.4018 0.0083-0.44263-1.0405-1.877-2.3301-8.7215-7.8414-8.9623-8.1298-8.5293-10.295 0.54493-2.7247-1.4076-4.5882-3.4629-3.3047-1.1423 0.71339-1.8059 0.48319-3.8828-1.3477-1.3773-1.2141-2.8409-2.1997-3.2539-2.1895-0.41301 0.01019 0.41966 1.018 1.8496 2.2402 2.8701 2.4532 2.4507 2.5827-4.0117 1.2383-4.8516-1.0093-4.1546-0.17673-10.82-12.908-2.2062-4.2138-2.189-4.1627-2.3184-6.7812-0.10983-2.2244-2.1929-3.322-3.3965-1.7891-0.96133 1.2244-1.1121 1.2698-9.041 2.6816-6.8789 1.2248-7.9316 1.0116-7.9316-1.5977 0-1.375 0.40055-1.9004 1.4453-1.9004 1.3518 0 1.373-0.1438 0.32813-2.2383-0.61402-1.2308-1.4376-2.4344-1.8281-2.6758-1.1203-0.69236-3.6992 0.39958-3.6992 1.5664 0 0.77397-0.60435 0.93733-2.2539 0.60742-1.4351-0.28702-2.252-0.14364-2.252 0.39453 0 0.46464 0.92868 0.85226 2.0645 0.86133 2.6556 0.02147 5.2597 2.1022 5.5742 4.4551 0.24166 1.808 0.0506 1.877-9.8906 3.5781-13.963 2.3894-13.988 2.3828-19.098-5.7148-2.3473-3.7201-4.1816-7.4979-4.1816-8.6113 0-1.6154-0.34823-1.9844-1.877-1.9844zm4.1289 2.3496c-0.34027 0-0.67937 0.05209-0.9375 0.15625-0.51627 0.20832-0.095 0.37891 0.9375 0.37891 1.0325 0 1.4557-0.17059 0.93945-0.37891-0.25813-0.10416-0.59919-0.15625-0.93945-0.15625zm-7.4023 0.97656c0.0047-0.01569-0.02998-0.01309-0.10742 0.0098-2.0145 0.59452-13.11 5.0964-14.268 5.7891-0.61952 0.37068-2.5893 1.3705-4.3789 2.2207-1.7896 0.85025-3.0999 1.7009-2.9102 1.8906 0.1897 0.18969 1.5704-0.23878 3.0684-0.95312 2.625-1.2518 2.7628-1.2474 3.8105 0.1543 0.68747 0.91969 0.97024 2.5595 0.76758 4.459l-0.32031 3.0039 0.75586-3.0879c1.0973-4.478 2.6033-4.8726 10.393-2.7168 3.5537 0.98354 8.2717 2.29 10.484 2.9023 2.2127 0.6123 4.1669 0.96978 4.3418 0.79492 0.17486-0.17486-4.3069-1.622-9.959-3.2168-9.3567-2.6402-12.297-3.9469-12.297-5.4609 0-0.29647 2.6175-1.7916 5.8184-3.3242 2.8007-1.341 4.7678-2.355 4.8008-2.4648zm45.867 6.1191c-0.53856-0.03715-0.91797 0.10596-0.91797 0.38672 0 0.37435 0.67593 0.68164 1.502 0.68164 0.82603 0 1.502-0.13073 1.502-0.28906 0-0.15834-0.67593-0.46368-1.502-0.67969-0.2065-0.054-0.40446-0.08723-0.58398-0.09961zm-46.814 0.41211c-0.40832-5e-3 -0.84562 0.03957-1.2109 0.13477-0.73063 0.19039-0.31326 0.35968 0.92578 0.375 1.239 0.01531 1.8365-0.14 1.3281-0.3457-0.2542-0.10282-0.63465-0.15903-1.043-0.16406zm54.639 3.3164c2.9872-0.04919 4.7708 1.5516 6.7012 5.5996 1.0833 2.2716 2.9727 5.9039 4.1992 8.0723 2.4359 4.3062 2.2442 4.5301-2.7461 3.2109-1.239-0.32754-5.4503-1.1855-9.3574-1.9082-8.003-1.4803-10.703-3.3169-11.633-7.9102-0.28832-1.4251-0.68163-3.1568-0.875-3.8477-0.289-1.0325 0.42214-1.3456 3.998-1.7637 2.3925-0.2797 5.7386-0.80364 7.4356-1.1641 0.83417-0.17717 1.588-0.27771 2.2773-0.28906zm-15.186 2.1094c0.5364 0.06808 0.97327 1.6503 1.5156 5.3672 0.75157 5.1507 0.32178 5.226-10.859 1.873-5.5341-1.6596-10.35-2.9216-10.701-2.8047-0.35087 0.11696 3.8616 1.5267 9.3594 3.1328 5.4978 1.6061 10.3 3.0852 10.672 3.2891 0.37232 0.20384 0.054 0.82634-0.70703 1.3828-0.76103 0.55648-1.9109 0.99338-2.5547 0.9707-1.5422-0.05438-17.619-8.0088-17.902-8.8574-0.12056-0.36167 4.414-1.3977 10.078-2.3008 5.6641-0.9031 10.553-1.7984 10.863-1.9902 0.0813-0.05024 0.1597-0.07223 0.23633-0.0625zm24.09 1.6133 1.8203 2.0645c1.0013 1.1358 1.9319 2.0645 2.0664 2.0645 0.58895 0 0.10981-0.60706-1.8203-2.3086zm-52.666 2.7637c1.3054-0.05646 2.0086 0.09517 1.8809 0.43164-0.23508 0.61934-6.9967 6.9057-20.428 18.994-8.1502 7.3355-9.8332 8.9678-9.2539 8.9707 0.34806 0.0018 4.4185-3.46 9.0469-7.6934 15.662-14.326 20.952-18.962 21.898-19.191 1.2036-0.29201 1.4533 0.53621 7.8691 25.996 0.2676 1.0619 0.48976 2.0003 0.74414 3.0293 0.30857 0.05145 0.61524 0.10697 0.92188 0.16406-1.1167-4.3337-2.4155-9.3984-2.7754-10.699l-0.97266-3.5156 3.4688-1.4473c12.622-5.2658 11.73-5.0598 15.176-3.5059l3.125 1.4082-0.45898 4.9141c-1.1062 11.85-1.0554 13.946 0.12304 5.0234l1.2754-9.6504 5.9688 3.0879c3.2826 1.6989 6.1548 3.378 6.3828 3.7305 1.2466 1.9274 13.106 14.31 13.412 14.004 0.36186-0.36186-4.7939-6.0286-9.4336-10.369-1.3436-1.257-2.3263-2.4022-2.1836-2.5449 0.14272-0.14272 4.5813 1.7828 9.8633 4.2793 5.282 2.4965 9.7149 4.4277 9.8516 4.291 0.13666-0.13665-4.8004-2.7561-10.973-5.8203-9.5578-4.7449-11.911-6.2723-15.861-10.297-2.5512-2.599-4.4219-4.9414-4.1582-5.2051 0.26366-0.26366 5.5171 0.47846 11.676 1.6484l11.197 2.127 2.6465 4.9277c6.2187 11.579 6.5069 12.237 5.8633 13.387-0.35287 0.63054-4.9932 2.9136-10.312 5.0742-5.3193 2.1606-13.514 5.4907-18.209 7.4004-0.0429 0.01744-0.0686 0.02755-0.11132 0.04492 0.2356 0.21614 0.46194 0.44155 0.69335 0.66211l4.4961-1.8281c8.0102-3.2557 14.919-5.9199 15.352-5.9199s2.5293 1.8594 4.6602 4.1309c3.8467 4.1005 3.8702 4.1546 3.3086 7.707-0.31108 1.9679-0.78733 6.1076-1.0566 9.1992-0.26931 3.0916-0.97722 10.131-1.5742 15.643-1.1065 10.216-1.3308 14.129-0.77539 13.57 0.17104-0.17209 0.8491-5.7199 1.5059-12.328 0.65679-6.6082 1.3762-13.113 1.5996-14.455l0.40625-2.4395h4.8711c5.6935 0 6.4998 0.89654 4.5234 5.041-0.69583 1.4591-1.116 2.8039-0.93359 2.9863 0.1824 0.1824 0.93693-1.0436 1.6777-2.7227 0.83492-1.8924 1.8463-3.0527 2.6602-3.0527 0.72218-1e-6 1.51-0.31673 1.75-0.70508 0.79496-1.2863 4.7838 0.74729 6.2852 3.2051 0.79984 1.3093 3.6899 5.929 6.4219 10.266 5.3282 8.4578 5.2171 8.2187 4.3926 9.4785-0.46495 0.71042-10.833 6.291-11.688 6.291-0.15604 0-1.5868-6.2518-3.1816-13.893-1.5949-7.6407-3.1279-13.891-3.4062-13.891-0.27839 0-0.0543 1.9416 0.49804 4.3164 1.8697 8.0381 4.8406 22.336 4.8379 23.277-2e-3 0.51457-3.9732 2.8324-8.8262 5.1504-12.858 6.1416-13.55 6.4096-14.117 5.4922-0.69977-1.1323 0.35022-7.4048 1.666-9.9492 0.60987-1.1796 0.91662-2.3392 0.67969-2.5762-0.23698-0.23696-0.43164-0.0365-0.43164 0.44531 0 0.48185-0.50744 0.87695-1.127 0.87695-0.70558 0-1.125 0.71154-1.125 1.9062 0 1.049-0.6759 3.2324-1.502 4.8516l-1.502 2.9453-4.6934-5.0664c-0.37996-0.41005-0.82985-0.90708-1.2324-1.3457-0.0645 0.30278-0.13898 0.60161-0.20899 0.90234 0.70151 0.7801 2.6422 2.9653 2.9395 3.2891 4.3134 4.6985 3.1213 6.0262-6.7676 7.4297-0.13367 0.27077-0.27566 0.53672-0.41406 0.80469 1.3669-0.0783 3.2392-0.33079 4.5566-0.63672 1.8151-0.42154 2.8164-0.38722 2.8164 0.0977 0 1.2238-4.6611 10.682-5.5586 11.279-0.45374 0.30205-1.2915-0.0369-1.8633-0.75196-0.93468-1.1688-0.99763-1.1731-0.60938-0.041 0.77219 2.2516-1.1504 2.9788-5.4414 2.0586-0.79962-0.17148-1.5298-0.29455-2.1875-0.39062-0.16923 0.17725-0.33603 0.35649-0.50782 0.53124 0.7187 0.19512 1.5974 0.40448 2.6289 0.60743 2.7199 0.53509 4.5273 1.2752 4.5273 1.8535 0 0.5296-1.2676 1.9932-2.8164 3.252-1.5488 1.2588-6.0256 4.8691-9.9492 8.0234-3.9236 3.1544-7.8088 6.3359-8.6348 7.0684-0.82602 0.73252-3.1914 2.6678-5.2559 4.3027-4.754 3.7648-5.9 4.8516-5.1172 4.8516 0.34348 0 1.4712-0.76016 2.5039-1.6894 1.0327-0.92928 3.9013-3.3066 6.375-5.2812 6.5711-5.2453 8.9788-7.2124 16.748-13.686 8.7998-7.3318 9.9894-6.858 4.9844 1.9883-1.9535 3.4527-4.3066 7.4588-5.2285 8.9043-0.92196 1.4455-4.1062 6.7687-7.0762 11.828-5.2439 8.9331-5.4759 9.1992-7.9824 9.1992-1.4196 0-2.5858-0.25273-2.5938-0.5625-8e-3 -0.30976-1.2107-1.9163-2.6719-3.5684-1.4612-1.652-5.8194-6.889-9.6836-11.639-2.3313-2.8655-5.4972-6.7557-8.582-10.547-0.34714-0.0151-0.69182-0.0384-1.0371-0.0605 6.1679 7.6577 12.227 15.407 12.227 15.848 0 0.3652-1.0991 1.4294-2.4414 2.3652-1.3423 0.93583-4.1237 3.1567-6.1816 4.9336-4.5634 3.94-6.5417 4.1338-8.0254 0.78907-1.0641-2.399-1.0786-2.2648-0.1543 1.418l0.46094 1.8418-10.414-0.39453c-5.7284-0.21689-11.936-0.57565-13.795-0.79688-2.3523-0.27996-2.9156-0.19561-1.8555 0.27539 0.83761 0.37215 6.1822 0.92534 11.879 1.2305 9.5144 0.50958 10.539 0.70731 12.576 2.4219 1.45 1.2201 2.7672 1.7234 3.8008 1.4531 1.0884-0.28461 3.0781 0.61222 6.3828 2.875l4.8008 3.2871-9.0156 4.5527c-4.9588 2.5039-9.1078 4.5176-9.2188 4.4766-0.11092-0.0412-0.95297-0.29391-1.873-0.5625-2.0345-0.59391-3.4543-1.7539-10.82-8.8535-3.5888-3.459-5.2745-5.5506-4.5059-5.5898 5.1036-0.25964 19.365-2.0251 16.941-2.0977-1.6836-0.0503-6.7039 0.27454-11.156 0.72266l-8.0957 0.81445-2.0078-1.9238c-1.1041-1.0578-2.0799-2.7931-2.168-3.8574-0.15785-1.9072 2.3913-7.8633 3.3652-7.8633 0.2752 0 3.9003 1.5552 8.0566 3.457 11.659 5.3348 12.539 5.7031 12.861 5.3809 0.16559-0.16557-1.129-0.90679-2.877-1.6484-1.7479-0.74166-6.4753-2.8946-10.506-4.7832-8.4463-3.9577-8.1945-2.6497-2.6699-13.865 1.9719-4.0032 4.2266-8.7422 5.2871-11.094-0.25781-0.12956-0.51429-0.26067-0.76953-0.39453-0.92355 2.0123-2.1604 4.5948-3.834 8.0703-3.6748 7.6313-7.4193 15.589-8.3203 17.684-1.0611 2.4665-2.2113 3.9633-3.2656 4.2461-1.9098 0.51228-2.0677 0.50092-6.6133-0.44922l-3.4844-0.72852-3.8867-7.8945c-2.1373-4.3426-3.6556-8.1153-3.375-8.3828 0.28063-0.26748 2.7519 2.0336 5.4922 5.1133 6.3359 7.1208 11.889 12.872 10.545 10.922-1.2307-1.7865-10.556-12.573-11.422-13.211-0.33152-0.24436-0.50005-0.7518-0.375-1.127 0.12506-0.37517 0.0063-0.68164-0.26367-0.68164-0.26995 0-1.4184-1.0007-2.5527-2.2246l-2.0625-2.2266 11.164-10.729c4.3472-4.1776 7.0222-6.7848 9.0605-8.3906-0.28492-0.302-0.57024-0.6031-0.84766-0.91211-1.6011 1.7326-4.647 4.8438-8.3848 8.5254-5.5559 5.4724-10.536 10.049-11.066 10.17-1.2828 0.29244-2.2917-1.0182-4.2344-5.502-2.1322-4.9212-6.1396-16.221-5.8398-16.467 0.15476-0.12673 19.794 1.0213 28.1 1.6211-0.27907-0.33935-0.54424-0.69038-0.81445-1.0371-16.563-0.83924-27.705-1.7204-28.213-2.2754-0.29714-0.3244-1.4623-3.2245-2.5898-6.4453l-2.0488-5.8574 2.4395-5.5957c1.3419-3.0776 2.5805-5.5957 2.7539-5.5957s2.5786 0.98392 5.3438 2.1855c2.7652 1.2016 8.2108 3.566 12.102 5.2539 0.47813 0.20743 0.90545 0.38176 1.3613 0.57422-0.07104-0.26572-0.14224-0.53139-0.20898-0.79883-6.0153-2.5491-17.8-7.9019-18.166-8.2676-0.11893-0.11892 2.6603-6.693 6.1758-14.609 3.5155-7.9164 6.3926-14.589 6.3926-14.83 0-0.24088 0.63734-1.3354 1.418-2.4316 0.78062-1.0963 1.4285-2.275 1.4395-2.6191 0.01098-0.34418 0.27098-0.85162 0.57812-1.127 0.3071-0.27534 0.31663-0.07877 0.01953 0.4375-0.31515 0.54764-0.13209 0.94096 0.44141 0.94336 0.30827 0.0011 2.3522 3.5463 5.1406 8.7441 0.19287-0.40014 0.40429-0.78945 0.60742-1.1836-3.1501-6.5273-4.2928-9.463-3.8887-9.8672 0.57023-0.57023 2.1322-0.64882 10.49 0.0918 0.18265-0.21172 0.36271-0.42616 0.54883-0.63476-0.88705-0.10753-1.162-0.13481-2.1523-0.25781-2.8911-0.35907-6.1854-0.73692-7.3203-0.83984-1.135-0.10292-2.0637-0.36696-2.0645-0.58789-8.21e-4 -0.22093 1.2657-1.4539 2.8145-2.7402 1.5488-1.2864 4.4758-3.9143 6.5059-5.8379 3.5473-3.3613 3.7426-3.4447 5.0078-2.1406 0.90008 0.92771 1.4829 3.1989 1.8418 7.1777 0.02316 0.25673 0.02686 0.39521 0.04687 0.63086 0.22111-0.1908 0.43765-0.38725 0.66211-0.57422l-0.08203-0.74805c-0.50592-4.6042-0.46297-6.5414 0.16016-7.0586 0.352-0.29212 2.9498 0.62432 7.498 2.5996 0.31735-0.1779 0.63547-0.35427 0.95703-0.52539-3.9575-1.9334-6.7544-3.3517-6.9766-3.5703-0.44445-0.43733-0.16221-1.1226 0.75195-1.8301 1.3401-1.0371 1.3448-1.0908 0.07031-0.64453-0.83171 0.29126-1.6522 0.06662-2.0449-0.56055-0.55547-0.88709-0.97643-0.86536-2.7402 0.14648-1.1462 0.65752-2.0122 1.5505-1.9238 1.9844 0.23974 1.1759-13.295 13.285-13.98 12.508-0.5558-0.63094-3.2522-14.671-2.877-14.98 0.0967-0.07974 2.711 0.30762 5.8086 0.85938 3.0976 0.55175 6.6457 0.98272 7.8848 0.95898 1.239-0.02375-1.2018-0.62048-5.4238-1.3262-4.222-0.70569-7.9034-1.5108-8.1816-1.7891-0.50266-0.50267-2.4245-10.263-2.5-12.697-0.02174-0.70024 0.77399-1.7151 1.7676-2.2539 0.99359-0.53881 4.287-2.8849 7.3203-5.2148 5.419-4.1624 5.6242-4.245 11.789-4.7695l6.2754-0.53516-0.41211 3.2695-0.41211 3.2676 0.80469-3.1426c0.91886-3.5866 0.97699-3.6065 13.002-4.373 3.7171-0.23695 8.4046-0.62203 10.416-0.85742 0.56019-0.06556 1.0629-0.10813 1.498-0.12695zm5.3359 0.76172c0.13966-0.13966 4.3757 1.7958 9.4121 4.3008 6.7856 3.3749 8.7967 4.6803 7.7676 5.0449-0.76385 0.27062-3.4164 1.3273-5.8945 2.3477-7.0584 2.9062-7.8829 3.1786-7.8965 2.5977-7e-3 -0.29954-0.83028-3.5806-1.8281-7.291-0.99785-3.7104-1.7002-6.8603-1.5605-7zm-53.869 0.28711c-0.15827 0.0124-0.34413 0.04557-0.55078 0.09961-0.8266 0.21616-1.502 0.52331-1.502 0.68164 0 0.59254 2.1798 0.25946 2.584-0.39453 0.17359-0.28086-0.05643-0.42392-0.53125-0.38672zm106.81 1.0684c-0.39443 0-0.1389 0.67593 0.56836 1.502s1.3923 1.502 1.5215 1.502c0.12925 0-0.12628-0.67593-0.56836-1.502-0.44207-0.82602-1.127-1.502-1.5215-1.502zm-98.518 0.94727c1.2826 0.05814-0.12245 1.0899-5.8398 5.3613-3.0956 2.3127-5.8445 4.2051-6.1094 4.2051-0.90139 0-1.5541-6.9088-0.73047-7.7324 0.43577-0.43577 2.2366-0.89698 4.002-1.0254 1.7653-0.12841 4.7167-0.41097 6.5586-0.62695 0.9641-0.11305 1.6916-0.20102 2.1191-0.18164zm-4.459 1.5449c-0.2288-0.01219-0.76525 0.18016-1.3848 0.51172-0.82603 0.44208-1.5 0.97318-1.5 1.1797 0 0.2065 0.67397 0.01239 1.5-0.42969 0.82602-0.44207 1.502-0.97123 1.502-1.1777 0-0.05163-0.04092-0.07992-0.11719-0.08398zm-10.256 1.3242c0.38162-0.04597 0.61361 0.36742 0.61914 1.252 0.0045 0.72277 0.20867 2.5243 0.45312 4.002 0.43027 2.6008 0.28036 2.8144-4.7012 6.6836-2.8303 2.1983-5.631 4.3682-6.2246 4.8223-0.87083 0.66615-0.98085 0.55911-0.56445-0.55078 0.28383-0.75655 0.51758-1.5373 0.51758-1.7344 0-0.19712 0.29962-0.17175 0.66602 0.05469 0.36638 0.22644 0.61917-0.1762 0.5625-0.89453-0.05695-0.72234 0.3406-1.2137 0.89062-1.0996 0.54669 0.11348 0.79026-0.12675 0.53906-0.5332-0.50976-0.82482 1.1132-3.8027 2.0723-3.8027 0.33804 0 0.43281 0.29334 0.21094 0.65234-0.22188 0.35901 0.68624 0.4312 2.0195 0.16016 2.8231-0.57392 3.8039-3.4777 1.6953-5.0195-1.0613-0.77607-1.1005-1.1476-0.26562-2.4844 0.5978-0.95723 1.1282-1.4618 1.5098-1.5078zm83.479 2.5215c1.3175-0.07165 2.8633 1.1135 2.3106 2.0078-0.22632 0.36622-0.0526 0.66602 0.38476 0.66602 0.43738 0 0.79492-0.33894 0.79492-0.75195 1e-5 -1.5821 2.0626-0.63196 4.8672 2.2402 1.6058 1.6445 2.7734 3.1244 2.5938 3.2891-0.43442 0.39802-12.704-5.7668-12.711-6.3867-3e-3 -0.26558 0.54298-0.69531 1.2148-0.95312 0.17202-0.06601 0.35671-0.10109 0.54492-0.11133zm-54.527 0.72461c-0.18173-0.18172-0.91043 3.3088-1.6191 7.7559-0.70871 4.4471-1.4517 8.7599-1.6504 9.5859-0.27694 1.1512-0.20334 1.2404 0.31641 0.37695 0.78984-1.3121 3.4428-17.229 2.9531-17.719zm85.705 3.7031c0.76839 0.01335 2.3874 0.22249 4.1738 0.55273 2.3819 0.44031 4.5224 0.60843 4.7559 0.375 0.23344-0.23343 1.0404 0.58862 1.793 1.8262 0.7526 1.2376 1.6704 2.25 2.041 2.25 0.54165 0 1.7676 8.5321 1.6719 11.639-0.0322 1.0469-3.1227 1.143-5.0625 0.15625-0.88745-0.4514-2.1128-1.6863-2.7226-2.7422-3.2862-5.6895-7.373-13.738-7.1094-14.002 0.0417-0.04165 0.20286-0.05914 0.45898-0.05469zm-113.29 1.9004 0.6582 1.7402c0.36213 0.95675 0.90301 3.8503 1.2012 6.4316 0.29816 2.5813 0.25656 4.6555-0.09375 4.6094-0.35032-0.0462-2.3275-0.3849-4.3926-0.75195-2.0651-0.36706-4.853-0.85119-6.1953-1.0762-3.314-0.55548-3.1659-1.4607 0.73242-4.4707 0.5349-0.41301 2.574-2.0409 4.5312-3.6172zm-9.3672 0.41211c0.31074-0.03957-0.20803 1.279-1.6777 3.6992-1.9191 3.1602-3.9727 4.5794-3.9727 2.7461 0-0.41301 0.33309-0.75 0.74023-0.75 0.40716 1e-6 1.6395-1.3591 2.7383-3.0195 1.1864-1.7928 1.9302-2.645 2.1719-2.6758zm70.41 1.168c-0.1614 0.0199-0.47986 0.10204-0.96679 0.25-1.8523 0.56282-30.388 11.939-30.727 12.25-1.12 1.027 2.9654-0.40641 15.404-5.4043 10.823-4.3487 17.419-7.235 16.289-7.0957zm-79.285 9.0332c-0.19146 0-1.6504 1.5887-3.2422 3.5312-1.5918 1.9426-2.5028 3.2904-2.0234 2.9941 1.0214-0.63124 5.7777-6.5254 5.2656-6.5254zm8.4062 1.1816c1.1572 0.0029 2.862 0.26226 5.8242 0.7793 3.6473 0.63663 6.7172 1.2445 6.8242 1.3516 0.10704 0.10704 0.73481 3.3371 1.3945 7.1777 0.88373 5.1447 0.98969 7.4434 0.40234 8.7324-0.47768 1.0484-0.51932 1.9208-0.10352 2.1777 0.92384 0.57096-0.42636 4.054-2.3809 6.1406-0.8418 0.89871-1.3359 1.9458-1.0996 2.3281 0.34622 0.56019-6.166 16.18-10.793 25.887-1.1665 2.4472-0.86059 2.4378-5.8125 0.1875-3.039-1.381-3.9434-2.1741-3.9434-3.4629 0-1.1421 3.2617-4.9645 10.291-12.059 5.6599-5.712 10.021-10.385 9.6895-10.385-0.59437 0-3.4135 2.7964-14.994 14.871-3.247 3.3855-6.035 6.1543-6.1953 6.1543-0.16036 0-0.34242-1.0972-0.4043-2.4394-0.10473-2.2715-0.13461-2.299-0.42578-0.37695-0.44968 2.9684-1.9253 2.5481-3.9414-1.125-0.96344-1.7553-2.1659-3.6988-2.6719-4.3184-1.0574-1.2947-2.2622-5.0668-2.9824-9.334-0.36451-2.1597-0.68026-2.665-1.1777-1.8789-0.37396 0.59094-0.67597 0.73723-0.66797 0.32422 0.03803-2.1183 2.9198-3.8766 8.2246-5.0176 3.0976-0.66623 5.7714-1.0779 5.9414-0.91602 0.17006 0.16186-0.12051 3.1873-0.64648 6.7227-0.52596 3.5353-0.80102 6.5837-0.60938 6.7754 0.19165 0.19165 0.78759-2.7151 1.3242-6.459 0.68158-4.7551 1.3373-6.9919 2.1758-7.4219 0.66017-0.33857 5.341-1.4043 10.4-2.3672 5.0594-0.96292 9.1992-1.9552 9.1992-2.207 0-0.25181-4.4787 0.42043-9.9512 1.4961-9.9395 1.9537-9.9497 1.9559-10.438 0.41992-0.47408-1.4928-0.48981-1.491-0.5625 0.09766-0.07624 1.6669-0.77292 1.9044-10.4 3.543-2.6413 0.44954-3.1618-0.44669-1.4473-2.4922 0.54655-0.65204 3.6209-5.3254 6.832-10.385 3.2111-5.0594 6.1637-9.1973 6.5605-9.1973 0.39686 0 0.51112-0.33894 0.25586-0.75195-0.25526-0.41301-0.11113-0.75 0.31836-0.75 0.85292 0 0.50599 4.0118-1.0215 11.826-0.50457 2.5813-0.68445 4.6934-0.39844 4.6934 0.28602 0 0.92453-2.6195 1.418-5.8203 0.49345-3.2009 1.0817-6.9002 1.3066-8.2227 0.23126-1.3593 1.1621-2.8986 2.1426-3.541 0.77468-0.50758 1.3857-0.76074 2.543-0.75781zm129.38 6.127c1.052-0.12458 0.9963 0.47115 0.74024 6.207-0.0738 1.6521-0.40149 3.0039-0.72852 3.0039-0.32702 0-2.0789-1.5114-3.8926-3.3594l-3.2988-3.3594 2.5781-1.0742c1.418-0.59023 3.2541-1.1909 4.0801-1.334 0.19821-0.03433 0.37119-0.06619 0.52148-0.08398zm2.375 0.43359c0.14326-0.14327 2.0295 2.5176 4.1914 5.9141 3.3891 5.3246 5.1982 10.341 5.2988 14.691 0.0241 1.0406-2.0935-0.6559-5.9922-4.8008l-4.6934-4.9902 0.4668-5.2773c0.25691-2.9025 0.58523-5.3938 0.72851-5.5371zm-147.4 1.0371c-0.08404 0.0055-0.1912 0.07401-0.32422 0.20703-0.42599 0.42599-1.3554 0.77539-2.0645 0.77539-1.6004 0-2.1813 1.4516-1.2812 3.2012 1.0007 1.9451 3.3624 0.41378 3.7832-2.4531 0.17371-1.1836 0.13884-1.7469-0.11328-1.7305zm46.348 0.17578c-0.02034-7e-3 -0.0806 0.02522-0.18164 0.09961-1.5273 1.1245-7.5254 7.0613-9.3223 9.2266-2.4265 2.924-0.02905 0.82602 5.1797-4.5332 2.7014-2.7794 4.4666-4.744 4.3242-4.793zm61.35 0.49023c-0.0726 0.10582-0.11811 0.74695-0.13477 1.7148 0.14056 0.08144 0.28219 0.16138 0.42188 0.24414-0.0152-0.51155-0.0448-1.0184-0.10938-1.4453-0.0647-0.42805-0.12664-0.5882-0.17773-0.51367zm-104.31 4.8223c-0.2065 0-0.73761 0.67593-1.1797 1.502-0.44203 0.82602-0.63424 1.502-0.42773 1.502s0.73566-0.67593 1.1777-1.502c0.44203-0.82603 0.6362-1.502 0.42969-1.502zm-6.6309 1.2715c-0.15419-0.0035-0.51414 0.64826-0.93164 1.7324-0.55667 1.4455-1.0117 3.1344-1.0117 3.7539 0 0.61952 0.45505-0.05641 1.0117-1.502 0.55667-1.4455 1.0117-3.1344 1.0117-3.7539 0-0.15488-0.02868-0.2293-0.08008-0.23047zm148.89 3.6094 4.9434 5.0312c2.7189 2.7673 4.725 5.3868 4.457 5.8203-0.26796 0.43356-2.7076 0.78711-5.4219 0.78711h-4.9356l0.46484-2.8164c0.256-1.5488 0.47052-4.1663 0.47852-5.8184zm11.133 3.0039 3.0644 4.7227c1.6856 2.5979 3.0645 4.8785 3.0645 5.0684 0 0.46982-2.2278 0.44204-2.3457-0.0293-0.0516-0.20651-0.13772-0.7412-0.18946-1.1875-0.0516-0.44631-0.65717-1.2231-1.3457-1.7266-0.68853-0.50347-1.4757-2.2493-1.75-3.8809zm-14.521 9.4922-15.055 0.30664c0.0552 0.1092 0.11358 0.21652 0.16797 0.32617zm-151.42 7.4043c-0.35574 0-0.64648 0.84442-0.64648 1.877 0 1.0325 0.13071 1.877 0.28906 1.877 0.15836 0 0.44911-0.84442 0.64648-1.877 0.19738-1.0325 0.06668-1.877-0.28906-1.877zm162.29 1.291c-0.36803 0.16826-2.7441 4.3265-4.0215 7.2148-1.0358 2.3421-1.7116 4.2598-1.502 4.2598 0.31725 1e-5 4.4908-8.3851 5.4199-10.889 0.16735-0.45093 0.18845-0.62477 0.10352-0.58594zm-148.28 1.5957c-0.12315-0.07084-0.20898 0.53303-0.20898 1.6172 0 1.4455 0.15291 2.0372 0.3418 1.3145 0.18887-0.72277 0.18887-1.9042 0-2.627-0.04722-0.18069-0.09176-0.28107-0.13281-0.30469zm142.2 10.557c-0.40616 0.0961-2.0579 3.0604-2.4648 4.5781-0.28937 1.0792 0.14667 0.62354 1.0254-1.0723 0.84075-1.6226 1.5293-3.1347 1.5293-3.3594 0-0.11593-0.0318-0.16021-0.0899-0.14648zm26.646 0.33203c-0.1138-0.0172-0.19226 0.25794-0.21485 0.80469-0.0326 0.7916 0.14502 1.2339 0.39454 0.98437 0.24945-0.24953 0.27552-0.89542 0.0586-1.4375-0.0899-0.22464-0.17-0.34122-0.23828-0.35156zm3.5976 4.9863c0.0505 6e-3 0.0861 0.0194 0.10547 0.043 0.15486 0.18839-1.6774 5.2437-4.0723 11.232-2.3949 5.9887-4.4628 11.172-4.5938 11.52-0.24582 0.65149-3.5855-14.885-3.5762-16.631 3e-3 -0.53949 1.6105-1.6621 3.5723-2.4941s4.6506-2.0648 5.9766-2.7402c1.1602-0.59103 2.2341-0.97039 2.5879-0.92969zm-13.27 6.1973c0.0724 0.10811 1.0257 4.3061 2.1191 9.3301 2.4813 11.4 2.0973 13.389-2.7168 14.033-1.7299 0.23146-6.0801 0.6429-9.666 0.91406l-6.5195 0.49414-3.0117-5.9902c-2.8026-5.5741-3.4003-9.1992-1.5195-9.1992 0.35789 0 5.2694-2.1992 10.916-4.8887 5.6466-2.6894 10.326-4.8015 10.398-4.6934zm-24.594 5.5664c0.11626 0.0377 0.16082 0.3335 0.16992 0.85742 0.0164 0.94655-0.64663 2.4454-1.4726 3.332-1.8801 2.0181-1.8853 1.6162-0.0293-2.1035 0.74683-1.4968 1.1383-2.1488 1.332-2.0859zm-143.63 0.60938c-0.13582-0.0506-0.23242 0.37989-0.23242 1.1543 0 1.0325 0.17059 1.4557 0.37891 0.93946 0.20832-0.51626 0.20832-1.3626 0-1.8789-0.05208-0.12907-0.10121-0.19798-0.14648-0.21484zm13.918 1.9199c0.20651-4e-3 1.2738 2.5255 2.373 5.6211l2 5.6289-2.75-0.0488c-1.5123-0.0262-3.4822-0.34237-4.377-0.70313l-1.627-0.65625 2.002-4.916c1.1013-2.7044 2.1724-4.9208 2.3789-4.9258zm164.73 0.24609c-0.1138-0.0172-0.19031 0.25599-0.21289 0.80274-0.0326 0.7916 0.14499 1.2358 0.39453 0.98632 0.24945-0.24954 0.27551-0.89738 0.0586-1.4394-0.0899-0.22464-0.17195-0.33927-0.24023-0.34961zm-0.75 3.002c-0.1138-0.0172-0.19226 0.25794-0.21485 0.80469-0.0326 0.7916 0.14501 1.2359 0.39454 0.98633 0.24945-0.24954 0.27552-0.89738 0.0586-1.4394-0.0899-0.22465-0.17-0.34122-0.23828-0.35157zm-36.688 0.49219c1.6108 0 1.4867 0.36845-2.3301 6.8789-3.0976 5.2837-4.8106 7.5236-4.8106 6.291 0-1.6885 6.2251-13.17 7.1406-13.17zm2.627 0.75c0.36415 0 5.9135 10.513 6.2324 11.807 0.0794 0.32188-1.7128 0.80002-3.9844 1.0645l-4.1309 0.48242 8.8125-0.21094 7.3242 14.598-6.1074 6.7422c-5.2363 5.7812-6.7901 7.0159-10.893 8.6582-2.6316 1.0535-4.8995 1.916-5.0391 1.916s-0.6937-4.5671-1.2324-10.148-1.1395-9.9874-1.3359-9.791c-0.19638 0.19643 0.0568 4.6792 0.56446 9.9609 0.50764 5.2817 0.90672 9.8955 0.88672 10.254-0.0199 0.35842-3.685 2.2675-8.1465 4.2402-7.5065 3.3191-14.496 5.3091-14.496 4.1289 0-0.274 1.4122-2.917 3.1387-5.873 1.7264-2.9561 3.5106-6.0556 3.9629-6.8887 0.45231-0.83307 3.5143-6.0735 6.8047-11.645 5.6971-9.6458 6.0078-10.022 6.5254-7.8848 0.48429 1.9996 0.51275 1.9475 0.25586-0.48242-0.15857-1.5001 2e-3 -3.0204 0.35742-3.3789 0.35585-0.35849 1.7876-2.8486 3.1816-5.5332 3.0814-5.9342 6.7861-12.016 7.3184-12.016zm-14.961 4.7305c-0.14933 0.233-0.29419 0.46888-0.44726 0.69922 5e-3 0.0106 7e-3 0.0147 0.0117 0.0254 1.9636 4.3206 2.5476 4.3695 0.74804 0.0625-0.12146-0.2907-0.21108-0.52969-0.3125-0.78711zm-116.06 2.8848c0.49128-4e-3 1.0433 0.0127 1.6621 0.0449l4.3281 0.22461 2.3516 6.3828c1.2935 3.5106 2.7261 7.2046 3.1836 8.207 0.45746 1.0024 0.72824 1.9261 0.60156 2.0527-0.1267 0.12668-3.4186-3.4516-7.3145-7.9512-3.8959-4.4996-7.207-8.0601-7.3574-7.9121-0.25909 0.2549 1.3141 2.1653 12.504 15.186 2.5963 3.0211 4.5193 5.8189 4.2734 6.2168-0.56466 0.91362 0.20135 1.2576-6.7402-3.0312-3.3041-2.0414-6.4056-3.7224-6.8926-3.7344-0.487-0.0118-1.2708-1.965-1.7402-4.3398-0.46942-2.3748-1.1995-5.4297-1.623-6.7891-1.0975-3.5223-0.67526-4.5319 2.7637-4.5566zm156.91 3.9707c0.14065 5e-3 0.22468 0.0157 0.24219 0.0332 0.13849 0.13848-0.52844 1.7203-1.4805 3.5156-0.95204 1.7953-1.7667 3.6026-1.8106 4.0156-0.26129 2.4624-1.3375 4.8019-2.0156 4.3828-0.45439-0.28081-0.56425-0.12547-0.25977 0.36719 0.54203 0.87702-1.7893 8.3906-2.6035 8.3906-0.24979 0-0.85874-0.88871-1.3535-1.9746-0.49477-1.0859-1.0821-1.7909-1.3066-1.5664-0.2245 0.22452-0.062 1.0589 0.36328 1.8535 0.99338 1.8561 0.31683 4.4485-1.2832 4.9141-0.68457 0.19919-3.2295 1.2586-5.6543 2.3535l-4.4082 1.9902 2.9062-3.2969c1.5988-1.8138 5.7315-6.3892 9.1836-10.168 3.452-3.7788 5.9349-6.8711 5.5156-6.8711-0.41925 0-2.1829 1.6953-3.918 3.7676l-3.1543 3.7676-3.334-6.8613c-1.8337-3.7735-3.2343-6.9561-3.1113-7.0723 0.33164-0.31331 15.373-1.6108 17.482-1.541zm-30.498 2.0215c-0.54443-3e-3 -1.115 0.041-1.582 0.13086-0.93409 0.17962-0.34735 0.3338 1.3047 0.3418 1.6521 8e-3 2.4172-0.14018 1.6992-0.32812-0.35898-0.0941-0.87745-0.14177-1.4219-0.14454zm34.115 5.5742c-0.25661 5e-3 -0.58352 0.13461-1.0254 0.3711-0.79829 0.42721-1.4531 1.2828-1.4531 1.9023s-0.53259 2.0448-1.1836 3.166c-1.1429 1.9685-1.1396 1.9791 0.0918 0.34765 0.70137-0.92928 1.8913-1.6894 2.6426-1.6894 1.7501 0 2.4288-1.1171 1.8281-3.0098-0.24069-0.75834-0.4727-1.0956-0.90039-1.0879zm-159.74 5.0176c0.4658-0.0193 1.7633 0.61418 3.125 1.5469 1.5563 1.0659 3.7588 2.3521 4.8945 2.8594 1.1358 0.50723 2.0645 1.206 2.0645 1.5527 0 0.34673 0.48408 0.63086 1.0762 0.63086 0.61151 0 1.1795 0.87896 1.3145 2.0352 0.16506 1.414 0.7739 2.1616 1.9961 2.4473 1.3421 0.31366 2.5961 2.1458 5.2871 7.7266 2.6474 5.4904 3.2393 7.3017 2.3711 7.2617-0.63622-0.0293-4.3461-0.723-8.2441-1.541-4.9644-1.0418-7.5616-1.9804-8.6719-3.1367-1.1043-1.1502-2.2245-4.5693-3.6934-11.271-1.1596-5.2908-1.909-9.8176-1.666-10.061 0.03037-0.0304 0.07994-0.048 0.14648-0.0508zm55.758 0.47266c0.65902 1.8091 1.2079 3.0381 1.334 2.9121 0.10037-0.10037-0.15095-1.1729-0.57812-2.6406-0.25254-0.0895-0.5052-0.17804-0.75586-0.27148zm1.7031 4.3008c-0.01058 5e-3 -0.01783 0.0211-0.01953 0.0508-0.02721 0.47427 1.0127 3.7772 2.3105 7.3398 1.2978 3.5627 2.4909 6.347 2.6504 6.1875 0.15952-0.15952-0.88042-3.4624-2.3105-7.3398-1.3407-3.6351-2.4722-6.309-2.6309-6.2383zm-34.506 7.1387c-0.26405 0.0363 2.8992 1.712 7.0293 3.7227 4.1301 2.0107 7.8468 3.6447 8.2598 3.6309 0.41301-0.0139-2.7502-1.6896-7.0293-3.7227-4.2791-2.0331-7.9957-3.6671-8.2598-3.6309zm117.26 5.5703c-0.35707 0.014-0.84256 0.061-1.4766 0.13086-1.5432 0.17006-3.2455 0.67256-3.7812 1.1172-1.0556 0.87608-1.2983 3.0533-0.4375 3.9141 1.094 1.094 4.3298 0.10103 4.6035-1.4121 0.14943-0.82602 0.75495-2.0475 1.3457-2.7148 0.72809-0.82254 0.81729-1.0772-0.25391-1.0352zm-77.246 2.1016c-0.02762-6e-3 -0.05209 1e-3 -0.07422 0.0234-0.17701 0.17702-0.09651 1.2218 0.17969 2.3223 0.27622 1.1005 0.64722 1.8567 0.82422 1.6797 0.17701-0.17702 0.0965-1.2218-0.17968-2.3223-0.24169-0.96293-0.55668-1.662-0.75-1.7031zm20.135 0.20899 1.5977 1.9004c5.4148 6.4392 6.4318 7.9001 6.1074 8.7773-0.19887 0.53763-0.0516 0.78548 0.32812 0.55078 0.37975-0.23469 0.92622-0.0459 1.2129 0.41797 0.37904 0.61322 0.67333 0.59564 1.0801-0.0625 0.30762-0.49777 1.1942-0.73851 1.9707-0.53515 1.2777 0.33462 1.2517 0.42103-0.27735 0.91211-0.92927 0.29845-1.6894 0.756-1.6894 1.0176v2e-3c0 0.58078-1.8963 0.59646-8.2598 0.0723-5.1952-0.42796-4.8311-1.255 0.75-1.7012 1.8586-0.14853-1.0979-0.10853-6.5703 0.0879-5.4724 0.1961-9.9492 0.19454-9.9492-4e-3 0-0.19844 3.0821-2.853 6.8496-5.8984zm51.631 4.0684c-0.0388-0.0388-0.34199 0.18727-0.9375 0.6543-0.72277 0.56685-1.3144 1.1585-1.3144 1.3144 0 0.61804 0.61665 0.22156 1.5976-1.0293 0.46704-0.59551 0.69306-0.90069 0.6543-0.93945zm-65.707 8.8984 9.3867 0.47265c5.1627 0.26011 10.538 0.71539 11.945 1.0117 2.5516 0.53737 2.5426 0.54546-3.7539 3.3438-3.4721 1.5431-6.5091 2.8034-6.748 2.8008-0.56808-8e-3 -6.5494-4.0612-8.9512-6.0644z" style="fill:#4aaee6;stroke-opacity:.37741;stroke-width:.75093;stroke:#439dcf"/><path d="m82.5 5.6745-0.0029 0.00141c-42.436 0-76.824 34.389-76.824 76.824 0 9.6584 1.7842 18.896 5.036 27.41 8.0157 2.8236 16.513 4.6433 25.495 4.6433 14.707 0 28.348-4.2737 40.049-11.412-8.8635-2.6794-15.323-10.908-15.323-20.642 0-11.906 9.6627-21.568 21.568-21.568 9.5174 0 17.595 6.1763 20.456 14.735 6.5668-11.348 10.558-24.364 10.558-38.418 0-9.5725-1.9498-18.644-5.1338-27.101-8.0865-2.892-16.798-4.4715-25.88-4.4715z" style="fill:url(#a);opacity:.46408;stroke-width:.71544"/><path d="m82.5 46.771c-19.734 0-35.729 15.994-35.729 35.729 0 19.731 15.994 35.729 35.729 35.729 19.734 0 35.729-15.996 35.729-35.729 0-19.734-15.994-35.729-35.729-35.729zm0 16.768c10.47 0 18.96 8.4896 18.96 18.96 0 10.47-8.4896 18.96-18.96 18.96-10.47 0-18.96-8.4896-18.96-18.96 0-10.47 8.4896-18.96 18.96-18.96z" fill="#fefefe" opacity=".2" stroke="#e6e6e6" stroke-width="3.5086"/><path d="m106.08 47.883c3.241 2.962 5.3699 4.8119 6.571 6.1387l-0.15851 0.0052c-2.0093-2.1824-4.2698-4.1029-6.4124-6.1434z" opacity=".3" stroke-width="2.4593"/><path d="m126.79 72.803c-0.2986 0.05972-0.46619 0.35542-0.73969 0.47554 0.0409-0.0733 9.5e-4 -0.09422 0.072-0.1537z" opacity=".3" stroke-width="2.4593"/><path d="m119.01 65.386c-0.32032-0.06472-0.77234-0.03018-1.1384 0.1585-0.36603 0.18868-0.60107 0.47534-0.7397 0.71571l-0.0147 0.01918-0.01 0.02412c-0.44876 0.8399-0.39588 1.5112-0.3026 2.2768 0.0933 0.76556 0.3153 1.5729 0.85499 2.3152 0.57773 0.79536 1.3035 1.2838 1.955 1.7388 0.40455 0.28255 0.53102 0.35141 0.75414 0.48994l0.1489 0.76853 0.9751 0.20173c0.27156 0.05587 0.50378 0.10142 0.81176 0.09605 0.30798-0.0052 0.84414-0.06894 1.2873-0.55238 0.44316-0.48342 0.44572-1.0462 0.42749-1.2873-0.0178-0.24111-0.0491-0.3353-0.0575-0.38426l-0.0625-0.38427-0.24498-0.30262c-0.51162-0.63475-1.2672-1.9242-1.9646-3.0692-0.34871-0.57253-0.68955-1.1133-1.0423-1.5804-0.1764-0.23351-0.34984-0.44698-0.57642-0.65807-0.22658-0.21108-0.48884-0.47032-1.0615-0.58601z" opacity=".3" stroke-width="2.4593"/><path d="m106.05 47.863c3.2484 2.9672 5.3856 4.8227 6.5902 6.1532l-0.16331 0.0096c-2.0152-2.1886-4.2774-4.1166-6.4269-6.1628z" opacity=".3" stroke-width="2.4593"/><path d="m48.641 13.564c-1.8408-0.0249-2.218 2.2797-0.62321 2.8673 8.9794 3.6499 17.343 7.907 25.37 12.504l-1.885 4.4449c-0.95654 2.2553-0.91225 4.0444-0.7266 5.5194-3.4709-1.6426-18.756-8.4815-45.556-8.631-0.01554-0.0015-0.07967-0.02484-0.10899-0.03214-5.5149 6.0521-10.083 12.98-13.476 20.551l0.09921-0.06009c4.9746-3.0118 10.878-5.1006 17.97-5.655h0.0098c21.057-1.7375 46.781 9.6469 72.087 21.422-0.019 2.9153 0.24595 5.8728 2.3894 8.5516 1.4633 1.829 4.0511 3.0655 6.6849 4.3094 2.6337 1.2438 5.347 2.3742 6.404 2.9805v-0.0054c2.4309 1.3953 10.571 6.6229 15.354 12.847l1.4169 1.8473 1.0983-2.0554c5e-3 -0.0096 0.73389-0.85588 1.6936-1.6587 0.95962-0.80272 2.1772-1.718 3.3662-2.5739 2.3781-1.7117 4.6336-3.1831 4.6336-3.1831l4.4072-2.8673-5.2582 0.10619s-0.32616 0.01951-1.4127-0.18864c-1.0866-0.20826-2.8197-0.64547-5.2875-1.5678-2.2549-0.84257-4.9697-2.6776-7.0622-4.3388-1.0462-0.83055-1.9468-1.6172-2.5823-2.205-0.0652-0.06016-0.0915-0.08948-0.1509-0.14532 0.58478-0.63464 0.75857-1.5404 0.62882-2.124-0.14164-0.63674-0.41139-1.1426-0.71544-1.6349-0.60812-0.98458-1.3758-1.854-1.9116-2.3894 0.0945 0.09452-0.14661-0.17965-0.3815-0.52261-0.23488-0.34286-0.53888-0.80744-0.88033-1.3442-0.68284-1.0737-1.5212-2.4417-2.3363-3.7882-1.6301-2.6928-3.0934-5.1854-3.2404-5.4314v-0.0054c4e-3 0.0072-0.3715-0.76394-1.0732-1.2325l-0.17885-0.12157-0.19841-0.06287c-0.0791-0.02542-0.14208 0.0053-0.21797-0.01398l1.2422-0.08384-1.8668-2.2623s-23.126-28.024-67.212-41.681c-0.0034-0.0011-0.0051-0.0046-0.0083-0.0054-0.04232-0.01309-0.07797-0.03015-0.12017-0.04331v0.0029c-0.13559-0.02355-0.26434-0.03606-0.38707-0.03774zm24.917 15.473c4.0273 2.3121 7.9714 4.7051 11.73 7.2889l-1.0214 2.5599c-0.91261 2.2952-0.85073 4.1143-0.68609 5.6439-2.8587-1.1873-8-3.8237-9.2141-10.821l-0.80766-4.6713zm-49.78 3.8734c0.33686 0.14662 0.49658 0.28747 1.171 0.34933l0.0615 0.0098h0.06847c29.527 0.13447 47.109 9.33 47.109 9.33l1.8808-2.1477c4.1194 6.0994 11.189 8.1996 11.189 8.1996l3.7351 1.0438-2.0513-3.2894s-0.30947-0.45412-0.50304-1.5608c-0.03826-0.2186 0.14111-0.69948 0.12157-0.95854 2.9714 5.4396 6.4251 8.9573 10.385 10.632l3.3271 1.4071-1.3485-3.3522c-0.18955-0.47105-0.03369-0.64757-0.12156-1.0299 4.1333 6.4187 10.129 9.5482 10.129 9.5482l0.44017 0.21799 0.48764-0.08804s1.4298-0.2573 3.0085-0.45972c0.78937-0.10121 1.6145-0.18744 2.2847-0.22218 0.50827-0.02641 0.72701 0.0053 0.86496 0.0098 2e-3 0.02313-0.0456-0.07316 0.0629 0.1076-3e-3 -0.0052 1.6142 2.7338 3.2558 5.4454 0.8213 1.3567 1.6654 2.7335 2.3699 3.8412 0.3522 0.55386 0.67153 1.0403 0.93899 1.4309 0.26749 0.39056 0.4112 0.63315 0.73082 0.95296 0.36545 0.36518 1.0685 1.1793 1.4784 1.8431 0.13044 0.2112 0.16074 0.31367 0.21798 0.44994-0.30176 0.1944-0.70599 0.22056-0.8943 0.5757-0.42083 0.79356-0.16794 1.5583-0.0336 1.8724l6e-3 0.0054c0.23285 0.54182 0.25976 0.42274 0.34235 0.51701 0.0826 0.09429 0.16993 0.19136 0.27668 0.30043 0.21347 0.21811 0.49488 0.48731 0.84121 0.80766 0.69263 0.64068 1.6409 1.4734 2.7528 2.3559 2.2237 1.7652 5.0572 3.7444 7.8784 4.7984 1.8234 0.68145 2.8826 0.90488 4.0397 1.1933-0.77417 0.52837-0.88437 0.57319-1.8235 1.2492-1.2238 0.88092-2.4876 1.8258-3.5423 2.7081-0.4836 0.40457-0.72616 0.8053-1.1067 1.171-5.26-6.1934-12.512-11.003-15.024-12.445v-0.0069c-1.5048-0.86325-4.0803-1.889-6.6164-3.0867-2.536-1.1977-4.9984-2.6878-5.6214-3.4668-1.7758-2.2198-1.8872-4.5187-1.7942-7.628l0.0293-0.98795-0.90131-0.4206c-25.589-11.916-51.861-23.918-74.406-22.061h-0.0098c-5.7348 0.44945-10.605 2.0743-15.055 4.1459 0.99539-1.9479 1.9204-3.9765 3.1063-5.7319 1.8011-2.666 4.0287-5.0942 6.2643-7.575l0.0015-0.0015zm62.621 4.2423c3.8533 2.6986 7.6781 5.4269 11.222 8.4414l-1.5971 0.27667c0.01224 0.44827-0.37447 2.0974-0.36751 4.213-3.2455-1.9583-6.1491-4.7491-8.591-11.174l-0.66653-1.7565zm14.111 11.212c3.2941 2.9678 6.608 5.913 9.5954 9.1962l0.4653 0.51282c-0.19429 0.03238-0.52763 0.0781-0.63298 0.09642-0.47618-0.24542-6.0206-3.4405-9.428-9.8051zm-87.555 68.636c0.85352 1.7173 1.7675 3.3994 2.7416 5.0416 8.7591 4.9375 19.816 7.9914 33.462 7.814 14.108 0.0356 28.081 1.2845 39.106 2.9022 17.059 2.5032 30.389 6.6721 41.027 11.674 0.87125-0.6593 1.7305-1.3343 2.5725-2.0289-11.155-5.4476-25.153-9.9718-43.167-12.615-11.167-1.6385-25.254-2.9012-39.535-2.9372h-0.02516c-15.488 0.20477-27.412-3.7077-36.182-9.8516zm12.526 18.163c1.177 1.2738 2.395 2.509 3.654 3.7015 1.9012 0.27767 3.8272 0.47535 5.7934 0.52542 29.61 1.5764 49.712 1.7862 74.191 14.476 5e-3 2e-3 0.01 7e-3 0.0141 0.01 0.49744 0.2756 0.983 0.63348 1.4672 0.99908 1.1026-0.42846 2.1922-0.88285 3.2698-1.3596-1.0923-0.8196-2.1785-1.662-3.3145-2.2902l-0.0376-0.0195c-25.091-13.008-45.9-13.244-75.486-14.821h-0.03773c-3.2736-0.0833-6.4319-0.55002-9.5174-1.2227zm75.092 3.5143-0.78392 2.8939c6.7867 2.5304 12.518 6.1417 17.773 10.195 0.881-0.44689 1.7504-0.9126 2.6116-1.3917-2.2748-1.8371-4.5487-3.6762-7.1208-5.2428 3.6138 1.0543 6.7359 2.3528 9.858 3.6512 1.1749-0.71788 2.3271-1.468 3.4598-2.2456-7.457-3.2422-15.71-6.0944-25.798-7.8598z" style="opacity:.2;stroke-width:.72044"/><path d="m49.322 14.132c24.599 9.9996 46.008 23.25 62.63 41.51l3.9908-0.2627s-22.86-27.735-66.621-41.248zm-24.507 16.434c-4.6369 5.1469-8.5917 10.918-11.73 17.172 4.8682-2.6925 10.561-4.5519 17.236-5.0737 21.914-1.8081 48.079 10.014 73.661 21.927-0.0951 3.177 0.0366 6.0005 2.124 8.6088 2.0866 2.6081 10.101 5.4526 12.662 6.9224 2.5612 1.4701 10.766 6.6898 15.794 13.234 1.0904-2.0396 10.196-7.9664 10.196-7.9664s-2.1816 0.04391-7.2566-1.8528c-5.0757-1.8967-11.099-7.6344-11.242-7.9664-0.1422-0.33223-0.23731-0.8513 0.9488-1.0885 0.9006-0.75822-1.1361-3.2258-2.0374-4.1263-0.90056-0.90116-6.926-11.145-7.0677-11.383-0.14214-0.2373-0.19251-0.4754-0.61899-0.76015-1.3284-0.42717-7.1572 0.62042-7.1572 0.62042s-8.9723-4.411-12.064-13.912c0.0451 1.664-1.5385 3.4808 0 7.3039-4.6778-1.9789-8.6968-5.3533-11.866-13.694-1.8862 4.7438 0 7.7639 0 7.7639s-11.018-3.0807-12.78-13.24c-1.9343 4.5603 0 7.3039 0 7.3039s-17.96-9.3694-47.801-9.5046c-0.36605-0.03359-0.68448-0.15918-1.0019-0.28925zm93.958 36.448c0.81045 0.16372 2.4917 3.7703 3.8078 5.4035 0.0638 0.37274 0.16921 0.60143-0.70287 0.42199-0.0734-0.38318-0.2026-0.49885-0.2026-0.49885s-2.1017-1.2509-2.7472-2.1393c-0.6459-0.88843-0.76065-2.4429-0.44574-3.0322 0.0769-0.13298 0.17488-0.17852 0.29064-0.1551zm-105.53 50.564c3.4146 6.7289 7.7789 12.894 12.92 18.317 3.0975 0.60983 6.2732 1.0015 9.5296 1.0843 29.61 1.5772 50.068 1.8008 74.863 14.656 1.0022 0.5542 1.9614 1.33 2.933 2.0499 2.2623-0.98623 4.4669-2.0775 6.6108-3.267-5.5994-4.447-11.723-8.4271-19.057-11.161 9.7514 1.7065 17.76 4.4223 24.999 7.5092 1.9066-1.2944 3.7519-2.6733 5.532-4.1277-10.941-5.2828-24.681-9.6777-42.366-12.273-11.096-1.6281-25.129-2.8803-39.325-2.9163-15.511 0.20512-27.62-3.7092-36.641-9.8723z" style="fill:#fff;stroke-width:.72044"/><path d="m120.04 131.24v28.732h17.625v-17.616h-11.116v-4.6058h11.116v-6.5104h-12.064zm22.231 0v17.625h11.106v11.106h6.509v-28.732h-6.509v11.116h-4.5975v-11.116zm-15.722 17.625h4.6058v4.5975h-4.6058z" style="color-rendering:auto;color:#000000;dominant-baseline:auto;fill:#fff;font-feature-settings:normal;font-variant-alternates:normal;font-variant-caps:normal;font-variant-east-asian:normal;font-variant-ligatures:normal;font-variant-numeric:normal;font-variant-position:normal;font-variation-settings:normal;image-rendering:auto;inline-size:0;isolation:auto;mix-blend-mode:normal;shape-margin:0;shape-padding:0;shape-rendering:auto;solid-color:#000000;stop-color:#000000;stroke-width:.95251;text-decoration-color:#000000;text-decoration-line:none;text-decoration-style:solid;text-indent:0;text-orientation:mixed;text-transform:none;white-space:normal"/><path d="m114.85 125.96v39.037h27.929v-5.6983h-6e-3v-5.4137h5.4179v5.4137h-4e-3v5.6983h16.814v-5.5588h3e-3v-33.474h-44.456v-4e-3h-5.6983zm5.6983 5.7025h16.527v5.4081h-11.107v5.6983h11.107v16.53h-16.527v-27.637zm22.225 0h5.4179v11.107h5.6983v-11.107h5.4164v27.637h-5.4164v-11.112h-11.116v-16.524zm-16.804 16.524v5.6983h5.6984v-5.6983z" style="color-rendering:auto;color:#000000;dominant-baseline:auto;font-feature-settings:normal;font-variant-alternates:normal;font-variant-caps:normal;font-variant-east-asian:normal;font-variant-ligatures:normal;font-variant-numeric:normal;font-variant-position:normal;font-variation-settings:normal;image-rendering:auto;inline-size:0;isolation:auto;mix-blend-mode:normal;shape-margin:0;shape-padding:0;shape-rendering:auto;solid-color:#000000;stop-color:#000000;stroke-width:.71438;text-decoration-color:#000000;text-decoration-line:none;text-decoration-style:solid;text-indent:0;text-orientation:mixed;text-transform:none;white-space:normal"/></svg>
