<svg width="220" height="220" version="1.1" viewBox="0 0 165 165" xmlns="http://www.w3.org/2000/svg"><defs><radialGradient id="a" cx="66.324" cy="67.941" r="56.524" gradientTransform="matrix(2.5391 0 0 2.5636 -84.601 -90.611)" gradientUnits="userSpaceOnUse"><stop stop-color="#23bac2" style="stop-color:#fff" offset="0"/><stop stop-color="#2b62c0" stop-opacity="0" offset="1"/></radialGradient><linearGradient id="b" x1="28.859" x2="439.18" y1="20.591" y2="430.92" gradientTransform="matrix(.71544 0 0 .71544 3.8016 3.804)" gradientUnits="userSpaceOnUse"><stop stop-color="#265ab1" style="stop-color:#367bf0" offset="0"/><stop stop-color="#20a8af" style="stop-color:#b8174c" offset="1"/></linearGradient><filter id="c" x="-.027" y="-.027" width="1.054" height="1.054" style="color-interpolation-filters:sRGB"><feGaussianBlur stdDeviation="1.7464718"/></filter><filter id="l" x="-.1183" y="-.18559" width="1.2366" height="1.3712" color-interpolation-filters="sRGB"><feGaussianBlur stdDeviation="1.0974128"/></filter><linearGradient id="j" x1="187.28" x2="187.28" y1="239.74" y2="104.63" gradientTransform="matrix(.20561 0 0 .20561 106.86 100.25)" gradientUnits="userSpaceOnUse"><stop stop-color="#fff" offset="0"/><stop stop-color="#4c4f5c" offset="1"/></linearGradient><radialGradient id="i" cx="146.98" cy="135.69" r="15.131" gradientTransform="matrix(.20561 0 0 .20561 106.86 100.25)" gradientUnits="userSpaceOnUse"><stop stop-color="#333" offset="0"/><stop offset="1"/></radialGradient><filter id="f" x="-.015462" y="-.10641" width="1.0309" height="1.2128" color-interpolation-filters="sRGB"><feGaussianBlur stdDeviation="2.8418682"/></filter><filter id="g" x="-.009685" y="-.06133" width="1.0194" height="1.1227" color-interpolation-filters="sRGB"><feGaussianBlur stdDeviation="1.4318783"/></filter><filter id="h" x="-.028456" y="-.18204" width="1.0569" height="1.3641" color-interpolation-filters="sRGB"><feGaussianBlur stdDeviation="5.7271145"/></filter><filter id="C" x="-.012914" y="-.030654" width="1.0258" height="1.0613" color-interpolation-filters="sRGB"><feGaussianBlur stdDeviation=".83619907"/></filter></defs><path d="m82.5 4.8814c-18.086 0-34.727 6.1856-47.923 16.555-1.4663 1.1522-2.889 2.3551-4.2674 3.6079-0.69178 0.62874-1.3687 1.2753-2.0374 1.9283-0.21933 0.21423-0.44134 0.42598-0.65814 0.64278-0.43894 0.43895-0.87393 0.88235-1.3023 1.3317-1.7135 1.7973-3.3404 3.6763-4.8767 5.6312-4e-4 5.15e-4 -9.53e-4 8.6e-4 -9.53e-4 9.55e-4 -0.76773 0.977-1.5133 1.9736-2.2344 2.9875-0.72142 1.0145-1.4188 2.0466-2.0918 3.0965-0.33653 0.52492-0.66658 1.0539-0.99074 1.5874-2.01e-4 3.43e-4 2.1e-4 9.53e-4 0 9.53e-4 -0.97214 1.6-1.8888 3.2384-2.7458 4.9116-0.57143 1.1157-1.1167 2.2466-1.6349 3.3927-0.2591 0.57308-0.51188 1.1495-0.75736 1.7299-1.62e-4 4.01e-4 1.72e-4 9.54e-4 0 9.54e-4 -0.2453 0.58002-0.48393 1.1638-0.71544 1.7508-0.46333 1.175-0.89828 2.3637-1.3051 3.566-0.20342 0.60114-0.40069 1.2061-0.58968 1.8138-0.18898 0.60764-0.37061 1.218-0.54495 1.8319-1.24e-4 4.3e-4 1.145e-4 9.55e-4 0 9.55e-4 -0.34857 1.2275-0.66831 2.4683-0.95716 3.7197-0.43345 1.8778-0.79826 3.7809-1.0927 5.7081-0.19631 1.2848-0.36077 2.5799-0.49326 3.8846-4.77e-5 4.58e-4 4.75e-5 9.25e-4 0 2e-3 -0.13242 1.3043-0.23339 2.6179-0.30043 3.9405-2.86e-5 4.6e-4 1.9e-5 7.15e-4 0 9.55e-4 -0.033483 0.66104-0.05857 1.3245-0.075455 1.9898-1.92e-5 4.7e-4 9.7e-6 7.15e-4 0 9.55e-4 -0.016885 0.66533-0.025185 1.333-0.025185 2.0024 0 4.019 0.30539 7.967 0.8943 11.822 0.29445 1.9272 0.65927 3.8303 1.0927 5.7081 9.55e-5 4.6e-4 -1.05e-4 7e-4 0 9.5e-4 0.43338 1.8774 0.9353 3.7292 1.5021 5.5516 0.56697 1.823 1.1998 3.6172 1.8948 5.3797 0.46333 1.175 0.95458 2.336 1.4728 3.4822 0.51826 1.1462 1.0634 2.277 1.6349 3.3927 1.9e-4 3.9e-4 -1.82e-4 7.5e-4 0 2e-3 1.1427 2.231 2.3906 4.3996 3.7365 6.499 0.67304 1.0498 1.3704 2.082 2.0918 3.0965 0.3607 0.50725 0.72721 1.011 1.0997 1.5091 0.74499 0.99615 1.5133 1.9732 2.3042 2.9316 1.1864 1.4376 2.4234 2.8314 3.7085 4.1795 0.42838 0.44933 0.86337 0.89409 1.3023 1.3331 3.5116 3.5116 7.3581 6.6882 11.487 9.4781 1.0323 0.69743 2.0813 1.3708 3.1482 2.0192 0.53346 0.32415 1.0721 0.64144 1.6139 0.95297 1.0836 0.62307 2.1834 1.2214 3.2991 1.7928 1.1157 0.57147 2.2466 1.1166 3.3927 1.6349 1.1462 0.51818 2.3071 1.0094 3.4822 1.4728 1.175 0.46333 2.3637 0.89826 3.566 1.3052 1.8034 0.61023 3.637 1.1564 5.4971 1.6349 1.2401 0.31906 2.4928 0.60788 3.756 0.86636 1.2633 0.25853 2.5369 0.48701 3.8218 0.6833 1.2848 0.1963 2.5799 0.36078 3.8846 0.49325 0.65236 0.0665 1.3076 0.12469 1.9647 0.1747 1.9711 0.14997 3.9627 0.22635 5.9722 0.22635s4.0011-0.0766 5.9723-0.22635c0.65704-0.0499 1.3123-0.10846 1.9647-0.1747 1.3048-0.13247 2.5998-0.29695 3.8846-0.49325 1.2848-0.19628 2.5585-0.42477 3.8217-0.6833 1.2633-0.25848 2.5159-0.5473 3.756-0.86636 1.8602-0.47854 3.6938-1.0246 5.4971-1.6349 1.2024-0.40684 2.391-0.84181 3.566-1.3052 1.175-0.46331 2.336-0.95457 3.4822-1.4728 1.1462-0.51818 2.277-1.0634 3.3927-1.6349 1.1157-0.57145 2.2156-1.1697 3.2991-1.7928 0.54179-0.31153 1.0805-0.62883 1.6139-0.95297 1.0668-0.64828 2.1158-1.3218 3.1482-2.0192 4.1294-2.7898 7.9759-5.9664 11.487-9.4781 0.43896-0.43897 0.87396-0.88373 1.3023-1.3331 1.2851-1.348 2.5222-2.7418 3.7086-4.1795 0.79088-0.9584 1.5592-1.9354 2.3042-2.9316 0.37249-0.49811 0.739-1.0019 1.0997-1.5091 0.72142-1.0145 1.4188-2.0466 2.0918-3.0965 1.3461-2.0998 2.5936-4.269 3.7365-6.5004 0.57145-1.1157 1.1166-2.2466 1.6349-3.3927 0.51822-1.1462 1.0094-2.3072 1.4728-3.4822 0.69501-1.7626 1.3278-3.5568 1.8948-5.3797 0.56682-1.8226 1.0688-3.6743 1.5021-5.5516 1.1e-4 -4.2e-4 -1.1e-4 -7e-4 0-9.5e-4 0.43344-1.8778 0.79828-3.7809 1.0927-5.7081 0.5889-3.8544 0.8943-7.8024 0.8943-11.822 0-0.67031-9e-3 -1.3376-0.0253-2.0038-0.0167-0.66531-0.042-1.3288-0.0756-1.9898-3e-5 -4.57e-4 2e-5 -7.16e-4 0-2e-3 -0.0673-1.3225-0.16802-2.6362-0.30044-3.9405-5e-5 -4.6e-4 5e-5 -9.25e-4 0-9.55e-4 -0.1325-1.3048-0.29696-2.5998-0.49325-3.8846-0.29447-1.9272-0.65927-3.8304-1.0927-5.7081-0.28886-1.2514-0.6086-2.4922-0.95716-3.7197-0.17434-0.61395-0.35597-1.2257-0.54494-1.8333-0.18901-0.60764-0.38628-1.2126-0.58968-1.8138-0.40684-1.2023-0.8418-2.391-1.3052-3.566-0.46336-1.175-0.95459-2.3359-1.4728-3.4822-0.51822-1.1462-1.0634-2.277-1.6349-3.3927-1.1429-2.2314-2.3903-4.4007-3.7365-6.5004-0.67307-1.0499-1.3704-2.082-2.0918-3.0965-2.1642-3.0434-4.5422-5.9243-7.1124-8.6202-0.42838-0.44931-0.86338-0.89271-1.3023-1.3317-0.21678-0.2168-0.4388-0.42855-0.65815-0.64278-0.66863-0.65304-1.3455-1.2996-2.0372-1.9283-1.3784-1.2529-2.8013-2.4557-4.2674-3.6079-13.195-10.37-29.837-16.556-47.922-16.556zm0 56.451c11.692 0 21.169 9.4774 21.169 21.169 0 11.692-9.4774 21.168-21.169 21.168s-21.169-9.4761-21.169-21.168c0-11.692 9.4774-21.169 21.169-21.169z" style="filter:url(#c);opacity:.3;stroke-width:.95392"/><path d="m82.5 54.917c-15.234 0-27.582 12.348-27.582 27.582 0 15.233 12.348 27.582 27.582 27.582s27.582-12.349 27.582-27.582c0-15.234-12.348-27.582-27.582-27.582zm0 12.945c8.0833 0 14.638 6.5543 14.638 14.638 0 8.0836-6.5543 14.638-14.638 14.638-8.0836 0-14.638-6.5543-14.638-14.638 0-8.0836 6.5543-14.638 14.638-14.638z" fill="#72a2f4" stroke="#5b739d" stroke-width=".95392"/><path d="m82.5 4.8814c-18.086 0-34.727 6.1856-47.923 16.555-1.4663 1.1522-2.889 2.3551-4.2674 3.6079-0.69178 0.62874-1.3687 1.2753-2.0374 1.9283-0.21933 0.21423-0.44134 0.42598-0.65814 0.64278-0.43894 0.43895-0.87393 0.88235-1.3023 1.3317-1.7135 1.7973-3.3404 3.6763-4.8767 5.6312-4e-4 5.15e-4 -9.53e-4 8.6e-4 -9.53e-4 9.55e-4 -0.76773 0.977-1.5133 1.9736-2.2344 2.9875-0.72142 1.0145-1.4188 2.0466-2.0918 3.0965-0.33653 0.52492-0.66658 1.0539-0.99074 1.5874-2.01e-4 3.43e-4 2.1e-4 9.53e-4 0 9.53e-4 -0.97214 1.6-1.8888 3.2384-2.7458 4.9116-0.57143 1.1157-1.1167 2.2466-1.6349 3.3927-0.2591 0.57308-0.51188 1.1495-0.75736 1.7299-1.62e-4 4.01e-4 1.72e-4 9.54e-4 0 9.54e-4 -0.2453 0.58002-0.48393 1.1638-0.71544 1.7508-0.46333 1.175-0.89828 2.3637-1.3051 3.566-0.20342 0.60114-0.40069 1.2061-0.58968 1.8138-0.18898 0.60764-0.37061 1.218-0.54495 1.8319-1.24e-4 4.3e-4 1.145e-4 9.55e-4 0 9.55e-4 -0.34857 1.2275-0.66831 2.4683-0.95716 3.7197-0.43345 1.8778-0.79826 3.7809-1.0927 5.7081-0.19631 1.2848-0.36077 2.5799-0.49326 3.8846-4.77e-5 4.58e-4 4.75e-5 9.25e-4 0 2e-3 -0.13242 1.3043-0.23339 2.6179-0.30043 3.9405-2.86e-5 4.6e-4 1.9e-5 7.15e-4 0 9.55e-4 -0.033483 0.66104-0.05857 1.3245-0.075455 1.9898-1.92e-5 4.7e-4 9.7e-6 7.15e-4 0 9.55e-4 -0.016885 0.66533-0.025185 1.333-0.025185 2.0024 0 4.019 0.30539 7.967 0.8943 11.822 0.29445 1.9272 0.65927 3.8303 1.0927 5.7081 9.55e-5 4.6e-4 -1.05e-4 7e-4 0 9.5e-4 0.43338 1.8774 0.9353 3.7292 1.5021 5.5516 0.56697 1.823 1.1998 3.6172 1.8948 5.3797 0.46333 1.175 0.95458 2.336 1.4728 3.4822 0.51826 1.1462 1.0634 2.277 1.6349 3.3927 1.9e-4 3.9e-4 -1.82e-4 7.5e-4 0 2e-3 1.1427 2.231 2.3906 4.3996 3.7365 6.499 0.67304 1.0498 1.3704 2.082 2.0918 3.0965 0.3607 0.50725 0.72721 1.011 1.0997 1.5091 0.74499 0.99615 1.5133 1.9732 2.3042 2.9316 1.1864 1.4376 2.4234 2.8314 3.7085 4.1795 0.42838 0.44933 0.86337 0.89409 1.3023 1.3331 3.5116 3.5116 7.3581 6.6882 11.487 9.4781 1.0323 0.69743 2.0813 1.3708 3.1482 2.0192 0.53346 0.32415 1.0721 0.64144 1.6139 0.95297 1.0836 0.62307 2.1834 1.2214 3.2991 1.7928 1.1157 0.57147 2.2466 1.1166 3.3927 1.6349 1.1462 0.51818 2.3071 1.0094 3.4822 1.4728 1.175 0.46333 2.3637 0.89826 3.566 1.3052 1.8034 0.61023 3.637 1.1564 5.4971 1.6349 1.2401 0.31906 2.4928 0.60788 3.756 0.86636 1.2633 0.25853 2.5369 0.48701 3.8218 0.6833 1.2848 0.1963 2.5799 0.36078 3.8846 0.49325 0.65236 0.0665 1.3076 0.12469 1.9647 0.1747 1.9711 0.14997 3.9627 0.22635 5.9722 0.22635s4.0011-0.0766 5.9723-0.22635c0.65704-0.0499 1.3123-0.10846 1.9647-0.1747 1.3048-0.13247 2.5998-0.29695 3.8846-0.49325 1.2848-0.19628 2.5585-0.42477 3.8217-0.6833 1.2633-0.25848 2.5159-0.5473 3.756-0.86636 1.8602-0.47854 3.6938-1.0246 5.4971-1.6349 1.2024-0.40684 2.391-0.84181 3.566-1.3052 1.175-0.46331 2.336-0.95457 3.4822-1.4728 1.1462-0.51818 2.277-1.0634 3.3927-1.6349 1.1157-0.57145 2.2156-1.1697 3.2991-1.7928 0.54179-0.31153 1.0805-0.62883 1.6139-0.95297 1.0668-0.64828 2.1158-1.3218 3.1482-2.0192 4.1294-2.7898 7.9759-5.9664 11.487-9.4781 0.43896-0.43897 0.87396-0.88373 1.3023-1.3331 1.2851-1.348 2.5222-2.7418 3.7086-4.1795 0.79088-0.9584 1.5592-1.9354 2.3042-2.9316 0.37249-0.49811 0.739-1.0019 1.0997-1.5091 0.72142-1.0145 1.4188-2.0466 2.0918-3.0965 1.3461-2.0998 2.5936-4.269 3.7365-6.5004 0.57145-1.1157 1.1166-2.2466 1.6349-3.3927 0.51822-1.1462 1.0094-2.3072 1.4728-3.4822 0.69501-1.7626 1.3278-3.5568 1.8948-5.3797 0.56682-1.8226 1.0688-3.6743 1.5021-5.5516 1.1e-4 -4.2e-4 -1.1e-4 -7e-4 0-9.5e-4 0.43344-1.8778 0.79828-3.7809 1.0927-5.7081 0.5889-3.8544 0.8943-7.8024 0.8943-11.822 0-0.67031-9e-3 -1.3376-0.0253-2.0038-0.0167-0.66531-0.042-1.3288-0.0756-1.9898-3e-5 -4.57e-4 2e-5 -7.16e-4 0-2e-3 -0.0673-1.3225-0.16802-2.6362-0.30044-3.9405-5e-5 -4.6e-4 5e-5 -9.25e-4 0-9.55e-4 -0.1325-1.3048-0.29696-2.5998-0.49325-3.8846-0.29447-1.9272-0.65927-3.8304-1.0927-5.7081-0.28886-1.2514-0.6086-2.4922-0.95716-3.7197-0.17434-0.61395-0.35597-1.2257-0.54494-1.8333-0.18901-0.60764-0.38628-1.2126-0.58968-1.8138-0.40684-1.2023-0.8418-2.391-1.3052-3.566-0.46336-1.175-0.95459-2.3359-1.4728-3.4822-0.51822-1.1462-1.0634-2.277-1.6349-3.3927-1.1429-2.2314-2.3903-4.4007-3.7365-6.5004-0.67307-1.0499-1.3704-2.082-2.0918-3.0965-2.1642-3.0434-4.5422-5.9243-7.1124-8.6202-0.42838-0.44931-0.86338-0.89271-1.3023-1.3317-0.21678-0.2168-0.4388-0.42855-0.65815-0.64278-0.66863-0.65304-1.3455-1.2996-2.0372-1.9283-1.3784-1.2529-2.8013-2.4557-4.2674-3.6079-13.195-10.37-29.837-16.556-47.922-16.556zm0 56.451c11.692 0 21.169 9.4774 21.169 21.169 0 11.692-9.4774 21.168-21.169 21.168s-21.169-9.4761-21.169-21.168c0-11.692 9.4774-21.169 21.169-21.169z" style="fill:url(#b);stroke-width:.95392"/><path d="m81.791 5.5246-0.0029 0.00141c-42.436 0-76.822 34.389-76.822 76.823 0 9.6584 1.7842 18.896 5.036 27.41 8.016 2.8236 16.513 4.6434 25.494 4.6434 14.707 0 28.348-4.2736 40.049-11.412-8.8632-2.6794-15.323-10.908-15.323-20.642 0-11.906 9.6622-21.568 21.568-21.568 9.5174 0 17.595 6.1763 20.456 14.735 6.5668-11.348 10.558-24.364 10.558-38.418 0-9.5725-1.9498-18.643-5.1338-27.102-8.0866-2.892-16.797-4.4715-25.88-4.4715z" style="fill:url(#a);opacity:.21394;stroke-width:.71544"/><path d="m82.5 46.771c-19.734 0-35.729 15.994-35.729 35.729 0 19.731 15.994 35.729 35.729 35.729 19.734 0 35.729-15.996 35.729-35.729 0-19.734-15.994-35.729-35.729-35.729zm0 16.768c10.47 0 18.96 8.4896 18.96 18.96 0 10.47-8.4896 18.96-18.96 18.96s-18.96-8.4896-18.96-18.96c0-10.47 8.4896-18.96 18.96-18.96z" fill="#fefefe" opacity=".2" stroke="#e6e6e6" stroke-width=".95392"/><path d="m106.08 47.883c3.2409 2.962 5.3698 4.8119 6.571 6.1387l-0.15851 0.0052c-2.0094-2.1824-4.2698-4.1029-6.4124-6.1434z" opacity=".3" stroke-width=".95392"/><path d="m126.79 72.803c-0.29861 0.05972-0.4662 0.35542-0.73969 0.47554 0.0409-0.0733 9.5e-4 -0.09422 0.072-0.1537z" opacity=".3" stroke-width=".95392"/><path d="m119.01 65.386c-0.32033-0.06468-0.77234-0.03018-1.1384 0.1585-0.36605 0.18868-0.60107 0.47534-0.7397 0.71571l-0.0147 0.01918-0.01 0.02412c-0.44878 0.8399-0.3959 1.5112-0.30262 2.2768 0.0933 0.76556 0.31532 1.5729 0.855 2.3152 0.57774 0.79536 1.3035 1.2838 1.955 1.7388 0.40454 0.28255 0.53102 0.35141 0.75415 0.48994l0.1489 0.76853 0.97509 0.20173c0.27157 0.05587 0.50379 0.10142 0.81176 0.09605 0.30799-0.0052 0.84415-0.06894 1.2873-0.55238 0.44318-0.48342 0.44574-1.0462 0.4275-1.2873-0.0178-0.24111-0.0491-0.3353-0.0575-0.38426l-0.0625-0.38427-0.24496-0.30262c-0.51164-0.63475-1.2672-1.9242-1.9646-3.0692-0.3487-0.57253-0.68955-1.1133-1.0423-1.5804-0.17638-0.23351-0.34984-0.44698-0.57642-0.65807-0.22658-0.21108-0.48882-0.47032-1.0615-0.58601z" opacity=".3" stroke-width=".95392"/><path d="m106.05 47.863c3.2485 2.9672 5.3856 4.8227 6.5902 6.1532l-0.16331 0.0096c-2.0152-2.1886-4.2774-4.1166-6.4269-6.1628z" opacity=".3" stroke-width=".95392"/><path d="m48.641 13.564c-1.8408-0.0249-2.218 2.2797-0.62321 2.8673 8.9794 3.6499 17.343 7.907 25.37 12.504l-1.885 4.4449c-0.95654 2.2553-0.91225 4.0444-0.7266 5.5194-3.4709-1.6426-18.756-8.4815-45.556-8.631-0.01554-0.0015-0.07967-0.02484-0.10899-0.03214-5.5149 6.0521-10.083 12.98-13.476 20.551l0.09921-0.06009c4.9746-3.0118 10.878-5.1006 17.97-5.655h0.0098c21.057-1.7375 46.781 9.6469 72.087 21.422-0.019 2.9153 0.24593 5.8728 2.3894 8.5516 1.4633 1.829 4.0511 3.0655 6.6849 4.3094 2.6337 1.2438 5.347 2.3742 6.404 2.9805v-0.0054c2.4309 1.3953 10.571 6.6229 15.354 12.847l1.4169 1.8473 1.0983-2.0554c5e-3 -0.0096 0.7339-0.85588 1.6936-1.6587 0.95962-0.80272 2.1772-1.718 3.3662-2.5739 2.378-1.7117 4.6336-3.1831 4.6336-3.1831l4.4072-2.8673-5.2582 0.10619s-0.32616 0.01951-1.4127-0.18864c-1.0866-0.20826-2.8197-0.64547-5.2875-1.5678-2.2549-0.84257-4.9697-2.6776-7.0622-4.3388-1.0462-0.83055-1.9468-1.6172-2.5823-2.205-0.0652-0.06016-0.0915-0.08949-0.15091-0.14532 0.58479-0.63464 0.75858-1.5404 0.62881-2.124-0.14162-0.63674-0.41137-1.1426-0.71543-1.6349-0.60811-0.98458-1.3758-1.8541-1.9116-2.3894 0.0945 0.09451-0.14663-0.17965-0.3815-0.5226-0.23488-0.34286-0.53888-0.80744-0.88033-1.3442-0.68284-1.0737-1.5212-2.4417-2.3364-3.7882-1.6301-2.6928-3.0934-5.1854-3.2404-5.4314v-0.0054c4e-3 0.0072-0.37148-0.76394-1.0732-1.2325l-0.17885-0.12157-0.19841-0.06287c-0.0791-0.02542-0.14209 0.0053-0.21801-0.01398l1.2422-0.08384-1.8668-2.2623s-23.126-28.024-67.212-41.681c-0.0034-0.0011-0.0051-0.0046-0.0083-0.0054-0.04232-0.01309-0.07797-0.03015-0.12017-0.04331v0.0029c-0.13559-0.02355-0.26434-0.03606-0.38706-0.03774zm24.917 15.473c4.0273 2.3121 7.9714 4.7051 11.73 7.2889l-1.0214 2.5599c-0.91261 2.2952-0.85073 4.1143-0.68609 5.6439-2.8587-1.1873-8-3.8237-9.2141-10.821l-0.80766-4.6713zm-49.78 3.8734c0.33686 0.14662 0.49658 0.28747 1.171 0.34934l0.0615 0.0098h0.06848c29.527 0.13447 47.109 9.33 47.109 9.33l1.8808-2.1477c4.1194 6.0994 11.189 8.1996 11.189 8.1996l3.7351 1.0438-2.0513-3.2894s-0.30947-0.45412-0.50304-1.5608c-0.03826-0.2186 0.14111-0.69947 0.12157-0.95854 2.9714 5.4396 6.4251 8.9573 10.385 10.632l3.3271 1.4071-1.3485-3.3522c-0.18955-0.47105-0.03369-0.64757-0.12156-1.0299 4.1333 6.4187 10.129 9.5482 10.129 9.5482l0.44013 0.21799 0.48768-0.08804s1.4297-0.2573 3.0085-0.45972c0.78936-0.10121 1.6144-0.18744 2.2847-0.22218 0.50827-0.02641 0.727 0.0053 0.86495 0.0098 2e-3 0.02313-0.0456-0.07316 0.0629 0.10759-3e-3 -0.0052 1.6142 2.7338 3.2558 5.4454 0.82135 1.3567 1.6654 2.7335 2.3699 3.8412 0.35221 0.55386 0.67152 1.0403 0.93898 1.4309 0.26749 0.39056 0.4112 0.63315 0.73082 0.95296 0.36545 0.36518 1.0685 1.1793 1.4784 1.8431 0.13043 0.2112 0.16074 0.31367 0.21797 0.44995-0.30174 0.1944-0.70598 0.22056-0.8943 0.5757-0.42082 0.79356-0.16796 1.5583-0.0336 1.8724l6e-3 0.0054c0.23285 0.54182 0.25975 0.42274 0.34235 0.51701 0.0826 0.09429 0.16995 0.19136 0.27669 0.30043 0.21346 0.21811 0.49489 0.48731 0.8412 0.80766 0.69264 0.64068 1.6409 1.4734 2.7528 2.3559 2.2237 1.7652 5.0572 3.7444 7.8784 4.7984 1.8233 0.68145 2.8826 0.90488 4.0397 1.1933-0.77418 0.52837-0.88437 0.57319-1.8235 1.2492-1.2238 0.88092-2.4877 1.8258-3.5423 2.7081-0.48359 0.40457-0.72615 0.8053-1.1067 1.171-5.26-6.1935-12.512-11.003-15.024-12.445v-0.0069c-1.5048-0.86325-4.0803-1.889-6.6164-3.0867s-4.9984-2.6878-5.6214-3.4668c-1.7759-2.2198-1.8872-4.5187-1.7942-7.628l0.0293-0.98795-0.90129-0.4206c-25.589-11.916-51.861-23.918-74.406-22.061h-0.0098c-5.7348 0.44945-10.605 2.0743-15.055 4.1459 0.99539-1.9479 1.9204-3.9765 3.1063-5.7319 1.8011-2.666 4.0287-5.0942 6.2643-7.575l0.0015-0.0015zm62.621 4.2423c3.8533 2.6986 7.6781 5.4269 11.222 8.4414l-1.5971 0.27667c0.01224 0.44827-0.37447 2.0974-0.3675 4.213-3.2455-1.9583-6.1491-4.7491-8.591-11.174l-0.66653-1.7565zm14.111 11.212c3.2941 2.9678 6.608 5.913 9.5954 9.1962l0.46529 0.51282c-0.19428 0.03238-0.52762 0.07812-0.63298 0.09642-0.47617-0.24542-6.0206-3.4405-9.428-9.8051zm-87.555 68.636c0.85352 1.7173 1.7675 3.3994 2.7416 5.0416 8.7591 4.9375 19.816 7.9914 33.462 7.814 14.108 0.0358 28.081 1.2845 39.106 2.9022 17.059 2.5032 30.389 6.6721 41.027 11.674 0.87125-0.6593 1.7305-1.3343 2.5725-2.0289-11.155-5.4475-25.153-9.9718-43.167-12.615-11.167-1.6385-25.254-2.9012-39.535-2.9372h-0.02516c-15.488 0.20477-27.412-3.7077-36.182-9.8516zm12.526 18.163c1.177 1.2738 2.395 2.509 3.654 3.7016 1.9012 0.27763 3.8272 0.47531 5.7934 0.52538 29.61 1.5764 49.712 1.7862 74.191 14.476 5e-3 2e-3 0.01 7e-3 0.0141 0.01 0.49748 0.27563 0.98304 0.63348 1.4672 0.99912 1.1026-0.42846 2.1922-0.88285 3.2697-1.3596-1.0922-0.81962-2.1785-1.662-3.3145-2.2903l-0.0376-0.0195c-25.091-13.008-45.901-13.244-75.486-14.821h-0.03773c-3.2736-0.0833-6.4319-0.54998-9.5174-1.2227zm75.092 3.5143-0.78389 2.8938c6.7867 2.5304 12.518 6.1417 17.773 10.195 0.88099-0.44689 1.7504-0.91262 2.6116-1.3917-2.2748-1.8371-4.5488-3.6762-7.1208-5.2428 3.6138 1.0543 6.7359 2.3529 9.858 3.6512 1.1749-0.71786 2.3271-1.468 3.4598-2.2455-7.457-3.2422-15.71-6.0944-25.798-7.8598z" style="opacity:.2;stroke-width:.72044"/><path d="m49.322 14.131c24.599 9.9997 46.008 23.25 62.63 41.51l3.9908-0.2627s-22.86-27.735-66.621-41.248zm-24.507 16.434c-4.6369 5.1469-8.5917 10.918-11.73 17.172 4.8682-2.6925 10.561-4.5519 17.236-5.0737 21.914-1.8081 48.079 10.014 73.661 21.927-0.0951 3.177 0.0364 6.0005 2.124 8.6088 2.0866 2.6081 10.101 5.4526 12.663 6.9224 2.5612 1.4701 10.766 6.6898 15.794 13.234 1.0904-2.0396 10.196-7.9664 10.196-7.9664s-2.1816 0.04391-7.2566-1.8528c-5.0757-1.8967-11.099-7.6344-11.242-7.9664-0.1422-0.33223-0.23731-0.8513 0.9488-1.0885 0.9006-0.75822-1.1361-3.2258-2.0374-4.1264-0.90057-0.90116-6.9261-11.145-7.0677-11.383-0.14214-0.2373-0.19254-0.4754-0.61902-0.76015-1.3283-0.42716-7.1572 0.62042-7.1572 0.62042s-8.9723-4.411-12.064-13.912c0.0451 1.664-1.5385 3.4808 0 7.3039-4.6778-1.9789-8.6968-5.3533-11.866-13.694-1.8862 4.7438 0 7.7639 0 7.7639s-11.018-3.0807-12.78-13.24c-1.9343 4.5603 0 7.3039 0 7.3039s-17.96-9.3694-47.801-9.5046c-0.36605-0.03359-0.68448-0.15918-1.0019-0.28925zm93.958 36.448c0.81045 0.16372 2.4917 3.7703 3.8078 5.4035 0.0638 0.37274 0.16921 0.60143-0.70286 0.42199-0.0734-0.38318-0.2026-0.49885-0.2026-0.49885s-2.1018-1.2509-2.7472-2.1393c-0.64591-0.88843-0.76065-2.4429-0.44574-3.0322 0.0768-0.13298 0.17487-0.17852 0.29064-0.15511zm-105.53 50.564c3.4146 6.7289 7.7789 12.894 12.92 18.317 3.0975 0.60984 6.2732 1.0015 9.5296 1.0843 29.61 1.5772 50.068 1.8008 74.863 14.656 1.0023 0.55423 1.9614 1.33 2.933 2.0499 2.2623-0.98624 4.4669-2.0775 6.6108-3.267-5.5994-4.447-11.723-8.4271-19.057-11.161 9.7514 1.7064 17.76 4.4222 25 7.5092 1.9066-1.2944 3.7519-2.6733 5.532-4.1277-10.941-5.2829-24.681-9.6777-42.366-12.273-11.096-1.6281-25.129-2.8803-39.325-2.9163-15.511 0.20509-27.62-3.7093-36.641-9.8723z" style="fill:#fff;stroke-width:.72044"/><g transform="matrix(1.3549 0 0 1.3549 -57.66 -49.183)"><g transform="matrix(1,0,0,-1,0,243.94)"><rect x="134.86" y="120.58" width="4.3781" height="2.7903" rx=".62798" fill="#ccc" stroke-width=".19664"/><path transform="matrix(.20255 0 0 .20255 192.53 100.82)" d="m-281.87 97.314c-1.7692 0-3.1934 1.4242-3.1934 3.1934v7.8027c0 1.7692 1.4242 3.1953 3.1934 3.1953h15.877c1.7692 0 3.1934-1.4261 3.1934-3.1953v-7.8027c0-1.7692-1.4242-3.1934-3.1934-3.1934zm1.4023 1.2539h13.07c1.4565 0 2.6289 1.1724 2.6289 2.6289v6.4238c0 1.4565-1.1724 2.6289-2.6289 2.6289h-13.07c-1.4565 0-2.6289-1.1724-2.6289-2.6289v-6.4238c0-1.4565 1.1724-2.6289 2.6289-2.6289z" filter="url(#l)" opacity=".50924"/><rect x="141.18" y="120.58" width="4.3781" height="2.7903" rx=".62798" fill="#ccc" stroke-width=".19664"/><path transform="matrix(.20255 0 0 .20255 198.85 100.82)" d="m-281.87 97.314c-1.7692 0-3.1934 1.4242-3.1934 3.1934v7.8027c0 1.7692 1.4242 3.1953 3.1934 3.1953h15.877c1.7692 0 3.1934-1.4261 3.1934-3.1953v-7.8027c0-1.7692-1.4242-3.1934-3.1934-3.1934zm1.4023 1.2539h13.07c1.4565 0 2.6289 1.1724 2.6289 2.6289v6.4238c0 1.4565-1.1724 2.6289-2.6289 2.6289h-13.07c-1.4565 0-2.6289-1.1724-2.6289-2.6289v-6.4238c0-1.4565 1.1724-2.6289 2.6289-2.6289z" filter="url(#l)" opacity=".50924"/><rect x="147.35" y="120.58" width="4.3781" height="2.7903" rx=".62798" fill="#ccc" stroke-width=".19664"/><path transform="matrix(.20255 0 0 .20255 205.02 100.82)" d="m-281.87 97.314c-1.7692 0-3.1934 1.4242-3.1934 3.1934v7.8027c0 1.7692 1.4242 3.1953 3.1934 3.1953h15.877c1.7692 0 3.1934-1.4261 3.1934-3.1953v-7.8027c0-1.7692-1.4242-3.1934-3.1934-3.1934zm1.4023 1.2539h13.07c1.4565 0 2.6289 1.1724 2.6289 2.6289v6.4238c0 1.4565-1.1724 2.6289-2.6289 2.6289h-13.07c-1.4565 0-2.6289-1.1724-2.6289-2.6289v-6.4238c0-1.4565 1.1724-2.6289 2.6289-2.6289z" filter="url(#l)" opacity=".50924"/><rect x="153.52" y="120.58" width="4.3781" height="2.7903" rx=".62798" fill="#ccc" stroke-width=".19664"/><path transform="matrix(.20255 0 0 .20255 211.2 100.82)" d="m-281.87 97.314c-1.7692 0-3.1934 1.4242-3.1934 3.1934v7.8027c0 1.7692 1.4242 3.1953 3.1934 3.1953h15.877c1.7692 0 3.1934-1.4261 3.1934-3.1953v-7.8027c0-1.7692-1.4242-3.1934-3.1934-3.1934zm1.4023 1.2539h13.07c1.4565 0 2.6289 1.1724 2.6289 2.6289v6.4238c0 1.4565-1.1724 2.6289-2.6289 2.6289h-13.07c-1.4565 0-2.6289-1.1724-2.6289-2.6289v-6.4238c0-1.4565 1.1724-2.6289 2.6289-2.6289z" filter="url(#l)" opacity=".50924"/></g><path d="m134.26 121.96h24.145c2.6629 0 4.7233 2.1451 4.8066 4.8066l0.77497 24.733c0.0834 2.6616-1.9876 5.4314-4.6505 5.4314h-26.008c-2.6629 0-4.734-2.7698-4.6505-5.4314l0.77497-24.733c0.0834-2.6616 2.1437-4.8066 4.8066-4.8066z" fill="#272a34" stroke-width=".08208" style="fill-opacity:.99608"/><path d="m134.51 121.96h23.649c2.6082 0 4.6262 2.0528 4.7081 4.5997l0.75905 23.668c0.0817 2.5471-1.9468 5.1976-4.5551 5.1976h-25.473c-2.6082 0-4.6367-2.6505-4.5551-5.1976l0.75905-23.668c0.0817-2.5471 2.0997-4.5997 4.7081-4.5997z" fill="#4c4f5c" stroke-width=".079466" style="fill-opacity:.99608"/><path d="m134.35 121.96h23.976c2.4932 0 4.4665 2.0074 4.5004 4.5004l0.3149 23.158c0.0339 2.493-1.861 5.0854-4.3542 5.0854h-24.899c-2.4932 0-4.3881-2.5923-4.3542-5.0854l0.3149-23.158c0.0339-2.493 2.0072-4.5004 4.5004-4.5004z" fill="#272a34" stroke-width=".076851" style="fill-opacity:.99608"/><path d="m134.93 121.96h22.808c2.3717 0 4.2352 1.9099 4.2812 4.2812l0.43865 22.586c0.046 2.3713-1.9094 4.2812-4.2812 4.2812h-23.686c-2.3717 0-4.3273-1.9099-4.2812-4.2812l0.43865-22.586c0.046-2.3713 1.9094-4.2812 4.2812-4.2812z" fill="url(#j)" opacity=".1" stroke-width=".073109" style="fill:url(#j)"/><circle cx="137.08" cy="128.15" r="3.1111" fill="url(#i)" opacity=".5" stroke-width=".073109" style="fill:url(#i)"/><path transform="matrix(.073109 0 0 .073109 6.5293 125.5)" d="m2132.8 313.54c-1.7762 30.333-27.515 54.096-58.453 54.096h-323.98c-30.929 0-56.664-23.749-58.453-54.07l-0.1074 5.5098c-0.63 32.436 26.118 58.561 58.56 58.561h323.98c32.442 1e-5 59.19-26.124 58.56-58.561z" fill="#fff" filter="url(#f)" opacity=".1"/><path transform="matrix(.097478 0 0 .097478 83.5 121.42)" d="m467.34 297.32-0.086 2.7129c-0.8381 26.129 19.971 53.32 46.728 53.32h261.33c26.757 0 47.566-27.191 46.728-53.32l-0.086-2.7129c-1.6377 24.559-21.517 48.533-46.642 48.533h-261.33c-25.125 0-45.004-23.975-46.642-48.533z" fill="#4c4f5c" fill-opacity=".99608" filter="url(#g)" stroke-width=".81522"/><path transform="matrix(.073109 0 0 .073109 6.5293 125.65)" d="m1670.9 354.42-0.037 1.2129c-1.1406 36.406 27.188 74.291 63.611 74.291h355.74c36.424 0 64.752-37.885 63.611-74.291l-0.037-1.2129c-1.3377 34.864-28.745 69.504-63.574 69.504h-355.74c-34.829 0-62.237-34.64-63.574-69.504z" fill-opacity=".99608" filter="url(#h)" stroke-width="1.1227"/><path d="m136.85 142.05c-1.282-0.27492-2.1612-1.1753-2.5393-2.6004-0.0835-0.31467-0.0955-0.43731-0.0974-0.99606-2e-3 -0.52451 0.0119-0.69801 0.078-0.98101 0.30576-1.3107 1.1711-2.2313 2.4149-2.5687 0.25996-0.0706 0.40384-0.0844 0.856-0.0826 0.48532 2e-3 0.57559 0.0129 0.84338 0.1021 0.39403 0.1313 0.63706 0.27535 0.93563 0.55466l0.24508 0.22925v-0.72077h1.6493v6.9344h-1.6493v-0.69062l-0.17803 0.17288c-0.33152 0.3219-0.83609 0.57983-1.3 0.66453-0.30266 0.0553-0.96135 0.046-1.2582-0.0176zm1.404-1.461c0.63336-0.16497 1.1194-0.63735 1.3359-1.2984 0.0788-0.24067 0.0897-0.34196 0.0877-0.81817-2e-3 -0.48592-0.0128-0.57527-0.10249-0.84337-0.27663-0.82755-0.96243-1.3327-1.8054-1.3297-0.52486 2e-3 -0.8897 0.15365-1.2572 0.52321-0.78848 0.79294-0.84597 2.2607-0.12409 3.1687 0.42278 0.53171 1.1835 0.77552 1.8655 0.59789zm4.8557-2.1353v-3.4672h1.6492v0.56888l0.24855-0.22772c0.28293-0.25929 0.59347-0.42852 0.90519-0.49335 0.30704-0.0638 1.019-0.0254 1.2859 0.0695 0.17632 0.0627 0.43555 0.17926 0.47658 0.21432 0.01 8e-3 -0.6223 1.4382-0.65176 1.4746-6e-3 7e-3 -0.10878-0.0349-0.22864-0.0937-0.1995-0.0979-0.25273-0.10693-0.63023-0.10693-0.375 0-0.43152 9e-3 -0.62449 0.1042-0.24529 0.12045-0.43747 0.31791-0.57655 0.59236-0.19301 0.38091-0.20322 0.51906-0.20392 2.7614v2.0709h-1.6492zm5.5476 0v-3.4672h1.6492v0.59485l0.21089-0.20102c0.22529-0.21474 0.50523-0.379 0.83863-0.49207 0.15401-0.0523 0.31522-0.0699 0.63723-0.0699 0.45686 0 0.64886 0.0436 1.0276 0.23333 0.17586 0.0881 0.64873 0.5183 0.7212 0.65614 0.0296 0.0563 0.0731 0.0275 0.31413-0.20892 0.45144-0.44258 0.93385-0.64566 1.6292-0.6858 1.1448-0.0661 2.0641 0.57987 2.3538 1.654 0.12088 0.44802 0.13873 0.85423 0.13873 3.1569v2.2969h-1.6492v-2.1338c0-1.2672-0.0159-2.2529-0.039-2.427-0.051-0.38269-0.21521-0.72826-0.41489-0.8729-0.51603-0.3738-1.3096-0.13912-1.6234 0.48007-0.19526 0.38534-0.20915 0.57473-0.20915 2.8531v2.1007h-1.6492l-1e-3 -2.0147c-1e-3 -2.608-0.0332-2.9281-0.32637-3.2704-0.46073-0.53828-1.3606-0.39047-1.7406 0.28593-0.21865 0.38912-0.22823 0.50051-0.24579 2.8535l-0.016 2.146h-1.6059z" fill="#b3b3b3" stroke-width=".037483" style="fill:#e7e7e7"/><text x="144.07089" y="129.17302" fill="#666666" font-family="sans-serif" font-size="2.9244px" stroke-width=".073109"><tspan x="144.07089" y="129.17302" fill="#666666" font-family="'FiraCode Nerd Font'" font-weight="bold" stroke-width=".073109">00350179</tspan></text><path d="m135.18 143.71h22.993v1.4422h-22.993z" fill="#b3b3b3" stroke-width=".073744" style="fill:#e7e7e7"/><path transform="matrix(.15421 0 0 .15421 106.86 100.46)" d="m263.97 225.71c-1.153 2.6781-3.4136 7.7574-3.5547 7.9316-0.0387 0.0471-0.70517-0.22602-1.4824-0.60742-1.2938-0.63482-1.638-0.69336-4.0859-0.69336-2.4317 0-2.7994 0.0613-4.0508 0.67578-1.5907 0.78114-2.8364 2.0602-3.7383 3.8398-1.2516 2.47-1.3183 3.3662-1.3223 17.906v2c5e-3 -14.54 0.0707-15.436 1.3223-17.906 0.90192-1.7797 2.1476-3.0587 3.7383-3.8398 1.2513-0.61448 1.619-0.67578 4.0508-0.67578 2.448 0 2.7922 0.0585 4.0859 0.69336 0.77725 0.38139 1.4438 0.65449 1.4824 0.60742 0.19108-0.23586 4.29-9.5086 4.2266-9.5625-0.0868-0.0742-0.35207-0.21295-0.67187-0.36914zm-63.561 6.0274c-3.4036 0.012-5.7694 0.99806-8.1523 3.3945-2.9364 2.953-4.3006 7.349-4.0508 11.672 0.21123-3.6441 1.5677-7.1747 4.0508-9.6719 2.3829-2.3965 4.7487-3.3825 8.1523-3.3945 5.4664-0.019 9.9132 3.2567 11.707 8.623 0.53616 1.6028 0.63318 2.309 0.65625 4.8652 5e-3 -0.42157 0.0102-0.83147 8e-3 -1.3945-0.0136-3.151-0.0825-3.7322-0.66407-5.4707-1.7939-5.3664-6.2406-8.642-11.707-8.623zm115.19 0.0586c-2.7443-0.0685-5.6128 1.5129-7.0117 4.2734-1.2663 2.4988-1.3555 3.7277-1.3555 18.502v2c0-14.774 0.0892-16.003 1.3555-18.502 2.0347-4.0154 7.1811-5.5373 10.527-3.1133 1.2949 0.93798 2.3609 3.1785 2.6914 5.6602 0.15049 1.1292 0.25195 7.5208 0.25195 15.738v-2c0-8.2175-0.10146-14.609-0.25195-15.738-0.33052-2.4816-1.3965-4.7222-2.6914-5.6602-1.0457-0.7575-2.2682-1.129-3.5156-1.1602zm-26.225 0.01c-2.4125 0.11619-4.8656 1.4995-6.252 3.9668-1.4179 2.5234-1.48 3.2462-1.5938 18.504l-0.10547 13.916h-10.412v2h10.412l0.10547-13.916c0.11377-15.258 0.17589-15.981 1.5938-18.504 2.4646-4.3863 8.2994-5.3441 11.287-1.8535 1.9008 2.2207 2.1065 4.2967 2.1172 21.209l0.01 13.064h10.695v-2h-10.695l-0.01-13.064c-0.0106-16.912-0.21641-18.988-2.1172-21.209-1.3072-1.5272-3.1588-2.2036-5.0352-2.1133zm-112.02 14.586c-4e-3 0.42156-0.01 0.80055-8e-3 1.3164 0.0126 3.6233 0.0915 4.4184 0.63281 6.459 2.4512 9.2409 8.1534 15.081 16.467 16.863 1.9248 0.41276 6.1956 0.47164 8.1582 0.11328 3.0088-0.54934 6.2798-2.2211 8.4297-4.3086l1.1562-1.1211v-2l-1.1562 1.1211c-2.1499 2.0875-5.4209 3.7593-8.4297 4.3086-1.9626 0.3583-6.2334 0.29948-8.1582-0.11328-8.3134-1.7828-14.016-7.6224-16.467-16.863-0.50021-1.8856-0.60234-2.8026-0.625-5.7754zm34.836 21.801v2h10.693v-2h-5.3477zm22.852 0v2h10.695v-2h-5.3476zm87.014 0v2h10.695v-2h-5.3477zm-138.42 20.986v2h149.11v-2z" filter="url(#C)" stroke-width=".24307"/><g transform="translate(0,34.031)"><rect x="134.86" y="120.58" width="4.3781" height="2.7903" rx=".62798" fill="#ccc" stroke-width=".19664"/><path transform="matrix(.20255 0 0 .20255 192.53 100.82)" d="m-281.87 97.314c-1.7692 0-3.1934 1.4242-3.1934 3.1934v7.8027c0 1.7692 1.4242 3.1953 3.1934 3.1953h15.877c1.7692 0 3.1934-1.4261 3.1934-3.1953v-7.8027c0-1.7692-1.4242-3.1934-3.1934-3.1934zm1.4023 1.2539h13.07c1.4565 0 2.6289 1.1724 2.6289 2.6289v6.4238c0 1.4565-1.1724 2.6289-2.6289 2.6289h-13.07c-1.4565 0-2.6289-1.1724-2.6289-2.6289v-6.4238c0-1.4565 1.1724-2.6289 2.6289-2.6289z" filter="url(#l)" opacity=".50924"/><rect x="141.18" y="120.58" width="4.3781" height="2.7903" rx=".62798" fill="#ccc" stroke-width=".19664"/><path transform="matrix(.20255 0 0 .20255 198.85 100.82)" d="m-281.87 97.314c-1.7692 0-3.1934 1.4242-3.1934 3.1934v7.8027c0 1.7692 1.4242 3.1953 3.1934 3.1953h15.877c1.7692 0 3.1934-1.4261 3.1934-3.1953v-7.8027c0-1.7692-1.4242-3.1934-3.1934-3.1934zm1.4023 1.2539h13.07c1.4565 0 2.6289 1.1724 2.6289 2.6289v6.4238c0 1.4565-1.1724 2.6289-2.6289 2.6289h-13.07c-1.4565 0-2.6289-1.1724-2.6289-2.6289v-6.4238c0-1.4565 1.1724-2.6289 2.6289-2.6289z" filter="url(#l)" opacity=".50924"/><rect x="147.35" y="120.58" width="4.3781" height="2.7903" rx=".62798" fill="#ccc" stroke-width=".19664"/><path transform="matrix(.20255 0 0 .20255 205.02 100.82)" d="m-281.87 97.314c-1.7692 0-3.1934 1.4242-3.1934 3.1934v7.8027c0 1.7692 1.4242 3.1953 3.1934 3.1953h15.877c1.7692 0 3.1934-1.4261 3.1934-3.1953v-7.8027c0-1.7692-1.4242-3.1934-3.1934-3.1934zm1.4023 1.2539h13.07c1.4565 0 2.6289 1.1724 2.6289 2.6289v6.4238c0 1.4565-1.1724 2.6289-2.6289 2.6289h-13.07c-1.4565 0-2.6289-1.1724-2.6289-2.6289v-6.4238c0-1.4565 1.1724-2.6289 2.6289-2.6289z" filter="url(#l)" opacity=".50924"/><rect x="153.52" y="120.58" width="4.3781" height="2.7903" rx=".62798" fill="#ccc" stroke-width=".19664"/><path transform="matrix(.20255 0 0 .20255 211.2 100.82)" d="m-281.87 97.314c-1.7692 0-3.1934 1.4242-3.1934 3.1934v7.8027c0 1.7692 1.4242 3.1953 3.1934 3.1953h15.877c1.7692 0 3.1934-1.4261 3.1934-3.1953v-7.8027c0-1.7692-1.4242-3.1934-3.1934-3.1934zm1.4023 1.2539h13.07c1.4565 0 2.6289 1.1724 2.6289 2.6289v6.4238c0 1.4565-1.1724 2.6289-2.6289 2.6289h-13.07c-1.4565 0-2.6289-1.1724-2.6289-2.6289v-6.4238c0-1.4565 1.1724-2.6289 2.6289-2.6289z" filter="url(#l)" opacity=".50924"/><rect x="134.86" y="120.58" width="4.3781" height="2.7903" rx=".62798" fill="#ccc" stroke-width=".19664"/><path transform="matrix(.20255 0 0 .20255 192.53 100.82)" d="m-281.87 97.314c-1.7692 0-3.1934 1.4242-3.1934 3.1934v7.8027c0 1.7692 1.4242 3.1953 3.1934 3.1953h15.877c1.7692 0 3.1934-1.4261 3.1934-3.1953v-7.8027c0-1.7692-1.4242-3.1934-3.1934-3.1934zm1.4023 1.2539h13.07c1.4565 0 2.6289 1.1724 2.6289 2.6289v6.4238c0 1.4565-1.1724 2.6289-2.6289 2.6289h-13.07c-1.4565 0-2.6289-1.1724-2.6289-2.6289v-6.4238c0-1.4565 1.1724-2.6289 2.6289-2.6289z" filter="url(#l)" opacity=".50924"/><rect x="141.18" y="120.58" width="4.3781" height="2.7903" rx=".62798" fill="#ccc" stroke-width=".19664"/><path transform="matrix(.20255 0 0 .20255 198.85 100.82)" d="m-281.87 97.314c-1.7692 0-3.1934 1.4242-3.1934 3.1934v7.8027c0 1.7692 1.4242 3.1953 3.1934 3.1953h15.877c1.7692 0 3.1934-1.4261 3.1934-3.1953v-7.8027c0-1.7692-1.4242-3.1934-3.1934-3.1934zm1.4023 1.2539h13.07c1.4565 0 2.6289 1.1724 2.6289 2.6289v6.4238c0 1.4565-1.1724 2.6289-2.6289 2.6289h-13.07c-1.4565 0-2.6289-1.1724-2.6289-2.6289v-6.4238c0-1.4565 1.1724-2.6289 2.6289-2.6289z" filter="url(#l)" opacity=".50924"/><rect x="147.35" y="120.58" width="4.3781" height="2.7903" rx=".62798" fill="#ccc" stroke-width=".19664"/><path transform="matrix(.20255 0 0 .20255 205.02 100.82)" d="m-281.87 97.314c-1.7692 0-3.1934 1.4242-3.1934 3.1934v7.8027c0 1.7692 1.4242 3.1953 3.1934 3.1953h15.877c1.7692 0 3.1934-1.4261 3.1934-3.1953v-7.8027c0-1.7692-1.4242-3.1934-3.1934-3.1934zm1.4023 1.2539h13.07c1.4565 0 2.6289 1.1724 2.6289 2.6289v6.4238c0 1.4565-1.1724 2.6289-2.6289 2.6289h-13.07c-1.4565 0-2.6289-1.1724-2.6289-2.6289v-6.4238c0-1.4565 1.1724-2.6289 2.6289-2.6289z" filter="url(#l)" opacity=".50924"/><rect x="153.52" y="120.58" width="4.3781" height="2.7903" rx=".62798" fill="#ccc" stroke-width=".19664"/><path transform="matrix(.20255 0 0 .20255 211.2 100.82)" d="m-281.87 97.314c-1.7692 0-3.1934 1.4242-3.1934 3.1934v7.8027c0 1.7692 1.4242 3.1953 3.1934 3.1953h15.877c1.7692 0 3.1934-1.4261 3.1934-3.1953v-7.8027c0-1.7692-1.4242-3.1934-3.1934-3.1934zm1.4023 1.2539h13.07c1.4565 0 2.6289 1.1724 2.6289 2.6289v6.4238c0 1.4565-1.1724 2.6289-2.6289 2.6289h-13.07c-1.4565 0-2.6289-1.1724-2.6289-2.6289v-6.4238c0-1.4565 1.1724-2.6289 2.6289-2.6289z" filter="url(#l)" opacity=".50924"/></g></g></svg>
