<svg width="220" height="220" version="1.1" viewBox="0 0 165 165" xmlns="http://www.w3.org/2000/svg" xmlns:xlink="http://www.w3.org/1999/xlink"><defs><radialGradient id="a" cx="66.324" cy="67.941" r="56.524" gradientTransform="matrix(2.5391 0 0 2.5636 -84.601 -90.611)" gradientUnits="userSpaceOnUse"><stop stop-color="#23bac2" style="stop-color:#fff" offset="0"/><stop stop-color="#2b62c0" stop-opacity="0" offset="1"/></radialGradient><linearGradient id="b" x1="28.859" x2="439.18" y1="20.591" y2="430.92" gradientTransform="matrix(.71544 0 0 .71544 3.8016 3.804)" gradientUnits="userSpaceOnUse"><stop stop-color="#265ab1" style="stop-color:#367bf0" offset="0"/><stop stop-color="#20a8af" style="stop-color:#b8174c" offset="1"/></linearGradient><filter id="c" x="-.027" y="-.027" width="1.054" height="1.054" style="color-interpolation-filters:sRGB"><feGaussianBlur stdDeviation="1.7464718"/></filter><filter id="l" x="-.1183" y="-.18559" width="1.2366" height="1.3712" color-interpolation-filters="sRGB"><feGaussianBlur stdDeviation="1.0974128"/></filter><linearGradient id="j" x1="187.28" x2="187.28" y1="239.74" y2="104.63" gradientTransform="matrix(.20561 0 0 .20561 106.86 100.25)" gradientUnits="userSpaceOnUse"><stop stop-color="#fff" offset="0"/><stop stop-color="#4c4f5c" offset="1"/></linearGradient><radialGradient id="i" cx="146.98" cy="135.69" r="15.131" gradientTransform="matrix(.20561 0 0 .20561 106.86 100.25)" gradientUnits="userSpaceOnUse"><stop stop-color="#333" offset="0"/><stop offset="1"/></radialGradient><filter id="f" x="-.015462" y="-.10641" width="1.0309" height="1.2128" color-interpolation-filters="sRGB"><feGaussianBlur stdDeviation="2.8418682"/></filter><filter id="g" x="-.009685" y="-.06133" width="1.0194" height="1.1227" color-interpolation-filters="sRGB"><feGaussianBlur stdDeviation="1.4318783"/></filter><filter id="h" x="-.028456" y="-.18204" width="1.0569" height="1.3641" color-interpolation-filters="sRGB"><feGaussianBlur stdDeviation="5.7271145"/></filter><filter id="C" x="-.012914" y="-.030654" width="1.0258" height="1.0613" color-interpolation-filters="sRGB"><feGaussianBlur stdDeviation=".83619907"/></filter><linearGradient id="e" x1="67.423" x2="22.224" y1="117.27" y2="64.314" gradientUnits="userSpaceOnUse"><stop style="stop-color:#4aaee6" offset="0"/><stop style="stop-color:#2656a8;stop-opacity:0" offset="1"/></linearGradient><linearGradient id="d" x1="100.72" x2="26.101" y1="104.97" y2="55.292" gradientUnits="userSpaceOnUse"><stop style="stop-color:#367bf0" offset="0"/><stop style="stop-color:#4aaee6;stop-opacity:0" offset="1"/></linearGradient></defs><path d="m82.5 4.8814c-18.086 0-34.727 6.1856-47.923 16.555-1.4663 1.1522-2.889 2.3551-4.2674 3.6079-0.69178 0.62874-1.3687 1.2753-2.0374 1.9283-0.21933 0.21423-0.44134 0.42598-0.65814 0.64278-0.43894 0.43895-0.87393 0.88235-1.3023 1.3317-1.7135 1.7973-3.3404 3.6763-4.8767 5.6312-4e-4 5.15e-4 -9.53e-4 8.6e-4 -9.53e-4 9.55e-4 -0.76773 0.977-1.5133 1.9736-2.2344 2.9875-0.72142 1.0145-1.4188 2.0466-2.0918 3.0965-0.33653 0.52492-0.66658 1.0539-0.99074 1.5874-2.01e-4 3.43e-4 2.1e-4 9.53e-4 0 9.53e-4 -0.97214 1.6-1.8888 3.2384-2.7458 4.9116-0.57143 1.1157-1.1167 2.2466-1.6349 3.3927-0.2591 0.57308-0.51188 1.1495-0.75736 1.7299-1.62e-4 4.01e-4 1.72e-4 9.54e-4 0 9.54e-4 -0.2453 0.58002-0.48393 1.1638-0.71544 1.7508-0.46333 1.175-0.89828 2.3637-1.3051 3.566-0.20342 0.60114-0.40069 1.2061-0.58968 1.8138-0.18898 0.60764-0.37061 1.218-0.54495 1.8319-1.24e-4 4.3e-4 1.145e-4 9.55e-4 0 9.55e-4 -0.34857 1.2275-0.66831 2.4683-0.95716 3.7197-0.43345 1.8778-0.79826 3.7809-1.0927 5.7081-0.19631 1.2848-0.36077 2.5799-0.49326 3.8846-4.77e-5 4.58e-4 4.75e-5 9.25e-4 0 2e-3 -0.13242 1.3043-0.23339 2.6179-0.30043 3.9405-2.86e-5 4.6e-4 1.9e-5 7.15e-4 0 9.55e-4 -0.033483 0.66104-0.05857 1.3245-0.075455 1.9898-1.92e-5 4.7e-4 9.7e-6 7.15e-4 0 9.55e-4 -0.016885 0.66533-0.025185 1.333-0.025185 2.0024 0 4.019 0.30539 7.967 0.8943 11.822 0.29445 1.9272 0.65927 3.8303 1.0927 5.7081 9.55e-5 4.6e-4 -1.05e-4 7e-4 0 9.5e-4 0.43338 1.8774 0.9353 3.7292 1.5021 5.5516 0.56697 1.823 1.1998 3.6172 1.8948 5.3797 0.46333 1.175 0.95458 2.336 1.4728 3.4822 0.51826 1.1462 1.0634 2.277 1.6349 3.3927 1.9e-4 3.9e-4 -1.82e-4 7.5e-4 0 2e-3 1.1427 2.231 2.3906 4.3996 3.7365 6.499 0.67304 1.0498 1.3704 2.082 2.0918 3.0965 0.3607 0.50725 0.72721 1.011 1.0997 1.5091 0.74499 0.99615 1.5133 1.9732 2.3042 2.9316 1.1864 1.4376 2.4234 2.8314 3.7085 4.1795 0.42838 0.44933 0.86337 0.89409 1.3023 1.3331 3.5116 3.5116 7.3581 6.6882 11.487 9.4781 1.0323 0.69743 2.0813 1.3708 3.1482 2.0192 0.53346 0.32415 1.0721 0.64144 1.6139 0.95297 1.0836 0.62307 2.1834 1.2214 3.2991 1.7928 1.1157 0.57147 2.2466 1.1166 3.3927 1.6349 1.1462 0.51818 2.3071 1.0094 3.4822 1.4728 1.175 0.46333 2.3637 0.89826 3.566 1.3052 1.8034 0.61023 3.637 1.1564 5.4971 1.6349 1.2401 0.31906 2.4928 0.60788 3.756 0.86636 1.2633 0.25853 2.5369 0.48701 3.8218 0.6833 1.2848 0.1963 2.5799 0.36078 3.8846 0.49325 0.65236 0.0665 1.3076 0.12469 1.9647 0.1747 1.9711 0.14997 3.9627 0.22635 5.9722 0.22635s4.0011-0.0766 5.9723-0.22635c0.65704-0.0499 1.3123-0.10846 1.9647-0.1747 1.3048-0.13247 2.5998-0.29695 3.8846-0.49325 1.2848-0.19628 2.5585-0.42477 3.8217-0.6833 1.2633-0.25848 2.5159-0.5473 3.756-0.86636 1.8602-0.47854 3.6938-1.0246 5.4971-1.6349 1.2024-0.40684 2.391-0.84181 3.566-1.3052 1.175-0.46331 2.336-0.95457 3.4822-1.4728 1.1462-0.51818 2.277-1.0634 3.3927-1.6349 1.1157-0.57145 2.2156-1.1697 3.2991-1.7928 0.54179-0.31153 1.0805-0.62883 1.6139-0.95297 1.0668-0.64828 2.1158-1.3218 3.1482-2.0192 4.1294-2.7898 7.9759-5.9664 11.487-9.4781 0.43896-0.43897 0.87396-0.88373 1.3023-1.3331 1.2851-1.348 2.5222-2.7418 3.7086-4.1795 0.79088-0.9584 1.5592-1.9354 2.3042-2.9316 0.37249-0.49811 0.739-1.0019 1.0997-1.5091 0.72142-1.0145 1.4188-2.0466 2.0918-3.0965 1.3461-2.0998 2.5936-4.269 3.7365-6.5004 0.57145-1.1157 1.1166-2.2466 1.6349-3.3927 0.51822-1.1462 1.0094-2.3072 1.4728-3.4822 0.69501-1.7626 1.3278-3.5568 1.8948-5.3797 0.56682-1.8226 1.0688-3.6743 1.5021-5.5516 1.1e-4 -4.2e-4 -1.1e-4 -7e-4 0-9.5e-4 0.43344-1.8778 0.79828-3.7809 1.0927-5.7081 0.5889-3.8544 0.8943-7.8024 0.8943-11.822 0-0.67031-9e-3 -1.3376-0.0253-2.0038-0.0167-0.66531-0.042-1.3288-0.0756-1.9898-3e-5 -4.57e-4 2e-5 -7.16e-4 0-2e-3 -0.0673-1.3225-0.16802-2.6362-0.30044-3.9405-5e-5 -4.6e-4 5e-5 -9.25e-4 0-9.55e-4 -0.1325-1.3048-0.29696-2.5998-0.49325-3.8846-0.29447-1.9272-0.65927-3.8304-1.0927-5.7081-0.28886-1.2514-0.6086-2.4922-0.95716-3.7197-0.17434-0.61395-0.35597-1.2257-0.54494-1.8333-0.18901-0.60764-0.38628-1.2126-0.58968-1.8138-0.40684-1.2023-0.8418-2.391-1.3052-3.566-0.46336-1.175-0.95459-2.3359-1.4728-3.4822-0.51822-1.1462-1.0634-2.277-1.6349-3.3927-1.1429-2.2314-2.3903-4.4007-3.7365-6.5004-0.67307-1.0499-1.3704-2.082-2.0918-3.0965-2.1642-3.0434-4.5422-5.9243-7.1124-8.6202-0.42838-0.44931-0.86338-0.89271-1.3023-1.3317-0.21678-0.2168-0.4388-0.42855-0.65815-0.64278-0.66863-0.65304-1.3455-1.2996-2.0372-1.9283-1.3784-1.2529-2.8013-2.4557-4.2674-3.6079-13.195-10.37-29.837-16.556-47.922-16.556zm0 56.451c11.692 0 21.169 9.4774 21.169 21.169 0 11.692-9.4774 21.168-21.169 21.168s-21.169-9.4761-21.169-21.168c0-11.692 9.4774-21.169 21.169-21.169z" style="filter:url(#c);opacity:.3;stroke-width:.95392"/><path d="m82.5 54.917c-15.234 0-27.582 12.348-27.582 27.582 0 15.233 12.348 27.582 27.582 27.582s27.582-12.349 27.582-27.582c0-15.234-12.348-27.582-27.582-27.582zm0 12.945c8.0833 0 14.638 6.5543 14.638 14.638 0 8.0836-6.5543 14.638-14.638 14.638-8.0836 0-14.638-6.5543-14.638-14.638 0-8.0836 6.5543-14.638 14.638-14.638z" fill="#72a2f4" stroke="#5b739d" stroke-width=".95392"/><path d="m82.5 4.8814c-18.086 0-34.727 6.1856-47.923 16.555-1.4663 1.1522-2.889 2.3551-4.2674 3.6079-0.69178 0.62874-1.3687 1.2753-2.0374 1.9283-0.21933 0.21423-0.44134 0.42598-0.65814 0.64278-0.43894 0.43895-0.87393 0.88235-1.3023 1.3317-1.7135 1.7973-3.3404 3.6763-4.8767 5.6312-4e-4 5.15e-4 -9.53e-4 8.6e-4 -9.53e-4 9.55e-4 -0.76773 0.977-1.5133 1.9736-2.2344 2.9875-0.72142 1.0145-1.4188 2.0466-2.0918 3.0965-0.33653 0.52492-0.66658 1.0539-0.99074 1.5874-2.01e-4 3.43e-4 2.1e-4 9.53e-4 0 9.53e-4 -0.97214 1.6-1.8888 3.2384-2.7458 4.9116-0.57143 1.1157-1.1167 2.2466-1.6349 3.3927-0.2591 0.57308-0.51188 1.1495-0.75736 1.7299-1.62e-4 4.01e-4 1.72e-4 9.54e-4 0 9.54e-4 -0.2453 0.58002-0.48393 1.1638-0.71544 1.7508-0.46333 1.175-0.89828 2.3637-1.3051 3.566-0.20342 0.60114-0.40069 1.2061-0.58968 1.8138-0.18898 0.60764-0.37061 1.218-0.54495 1.8319-1.24e-4 4.3e-4 1.145e-4 9.55e-4 0 9.55e-4 -0.34857 1.2275-0.66831 2.4683-0.95716 3.7197-0.43345 1.8778-0.79826 3.7809-1.0927 5.7081-0.19631 1.2848-0.36077 2.5799-0.49326 3.8846-4.77e-5 4.58e-4 4.75e-5 9.25e-4 0 2e-3 -0.13242 1.3043-0.23339 2.6179-0.30043 3.9405-2.86e-5 4.6e-4 1.9e-5 7.15e-4 0 9.55e-4 -0.033483 0.66104-0.05857 1.3245-0.075455 1.9898-1.92e-5 4.7e-4 9.7e-6 7.15e-4 0 9.55e-4 -0.016885 0.66533-0.025185 1.333-0.025185 2.0024 0 4.019 0.30539 7.967 0.8943 11.822 0.29445 1.9272 0.65927 3.8303 1.0927 5.7081 9.55e-5 4.6e-4 -1.05e-4 7e-4 0 9.5e-4 0.43338 1.8774 0.9353 3.7292 1.5021 5.5516 0.56697 1.823 1.1998 3.6172 1.8948 5.3797 0.46333 1.175 0.95458 2.336 1.4728 3.4822 0.51826 1.1462 1.0634 2.277 1.6349 3.3927 1.9e-4 3.9e-4 -1.82e-4 7.5e-4 0 2e-3 1.1427 2.231 2.3906 4.3996 3.7365 6.499 0.67304 1.0498 1.3704 2.082 2.0918 3.0965 0.3607 0.50725 0.72721 1.011 1.0997 1.5091 0.74499 0.99615 1.5133 1.9732 2.3042 2.9316 1.1864 1.4376 2.4234 2.8314 3.7085 4.1795 0.42838 0.44933 0.86337 0.89409 1.3023 1.3331 3.5116 3.5116 7.3581 6.6882 11.487 9.4781 1.0323 0.69743 2.0813 1.3708 3.1482 2.0192 0.53346 0.32415 1.0721 0.64144 1.6139 0.95297 1.0836 0.62307 2.1834 1.2214 3.2991 1.7928 1.1157 0.57147 2.2466 1.1166 3.3927 1.6349 1.1462 0.51818 2.3071 1.0094 3.4822 1.4728 1.175 0.46333 2.3637 0.89826 3.566 1.3052 1.8034 0.61023 3.637 1.1564 5.4971 1.6349 1.2401 0.31906 2.4928 0.60788 3.756 0.86636 1.2633 0.25853 2.5369 0.48701 3.8218 0.6833 1.2848 0.1963 2.5799 0.36078 3.8846 0.49325 0.65236 0.0665 1.3076 0.12469 1.9647 0.1747 1.9711 0.14997 3.9627 0.22635 5.9722 0.22635s4.0011-0.0766 5.9723-0.22635c0.65704-0.0499 1.3123-0.10846 1.9647-0.1747 1.3048-0.13247 2.5998-0.29695 3.8846-0.49325 1.2848-0.19628 2.5585-0.42477 3.8217-0.6833 1.2633-0.25848 2.5159-0.5473 3.756-0.86636 1.8602-0.47854 3.6938-1.0246 5.4971-1.6349 1.2024-0.40684 2.391-0.84181 3.566-1.3052 1.175-0.46331 2.336-0.95457 3.4822-1.4728 1.1462-0.51818 2.277-1.0634 3.3927-1.6349 1.1157-0.57145 2.2156-1.1697 3.2991-1.7928 0.54179-0.31153 1.0805-0.62883 1.6139-0.95297 1.0668-0.64828 2.1158-1.3218 3.1482-2.0192 4.1294-2.7898 7.9759-5.9664 11.487-9.4781 0.43896-0.43897 0.87396-0.88373 1.3023-1.3331 1.2851-1.348 2.5222-2.7418 3.7086-4.1795 0.79088-0.9584 1.5592-1.9354 2.3042-2.9316 0.37249-0.49811 0.739-1.0019 1.0997-1.5091 0.72142-1.0145 1.4188-2.0466 2.0918-3.0965 1.3461-2.0998 2.5936-4.269 3.7365-6.5004 0.57145-1.1157 1.1166-2.2466 1.6349-3.3927 0.51822-1.1462 1.0094-2.3072 1.4728-3.4822 0.69501-1.7626 1.3278-3.5568 1.8948-5.3797 0.56682-1.8226 1.0688-3.6743 1.5021-5.5516 1.1e-4 -4.2e-4 -1.1e-4 -7e-4 0-9.5e-4 0.43344-1.8778 0.79828-3.7809 1.0927-5.7081 0.5889-3.8544 0.8943-7.8024 0.8943-11.822 0-0.67031-9e-3 -1.3376-0.0253-2.0038-0.0167-0.66531-0.042-1.3288-0.0756-1.9898-3e-5 -4.57e-4 2e-5 -7.16e-4 0-2e-3 -0.0673-1.3225-0.16802-2.6362-0.30044-3.9405-5e-5 -4.6e-4 5e-5 -9.25e-4 0-9.55e-4 -0.1325-1.3048-0.29696-2.5998-0.49325-3.8846-0.29447-1.9272-0.65927-3.8304-1.0927-5.7081-0.28886-1.2514-0.6086-2.4922-0.95716-3.7197-0.17434-0.61395-0.35597-1.2257-0.54494-1.8333-0.18901-0.60764-0.38628-1.2126-0.58968-1.8138-0.40684-1.2023-0.8418-2.391-1.3052-3.566-0.46336-1.175-0.95459-2.3359-1.4728-3.4822-0.51822-1.1462-1.0634-2.277-1.6349-3.3927-1.1429-2.2314-2.3903-4.4007-3.7365-6.5004-0.67307-1.0499-1.3704-2.082-2.0918-3.0965-2.1642-3.0434-4.5422-5.9243-7.1124-8.6202-0.42838-0.44931-0.86338-0.89271-1.3023-1.3317-0.21678-0.2168-0.4388-0.42855-0.65815-0.64278-0.66863-0.65304-1.3455-1.2996-2.0372-1.9283-1.3784-1.2529-2.8013-2.4557-4.2674-3.6079-13.195-10.37-29.837-16.556-47.922-16.556zm0 56.451c11.692 0 21.169 9.4774 21.169 21.169 0 11.692-9.4774 21.168-21.169 21.168s-21.169-9.4761-21.169-21.168c0-11.692 9.4774-21.169 21.169-21.169z" style="fill:url(#b);stroke-width:.95392"/><path d="m74.883 7.8894c-1.7964 0-2.011 2.2006-0.25928 2.6587 1.0803 0.28251 3.1623 3.3175 2.9092 4.2407-0.06367 0.23232 0.09983 0.42188 0.36328 0.42188 0.66382 0 4.0999 5.6211 3.7661 6.1611-0.31899 0.51616-4.2464 0.9444-15.791 1.7212-4.6464 0.31263-9.462 0.706-10.701 0.8745-2.2175 0.30158-2.2352 0.29131-1.0796-0.70459 0.64565-0.55646 2.0194-1.6455 3.0513-2.42 3.4022-2.5532 4.232-3.3414 3.5391-3.3604-0.37642-0.0103-1.5439 0.73597-2.5942 1.6582s-2.1136 1.4924-2.3628 1.2671c-0.24912-0.22527-0.24364-0.0502 0.01172 0.38965 0.34886 0.60089 0.22374 0.70786-0.50244 0.42919-0.53154-0.20397-0.82358-0.14044-0.64892 0.14209 0.17461 0.28252-0.46957 1.0746-1.4312 1.7593-1.5481 1.1024-2.5329 1.2566-8.5958 1.3506-6.7594 0.10482-6.8499 0.12397-7.1279 1.4736-0.15488 0.75195-1.1056 2.5537-2.1123 4.0034-1.0067 1.4498-1.831 2.9213-1.831 3.271 0 0.34967-0.23395 0.49174-0.52002 0.31494-0.28608-0.1768-1.1008 0.50576-1.8106 1.5161-0.70972 1.0104-2.0196 2.5765-2.9107 3.4804-1.2436 1.2616-1.5485 1.9986-1.314 3.1714 0.23763 1.1881-0.33736 2.5124-2.5884 5.959-1.592 2.4375-3.9877 6.1941-5.3233 8.3482-1.3356 2.1541-2.4442 3.6749-2.4639 3.3794-0.01963-0.29552-0.26478 0.03254-0.54492 0.7295-0.28014 0.69696-0.89798 1.2671-1.3726 1.2671-0.94208 0-1.1978 1.9802-0.32519 2.5196 0.7338 0.45352 0.08387 1.9863-0.84225 1.9863-1.2515 0-1.5904 2.2186-0.52002 3.4014 0.71337 0.78825 1.2268 0.92858 1.96 0.53613 0.78585-0.42056 1.0675-0.26966 1.3506 0.72217 0.36926 1.2938 3.9878 18.443 4.8398 22.938 0.7896 4.1655 2.1193 8.811 2.1767 7.6028 0.02942-0.61952-0.29916-2.6278-0.73096-4.4634s-0.69318-4.7509-0.58154-6.4775c0.16692-2.5817 0.12013-2.7885-0.25928-1.1674-0.25375 1.0841-0.49738 1.7175-0.542 1.4078-0.04458-0.30976-0.81015-4.0479-1.7007-8.307-0.89055-4.2592-1.5466-7.7445-1.459-7.7445 0.08769 0 0.92678 1.2049 1.8647 2.6763 1.1957 1.8758 1.6181 3.1175 1.4136 4.1572-0.16046 0.81555-0.0152 1.6538 0.32373 1.8633 0.33893 0.20947 0.65525 1.1898 0.70166 2.1782 0.07997 1.7031 0.09553 1.7168 0.31787 0.24902 0.12904-0.85185 0.57784-1.5484 0.99608-1.5484 0.41824 0 0.84825-0.26704 0.95655-0.5918 0.11827-0.35479 1.4998-0.0135 3.4614 0.85402 3.6529 1.6155 3.6201 1.4321 1.1909 6.6753-1.48 3.1946-1.0878 3.5339-3.6533-3.1568-0.68724-1.7923-1.3504-3.1584-1.4736-3.0352-0.12326 0.12326 0.54428 2.2174 1.4824 4.6538 0.93818 2.4363 1.7073 4.69 1.7095 5.0068 0.0115 1.5379-3.1933 8.145-4.0606 8.3715-1.489 0.3894-2.3653-1.1457-2.3086-4.0445 0.03222-1.6466-0.047-1.9957-0.21387-0.936-0.14632 0.92925-0.49484 1.925-0.7734 2.2119-0.64477 0.66408-2.8962-1.2951-2.4038-2.0918 0.20798-0.3365 0.07645-0.40336-0.31787-0.15967-1.1776 0.72782-5.5605-3.0963-5.9648-5.2046l-0.35742-1.8662-1.1484 1.4605c-1.2275 1.5605-1.0615 3.0708 0.3501 3.186 0.47435 0.0387 1.1124 0.10193 1.418 0.14062 0.30559 0.0387 2.3319 1.4266 4.5044 3.0835 3.1583 2.4087 3.9482 3.3119 3.9375 4.5058-0.02223 2.4704-0.92558 5.6102-1.8926 6.5771-1.0799 1.0799-1.201 3.0275-0.20654 3.3326 1.5402 0.47238 5.1715 0.81915 4.5893 0.43799-1.5806-1.0349-2.6084-4.6156-2.2192-7.7302 0.38576-3.0875 1.1535-3.9802 1.8164-2.1109 0.19224 0.54209 0.6726 1.3664 1.0664 1.831 0.62242 0.73439 2.4917 7.536 2.4917 9.066 0 0.33008-0.50383 0.29633-1.2671-0.085-1.0023-0.5007-0.94118-0.35776 0.2959 0.68408 0.86468 0.72823 1.6742 2.0718 1.8106 3.0058 0.13569 0.92925 0.7803 3.6969 1.4312 6.1494 0.65088 2.4525 1.0316 5.1136 0.84668 5.9136-0.25304 1.0951-0.19532 1.2454 0.23438 0.60937 0.4157-0.61537 0.53502-0.0795 0.43946 1.9717l-0.13037 2.8154 2.3921-0.0835c1.3154-0.0461 2.2514 0.14113 2.0816 0.41602-0.16988 0.27485 0.04203 0.36498 0.47021 0.20069 0.42818-0.16433 2.5324 0.0922 4.6758 0.56982 2.1434 0.47763 4.5114 0.9657 5.2632 1.084 0.7518 0.11831 1.737 0.68844 2.1885 1.2671 0.72073 0.92377 0.77872 0.93135 0.48046 0.0659-0.40274-1.1685-0.46042-1.1617 2.896-0.33252 1.4536 0.3591 2.846 0.9924 3.0938 1.4078 0.24771 0.4153 0.91702 0.75585 1.4868 0.75585 0.56981 0 1.6305 0.48137 2.3584 1.0708l1.3242 1.0723-2.7612 0.41454c-1.7856 0.26778-3.1244 0.18744-3.7881-0.22704-0.56452-0.35256-1.3795-0.64161-1.8106-0.64161-0.43107 0-1.1307-0.51906-1.5556-1.1543-0.72716-1.0869-0.77902-1.0317-0.88035 0.94335-0.05922 1.1543 0.13995 2.5609 0.44238 3.126 0.66619 1.2448 2.3662 1.3387 3.3252 0.1831 0.82388-0.9927 1.7516-1.1188 1.5498-0.21093-0.07744 0.34848 0.23848 0.74795 0.70312 0.8877 0.50108 0.15069 0.61529 0.0636 0.28125-0.2124-1.2346-1.02-0.8064-1.8745 0.98588-1.9688 1.0067-0.053 2.338-0.1398 2.9576-0.1919 0.61952-0.0521 1.7598 0.4857 2.5342 1.1938 5.6268 5.1454 9.1358 8.7262 8.2778 8.448-0.62482-0.20284-0.87502-0.10472-0.65186 0.25634 0.19935 0.32259 0.65324 0.48929 1.0093 0.37061 0.75428-0.25143 1.69 0.58648 2.2207 1.9878 0.45636 1.2052 2.0128 1.296 2.455 0.14356 0.17762-0.46287 0.55034-0.70167 0.82762-0.53028 0.2773 0.17139 0.50391 0.0284 0.50391-0.31787 0-0.34633 0.29277-0.44808 0.65038-0.22705 0.3587 0.22169 0.49975 0.15636 0.31348-0.14502-0.18569-0.30047 2.4648-1.8706 5.8901-3.4893 5.9178-2.7964 6.2944-2.8994 7.572-2.0625 0.73936 0.48446 1.3448 1.3319 1.3448 1.8824 0 2.3228 2.89 3.1905 3.9609 1.1894 0.86085-1.6084-0.21493-2.7802-2.5532-2.7802-1.0083 0-2.1455-0.37546-2.5268-0.83498-0.58747-0.70785-0.01755-1.1626 3.7325-2.9736 5.021-2.4249 7.1959-2.5976 13.156-1.0488 2.0134 0.52322 4.7804 1.2417 6.1494 1.5967 2.0583 0.53371 2.3032 0.72742 1.4092 1.1176-0.8022 0.35017-0.68197 0.39326 0.46728 0.16993 0.92542-0.17985 1.5484-0.0543 1.5484 0.312 0 0.33725 0.57014 0.5326 1.267 0.4336 0.83175-0.11814 1.267-0.56731 1.267-1.3066 0-0.9213-0.32812-1.1002-1.8062-0.9858-0.99382 0.0769-3.2758-0.26433-5.0698-0.75735-1.794-0.49299-4.8974-1.2591-6.898-1.7036-2.0006-0.4445-3.8147-1.0954-4.0312-1.4458-0.68866-1.1143 0.13546-2.1494 1.6743-2.102l1.4883 0.0469-1.6904 0.7734c-2.5776 1.1803-0.76755 0.97095 2.0405-0.23585 3.4453-1.4806 13.019-2.1071 14.007-0.91695 1.4344 1.7283 3.4438 0.83183 4.0942-1.8252 0.2568-1.049 0.0775-1.2671-1.0444-1.2671-1.0106 0-1.3721-0.32212-1.4209-1.267-0.0556-1.079-0.10649-1.1084-0.33985-0.19629-0.59656 2.3318-2.008 3.071-6.6446 3.4761-2.4732 0.21609-4.3692 0.26511-4.2143 0.10986 0.26601-0.2667 15.09-6.9397 16.895-7.6058 0.46463-0.17136-0.28456 0.86535-1.6655 2.3042-1.381 1.4389-2.2653 2.6162-1.9658 2.6162 0.29946 0 1.7817-1.4042 3.2944-3.1202 1.6891-1.916 3.7515-3.5535 5.3452-4.2436 1.4273-0.61808 3.1026-1.4193 3.7222-1.7812 0.61952-0.36193 2.2667-0.79755 3.6607-0.96683 2.0564-0.24976 2.5342-0.52015 2.5342-1.4341 0-0.61953 0.59141-2.014 1.314-3.0982l1.314-1.9702-1.519 1.689c-1.6832 1.8727-1.6812 1.8583 0.89505-4.5058 2.3426-5.787 3.5494-7.4852 5.4712-7.7062 1.2668-0.14595 1.5669-0.49033 1.7095-1.96 0.13488-1.3905-0.082-1.8635-0.98587-2.1504-1.2828-0.40714-1.4234-0.95198-0.62109-2.4111 0.29578-0.53789 1.3552-3.2002 2.354-5.9165 1.2365-3.363 1.9745-4.7114 2.3144-4.2246 0.32125 0.45999 0.37318 0.26529 0.14502-0.54638-0.21239-0.75548-1e-3 -1.7648 0.52588-2.518 0.48447-0.69169 0.88185-1.6983 0.88185-2.2368s0.53893-1.4819 1.1983-2.0962c1.3184-1.2283 1.0912-2.8696-0.39697-2.8696-0.57447 0-0.8043-0.30789-0.60938-0.81592 0.18661-0.48629 0.0406-0.71512-0.36181-0.5669-0.37142 0.13682-1.367-0.95377-2.2119-2.4229-0.84495-1.4691-2.6527-4.4455-4.018-6.6138-1.3654-2.1683-2.4284-4.0046-2.3613-4.081 0.40889-0.46774 5.328 1.7842 5.606 2.5664 1.5436 4.3444 1.9791 5.3244 1.7066 3.8408-0.2223-1.21-7e-3 -1.8208 0.85695-2.4258 1.9408-1.3594 1.1466-4.1235-1.1851-4.1235-0.68304 0-1.103-0.60826-1.358-1.9672-0.20289-1.0814-0.57067-1.8415-0.81735-1.689-0.24667 0.15248-0.17583 1.1635 0.15674 2.2471 0.33235 1.0836 0.4779 2.0973 0.32373 2.2515-0.15415 0.15416-1.5949-0.16705-3.2021-0.71338-2.5148-0.85485-3.239-1.4626-5.1944-4.3623-3.1901-4.7308-4.4585-7.2988-4.5044-9.12-0.0334-1.3238-0.10764-1.3985-0.47022-0.47168-0.3615 0.92408-0.80535 0.46774-2.7759-2.8491-1.2903-2.1719-2.3467-4.1246-2.3467-4.3389s0.87135-0.38965 1.9365-0.38965c1.8844 0 1.9462 0.07332 2.2969 2.6763 0.53061 3.9387 0.88973 4.303 0.55371 0.5625l-0.2915-3.2388h4.0444c2.9292 0 4.3196 0.25045 5.0464 0.90818 0.93577 0.84682 1.0288 0.80708 1.3828-0.60352 0.50373-2.007-0.50223-3.0703-2.0127-2.1269-0.60204 0.37598-2.7276 0.8283-4.7241 1.0048-4.1594 0.36782-3.9608 0.59892-4.5967-5.3204l-0.38672-3.605 1.6143 1.1631c0.8877 0.63995 2.7545 2.32 4.1484 3.7339 1.394 1.4139 2.7807 2.5763 3.082 2.5826 0.30135 0.0062-0.33197-0.78038-1.4078-1.7476-6.5411-5.881-6.7217-6.0974-6.397-7.7212 0.4087-2.0435-1.0557-3.4412-2.5972-2.4785-0.85673 0.53504-1.3544 0.36239-2.9121-1.0108-1.033-0.91058-2.1307-1.6498-2.4404-1.6421-0.30975 0.0076 0.31475 0.7635 1.3872 1.6802 2.1526 1.8399 1.838 1.937-3.0088 0.92872-3.6387-0.75698-3.116-0.13255-8.115-9.681-1.6546-3.1603-1.6418-3.122-1.7388-5.0859-0.0824-1.6683-1.6447-2.4915-2.5474-1.3418-0.72099 0.9183-0.83407 0.95235-6.7808 2.0112-5.1592 0.9186-5.9487 0.7587-5.9487-1.1983 0-1.0312 0.30042-1.4253 1.084-1.4253 1.0138 0 1.0298-0.10785 0.2461-1.6787-0.46052-0.9231-1.0782-1.8258-1.3711-2.0068-0.84022-0.51927-2.7744 0.29968-2.7744 1.1748 0 0.58047-0.45326 0.70299-1.6904 0.45556-1.0763-0.21526-1.689-0.10773-1.689 0.2959 0 0.34848 0.69651 0.63919 1.5484 0.646 1.9917 0.0161 3.9448 1.5766 4.1806 3.3413 0.18125 1.356 0.0379 1.4078-7.4179 2.6836-10.472 1.792-10.491 1.7871-14.324-4.2861-1.7605-2.7901-3.1362-5.6234-3.1362-6.4585 0-1.2116-0.26117-1.4883-1.4078-1.4883zm3.0967 1.7622c-0.2552 0-0.50953 0.0391-0.70312 0.11719-0.3872 0.15624-0.07125 0.28418 0.70312 0.28418s1.0918-0.12794 0.70459-0.28418c-0.1936-0.0781-0.44939-0.11719-0.70459-0.11719zm-5.5517 0.73242c0.0035-0.0118-0.02248-0.01-0.08056 7e-3 -1.5109 0.44589-9.8325 3.8223-10.701 4.3418-0.46464 0.278-1.942 1.0279-3.2842 1.6655-1.3422 0.63769-2.3249 1.2757-2.1826 1.418s1.1778-0.17908 2.3013-0.71484c1.9688-0.93885 2.0721-0.93555 2.8579 0.11573 0.5156 0.68976 0.72768 1.9196 0.57568 3.3442l-0.24023 2.2529 0.5669-2.3159c0.82298-3.3585 1.9525-3.6544 7.7948-2.0376 2.6653 0.73766 6.2038 1.7175 7.863 2.1767 1.6595 0.45922 3.1252 0.72734 3.2564 0.59619 0.13114-0.13115-3.2302-1.2165-7.4692-2.4126-7.0175-1.9802-9.2228-2.9602-9.2228-4.0957 0-0.22235 1.9631-1.3437 4.3638-2.4932 2.1005-1.0057 3.5758-1.7662 3.6006-1.8486zm34.4 4.5893c-0.40392-0.0279-0.68847 0.0795-0.68847 0.29004 0 0.28076 0.50694 0.51123 1.1265 0.51123 0.61952 0 1.1265-0.098 1.1265-0.2168 0-0.11875-0.50695-0.34776-1.1265-0.50977-0.15488-0.0405-0.30335-0.0654-0.43799-0.0747zm-35.11 0.30908c-0.30624-4e-3 -0.63422 0.0297-0.90818 0.10107-0.54797 0.1428-0.23494 0.26976 0.69434 0.28125 0.92925 0.0115 1.3774-0.10499 0.99608-0.25927-0.19065-0.0771-0.47599-0.11927-0.78225-0.12305zm40.979 2.4873c2.2404-0.0369 3.5781 1.1637 5.0259 4.1997 0.81248 1.7037 2.2295 4.4279 3.1494 6.0542 1.8269 3.2296 1.6832 3.3976-2.0596 2.4082-0.92925-0.24566-4.0877-0.88912-7.018-1.4312-6.0022-1.1102-8.0272-2.4877-8.7248-5.9326-0.21624-1.0688-0.51122-2.3676-0.65625-2.8858-0.21675-0.77437 0.3166-1.0092 2.9985-1.3228 1.7944-0.20978 4.304-0.60273 5.5767-0.87308 0.62563-0.13288 1.191-0.20828 1.708-0.21679zm-11.39 1.582c0.4023 0.0511 0.72996 1.2377 1.1367 4.0254 0.56368 3.863 0.24134 3.9195-8.1442 1.4048-4.1506-1.2447-7.7625-2.1912-8.0257-2.1035-0.26315 0.08772 2.8962 1.145 7.0195 2.3496 4.1234 1.2046 7.725 2.3139 8.004 2.4668 0.27924 0.15288 0.0405 0.61976-0.53027 1.0371-0.57077 0.41736-1.4332 0.74504-1.916 0.72802-1.1566-0.04078-13.214-6.0066-13.427-6.643-0.09042-0.27125 3.3105-1.0483 7.5585-1.7256 4.2481-0.67732 7.9147-1.3488 8.1472-1.4926 0.061-0.0377 0.11977-0.0542 0.17724-0.0469zm18.068 1.21 1.3652 1.5484c0.75097 0.85185 1.4489 1.5484 1.5498 1.5484 0.44171 0 0.0824-0.4553-1.3652-1.7315zm-39.499 2.0728c0.97905-0.04234 1.5064 0.07138 1.4107 0.32373-0.17631 0.4645-5.2475 5.1793-15.321 14.246-6.1126 5.5016-7.3749 6.7258-6.9404 6.728 0.26104 0.0014 3.3139-2.595 6.7852-5.77 11.746-10.744 15.714-14.222 16.424-14.393 0.9027-0.21901 1.09 0.40216 5.9018 19.497 0.2007 0.79642 0.36732 1.5002 0.5581 2.272 0.23143 0.03859 0.46143 0.08023 0.69141 0.12304-0.83752-3.2503-1.8116-7.0488-2.0816-8.0242l-0.7295-2.6367 2.6016-1.0855c9.4665-3.9494 8.7975-3.7948 11.382-2.6294l2.3438 1.0562-0.34423 3.6856c-0.82965 8.8875-0.79155 10.46 0.0923 3.7676l0.95655-7.2378 4.4766 2.3159c2.462 1.2742 4.6161 2.5335 4.7871 2.7979 0.93495 1.4456 9.8295 10.732 10.059 10.503 0.27139-0.2714-3.5954-4.5214-7.0752-7.7768-1.0077-0.94275-1.7447-1.8016-1.6377-1.9087 0.10704-0.10704 3.436 1.3371 7.3975 3.2095s7.2862 3.3208 7.3887 3.2182c0.1025-0.10249-3.6003-2.0671-8.2298-4.3652-7.1684-3.5587-8.9332-4.7042-11.896-7.7228-1.9134-1.9492-3.3164-3.706-3.1186-3.9038 0.19775-0.19774 4.1378 0.35884 8.757 1.2363l8.3978 1.5952 1.9849 3.6958c4.664 8.6842 4.8802 9.1778 4.3975 10.04-0.26465 0.4729-3.7449 2.1852-7.734 3.8056-3.9895 1.6204-10.136 4.118-13.657 5.5503-0.0322 0.01308-0.0515 0.02066-0.0835 0.03369 0.1767 0.1621 0.34646 0.33116 0.52002 0.49658l3.3721-1.3711c6.0076-2.4418 11.189-4.4399 11.514-4.4399s1.897 1.3946 3.4952 3.0982c2.885 3.0754 2.9026 3.116 2.4814 5.7802-0.23331 1.4759-0.5905 4.5807-0.79245 6.8994-0.20198 2.3187-0.73291 7.5982-1.1806 11.732-0.82987 7.662-0.9981 10.597-0.58154 10.178 0.12828-0.12907 0.63682-4.2899 1.1294-9.246 0.4926-4.9562 1.0322-9.8348 1.1997-10.841l0.30469-1.8296h3.6533c4.2701 0 4.8748 0.6724 3.3926 3.7808-0.52188 1.0943-0.837 2.1029-0.7002 2.2397s0.7027-0.7827 1.2583-2.042c0.62619-1.4193 1.3847-2.2895 1.9952-2.2895 0.54163-1e-6 1.1325-0.23755 1.3125-0.52881 0.59622-0.96472 3.5878 0.56047 4.7139 2.4038 0.59988 0.98198 2.7674 4.4468 4.8164 7.6995 3.9962 6.3434 3.9128 6.164 3.2944 7.1089-0.34871 0.53282-8.1248 4.7182-8.766 4.7182-0.11703 0-1.1901-4.6888-2.3862-10.42-1.1962-5.7305-2.3459-10.418-2.5546-10.418-0.20879 0-0.0407 1.4562 0.37353 3.2373 1.4023 6.0286 3.6304 16.752 3.6284 17.458-1e-3 0.38593-2.9799 2.1243-6.6196 3.8628-9.6435 4.6062-10.162 4.8072-10.588 4.1192-0.52483-0.84922 0.26266-5.5536 1.2495-7.4619 0.4574-0.8847 0.68746-1.7544 0.50977-1.9322-0.17774-0.17772-0.32373-0.02737-0.32373 0.33398 0 0.36139-0.38058 0.65771-0.84525 0.65771-0.52919 0-0.84375 0.53366-0.84375 1.4296 0 0.78675-0.50693 2.4243-1.1265 3.6387l-1.1265 2.209-3.52-3.7998c-0.28497-0.30754-0.62239-0.68031-0.9243-1.0093-0.0484 0.22708-0.10424 0.45121-0.15675 0.67676 0.52614 0.58508 1.9816 2.224 2.2046 2.4668 3.235 3.5239 2.341 4.5196-5.0757 5.5723-0.10025 0.20308-0.20675 0.40254-0.31055 0.60352 1.0252-0.05872 2.4294-0.24809 3.4174-0.47754 1.3613-0.31616 2.1123-0.29042 2.1123 0.07327 0 0.91785-3.4958 8.0115-4.169 8.4593-0.3403 0.22653-0.96862-0.0277-1.3975-0.56397-0.70101-0.8766-0.74822-0.87983-0.45704-0.0308 0.57915 1.6887-0.8628 2.2341-4.081 1.544-0.59971-0.12861-1.1474-0.22092-1.6406-0.29297-0.12692 0.13294-0.25202 0.26737-0.38087 0.39843 0.53903 0.14634 1.198 0.30336 1.9717 0.45557 2.0399 0.40132 3.3955 0.9564 3.3955 1.3901 0 0.3972-0.9507 1.4949-2.1123 2.439s-4.5192 3.6518-7.4619 6.0176c-2.9427 2.3658-5.8566 4.7519-6.4761 5.3013-0.61951 0.54939-2.3936 2.0008-3.9419 3.227-3.5655 2.8236-4.425 3.6387-3.8379 3.6387 0.25761 0 1.1034-0.57012 1.8779-1.267 0.77453-0.69696 2.926-2.48 4.7812-3.9609 4.9283-3.934 6.7341-5.4093 12.561-10.264 6.5998-5.4988 7.492-5.1435 3.7383 1.4912-1.4651 2.5895-3.23 5.5941-3.9214 6.6782-0.69147 1.0841-3.0796 5.0765-5.3072 8.871-3.9329 6.6998-4.1069 6.8994-5.9868 6.8994-1.0647 0-1.9394-0.18954-1.9454-0.42187-6e-3 -0.23232-0.90803-1.4372-2.0039-2.6763-1.0959-1.239-4.3645-5.1668-7.2627-8.7292-1.7485-2.1491-4.1229-5.0668-6.4365-7.9102-0.26036-0.0113-0.51886-0.0288-0.77782-0.0454 4.6259 5.7433 9.1702 11.555 9.1702 11.886 0 0.2739-0.82432 1.072-1.831 1.7739-1.0067 0.70188-3.0928 2.3675-4.6362 3.7002-3.4226 2.955-4.9063 3.1004-6.019 0.59181-0.79808-1.7992-0.80895-1.6986-0.11572 1.0635l0.3457 1.3814-7.8105-0.2959c-4.2963-0.16267-8.952-0.43174-10.346-0.59766-1.7642-0.20997-2.1867-0.14671-1.3916 0.20654 0.62821 0.27911 4.6366 0.69401 8.9092 0.92288 7.1358 0.38218 7.9042 0.53048 9.432 1.8164 1.0875 0.91508 2.0754 1.2926 2.8506 1.0898 0.8163-0.21346 2.3086 0.45916 4.7871 2.1562l3.6006 2.4653-6.7617 3.4145c-3.7191 1.8779-6.8308 3.3882-6.9141 3.3574-0.08319-0.0309-0.71473-0.22044-1.4048-0.42188-1.5259-0.44543-2.5907-1.3154-8.115-6.6401-2.6916-2.5942-3.9559-4.163-3.3794-4.1924 3.8277-0.19473 14.524-1.5188 12.706-1.5733-1.2627-0.0377-5.0279 0.20591-8.367 0.542l-6.0718 0.61083-1.5058-1.4428c-0.82808-0.79335-1.5599-2.0948-1.626-2.893-0.11839-1.4304 1.7935-5.8975 2.5239-5.8975 0.2064 0 2.9252 1.1664 6.0424 2.5928 8.7442 4.0011 9.4042 4.2773 9.6458 4.0357 0.12419-0.12417-0.84675-0.68009-2.1578-1.2363-1.3109-0.55624-4.8565-2.171-7.8795-3.5874-6.3347-2.9683-6.1459-1.9873-2.0024-10.399 1.4789-3.0024 3.17-6.5566 3.9653-8.3205-0.19336-0.0972-0.38572-0.1955-0.57715-0.29589-0.69266 1.5092-1.6203 3.4461-2.8755 6.0527-2.7561 5.7235-5.5645 11.692-6.2402 13.263-0.79582 1.8499-1.6585 2.9725-2.4492 3.1846-1.4324 0.38421-1.5508 0.37569-4.96-0.33692l-2.6133-0.54639-2.915-5.9209c-1.603-3.257-2.7417-6.0865-2.5312-6.2871 0.21047-0.20061 2.0639 1.5252 4.1192 3.835 4.7519 5.3406 8.9168 9.654 7.9088 8.1915-0.92302-1.3399-7.917-9.4298-8.5665-9.9082-0.24864-0.18327-0.37504-0.56385-0.28125-0.84525 0.0938-0.28138 0.0047-0.51123-0.19775-0.51123-0.20246 0-1.0638-0.75052-1.9145-1.6684l-1.5469-1.67 8.373-8.0468c3.2604-3.1332 5.2666-5.0886 6.7954-6.293-0.21369-0.2265-0.42768-0.45232-0.63574-0.68408-1.2008 1.2994-3.4852 3.6328-6.2886 6.394-4.1669 4.1043-7.902 7.5368-8.2995 7.6275-0.9621 0.21933-1.7188-0.76365-3.1758-4.1265-1.5992-3.6909-4.6047-12.166-4.3798-12.35 0.11607-0.0951 14.846 0.76597 21.075 1.2158-0.2093-0.25451-0.40818-0.51778-0.61084-0.77782-12.422-0.62943-20.779-1.2903-21.16-1.7066-0.22286-0.2433-1.0967-2.4184-1.9424-4.834l-1.5366-4.393 1.8296-4.1968c1.0064-2.3082 1.9354-4.1968 2.0654-4.1968s1.934 0.73794 4.0078 1.6391c2.0739 0.9012 6.1581 2.6745 9.0765 3.9404 0.3586 0.15557 0.67909 0.28632 1.021 0.43066-0.05328-0.19929-0.10668-0.39854-0.15674-0.59912-4.5115-1.9118-13.35-5.9264-13.624-6.2007-0.0892-0.08919 1.9952-5.0198 4.6318-10.957 2.6366-5.9373 4.7944-10.942 4.7944-11.122 0-0.18066 0.478-1.0016 1.0635-1.8237 0.58546-0.82222 1.0714-1.7062 1.0796-1.9643 0.0082-0.25814 0.20324-0.63872 0.43359-0.84525 0.23032-0.2065 0.23747-0.05908 0.01465 0.32812-0.23636 0.41073-0.09907 0.70572 0.33106 0.70752 0.2312 8.25e-4 1.7642 2.6597 3.8554 6.5581 0.14465-0.3001 0.30322-0.59209 0.45556-0.8877-2.3626-4.8955-3.2196-7.0972-2.9165-7.4004 0.42767-0.42767 1.5992-0.48662 7.8675 0.06885 0.13699-0.15879 0.27203-0.31962 0.41162-0.47607-0.66529-0.08065-0.8715-0.10111-1.6142-0.19336-2.1683-0.2693-4.639-0.55269-5.4902-0.62988-0.85125-0.07719-1.5478-0.27522-1.5484-0.44092-6.16e-4 -0.1657 0.94928-1.0904 2.1109-2.0552 1.1616-0.9648 3.3568-2.9357 4.8794-4.3784 2.6605-2.521 2.807-2.5835 3.7558-1.6054 0.67506 0.69578 1.1122 2.3992 1.3814 5.3833 0.01737 0.19255 0.02014 0.29641 0.03515 0.47314 0.16583-0.1431 0.32824-0.29044 0.49658-0.43066l-0.06152-0.56104c-0.37944-3.4532-0.34723-4.906 0.12012-5.294 0.264-0.21909 2.2124 0.46824 5.6235 1.9497 0.23801-0.13342 0.4766-0.2657 0.71777-0.39404-2.9681-1.45-5.0658-2.5138-5.2324-2.6777-0.33334-0.328-0.12166-0.84195 0.56396-1.3726 1.0051-0.77782 1.0086-0.8181 0.05273-0.4834-0.62378 0.21844-1.2392 0.04997-1.5337-0.42041-0.4166-0.66532-0.73232-0.64902-2.0552 0.10986-0.85965 0.49314-1.5092 1.1629-1.4428 1.4883 0.1798 0.88192-9.9712 9.9638-10.485 9.381-0.41685-0.4732-2.4392-11.003-2.1578-11.235 0.07252-0.0598 2.0332 0.23072 4.3564 0.64454 2.3232 0.41381 4.9843 0.73704 5.9136 0.71924 0.92925-0.01781-0.90135-0.46536-4.0678-0.99465-3.1665-0.52927-5.9276-1.1331-6.1362-1.3418-0.377-0.377-1.8184-7.6972-1.875-9.5228-0.0163-0.52518 0.58049-1.2863 1.3257-1.6904 0.74519-0.40411 3.2152-2.1637 5.4902-3.9111 4.0642-3.1218 4.2182-3.1838 8.8418-3.5771l4.7066-0.40137-0.30908 2.4521-0.30908 2.4507 0.60352-2.357c0.68914-2.69 0.73274-2.7049 9.7515-3.2798 2.7878-0.17771 6.3034-0.46652 7.812-0.64306 0.42014-0.04917 0.79718-0.0811 1.1235-0.09521zm4.0019 0.57129c0.10474-0.10475 3.2818 1.3468 7.0591 3.2256 5.0892 2.5312 6.5975 3.5102 5.8257 3.7837-0.57288 0.20296-2.5623 0.99548-4.4209 1.7608-5.2938 2.1796-5.9122 2.384-5.9224 1.9483-0.0053-0.22466-0.62271-2.6854-1.3711-5.4682-0.74839-2.7828-1.2752-5.1452-1.1704-5.25zm-40.402 0.21533c-0.1187 0.0093-0.2581 0.03418-0.41308 0.07471-0.61995 0.16212-1.1265 0.39248-1.1265 0.51123 0 0.4444 1.6348 0.19459 1.938-0.2959 0.13019-0.21064-0.04232-0.31794-0.39844-0.29004zm80.108 0.8013c-0.29582 0-0.10418 0.50695 0.42627 1.1265 0.53044 0.61955 1.0442 1.1265 1.1411 1.1265s-0.0947-0.50695-0.42627-1.1265c-0.33155-0.61952-0.84525-1.1265-1.1411-1.1265zm-73.889 0.71045c0.96195 0.0436-0.09184 0.81742-4.3798 4.021-2.3217 1.7345-4.3834 3.1538-4.582 3.1538-0.67604 0-1.1656-5.1816-0.54785-5.7993 0.32683-0.32683 1.6774-0.67274 3.0015-0.76905 1.324-0.09631 3.5375-0.30823 4.919-0.47021 0.72308-0.08479 1.2687-0.15076 1.5893-0.13623zm-3.3442 1.1587c-0.1716-0.0091-0.57394 0.13512-1.0386 0.38379-0.61952 0.33156-1.125 0.72988-1.125 0.88478 0 0.15487 0.50548 0.0093 1.125-0.32227 0.61952-0.33155 1.1265-0.72842 1.1265-0.88328 0-0.03872-0.03069-0.05994-0.08789-0.06298zm-7.692 0.99315c0.28622-0.03448 0.46021 0.27556 0.46436 0.939 0.0034 0.54208 0.1565 1.8932 0.33984 3.0015 0.3227 1.9506 0.21027 2.1108-3.5259 5.0127-2.1227 1.6487-4.2232 3.2762-4.6684 3.6167-0.65312 0.49961-0.73564 0.41933-0.42334-0.41309 0.21287-0.56741 0.38818-1.153 0.38818-1.3008 0-0.14784 0.22472-0.12881 0.49952 0.04102 0.27478 0.16983 0.46438-0.13215 0.42188-0.6709-0.04271-0.54176 0.25545-0.91027 0.66796-0.8247 0.41002 0.08511 0.5927-0.09506 0.4043-0.3999-0.38232-0.61861 0.8349-2.852 1.5542-2.852 0.25353 0 0.32461 0.22 0.1582 0.48926-0.16641 0.26926 0.51468 0.3234 1.5146 0.12012 2.1173-0.43044 2.8529-2.6083 1.2715-3.7646-0.79598-0.58205-0.82538-0.8607-0.19922-1.8633 0.44835-0.71792 0.84615-1.0963 1.1324-1.1308zm62.609 1.8911c0.98812-0.05374 2.1475 0.83512 1.733 1.5058-0.16974 0.27466-0.0395 0.49952 0.28857 0.49952 0.32803 0 0.59619-0.2542 0.59619-0.56396 1e-5 -1.1866 1.547-0.47397 3.6504 1.6802 1.2044 1.2334 2.08 2.3433 1.9454 2.4668-0.32582 0.29852-9.528-4.3251-9.5332-4.79-2e-3 -0.19918 0.40723-0.52148 0.9111-0.71484 0.12901-0.04951 0.26753-0.07582 0.40869-0.0835zm-40.895 0.54346c-0.1363-0.13629-0.68282 2.4816-1.2143 5.8169-0.53153 3.3353-1.0888 6.5699-1.2378 7.1894-0.2077 0.8634-0.1525 0.9303 0.23731 0.28271 0.59238-0.98408 2.5821-12.922 2.2148-13.289zm64.279 2.7773c0.57629 0.01001 1.7906 0.16687 3.1304 0.41455 1.7864 0.33023 3.3918 0.45632 3.5669 0.28125 0.17508-0.17507 0.7803 0.44146 1.3448 1.3696 0.56445 0.9282 1.2528 1.6875 1.5308 1.6875 0.40624 0 1.3257 6.3991 1.2539 8.7293-0.0241 0.78517-2.342 0.85725-3.7969 0.11719-0.66558-0.33855-1.5846-1.2647-2.042-2.0566-2.4646-4.2671-5.5298-10.304-5.332-10.502 0.0313-0.03124 0.15215-0.04436 0.34424-0.04102zm-84.968 1.4253 0.49365 1.3052c0.2716 0.71756 0.67726 2.8877 0.9009 4.8237 0.22362 1.936 0.19242 3.4916-0.07031 3.457-0.26274-0.03465-1.7456-0.28868-3.2944-0.56396-1.5488-0.2753-3.6398-0.63839-4.6465-0.80715-2.4855-0.41661-2.3744-1.0955 0.54931-3.353 0.40118-0.30976 1.9305-1.5307 3.3984-2.7129zm-7.0254 0.30908c0.23306-0.02968-0.15602 0.95925-1.2583 2.7744-1.4393 2.3701-2.9795 3.4345-2.9795 2.0596 0-0.30976 0.24982-0.5625 0.55517-0.5625 0.30537 1e-6 1.2296-1.0193 2.0537-2.2646 0.8898-1.3446 1.4476-1.9838 1.6289-2.0068zm52.808 0.876c-0.12105 0.01492-0.3599 0.07653-0.72509 0.1875-1.3892 0.42211-22.791 8.9542-23.045 9.1875-0.84 0.77025 2.224-0.30481 11.553-4.0532 8.1172-3.2615 13.064-5.4263 12.217-5.3218zm-59.464 6.7749c-0.1436 0-1.2378 1.1915-2.4316 2.6484-1.1938 1.457-1.8771 2.4678-1.5176 2.2456 0.76605-0.47343 4.3333-4.894 3.9492-4.894zm6.3046 0.8862c0.8679 0.0022 2.1465 0.1967 4.3682 0.58448 2.7355 0.47747 5.0379 0.93338 5.1182 1.0137 0.08028 0.08028 0.55111 2.5028 1.0459 5.3833 0.6628 3.8585 0.74227 5.5826 0.30176 6.5493-0.35826 0.7863-0.38949 1.4406-0.07764 1.6333 0.69288 0.42822-0.31977 3.0405-1.7857 4.6054-0.63135 0.67403-1.0019 1.4594-0.8247 1.7461 0.25966 0.42014-4.6245 12.135-8.0948 19.415-0.87488 1.8354-0.64544 1.8284-4.3594 0.14062-2.2792-1.0358-2.9576-1.6306-2.9576-2.5972 0-0.85658 2.4463-3.7234 7.7182-9.0442 4.2449-4.284 7.5158-7.7888 7.2671-7.7888-0.44578 0-2.5601 2.0973-11.246 11.153-2.4352 2.5391-4.5262 4.6157-4.6465 4.6157-0.12027 0-0.25682-0.8229-0.30322-1.8296-0.07855-1.7036-0.10096-1.7242-0.31934-0.28271-0.33726 2.2263-1.444 1.9111-2.956-0.84375-0.72258-1.3165-1.6244-2.7741-2.0039-3.2388-0.79305-0.97102-1.6966-3.8001-2.2368-7.0005-0.27338-1.6198-0.5102-1.9988-0.88328-1.4092-0.28047 0.4432-0.50698 0.55292-0.50098 0.24316 0.02852-1.5887 2.1898-2.9074 6.1684-3.7632 2.3232-0.49967 4.3286-0.80842 4.456-0.68702 0.12754 0.1214-0.09038 2.3905-0.48486 5.042-0.39447 2.6515-0.60076 4.9378-0.45704 5.0816 0.14374 0.14374 0.59069-2.0363 0.99315-4.8442 0.51118-3.5663 1.003-5.2439 1.6318-5.5664 0.49513-0.25393 4.0058-1.0532 7.8-1.7754 3.7946-0.72219 6.8994-1.4664 6.8994-1.6552 0-0.18886-3.359 0.31532-7.4634 1.1221-7.4546 1.4653-7.4623 1.4669-7.8285 0.31494-0.35556-1.1196-0.36736-1.1182-0.42188 0.07325-0.05718 1.2502-0.57969 1.4283-7.8 2.6572-1.981 0.33716-2.3714-0.33502-1.0855-1.8692 0.40991-0.48903 2.7157-3.994 5.124-7.7888 2.4083-3.7946 4.6228-6.898 4.9204-6.898 0.29764 0 0.38334-0.2542 0.1919-0.56396-0.19144-0.30976-0.08335-0.5625 0.23877-0.5625 0.63969 0 0.37949 3.0088-0.76613 8.8695-0.37843 1.936-0.51334 3.52-0.29883 3.52 0.21452 0 0.6934-1.9646 1.0635-4.3652 0.37009-2.4007 0.81127-5.1752 0.97995-6.167 0.17344-1.0195 0.87158-2.174 1.607-2.6558 0.58101-0.38068 1.0393-0.57056 1.9072-0.56836zm97.035 4.5952c0.789-0.09343 0.74722 0.35336 0.55518 4.6552-0.0554 1.2391-0.30112 2.2529-0.54639 2.2529s-1.5592-1.1336-2.9194-2.5196l-2.4741-2.5196 1.9336-0.80565c1.0635-0.44267 2.4406-0.89317 3.0601-1.0005 0.14866-0.02575 0.27839-0.04964 0.39111-0.06298zm1.7812 0.32519c0.10744-0.10745 1.5221 1.8882 3.1436 4.4356 2.5418 3.9934 3.8986 7.7558 3.9741 11.018 0.0181 0.78045-1.5701-0.49192-4.4942-3.6006l-3.52-3.7426 0.3501-3.958c0.19268-2.1769 0.43892-4.0454 0.54638-4.1528zm-110.55 0.77782c-0.06303 0.0041-0.1434 0.05551-0.24316 0.15527-0.31949 0.31949-1.0166 0.58154-1.5484 0.58154-1.2003 0-1.636 1.0887-0.9609 2.4009 0.75052 1.4588 2.5218 0.31034 2.8374-1.8398 0.13028-0.8877 0.10413-1.3102-0.08496-1.2979zm34.761 0.13184c-0.01525-0.0053-0.06045 0.01891-0.13623 0.07471-1.1455 0.84338-5.644 5.296-6.9917 6.92-1.8199 2.193-0.02179 0.61952 3.8848-3.3999 2.026-2.0846 3.35-3.558 3.2432-3.5948zm46.013 0.36767c-0.0545 0.07936-0.0886 0.56021-0.10108 1.2861 0.10542 0.06108 0.21164 0.12103 0.31641 0.1831-0.0114-0.38366-0.0336-0.7638-0.082-1.084-0.0485-0.32104-0.095-0.44115-0.1333-0.38525zm-78.233 3.6167c-0.15488 0-0.55321 0.50695-0.88478 1.1265-0.33152 0.61952-0.47568 1.1265-0.3208 1.1265 0.15488 0 0.55174-0.50695 0.88328-1.1265 0.33152-0.61952 0.47715-1.1265 0.32227-1.1265zm-4.9732 0.95362c-0.11564-0.0026-0.3856 0.4862-0.69873 1.2993-0.4175 1.0841-0.75878 2.3508-0.75878 2.8154 0 0.46464 0.34129-0.04231 0.75878-1.1265 0.4175-1.0841 0.75878-2.3508 0.75878-2.8154 0-0.11616-0.02151-0.17198-0.06006-0.17285zm111.67 2.707 3.7076 3.7734c2.0392 2.0755 3.5438 4.0401 3.3428 4.3652-0.20097 0.32517-2.0307 0.59033-4.0664 0.59033h-3.7017l0.34863-2.1123c0.192-1.1616 0.35289-3.1247 0.35889-4.3638zm8.3498 2.2529 2.2983 3.542c1.2642 1.9484 2.2984 3.6589 2.2984 3.8013 0 0.35236-1.6708 0.33153-1.7593-0.02197-0.0387-0.15488-0.10329-0.5559-0.14209-0.89062-0.0387-0.33473-0.49288-0.91733-1.0093-1.295-0.51639-0.3776-1.1068-1.687-1.3125-2.9107zm-10.891 7.1191-11.291 0.22998c0.0414 0.0819 0.0852 0.16239 0.12598 0.24463zm-113.56 5.5532c-0.2668 0-0.48486 0.63332-0.48486 1.4078 0 0.77438 0.09803 1.4077 0.2168 1.4077 0.11877 0 0.33683-0.63332 0.48486-1.4077 0.14804-0.77438 0.05001-1.4078-0.2168-1.4078zm121.72 0.96825c-0.27602 0.1262-2.0581 3.2449-3.0161 5.4111-0.77685 1.7566-1.2837 3.1949-1.1265 3.1949 0.23794 7e-6 3.3681-6.2888 4.0649-8.1668 0.12552-0.3382 0.14134-0.46858 0.0776-0.43946zm-111.21 1.1968c-0.09236-0.05313-0.15674 0.39977-0.15674 1.2129 0 1.0841 0.11468 1.5279 0.25635 0.98587 0.14165-0.54208 0.14165-1.4282 0-1.9702-0.03542-0.13552-0.06882-0.2108-0.09961-0.22852zm106.65 7.9178c-0.30462 0.07208-1.5434 2.2953-1.8486 3.4336-0.21702 0.8094 0.11001 0.46766 0.76905-0.80422 0.63057-1.217 1.147-2.351 1.147-2.5196 0-0.08695-0.0239-0.12016-0.0674-0.10986zm19.984 0.24902c-0.0854-0.0129-0.14419 0.19346-0.16113 0.60352-0.0245 0.5937 0.10876 0.92543 0.2959 0.73828 0.18709-0.18715 0.20664-0.67156 0.0439-1.0781-0.0674-0.16848-0.1275-0.25592-0.17871-0.26367zm2.6982 3.7397c0.0379 0.0045 0.0646 0.01455 0.0791 0.03225 0.11614 0.14129-1.258 3.9328-3.0542 8.424-1.7962 4.4915-3.3471 8.379-3.4454 8.64-0.18436 0.48862-2.6891-11.164-2.6822-12.473 2e-3 -0.40462 1.2079-1.2466 2.6792-1.8706s3.488-1.5486 4.4824-2.0552c0.87015-0.44327 1.6756-0.72779 1.9409-0.69727zm-9.9525 4.648c0.0543 0.08108 0.76928 3.2296 1.5893 6.9976 1.861 8.55 1.573 10.042-2.0376 10.525-1.2974 0.1736-4.5601 0.48218-7.2495 0.68555l-4.8896 0.3706-2.2588-4.4926c-2.102-4.1806-2.5502-6.8994-1.1396-6.8994 0.26842 0 3.952-1.6494 8.187-3.6665 4.235-2.017 7.7445-3.6011 7.7985-3.52zm-18.446 4.1748c0.0872 0.02828 0.12062 0.25012 0.12744 0.64306 0.0123 0.70991-0.48497 1.834-1.1044 2.499-1.4101 1.5136-1.414 1.2122-0.022-1.5776 0.56012-1.1226 0.85372-1.6116 0.999-1.5644zm-107.72 0.45704c-0.10186-0.03795-0.17432 0.28492-0.17432 0.86572 0 0.77438 0.12794 1.0918 0.28418 0.7046 0.15624-0.3872 0.15624-1.022 0-1.4092-0.03906-0.0968-0.07591-0.14848-0.10986-0.16113zm10.438 1.4399c0.15488-3e-3 0.95535 1.8941 1.7798 4.2158l1.5 4.2217-2.0625-0.0366c-1.1342-0.0196-2.6116-0.25678-3.2828-0.52735l-1.2202-0.49219 1.5015-3.687c0.82598-2.0283 1.6293-3.6906 1.7842-3.6944zm123.55 0.18457c-0.0853-0.0129-0.14273 0.19199-0.15966 0.60206-0.0244 0.5937 0.10874 0.92685 0.29589 0.73974 0.18709-0.18716 0.20664-0.67304 0.0439-1.0796-0.0674-0.16848-0.12896-0.25445-0.18017-0.26221zm-0.5625 2.2515c-0.0853-0.0129-0.14419 0.19345-0.16113 0.60352-0.0245 0.5937 0.10875 0.92692 0.2959 0.73975 0.18709-0.18716 0.20664-0.67304 0.0439-1.0796-0.0674-0.16849-0.1275-0.25591-0.17871-0.26368zm-27.516 0.36914c1.2081 0 1.115 0.27634-1.7476 5.1592-2.3232 3.9628-3.608 5.6427-3.608 4.7182 0-1.2664 4.6688-9.8775 5.3554-9.8775zm1.9702 0.5625c0.27312 0 4.4351 7.8848 4.6743 8.8553 0.0596 0.24141-1.2846 0.60001-2.9883 0.79837l-3.0982 0.36182 6.6094-0.15821 5.4932 10.948-4.5806 5.0566c-3.9272 4.3359-5.0926 5.2619-8.1698 6.4936-1.9737 0.79013-3.6746 1.437-3.7793 1.437s-0.52028-3.4253-0.9243-7.611c-0.40403-4.1857-0.85463-7.4906-1.0019-7.3432-0.14728 0.14733 0.0426 3.5094 0.42335 7.4707 0.38073 3.9613 0.68004 7.4216 0.66504 7.6905-0.0149 0.26881-2.7638 1.7006-6.1099 3.1802-5.6299 2.4893-10.872 3.9818-10.872 3.0967 0-0.2055 1.0592-2.1878 2.354-4.4048 1.2948-2.2171 2.633-4.5417 2.9722-5.1665 0.33924-0.6248 2.6357-4.5551 5.1035-8.7338 4.2728-7.2344 4.5058-7.5165 4.894-5.9136 0.36322 1.4997 0.38456 1.4606 0.19189-0.36182-0.11892-1.1251 1e-3 -2.2653 0.26807-2.5342 0.26689-0.26887 1.3407-2.1364 2.3862-4.1499 2.311-4.4506 5.0896-9.012 5.4888-9.012zm-11.221 3.5479c-0.11199 0.17475-0.22064 0.35166-0.33544 0.52442 4e-3 8e-3 5e-3 0.011 9e-3 0.019 1.4727 3.2404 1.9107 3.2771 0.56103 0.0469-0.0911-0.21803-0.15831-0.39727-0.23437-0.59033zm-87.045 2.1636c0.36846-3e-3 0.78248 0.01 1.2466 0.0337l3.2461 0.16846 1.7637 4.7871c0.97012 2.633 2.0446 5.4034 2.3877 6.1552 0.3431 0.7518 0.54618 1.4446 0.45117 1.5395-0.09502 0.095-2.564-2.5887-5.4859-5.9634s-5.4052-6.0451-5.518-5.9341c-0.19432 0.19118 0.98558 1.624 9.378 11.39 1.9472 2.2658 3.3895 4.3642 3.205 4.6626-0.4235 0.68522 0.15101 0.9432-5.0552-2.2734-2.4781-1.531-4.8042-2.7918-5.1694-2.8008s-0.9531-1.4738-1.3052-3.2548c-0.35206-1.7811-0.89962-4.0723-1.2172-5.0918-0.82312-2.6417-0.50644-3.3989 2.0728-3.4174zm117.68 2.978c0.10549 4e-3 0.16851 0.0118 0.18165 0.0249 0.10386 0.10386-0.39633 1.2902-1.1104 2.6367-0.71403 1.3465-1.325 2.702-1.358 3.0117-0.19597 1.8468-1.0031 3.6014-1.5117 3.2871-0.34079-0.21061-0.42319-0.0941-0.19483 0.27539 0.40653 0.65777-1.342 6.293-1.9526 6.293-0.18734 0-0.64406-0.66653-1.0151-1.481s-0.81157-1.3432-0.97995-1.1748c-0.16837 0.16839-0.0465 0.79418 0.27246 1.3901 0.74504 1.3921 0.23763 3.3364-0.9624 3.6856-0.51342 0.14939-2.4221 0.94395-4.2407 1.7651l-3.3062 1.4926 2.1796-2.4727c1.1991-1.3604 4.2986-4.7919 6.8877-7.626 2.589-2.8341 4.4512-5.1533 4.1367-5.1533-0.31444 0-1.6372 1.2715-2.9385 2.8257l-2.3657 2.8257-2.5005-5.146c-1.3753-2.8301-2.4257-5.2171-2.3335-5.3042 0.24873-0.23499 11.53-1.2081 13.112-1.1558zm-22.874 1.5161c-0.40832-2e-3 -0.83625 0.0307-1.1865 0.0981-0.70056 0.13472-0.26051 0.25035 0.97853 0.25635 1.2391 6e-3 1.8129-0.10513 1.2744-0.24609-0.26924-0.0706-0.65809-0.10632-1.0664-0.1084zm25.586 4.1806c-0.19245 4e-3 -0.43764 0.10096-0.76905 0.27833-0.59871 0.32041-1.0898 0.9621-1.0898 1.4267 0 0.46463-0.39944 1.5336-0.8877 2.3745-0.85718 1.4764-0.8547 1.4843 0.0688 0.26074 0.52603-0.69696 1.4185-1.267 1.982-1.267 1.3126 0 1.8216-0.83782 1.3711-2.2574-0.18051-0.56875-0.35452-0.8217-0.67529-0.81592zm-119.8 3.7632c0.34935-0.0145 1.3225 0.46064 2.3438 1.1602 1.1672 0.79942 2.8191 1.7641 3.6709 2.1446 0.85185 0.38042 1.5484 0.9045 1.5484 1.1645 0 0.26005 0.36306 0.47315 0.80715 0.47315 0.45863 0 0.88462 0.65922 0.98588 1.5264 0.1238 1.0605 0.58042 1.6212 1.4971 1.8355 1.0066 0.23525 1.9471 1.6094 3.9653 5.795 1.9856 4.1178 2.4295 5.4763 1.7783 5.4463-0.47716-0.022-3.2596-0.54225-6.1831-1.1558-3.7233-0.78135-5.6712-1.4853-6.5039-2.3525-0.82822-0.86265-1.6684-3.427-2.77-8.4532-0.8697-3.9681-1.4318-7.3632-1.2495-7.5458 0.02278-0.0228 0.05996-0.036 0.10986-0.0381zm41.818 0.3545c0.49426 1.3568 0.90592 2.2786 1.0005 2.1841 0.07528-0.0753-0.11321-0.87967-0.43359-1.9804-0.1894-0.0671-0.3789-0.13353-0.5669-0.20361zm1.2773 3.2256c-0.0079 4e-3 -0.01337 0.0158-0.01465 0.0381-0.02041 0.3557 0.75952 2.8329 1.7329 5.5048 0.97335 2.672 1.8682 4.7602 1.9878 4.6406 0.11964-0.11964-0.66032-2.5968-1.7329-5.5048-1.0055-2.7263-1.8541-4.7318-1.9732-4.6787zm-25.88 5.354c-0.19804 0.0272 2.1744 1.284 5.272 2.792 3.0976 1.508 5.8851 2.7335 6.1948 2.7232 0.30976-0.0104-2.0626-1.2672-5.272-2.792-3.2093-1.5248-5.9968-2.7503-6.1948-2.7232zm87.945 4.1777c-0.2678 0.0105-0.63192 0.0457-1.1074 0.0981-1.1574 0.12755-2.4341 0.50442-2.8359 0.8379-0.7917 0.65706-0.97373 2.29-0.32813 2.9356 0.8205 0.8205 3.2474 0.0758 3.4526-1.0591 0.11207-0.61951 0.56621-1.5356 1.0093-2.0361 0.54607-0.6169 0.61297-0.8079-0.19043-0.7764zm-57.935 1.5762c-0.02072-5e-3 -0.03907 7.5e-4 -0.05567 0.0175-0.13276 0.13276-0.07238 0.91635 0.13477 1.7417 0.20716 0.82538 0.48542 1.3925 0.61816 1.2598 0.13276-0.13277 0.07238-0.91635-0.13476-1.7417-0.18127-0.72219-0.41751-1.2465-0.5625-1.2773zm15.101 0.15674 1.1983 1.4253c4.0611 4.8294 4.8238 5.9251 4.5805 6.583-0.14915 0.40322-0.0387 0.58911 0.24609 0.41308 0.28482-0.17602 0.69467-0.0344 0.90968 0.31348 0.28428 0.45991 0.505 0.44673 0.81007-0.0469 0.23072-0.37333 0.89565-0.55388 1.478-0.40136 0.95827 0.25096 0.93877 0.31577-0.20801 0.68408-0.69696 0.22384-1.267 0.567-1.267 0.7632v1e-3c0 0.43558-1.4222 0.44734-6.1949 0.0542-3.8964-0.32097-3.6233-0.94125 0.5625-1.2759 1.394-0.1114-0.82342-0.0814-4.9277 0.0659-4.1043 0.14707-7.4619 0.1459-7.4619-3e-3 0-0.14883 2.3116-2.1398 5.1372-4.4238zm38.723 3.0513c-0.0291-0.0291-0.25649 0.14045-0.70313 0.49073-0.54207 0.42513-0.9858 0.86887-0.9858 0.9858 0 0.46353 0.46249 0.16617 1.1982-0.77198 0.35028-0.44663 0.5198-0.67552 0.49073-0.70459zm-49.28 6.6738 7.04 0.35449c3.872 0.19508 7.9035 0.53654 8.9587 0.75877 1.9137 0.40303 1.907 0.4091-2.8154 2.5078-2.6041 1.1573-4.8818 2.1026-5.061 2.1006-0.42606-6e-3 -4.912-3.0459-6.7134-4.5483z" style="fill:url(#e);opacity:.5;stroke-opacity:.37741;stroke-width:.5632;stroke:url(#d)"/><path d="m81.791 5.5246-0.0029 0.00141c-42.436 0-76.822 34.389-76.822 76.823 0 9.6584 1.7842 18.896 5.036 27.41 8.016 2.8236 16.513 4.6434 25.494 4.6434 14.707 0 28.348-4.2736 40.049-11.412-8.8632-2.6794-15.323-10.908-15.323-20.642 0-11.906 9.6622-21.568 21.568-21.568 9.5174 0 17.595 6.1763 20.456 14.735 6.5668-11.348 10.558-24.364 10.558-38.418 0-9.5725-1.9498-18.643-5.1338-27.102-8.0866-2.892-16.797-4.4715-25.88-4.4715z" style="fill:url(#a);opacity:.21394;stroke-width:.71544"/><path d="m82.5 46.771c-19.734 0-35.729 15.994-35.729 35.729 0 19.731 15.994 35.729 35.729 35.729 19.734 0 35.729-15.996 35.729-35.729 0-19.734-15.994-35.729-35.729-35.729zm0 16.768c10.47 0 18.96 8.4896 18.96 18.96 0 10.47-8.4896 18.96-18.96 18.96s-18.96-8.4896-18.96-18.96c0-10.47 8.4896-18.96 18.96-18.96z" fill="#fefefe" opacity=".2" stroke="#e6e6e6" stroke-width=".95392"/><path d="m106.08 47.883c3.2409 2.962 5.3698 4.8119 6.571 6.1387l-0.15851 0.0052c-2.0094-2.1824-4.2698-4.1029-6.4124-6.1434z" opacity=".3" stroke-width=".95392"/><path d="m126.79 72.803c-0.29861 0.05972-0.4662 0.35542-0.73969 0.47554 0.0409-0.0733 9.5e-4 -0.09422 0.072-0.1537z" opacity=".3" stroke-width=".95392"/><path d="m119.01 65.386c-0.32033-0.06468-0.77234-0.03018-1.1384 0.1585-0.36605 0.18868-0.60107 0.47534-0.7397 0.71571l-0.0147 0.01918-0.01 0.02412c-0.44878 0.8399-0.3959 1.5112-0.30262 2.2768 0.0933 0.76556 0.31532 1.5729 0.855 2.3152 0.57774 0.79536 1.3035 1.2838 1.955 1.7388 0.40454 0.28255 0.53102 0.35141 0.75415 0.48994l0.1489 0.76853 0.97509 0.20173c0.27157 0.05587 0.50379 0.10142 0.81176 0.09605 0.30799-0.0052 0.84415-0.06894 1.2873-0.55238 0.44318-0.48342 0.44574-1.0462 0.4275-1.2873-0.0178-0.24111-0.0491-0.3353-0.0575-0.38426l-0.0625-0.38427-0.24496-0.30262c-0.51164-0.63475-1.2672-1.9242-1.9646-3.0692-0.3487-0.57253-0.68955-1.1133-1.0423-1.5804-0.17638-0.23351-0.34984-0.44698-0.57642-0.65807-0.22658-0.21108-0.48882-0.47032-1.0615-0.58601z" opacity=".3" stroke-width=".95392"/><path d="m106.05 47.863c3.2485 2.9672 5.3856 4.8227 6.5902 6.1532l-0.16331 0.0096c-2.0152-2.1886-4.2774-4.1166-6.4269-6.1628z" opacity=".3" stroke-width=".95392"/><path d="m48.641 13.564c-1.8408-0.0249-2.218 2.2797-0.62321 2.8673 8.9794 3.6499 17.343 7.907 25.37 12.504l-1.885 4.4449c-0.95654 2.2553-0.91225 4.0444-0.7266 5.5194-3.4709-1.6426-18.756-8.4815-45.556-8.631-0.01554-0.0015-0.07967-0.02484-0.10899-0.03214-5.5149 6.0521-10.083 12.98-13.476 20.551l0.09921-0.06009c4.9746-3.0118 10.878-5.1006 17.97-5.655h0.0098c21.057-1.7375 46.781 9.6469 72.087 21.422-0.019 2.9153 0.24593 5.8728 2.3894 8.5516 1.4633 1.829 4.0511 3.0655 6.6849 4.3094 2.6337 1.2438 5.347 2.3742 6.404 2.9805v-0.0054c2.4309 1.3953 10.571 6.6229 15.354 12.847l1.4169 1.8473 1.0983-2.0554c5e-3 -0.0096 0.7339-0.85588 1.6936-1.6587 0.95962-0.80272 2.1772-1.718 3.3662-2.5739 2.378-1.7117 4.6336-3.1831 4.6336-3.1831l4.4072-2.8673-5.2582 0.10619s-0.32616 0.01951-1.4127-0.18864c-1.0866-0.20826-2.8197-0.64547-5.2875-1.5678-2.2549-0.84257-4.9697-2.6776-7.0622-4.3388-1.0462-0.83055-1.9468-1.6172-2.5823-2.205-0.0652-0.06016-0.0915-0.08949-0.15091-0.14532 0.58479-0.63464 0.75858-1.5404 0.62881-2.124-0.14162-0.63674-0.41137-1.1426-0.71543-1.6349-0.60811-0.98458-1.3758-1.8541-1.9116-2.3894 0.0945 0.09451-0.14663-0.17965-0.3815-0.5226-0.23488-0.34286-0.53888-0.80744-0.88033-1.3442-0.68284-1.0737-1.5212-2.4417-2.3364-3.7882-1.6301-2.6928-3.0934-5.1854-3.2404-5.4314v-0.0054c4e-3 0.0072-0.37148-0.76394-1.0732-1.2325l-0.17885-0.12157-0.19841-0.06287c-0.0791-0.02542-0.14209 0.0053-0.21801-0.01398l1.2422-0.08384-1.8668-2.2623s-23.126-28.024-67.212-41.681c-0.0034-0.0011-0.0051-0.0046-0.0083-0.0054-0.04232-0.01309-0.07797-0.03015-0.12017-0.04331v0.0029c-0.13559-0.02355-0.26434-0.03606-0.38706-0.03774zm24.917 15.473c4.0273 2.3121 7.9714 4.7051 11.73 7.2889l-1.0214 2.5599c-0.91261 2.2952-0.85073 4.1143-0.68609 5.6439-2.8587-1.1873-8-3.8237-9.2141-10.821l-0.80766-4.6713zm-49.78 3.8734c0.33686 0.14662 0.49658 0.28747 1.171 0.34934l0.0615 0.0098h0.06848c29.527 0.13447 47.109 9.33 47.109 9.33l1.8808-2.1477c4.1194 6.0994 11.189 8.1996 11.189 8.1996l3.7351 1.0438-2.0513-3.2894s-0.30947-0.45412-0.50304-1.5608c-0.03826-0.2186 0.14111-0.69947 0.12157-0.95854 2.9714 5.4396 6.4251 8.9573 10.385 10.632l3.3271 1.4071-1.3485-3.3522c-0.18955-0.47105-0.03369-0.64757-0.12156-1.0299 4.1333 6.4187 10.129 9.5482 10.129 9.5482l0.44013 0.21799 0.48768-0.08804s1.4297-0.2573 3.0085-0.45972c0.78936-0.10121 1.6144-0.18744 2.2847-0.22218 0.50827-0.02641 0.727 0.0053 0.86495 0.0098 2e-3 0.02313-0.0456-0.07316 0.0629 0.10759-3e-3 -0.0052 1.6142 2.7338 3.2558 5.4454 0.82135 1.3567 1.6654 2.7335 2.3699 3.8412 0.35221 0.55386 0.67152 1.0403 0.93898 1.4309 0.26749 0.39056 0.4112 0.63315 0.73082 0.95296 0.36545 0.36518 1.0685 1.1793 1.4784 1.8431 0.13043 0.2112 0.16074 0.31367 0.21797 0.44995-0.30174 0.1944-0.70598 0.22056-0.8943 0.5757-0.42082 0.79356-0.16796 1.5583-0.0336 1.8724l6e-3 0.0054c0.23285 0.54182 0.25975 0.42274 0.34235 0.51701 0.0826 0.09429 0.16995 0.19136 0.27669 0.30043 0.21346 0.21811 0.49489 0.48731 0.8412 0.80766 0.69264 0.64068 1.6409 1.4734 2.7528 2.3559 2.2237 1.7652 5.0572 3.7444 7.8784 4.7984 1.8233 0.68145 2.8826 0.90488 4.0397 1.1933-0.77418 0.52837-0.88437 0.57319-1.8235 1.2492-1.2238 0.88092-2.4877 1.8258-3.5423 2.7081-0.48359 0.40457-0.72615 0.8053-1.1067 1.171-5.26-6.1935-12.512-11.003-15.024-12.445v-0.0069c-1.5048-0.86325-4.0803-1.889-6.6164-3.0867s-4.9984-2.6878-5.6214-3.4668c-1.7759-2.2198-1.8872-4.5187-1.7942-7.628l0.0293-0.98795-0.90129-0.4206c-25.589-11.916-51.861-23.918-74.406-22.061h-0.0098c-5.7348 0.44945-10.605 2.0743-15.055 4.1459 0.99539-1.9479 1.9204-3.9765 3.1063-5.7319 1.8011-2.666 4.0287-5.0942 6.2643-7.575l0.0015-0.0015zm62.621 4.2423c3.8533 2.6986 7.6781 5.4269 11.222 8.4414l-1.5971 0.27667c0.01224 0.44827-0.37447 2.0974-0.3675 4.213-3.2455-1.9583-6.1491-4.7491-8.591-11.174l-0.66653-1.7565zm14.111 11.212c3.2941 2.9678 6.608 5.913 9.5954 9.1962l0.46529 0.51282c-0.19428 0.03238-0.52762 0.07812-0.63298 0.09642-0.47617-0.24542-6.0206-3.4405-9.428-9.8051zm-87.555 68.636c0.85352 1.7173 1.7675 3.3994 2.7416 5.0416 8.7591 4.9375 19.816 7.9914 33.462 7.814 14.108 0.0358 28.081 1.2845 39.106 2.9022 17.059 2.5032 30.389 6.6721 41.027 11.674 0.87125-0.6593 1.7305-1.3343 2.5725-2.0289-11.155-5.4475-25.153-9.9718-43.167-12.615-11.167-1.6385-25.254-2.9012-39.535-2.9372h-0.02516c-15.488 0.20477-27.412-3.7077-36.182-9.8516zm12.526 18.163c1.177 1.2738 2.395 2.509 3.654 3.7016 1.9012 0.27763 3.8272 0.47531 5.7934 0.52538 29.61 1.5764 49.712 1.7862 74.191 14.476 5e-3 2e-3 0.01 7e-3 0.0141 0.01 0.49748 0.27563 0.98304 0.63348 1.4672 0.99912 1.1026-0.42846 2.1922-0.88285 3.2697-1.3596-1.0922-0.81962-2.1785-1.662-3.3145-2.2903l-0.0376-0.0195c-25.091-13.008-45.901-13.244-75.486-14.821h-0.03773c-3.2736-0.0833-6.4319-0.54998-9.5174-1.2227zm75.092 3.5143-0.78389 2.8938c6.7867 2.5304 12.518 6.1417 17.773 10.195 0.88099-0.44689 1.7504-0.91262 2.6116-1.3917-2.2748-1.8371-4.5488-3.6762-7.1208-5.2428 3.6138 1.0543 6.7359 2.3529 9.858 3.6512 1.1749-0.71786 2.3271-1.468 3.4598-2.2455-7.457-3.2422-15.71-6.0944-25.798-7.8598z" style="opacity:.2;stroke-width:.72044"/><path d="m49.322 14.131c24.599 9.9997 46.008 23.25 62.63 41.51l3.9908-0.2627s-22.86-27.735-66.621-41.248zm-24.507 16.434c-4.6369 5.1469-8.5917 10.918-11.73 17.172 4.8682-2.6925 10.561-4.5519 17.236-5.0737 21.914-1.8081 48.079 10.014 73.661 21.927-0.0951 3.177 0.0364 6.0005 2.124 8.6088 2.0866 2.6081 10.101 5.4526 12.663 6.9224 2.5612 1.4701 10.766 6.6898 15.794 13.234 1.0904-2.0396 10.196-7.9664 10.196-7.9664s-2.1816 0.04391-7.2566-1.8528c-5.0757-1.8967-11.099-7.6344-11.242-7.9664-0.1422-0.33223-0.23731-0.8513 0.9488-1.0885 0.9006-0.75822-1.1361-3.2258-2.0374-4.1264-0.90057-0.90116-6.9261-11.145-7.0677-11.383-0.14214-0.2373-0.19254-0.4754-0.61902-0.76015-1.3283-0.42716-7.1572 0.62042-7.1572 0.62042s-8.9723-4.411-12.064-13.912c0.0451 1.664-1.5385 3.4808 0 7.3039-4.6778-1.9789-8.6968-5.3533-11.866-13.694-1.8862 4.7438 0 7.7639 0 7.7639s-11.018-3.0807-12.78-13.24c-1.9343 4.5603 0 7.3039 0 7.3039s-17.96-9.3694-47.801-9.5046c-0.36605-0.03359-0.68448-0.15918-1.0019-0.28925zm93.958 36.448c0.81045 0.16372 2.4917 3.7703 3.8078 5.4035 0.0638 0.37274 0.16921 0.60143-0.70286 0.42199-0.0734-0.38318-0.2026-0.49885-0.2026-0.49885s-2.1018-1.2509-2.7472-2.1393c-0.64591-0.88843-0.76065-2.4429-0.44574-3.0322 0.0768-0.13298 0.17487-0.17852 0.29064-0.15511zm-105.53 50.564c3.4146 6.7289 7.7789 12.894 12.92 18.317 3.0975 0.60984 6.2732 1.0015 9.5296 1.0843 29.61 1.5772 50.068 1.8008 74.863 14.656 1.0023 0.55423 1.9614 1.33 2.933 2.0499 2.2623-0.98624 4.4669-2.0775 6.6108-3.267-5.5994-4.447-11.723-8.4271-19.057-11.161 9.7514 1.7064 17.76 4.4222 25 7.5092 1.9066-1.2944 3.7519-2.6733 5.532-4.1277-10.941-5.2829-24.681-9.6777-42.366-12.273-11.096-1.6281-25.129-2.8803-39.325-2.9163-15.511 0.20509-27.62-3.7093-36.641-9.8723z" style="fill:#fff;stroke-width:.72044"/><g transform="matrix(1.3549 0 0 1.3549 -57.66 -49.183)"><g transform="matrix(1,0,0,-1,0,243.94)"><rect x="134.86" y="120.58" width="4.3781" height="2.7903" rx=".62798" fill="#ccc" stroke-width=".19664"/><path transform="matrix(.20255 0 0 .20255 192.53 100.82)" d="m-281.87 97.314c-1.7692 0-3.1934 1.4242-3.1934 3.1934v7.8027c0 1.7692 1.4242 3.1953 3.1934 3.1953h15.877c1.7692 0 3.1934-1.4261 3.1934-3.1953v-7.8027c0-1.7692-1.4242-3.1934-3.1934-3.1934zm1.4023 1.2539h13.07c1.4565 0 2.6289 1.1724 2.6289 2.6289v6.4238c0 1.4565-1.1724 2.6289-2.6289 2.6289h-13.07c-1.4565 0-2.6289-1.1724-2.6289-2.6289v-6.4238c0-1.4565 1.1724-2.6289 2.6289-2.6289z" filter="url(#l)" opacity=".50924"/><rect x="141.18" y="120.58" width="4.3781" height="2.7903" rx=".62798" fill="#ccc" stroke-width=".19664"/><path transform="matrix(.20255 0 0 .20255 198.85 100.82)" d="m-281.87 97.314c-1.7692 0-3.1934 1.4242-3.1934 3.1934v7.8027c0 1.7692 1.4242 3.1953 3.1934 3.1953h15.877c1.7692 0 3.1934-1.4261 3.1934-3.1953v-7.8027c0-1.7692-1.4242-3.1934-3.1934-3.1934zm1.4023 1.2539h13.07c1.4565 0 2.6289 1.1724 2.6289 2.6289v6.4238c0 1.4565-1.1724 2.6289-2.6289 2.6289h-13.07c-1.4565 0-2.6289-1.1724-2.6289-2.6289v-6.4238c0-1.4565 1.1724-2.6289 2.6289-2.6289z" filter="url(#l)" opacity=".50924"/><rect x="147.35" y="120.58" width="4.3781" height="2.7903" rx=".62798" fill="#ccc" stroke-width=".19664"/><path transform="matrix(.20255 0 0 .20255 205.02 100.82)" d="m-281.87 97.314c-1.7692 0-3.1934 1.4242-3.1934 3.1934v7.8027c0 1.7692 1.4242 3.1953 3.1934 3.1953h15.877c1.7692 0 3.1934-1.4261 3.1934-3.1953v-7.8027c0-1.7692-1.4242-3.1934-3.1934-3.1934zm1.4023 1.2539h13.07c1.4565 0 2.6289 1.1724 2.6289 2.6289v6.4238c0 1.4565-1.1724 2.6289-2.6289 2.6289h-13.07c-1.4565 0-2.6289-1.1724-2.6289-2.6289v-6.4238c0-1.4565 1.1724-2.6289 2.6289-2.6289z" filter="url(#l)" opacity=".50924"/><rect x="153.52" y="120.58" width="4.3781" height="2.7903" rx=".62798" fill="#ccc" stroke-width=".19664"/><path transform="matrix(.20255 0 0 .20255 211.2 100.82)" d="m-281.87 97.314c-1.7692 0-3.1934 1.4242-3.1934 3.1934v7.8027c0 1.7692 1.4242 3.1953 3.1934 3.1953h15.877c1.7692 0 3.1934-1.4261 3.1934-3.1953v-7.8027c0-1.7692-1.4242-3.1934-3.1934-3.1934zm1.4023 1.2539h13.07c1.4565 0 2.6289 1.1724 2.6289 2.6289v6.4238c0 1.4565-1.1724 2.6289-2.6289 2.6289h-13.07c-1.4565 0-2.6289-1.1724-2.6289-2.6289v-6.4238c0-1.4565 1.1724-2.6289 2.6289-2.6289z" filter="url(#l)" opacity=".50924"/></g><path d="m134.26 121.96h24.145c2.6629 0 4.7233 2.1451 4.8066 4.8066l0.77497 24.733c0.0834 2.6616-1.9876 5.4314-4.6505 5.4314h-26.008c-2.6629 0-4.734-2.7698-4.6505-5.4314l0.77497-24.733c0.0834-2.6616 2.1437-4.8066 4.8066-4.8066z" fill="#272a34" stroke-width=".08208" style="fill-opacity:.99608"/><path d="m134.51 121.96h23.649c2.6082 0 4.6262 2.0528 4.7081 4.5997l0.75905 23.668c0.0817 2.5471-1.9468 5.1976-4.5551 5.1976h-25.473c-2.6082 0-4.6367-2.6505-4.5551-5.1976l0.75905-23.668c0.0817-2.5471 2.0997-4.5997 4.7081-4.5997z" fill="#4c4f5c" stroke-width=".079466" style="fill-opacity:.99608"/><path d="m134.35 121.96h23.976c2.4932 0 4.4665 2.0074 4.5004 4.5004l0.3149 23.158c0.0339 2.493-1.861 5.0854-4.3542 5.0854h-24.899c-2.4932 0-4.3881-2.5923-4.3542-5.0854l0.3149-23.158c0.0339-2.493 2.0072-4.5004 4.5004-4.5004z" fill="#272a34" stroke-width=".076851" style="fill-opacity:.99608"/><path d="m134.93 121.96h22.808c2.3717 0 4.2352 1.9099 4.2812 4.2812l0.43865 22.586c0.046 2.3713-1.9094 4.2812-4.2812 4.2812h-23.686c-2.3717 0-4.3273-1.9099-4.2812-4.2812l0.43865-22.586c0.046-2.3713 1.9094-4.2812 4.2812-4.2812z" fill="url(#j)" opacity=".1" stroke-width=".073109" style="fill:url(#j)"/><circle cx="137.08" cy="128.15" r="3.1111" fill="url(#i)" opacity=".5" stroke-width=".073109" style="fill:url(#i)"/><path transform="matrix(.073109 0 0 .073109 6.5293 125.5)" d="m2132.8 313.54c-1.7762 30.333-27.515 54.096-58.453 54.096h-323.98c-30.929 0-56.664-23.749-58.453-54.07l-0.1074 5.5098c-0.63 32.436 26.118 58.561 58.56 58.561h323.98c32.442 1e-5 59.19-26.124 58.56-58.561z" fill="#fff" filter="url(#f)" opacity=".1"/><path transform="matrix(.097478 0 0 .097478 83.5 121.42)" d="m467.34 297.32-0.086 2.7129c-0.8381 26.129 19.971 53.32 46.728 53.32h261.33c26.757 0 47.566-27.191 46.728-53.32l-0.086-2.7129c-1.6377 24.559-21.517 48.533-46.642 48.533h-261.33c-25.125 0-45.004-23.975-46.642-48.533z" fill="#4c4f5c" fill-opacity=".99608" filter="url(#g)" stroke-width=".81522"/><path transform="matrix(.073109 0 0 .073109 6.5293 125.65)" d="m1670.9 354.42-0.037 1.2129c-1.1406 36.406 27.188 74.291 63.611 74.291h355.74c36.424 0 64.752-37.885 63.611-74.291l-0.037-1.2129c-1.3377 34.864-28.745 69.504-63.574 69.504h-355.74c-34.829 0-62.237-34.64-63.574-69.504z" fill-opacity=".99608" filter="url(#h)" stroke-width="1.1227"/><path d="m136.85 142.05c-1.282-0.27492-2.1612-1.1753-2.5393-2.6004-0.0835-0.31467-0.0955-0.43731-0.0974-0.99606-2e-3 -0.52451 0.0119-0.69801 0.078-0.98101 0.30576-1.3107 1.1711-2.2313 2.4149-2.5687 0.25996-0.0706 0.40384-0.0844 0.856-0.0826 0.48532 2e-3 0.57559 0.0129 0.84338 0.1021 0.39403 0.1313 0.63706 0.27535 0.93563 0.55466l0.24508 0.22925v-0.72077h1.6493v6.9344h-1.6493v-0.69062l-0.17803 0.17288c-0.33152 0.3219-0.83609 0.57983-1.3 0.66453-0.30266 0.0553-0.96135 0.046-1.2582-0.0176zm1.404-1.461c0.63336-0.16497 1.1194-0.63735 1.3359-1.2984 0.0788-0.24067 0.0897-0.34196 0.0877-0.81817-2e-3 -0.48592-0.0128-0.57527-0.10249-0.84337-0.27663-0.82755-0.96243-1.3327-1.8054-1.3297-0.52486 2e-3 -0.8897 0.15365-1.2572 0.52321-0.78848 0.79294-0.84597 2.2607-0.12409 3.1687 0.42278 0.53171 1.1835 0.77552 1.8655 0.59789zm4.8557-2.1353v-3.4672h1.6492v0.56888l0.24855-0.22772c0.28293-0.25929 0.59347-0.42852 0.90519-0.49335 0.30704-0.0638 1.019-0.0254 1.2859 0.0695 0.17632 0.0627 0.43555 0.17926 0.47658 0.21432 0.01 8e-3 -0.6223 1.4382-0.65176 1.4746-6e-3 7e-3 -0.10878-0.0349-0.22864-0.0937-0.1995-0.0979-0.25273-0.10693-0.63023-0.10693-0.375 0-0.43152 9e-3 -0.62449 0.1042-0.24529 0.12045-0.43747 0.31791-0.57655 0.59236-0.19301 0.38091-0.20322 0.51906-0.20392 2.7614v2.0709h-1.6492zm5.5476 0v-3.4672h1.6492v0.59485l0.21089-0.20102c0.22529-0.21474 0.50523-0.379 0.83863-0.49207 0.15401-0.0523 0.31522-0.0699 0.63723-0.0699 0.45686 0 0.64886 0.0436 1.0276 0.23333 0.17586 0.0881 0.64873 0.5183 0.7212 0.65614 0.0296 0.0563 0.0731 0.0275 0.31413-0.20892 0.45144-0.44258 0.93385-0.64566 1.6292-0.6858 1.1448-0.0661 2.0641 0.57987 2.3538 1.654 0.12088 0.44802 0.13873 0.85423 0.13873 3.1569v2.2969h-1.6492v-2.1338c0-1.2672-0.0159-2.2529-0.039-2.427-0.051-0.38269-0.21521-0.72826-0.41489-0.8729-0.51603-0.3738-1.3096-0.13912-1.6234 0.48007-0.19526 0.38534-0.20915 0.57473-0.20915 2.8531v2.1007h-1.6492l-1e-3 -2.0147c-1e-3 -2.608-0.0332-2.9281-0.32637-3.2704-0.46073-0.53828-1.3606-0.39047-1.7406 0.28593-0.21865 0.38912-0.22823 0.50051-0.24579 2.8535l-0.016 2.146h-1.6059z" fill="#b3b3b3" stroke-width=".037483" style="fill:#e7e7e7"/><text x="144.07089" y="129.17302" fill="#666666" font-family="sans-serif" font-size="2.9244px" stroke-width=".073109"><tspan x="144.07089" y="129.17302" fill="#666666" font-family="'FiraCode Nerd Font'" font-weight="bold" stroke-width=".073109">00350179</tspan></text><path d="m135.18 143.71h22.993v1.4422h-22.993z" fill="#b3b3b3" stroke-width=".073744" style="fill:#e7e7e7"/><path transform="matrix(.15421 0 0 .15421 106.86 100.46)" d="m263.97 225.71c-1.153 2.6781-3.4136 7.7574-3.5547 7.9316-0.0387 0.0471-0.70517-0.22602-1.4824-0.60742-1.2938-0.63482-1.638-0.69336-4.0859-0.69336-2.4317 0-2.7994 0.0613-4.0508 0.67578-1.5907 0.78114-2.8364 2.0602-3.7383 3.8398-1.2516 2.47-1.3183 3.3662-1.3223 17.906v2c5e-3 -14.54 0.0707-15.436 1.3223-17.906 0.90192-1.7797 2.1476-3.0587 3.7383-3.8398 1.2513-0.61448 1.619-0.67578 4.0508-0.67578 2.448 0 2.7922 0.0585 4.0859 0.69336 0.77725 0.38139 1.4438 0.65449 1.4824 0.60742 0.19108-0.23586 4.29-9.5086 4.2266-9.5625-0.0868-0.0742-0.35207-0.21295-0.67187-0.36914zm-63.561 6.0274c-3.4036 0.012-5.7694 0.99806-8.1523 3.3945-2.9364 2.953-4.3006 7.349-4.0508 11.672 0.21123-3.6441 1.5677-7.1747 4.0508-9.6719 2.3829-2.3965 4.7487-3.3825 8.1523-3.3945 5.4664-0.019 9.9132 3.2567 11.707 8.623 0.53616 1.6028 0.63318 2.309 0.65625 4.8652 5e-3 -0.42157 0.0102-0.83147 8e-3 -1.3945-0.0136-3.151-0.0825-3.7322-0.66407-5.4707-1.7939-5.3664-6.2406-8.642-11.707-8.623zm115.19 0.0586c-2.7443-0.0685-5.6128 1.5129-7.0117 4.2734-1.2663 2.4988-1.3555 3.7277-1.3555 18.502v2c0-14.774 0.0892-16.003 1.3555-18.502 2.0347-4.0154 7.1811-5.5373 10.527-3.1133 1.2949 0.93798 2.3609 3.1785 2.6914 5.6602 0.15049 1.1292 0.25195 7.5208 0.25195 15.738v-2c0-8.2175-0.10146-14.609-0.25195-15.738-0.33052-2.4816-1.3965-4.7222-2.6914-5.6602-1.0457-0.7575-2.2682-1.129-3.5156-1.1602zm-26.225 0.01c-2.4125 0.11619-4.8656 1.4995-6.252 3.9668-1.4179 2.5234-1.48 3.2462-1.5938 18.504l-0.10547 13.916h-10.412v2h10.412l0.10547-13.916c0.11377-15.258 0.17589-15.981 1.5938-18.504 2.4646-4.3863 8.2994-5.3441 11.287-1.8535 1.9008 2.2207 2.1065 4.2967 2.1172 21.209l0.01 13.064h10.695v-2h-10.695l-0.01-13.064c-0.0106-16.912-0.21641-18.988-2.1172-21.209-1.3072-1.5272-3.1588-2.2036-5.0352-2.1133zm-112.02 14.586c-4e-3 0.42156-0.01 0.80055-8e-3 1.3164 0.0126 3.6233 0.0915 4.4184 0.63281 6.459 2.4512 9.2409 8.1534 15.081 16.467 16.863 1.9248 0.41276 6.1956 0.47164 8.1582 0.11328 3.0088-0.54934 6.2798-2.2211 8.4297-4.3086l1.1562-1.1211v-2l-1.1562 1.1211c-2.1499 2.0875-5.4209 3.7593-8.4297 4.3086-1.9626 0.3583-6.2334 0.29948-8.1582-0.11328-8.3134-1.7828-14.016-7.6224-16.467-16.863-0.50021-1.8856-0.60234-2.8026-0.625-5.7754zm34.836 21.801v2h10.693v-2h-5.3477zm22.852 0v2h10.695v-2h-5.3476zm87.014 0v2h10.695v-2h-5.3477zm-138.42 20.986v2h149.11v-2z" filter="url(#C)" stroke-width=".24307"/><g transform="translate(0,34.031)"><rect x="134.86" y="120.58" width="4.3781" height="2.7903" rx=".62798" fill="#ccc" stroke-width=".19664"/><path transform="matrix(.20255 0 0 .20255 192.53 100.82)" d="m-281.87 97.314c-1.7692 0-3.1934 1.4242-3.1934 3.1934v7.8027c0 1.7692 1.4242 3.1953 3.1934 3.1953h15.877c1.7692 0 3.1934-1.4261 3.1934-3.1953v-7.8027c0-1.7692-1.4242-3.1934-3.1934-3.1934zm1.4023 1.2539h13.07c1.4565 0 2.6289 1.1724 2.6289 2.6289v6.4238c0 1.4565-1.1724 2.6289-2.6289 2.6289h-13.07c-1.4565 0-2.6289-1.1724-2.6289-2.6289v-6.4238c0-1.4565 1.1724-2.6289 2.6289-2.6289z" filter="url(#l)" opacity=".50924"/><rect x="141.18" y="120.58" width="4.3781" height="2.7903" rx=".62798" fill="#ccc" stroke-width=".19664"/><path transform="matrix(.20255 0 0 .20255 198.85 100.82)" d="m-281.87 97.314c-1.7692 0-3.1934 1.4242-3.1934 3.1934v7.8027c0 1.7692 1.4242 3.1953 3.1934 3.1953h15.877c1.7692 0 3.1934-1.4261 3.1934-3.1953v-7.8027c0-1.7692-1.4242-3.1934-3.1934-3.1934zm1.4023 1.2539h13.07c1.4565 0 2.6289 1.1724 2.6289 2.6289v6.4238c0 1.4565-1.1724 2.6289-2.6289 2.6289h-13.07c-1.4565 0-2.6289-1.1724-2.6289-2.6289v-6.4238c0-1.4565 1.1724-2.6289 2.6289-2.6289z" filter="url(#l)" opacity=".50924"/><rect x="147.35" y="120.58" width="4.3781" height="2.7903" rx=".62798" fill="#ccc" stroke-width=".19664"/><path transform="matrix(.20255 0 0 .20255 205.02 100.82)" d="m-281.87 97.314c-1.7692 0-3.1934 1.4242-3.1934 3.1934v7.8027c0 1.7692 1.4242 3.1953 3.1934 3.1953h15.877c1.7692 0 3.1934-1.4261 3.1934-3.1953v-7.8027c0-1.7692-1.4242-3.1934-3.1934-3.1934zm1.4023 1.2539h13.07c1.4565 0 2.6289 1.1724 2.6289 2.6289v6.4238c0 1.4565-1.1724 2.6289-2.6289 2.6289h-13.07c-1.4565 0-2.6289-1.1724-2.6289-2.6289v-6.4238c0-1.4565 1.1724-2.6289 2.6289-2.6289z" filter="url(#l)" opacity=".50924"/><rect x="153.52" y="120.58" width="4.3781" height="2.7903" rx=".62798" fill="#ccc" stroke-width=".19664"/><path transform="matrix(.20255 0 0 .20255 211.2 100.82)" d="m-281.87 97.314c-1.7692 0-3.1934 1.4242-3.1934 3.1934v7.8027c0 1.7692 1.4242 3.1953 3.1934 3.1953h15.877c1.7692 0 3.1934-1.4261 3.1934-3.1953v-7.8027c0-1.7692-1.4242-3.1934-3.1934-3.1934zm1.4023 1.2539h13.07c1.4565 0 2.6289 1.1724 2.6289 2.6289v6.4238c0 1.4565-1.1724 2.6289-2.6289 2.6289h-13.07c-1.4565 0-2.6289-1.1724-2.6289-2.6289v-6.4238c0-1.4565 1.1724-2.6289 2.6289-2.6289z" filter="url(#l)" opacity=".50924"/><rect x="134.86" y="120.58" width="4.3781" height="2.7903" rx=".62798" fill="#ccc" stroke-width=".19664"/><path transform="matrix(.20255 0 0 .20255 192.53 100.82)" d="m-281.87 97.314c-1.7692 0-3.1934 1.4242-3.1934 3.1934v7.8027c0 1.7692 1.4242 3.1953 3.1934 3.1953h15.877c1.7692 0 3.1934-1.4261 3.1934-3.1953v-7.8027c0-1.7692-1.4242-3.1934-3.1934-3.1934zm1.4023 1.2539h13.07c1.4565 0 2.6289 1.1724 2.6289 2.6289v6.4238c0 1.4565-1.1724 2.6289-2.6289 2.6289h-13.07c-1.4565 0-2.6289-1.1724-2.6289-2.6289v-6.4238c0-1.4565 1.1724-2.6289 2.6289-2.6289z" filter="url(#l)" opacity=".50924"/><rect x="141.18" y="120.58" width="4.3781" height="2.7903" rx=".62798" fill="#ccc" stroke-width=".19664"/><path transform="matrix(.20255 0 0 .20255 198.85 100.82)" d="m-281.87 97.314c-1.7692 0-3.1934 1.4242-3.1934 3.1934v7.8027c0 1.7692 1.4242 3.1953 3.1934 3.1953h15.877c1.7692 0 3.1934-1.4261 3.1934-3.1953v-7.8027c0-1.7692-1.4242-3.1934-3.1934-3.1934zm1.4023 1.2539h13.07c1.4565 0 2.6289 1.1724 2.6289 2.6289v6.4238c0 1.4565-1.1724 2.6289-2.6289 2.6289h-13.07c-1.4565 0-2.6289-1.1724-2.6289-2.6289v-6.4238c0-1.4565 1.1724-2.6289 2.6289-2.6289z" filter="url(#l)" opacity=".50924"/><rect x="147.35" y="120.58" width="4.3781" height="2.7903" rx=".62798" fill="#ccc" stroke-width=".19664"/><path transform="matrix(.20255 0 0 .20255 205.02 100.82)" d="m-281.87 97.314c-1.7692 0-3.1934 1.4242-3.1934 3.1934v7.8027c0 1.7692 1.4242 3.1953 3.1934 3.1953h15.877c1.7692 0 3.1934-1.4261 3.1934-3.1953v-7.8027c0-1.7692-1.4242-3.1934-3.1934-3.1934zm1.4023 1.2539h13.07c1.4565 0 2.6289 1.1724 2.6289 2.6289v6.4238c0 1.4565-1.1724 2.6289-2.6289 2.6289h-13.07c-1.4565 0-2.6289-1.1724-2.6289-2.6289v-6.4238c0-1.4565 1.1724-2.6289 2.6289-2.6289z" filter="url(#l)" opacity=".50924"/><rect x="153.52" y="120.58" width="4.3781" height="2.7903" rx=".62798" fill="#ccc" stroke-width=".19664"/><path transform="matrix(.20255 0 0 .20255 211.2 100.82)" d="m-281.87 97.314c-1.7692 0-3.1934 1.4242-3.1934 3.1934v7.8027c0 1.7692 1.4242 3.1953 3.1934 3.1953h15.877c1.7692 0 3.1934-1.4261 3.1934-3.1953v-7.8027c0-1.7692-1.4242-3.1934-3.1934-3.1934zm1.4023 1.2539h13.07c1.4565 0 2.6289 1.1724 2.6289 2.6289v6.4238c0 1.4565-1.1724 2.6289-2.6289 2.6289h-13.07c-1.4565 0-2.6289-1.1724-2.6289-2.6289v-6.4238c0-1.4565 1.1724-2.6289 2.6289-2.6289z" filter="url(#l)" opacity=".50924"/></g></g></svg>
