<svg width="220" height="220" version="1.1" viewBox="0 0 165 165" xmlns="http://www.w3.org/2000/svg"><defs><radialGradient id="a" cx="66.324" cy="67.941" r="56.524" gradientTransform="matrix(2.54 0 0 2.5644 -84.631 -90.643)" gradientUnits="userSpaceOnUse"><stop stop-color="#23bac2" style="stop-opacity:.428" offset="0"/><stop stop-color="#2b62c0" stop-opacity="0" offset="1"/></radialGradient><linearGradient id="b" x1="1.5059" x2="218.49" y1="110" y2="110" gradientTransform="matrix(.71567 0 0 .71567 3.8013 3.8036)" gradientUnits="userSpaceOnUse"><stop stop-color="#265ab1" offset="0"/><stop stop-color="#20a8af" offset="1"/></linearGradient><filter id="c" x="-.027" y="-.027" width="1.054" height="1.054" style="color-interpolation-filters:sRGB"><feGaussianBlur stdDeviation="1.747053"/></filter><linearGradient id="e" x1="140.15" x2="54.393" y1="107.04" y2="68.647" gradientUnits="userSpaceOnUse"><stop style="stop-color:#4aaee6" offset="0"/><stop style="stop-color:#4aaee6;stop-opacity:0" offset="1"/></linearGradient><linearGradient id="d" x1="187.63" x2="21.345" y1="143.42" y2="54.524" gradientUnits="userSpaceOnUse"><stop style="stop-color:#23bac2" offset="0"/><stop style="stop-color:#20a8af;stop-opacity:0" offset="1"/></linearGradient></defs><path d="m82.526 4.8813c-18.092 0-34.739 6.1876-47.939 16.561-1.4668 1.1526-2.89 2.3559-4.2689 3.6091-0.69201 0.62895-1.3691 1.2757-2.038 1.929-0.21941 0.2143-0.44148 0.42612-0.65836 0.64299-0.43909 0.4391-0.87422 0.88265-1.3027 1.3321-1.7141 1.7979-3.3415 3.6775-4.8783 5.6331-4.01e-4 5.16e-4 -9.55e-4 8.57e-4 -9.55e-4 9.53e-4 -0.76798 0.97732-1.5138 1.9742-2.2351 2.9885-0.72166 1.0148-1.4192 2.0473-2.0925 3.0975-0.33664 0.5251-0.66681 1.0542-0.99106 1.5879-2e-4 3.45e-4 2.1e-4 9.55e-4 0 9.55e-4 -0.97246 1.6005-1.8894 3.2395-2.7467 4.9132-0.57162 1.1161-1.117 2.2473-1.6355 3.3938-0.25919 0.57327-0.51205 1.1498-0.75761 1.7305-1.63e-4 4.01e-4 1.71e-4 9.53e-4 0 9.53e-4 -0.24538 0.58021-0.48409 1.1642-0.71568 1.7514-0.46348 1.1754-0.89858 2.3645-1.3056 3.5672-0.20349 0.60134-0.40083 1.2065-0.58988 1.8144-0.18904 0.60785-0.37073 1.2184-0.54513 1.8325-1.24e-4 4.3e-4 1.145e-4 9.55e-4 0 9.55e-4 -0.34869 1.2279-0.66854 2.4691-0.95748 3.7209-0.43359 1.8784-0.79853 3.7822-1.0931 5.71-0.19637 1.2853-0.36089 2.5807-0.49342 3.8859-4.75e-5 4.6e-4 4.8e-5 9.28e-4 0 2e-3 -0.13247 1.3047-0.23347 2.6188-0.30053 3.9418-2.85e-5 4.57e-4 1.9e-5 7.16e-4 0 9.54e-4 -0.033495 0.66126-0.05859 1.325-0.07548 1.9904-1.94e-5 4.69e-4 9.6e-6 7.17e-4 0 9.55e-4 -0.01689 0.66555-0.02519 1.3334-0.02519 2.003 0 4.0204 0.30549 7.9697 0.89459 11.826 0.29455 1.9278 0.65949 3.8315 1.0931 5.71 9.55e-5 4.5e-4 -1.05e-4 7.4e-4 0 9.7e-4 0.43353 1.878 0.93562 3.7304 1.5026 5.5534 0.56716 1.8236 1.2002 3.6184 1.8954 5.3815 0.46348 1.1754 0.9549 2.3368 1.4733 3.4834s1.0638 2.2778 1.6355 3.3938c1.9e-4 3.9e-4 -1.84e-4 7.5e-4 0 2e-3 1.1431 2.2318 2.3914 4.4011 3.7377 6.5012 0.67327 1.0502 1.3709 2.0827 2.0925 3.0976 0.36082 0.5074 0.72745 1.0114 1.1 1.5096 0.74524 0.9965 1.5138 1.9738 2.3049 2.9326 1.1868 1.438 2.4242 2.8324 3.7098 4.1808 0.42853 0.44948 0.86366 0.89439 1.3027 1.3336 3.5127 3.5128 7.3606 6.6905 11.491 9.4812 1.0327 0.69768 2.0819 1.3714 3.1493 2.0198 0.53364 0.32423 1.0725 0.64164 1.6145 0.95327 1.0839 0.62327 2.1841 1.2218 3.3002 1.7934 1.1161 0.57163 2.2473 1.117 3.3938 1.6354 1.1466 0.51838 2.3079 1.0098 3.4833 1.4732 1.1754 0.46348 2.3645 0.89856 3.5672 1.3056 1.804 0.61047 3.6382 1.1567 5.499 1.6355 1.2405 0.31912 2.4936 0.60804 3.7573 0.86662 1.2637 0.25857 2.5378 0.48715 3.823 0.68354 1.2853 0.19635 2.5807 0.36086 3.8859 0.49341 0.65258 0.0665 1.3081 0.12473 1.9653 0.17474 1.9717 0.15002 3.964 0.22641 5.9742 0.22641s4.0024-0.0766 5.9743-0.22641c0.65726-0.0499 1.3127-0.10846 1.9653-0.17474 1.3052-0.13255 2.6007-0.29706 3.8859-0.49341 1.2853-0.19638 2.5593-0.42497 3.8229-0.68354 1.2637-0.25858 2.5168-0.5475 3.7573-0.86662 1.8608-0.47874 3.695-1.025 5.499-1.6355 1.2027-0.40695 2.3918-0.84207 3.5672-1.3056 1.1754-0.4635 2.3368-0.9549 3.4834-1.4732 1.1466-0.51838 2.2778-1.0638 3.3938-1.6354 1.1161-0.57165 2.2163-1.1701 3.3002-1.7934 0.54197-0.31163 1.0808-0.62904 1.6144-0.95327 1.0672-0.64848 2.1165-1.3222 3.1492-2.0198 4.1308-2.7908 7.9786-5.9684 11.491-9.4812 0.4391-0.43912 0.87425-0.88403 1.3027-1.3336 1.2856-1.3484 2.523-2.7428 3.7098-4.1808 0.79118-0.95874 1.5598-1.936 2.305-2.9326 0.37264-0.49826 0.73925-1.0022 1.1-1.5096 0.72167-1.0148 1.4192-2.0473 2.0926-3.0976 1.3465-2.1004 2.5944-4.2704 3.7377-6.5025 0.57164-1.1161 1.117-2.2473 1.6354-3.3938 0.51837-1.1466 1.0098-2.3079 1.4733-3.4833 0.69522-1.7632 1.3283-3.558 1.8954-5.3815 0.56702-1.8232 1.0691-3.6755 1.5026-5.5534 9e-5 -4.7e-4 -1e-4 -7e-4 0-9.5e-4 0.4336-1.8784 0.79853-3.7822 1.0931-5.71 0.5891-3.8557 0.8946-7.805 0.8946-11.826 0-0.67053-9e-3 -1.338-0.0254-2.0045-0.0167-0.66553-0.042-1.3292-0.0756-1.9904-3e-5 -4.59e-4 3e-5 -7.16e-4 0-2e-3 -0.0673-1.3229-0.16806-2.6371-0.30053-3.9418-5e-5 -4.58e-4 5e-5 -9.25e-4 0-9.55e-4 -0.13255-1.3052-0.29706-2.6007-0.49344-3.8859-0.29453-1.9278-0.65947-3.8316-1.093-5.71-0.28897-1.2519-0.60881-2.493-0.9575-3.7209-0.17441-0.61415-0.35607-1.2261-0.54514-1.8339-0.18904-0.60785-0.38638-1.213-0.58987-1.8144-0.40698-1.2027-0.84206-2.3918-1.3056-3.5672-0.46348-1.1754-0.95491-2.3367-1.4733-3.4833-0.51837-1.1466-1.0638-2.2778-1.6355-3.3938-1.1433-2.2321-2.3911-4.4022-3.7377-6.5025-0.67327-1.0502-1.3708-2.0827-2.0926-3.0975-2.165-3.0444-4.5436-5.9263-7.1148-8.623-0.42853-0.44946-0.86366-0.89301-1.3027-1.3321-0.21687-0.21687-0.43894-0.42869-0.65838-0.64299-0.66883-0.65326-1.346-1.3-2.038-1.929-1.3788-1.2533-2.8022-2.4565-4.2688-3.6091-13.2-10.374-29.847-16.562-47.938-16.562zm0 56.47c11.696 0 21.176 9.4806 21.176 21.176 0 11.696-9.4806 21.175-21.176 21.175s-21.176-9.4792-21.176-21.175c0-11.696 9.4806-21.176 21.176-21.176z" style="filter:url(#c);opacity:.3;stroke-width:.95423"/><path d="m82.526 54.933c-15.239 0-27.592 12.353-27.592 27.592 0 15.238 12.353 27.592 27.592 27.592s27.592-12.354 27.592-27.592c0-15.239-12.353-27.592-27.592-27.592zm0 12.949c8.086 0 14.643 6.5564 14.643 14.643 0 8.0863-6.5564 14.643-14.643 14.643-8.0863 0-14.643-6.5564-14.643-14.643 0-8.0863 6.5564-14.643 14.643-14.643z" fill="#72a2f4" stroke="#5b739d" stroke-width="1.4308"/><path d="m82.526 4.8813c-18.092 0-34.739 6.1876-47.939 16.561-1.4668 1.1526-2.89 2.3559-4.2689 3.6091-0.69201 0.62895-1.3691 1.2757-2.038 1.929-0.21941 0.2143-0.44148 0.42612-0.65836 0.64299-0.43909 0.4391-0.87422 0.88265-1.3027 1.3321-1.7141 1.7979-3.3415 3.6775-4.8783 5.6331-4.01e-4 5.16e-4 -9.55e-4 8.57e-4 -9.55e-4 9.53e-4 -0.76798 0.97732-1.5138 1.9742-2.2351 2.9885-0.72166 1.0148-1.4192 2.0473-2.0925 3.0975-0.33664 0.5251-0.66681 1.0542-0.99106 1.5879-2e-4 3.45e-4 2.1e-4 9.55e-4 0 9.55e-4 -0.97246 1.6005-1.8894 3.2395-2.7467 4.9132-0.57162 1.1161-1.117 2.2473-1.6355 3.3938-0.25919 0.57327-0.51205 1.1498-0.75761 1.7305-1.63e-4 4.01e-4 1.71e-4 9.53e-4 0 9.53e-4 -0.24538 0.58021-0.48409 1.1642-0.71568 1.7514-0.46348 1.1754-0.89858 2.3645-1.3056 3.5672-0.20349 0.60134-0.40083 1.2065-0.58988 1.8144-0.18904 0.60785-0.37073 1.2184-0.54513 1.8325-1.24e-4 4.3e-4 1.145e-4 9.55e-4 0 9.55e-4 -0.34869 1.2279-0.66854 2.4691-0.95748 3.7209-0.43359 1.8784-0.79853 3.7822-1.0931 5.71-0.19637 1.2853-0.36089 2.5807-0.49342 3.8859-4.75e-5 4.6e-4 4.8e-5 9.28e-4 0 2e-3 -0.13247 1.3047-0.23347 2.6188-0.30053 3.9418-2.85e-5 4.57e-4 1.9e-5 7.16e-4 0 9.54e-4 -0.033495 0.66126-0.05859 1.325-0.07548 1.9904-1.94e-5 4.69e-4 9.6e-6 7.17e-4 0 9.55e-4 -0.01689 0.66555-0.02519 1.3334-0.02519 2.003 0 4.0204 0.30549 7.9697 0.89459 11.826 0.29455 1.9278 0.65949 3.8315 1.0931 5.71 9.55e-5 4.5e-4 -1.05e-4 7.4e-4 0 9.7e-4 0.43353 1.878 0.93562 3.7304 1.5026 5.5534 0.56716 1.8236 1.2002 3.6184 1.8954 5.3815 0.46348 1.1754 0.9549 2.3368 1.4733 3.4834s1.0638 2.2778 1.6355 3.3938c1.9e-4 3.9e-4 -1.84e-4 7.5e-4 0 2e-3 1.1431 2.2318 2.3914 4.4011 3.7377 6.5012 0.67327 1.0502 1.3709 2.0827 2.0925 3.0976 0.36082 0.5074 0.72745 1.0114 1.1 1.5096 0.74524 0.9965 1.5138 1.9738 2.3049 2.9326 1.1868 1.438 2.4242 2.8324 3.7098 4.1808 0.42853 0.44948 0.86366 0.89439 1.3027 1.3336 3.5127 3.5128 7.3606 6.6905 11.491 9.4812 1.0327 0.69768 2.0819 1.3714 3.1493 2.0198 0.53364 0.32423 1.0725 0.64164 1.6145 0.95327 1.0839 0.62327 2.1841 1.2218 3.3002 1.7934 1.1161 0.57163 2.2473 1.117 3.3938 1.6354 1.1466 0.51838 2.3079 1.0098 3.4833 1.4732 1.1754 0.46348 2.3645 0.89856 3.5672 1.3056 1.804 0.61047 3.6382 1.1567 5.499 1.6355 1.2405 0.31912 2.4936 0.60804 3.7573 0.86662 1.2637 0.25857 2.5378 0.48715 3.823 0.68354 1.2853 0.19635 2.5807 0.36086 3.8859 0.49341 0.65258 0.0665 1.3081 0.12473 1.9653 0.17474 1.9717 0.15002 3.964 0.22641 5.9742 0.22641s4.0024-0.0766 5.9743-0.22641c0.65726-0.0499 1.3127-0.10846 1.9653-0.17474 1.3052-0.13255 2.6007-0.29706 3.8859-0.49341 1.2853-0.19638 2.5593-0.42497 3.8229-0.68354 1.2637-0.25858 2.5168-0.5475 3.7573-0.86662 1.8608-0.47874 3.695-1.025 5.499-1.6355 1.2027-0.40695 2.3918-0.84207 3.5672-1.3056 1.1754-0.4635 2.3368-0.9549 3.4834-1.4732 1.1466-0.51838 2.2778-1.0638 3.3938-1.6354 1.1161-0.57165 2.2163-1.1701 3.3002-1.7934 0.54197-0.31163 1.0808-0.62904 1.6144-0.95327 1.0672-0.64848 2.1165-1.3222 3.1492-2.0198 4.1308-2.7908 7.9786-5.9684 11.491-9.4812 0.4391-0.43912 0.87425-0.88403 1.3027-1.3336 1.2856-1.3484 2.523-2.7428 3.7098-4.1808 0.79118-0.95874 1.5598-1.936 2.305-2.9326 0.37264-0.49826 0.73925-1.0022 1.1-1.5096 0.72167-1.0148 1.4192-2.0473 2.0926-3.0976 1.3465-2.1004 2.5944-4.2704 3.7377-6.5025 0.57164-1.1161 1.117-2.2473 1.6354-3.3938 0.51837-1.1466 1.0098-2.3079 1.4733-3.4833 0.69522-1.7632 1.3283-3.558 1.8954-5.3815 0.56702-1.8232 1.0691-3.6755 1.5026-5.5534 9e-5 -4.7e-4 -1e-4 -7e-4 0-9.5e-4 0.4336-1.8784 0.79853-3.7822 1.0931-5.71 0.5891-3.8557 0.8946-7.805 0.8946-11.826 0-0.67053-9e-3 -1.338-0.0254-2.0045-0.0167-0.66553-0.042-1.3292-0.0756-1.9904-3e-5 -4.59e-4 3e-5 -7.16e-4 0-2e-3 -0.0673-1.3229-0.16806-2.6371-0.30053-3.9418-5e-5 -4.58e-4 5e-5 -9.25e-4 0-9.55e-4 -0.13255-1.3052-0.29706-2.6007-0.49344-3.8859-0.29453-1.9278-0.65947-3.8316-1.093-5.71-0.28897-1.2519-0.60881-2.493-0.9575-3.7209-0.17441-0.61415-0.35607-1.2261-0.54514-1.8339-0.18904-0.60785-0.38638-1.213-0.58987-1.8144-0.40698-1.2027-0.84206-2.3918-1.3056-3.5672-0.46348-1.1754-0.95491-2.3367-1.4733-3.4833-0.51837-1.1466-1.0638-2.2778-1.6355-3.3938-1.1433-2.2321-2.3911-4.4022-3.7377-6.5025-0.67327-1.0502-1.3708-2.0827-2.0926-3.0975-2.165-3.0444-4.5436-5.9263-7.1148-8.623-0.42853-0.44946-0.86366-0.89301-1.3027-1.3321-0.21687-0.21687-0.43894-0.42869-0.65838-0.64299-0.66883-0.65326-1.346-1.3-2.038-1.929-1.3788-1.2533-2.8022-2.4565-4.2688-3.6091-13.2-10.374-29.847-16.562-47.938-16.562zm0 56.47c11.696 0 21.176 9.4806 21.176 21.176 0 11.696-9.4806 21.175-21.176 21.175s-21.176-9.4792-21.176-21.175c0-11.696 9.4806-21.176 21.176-21.176z" style="fill:url(#b);stroke-width:.95423"/><path d="m74.763 6.4913c-1.8307 0-2.0494 2.2426-0.26423 2.7095 1.101 0.2879 3.2227 3.3808 2.9647 4.3217-0.0649 0.23676 0.10174 0.42993 0.37022 0.42993 0.67649 0 4.1781 5.7285 3.838 6.2788-0.32508 0.52602-4.3274 0.96243-16.093 1.7541-4.7351 0.3186-9.6423 0.71948-10.905 0.89121-2.2598 0.30734-2.2778 0.29687-1.1002-0.71804 0.65798-0.56708 2.0579-1.6769 3.1095-2.4661 3.4671-2.602 4.3128-3.4052 3.6066-3.4245-0.38361-0.0105-1.5734 0.75003-2.6438 1.6899-1.0704 0.93984-2.154 1.5209-2.4079 1.2913-0.25388-0.22957-0.24829-0.05115 0.0119 0.39709 0.35552 0.61237 0.22801 0.72138-0.51204 0.43739-0.54168-0.20786-0.83926-0.14312-0.66131 0.1448 0.17794 0.28792-0.47854 1.0951-1.4585 1.7929-1.5776 1.1234-2.5813 1.2806-8.7598 1.3764-6.8885 0.10682-6.9807 0.12633-7.264 1.5018-0.15784 0.76629-1.1267 2.6024-2.1526 4.0799-1.0259 1.4774-1.866 2.9771-1.866 3.3335 0 0.35635-0.23841 0.50114-0.52995 0.32096s-1.1218 0.51541-1.8451 1.5451c-0.72327 1.0297-2.0582 2.6257-2.9662 3.5469-1.2674 1.2857-1.5781 2.0368-1.3391 3.2319 0.24216 1.2108-0.3438 2.5604-2.6378 6.0728-1.6224 2.4841-4.0638 6.3123-5.4249 8.5076-1.3611 2.1952-2.4909 3.7451-2.5109 3.4439-0.02001-0.30116-0.26984 0.03316-0.55533 0.74342-0.28549 0.71027-0.91509 1.2913-1.3988 1.2913-0.96004 0-1.2207 2.018-0.3314 2.5676 0.74781 0.46218 0.08547 2.0243-0.85837 2.0243-1.2754 0-1.6208 2.2609-0.52995 3.4663 0.72699 0.80331 1.2502 0.94627 1.9974 0.54637 0.80084-0.42859 1.0879-0.27481 1.3764 0.73596 0.37631 1.3185 4.064 18.796 4.9323 23.376 0.80471 4.245 2.1599 8.9789 2.2183 7.7477 0.02998-0.63135-0.30488-2.678-0.74491-4.5486s-0.70642-4.8416-0.59265-6.6012c0.17011-2.631 0.12242-2.8418-0.26423-1.1898-0.25859 1.1049-0.50688 1.7503-0.55234 1.4346-0.04543-0.31567-0.82558-4.1252-1.7332-8.4657-0.90757-4.3405-1.5762-7.8925-1.4868-7.8925 0.08936 0 0.94448 1.2279 1.9004 2.7274 1.2186 1.9116 1.649 3.1771 1.4406 4.2366-0.16352 0.83111-0.01549 1.6854 0.32991 1.8989 0.3454 0.21347 0.66776 1.2125 0.71506 2.2198 0.0815 1.7356 0.09735 1.7495 0.32394 0.25378 0.13151-0.86811 0.58887-1.5779 1.0151-1.5779s0.86448-0.27214 0.97481-0.6031c0.12052-0.36156 1.5285-0.01376 3.5275 0.87031 3.7226 1.6463 3.6892 1.4595 1.2137 6.8028-1.5083 3.2555-1.1086 3.6014-3.7231-3.217-0.70036-1.8265-1.3762-3.2187-1.5018-3.0931-0.1256 0.12562 0.55467 2.2598 1.5107 4.7427 0.95606 2.4829 1.7399 4.7796 1.7421 5.1024 0.01172 1.5672-3.2542 8.3003-4.1381 8.5314-1.5175 0.39683-2.4105-1.1676-2.3527-4.1217 0.03284-1.678-0.0479-2.0338-0.21795-0.95391-0.14912 0.94703-0.50428 1.9617-0.78821 2.2541-0.65708 0.67677-2.9515-1.3198-2.4497-2.1317 0.21194-0.34292 0.07791-0.41106-0.32394-0.16272-1.2001 0.74171-5.6667-3.1554-6.0787-5.304l-0.36425-1.9018-1.1704 1.4883c-1.251 1.5904-1.0817 3.1295 0.35678 3.2469 0.48341 0.0394 1.1336 0.10387 1.445 0.14331 0.31142 0.0394 2.3764 1.4538 4.5904 3.1424 3.2187 2.4547 4.0236 3.3751 4.0127 4.5919-0.02265 2.5176-0.94328 5.7173-1.9287 6.7027-1.1005 1.1005-1.2239 3.0854-0.21049 3.3962 1.5696 0.4814 5.2702 0.8348 4.677 0.44635-1.6108-1.0547-2.6582-4.7037-2.2616-7.8776 0.39313-3.1465 1.1755-4.0561 1.8511-2.1512 0.19591 0.55245 0.68544 1.3925 1.0868 1.866 0.6343 0.74842 2.5393 7.6798 2.5393 9.239 0 0.33639-0.51345 0.30199-1.2913-0.0866-1.0214-0.51026-0.95912-0.36459 0.30155 0.69714 0.88119 0.74214 1.7061 2.1113 1.8451 3.0633 0.13828 0.94702 0.79517 3.7675 1.4585 6.2668 0.66331 2.4993 1.0512 5.2113 0.86285 6.0265-0.25787 1.116-0.19905 1.2692 0.23885 0.62101 0.42364-0.62713 0.54524-0.081 0.44784 2.0093l-0.13286 2.8692 2.4378-0.0851c1.3405-0.047 2.2944 0.14383 2.1213 0.42396-0.17313 0.2801 0.04283 0.37195 0.47919 0.20452 0.43635-0.16746 2.5807 0.0939 4.7651 0.5807 2.1844 0.48675 4.5975 0.98413 5.3637 1.1047 0.76617 0.12057 1.7702 0.70159 2.2303 1.2913 0.73449 0.94143 0.7936 0.9491 0.48964 0.0672-0.41043-1.1908-0.46921-1.1838 2.9513-0.33887 1.4814 0.36595 2.9004 1.0114 3.1528 1.4346s0.93452 0.77029 1.5152 0.77029c0.5807 0 1.6616 0.49056 2.4034 1.0912l1.3495 1.0927-2.814 0.42247c-1.8197 0.27288-3.184 0.19101-3.8604-0.23139-0.5753-0.35928-1.4058-0.65385-1.8451-0.65385s-1.1523-0.52897-1.5854-1.1763c-0.74105-1.1077-0.79393-1.0514-0.89718 0.96137-0.06035 1.1764 0.14263 2.6098 0.45083 3.1857 0.67891 1.2686 2.4114 1.3642 3.3887 0.1866 0.83962-1.0117 1.785-1.1402 1.5794-0.21496-0.07892 0.35513 0.24304 0.76223 0.71655 0.90464 0.51064 0.15357 0.62705 0.0648 0.28662-0.21646-1.2582-1.0395-0.8218-1.9102 1.0047-2.0063 1.026-0.054 2.3826-0.14247 3.014-0.19556 0.63135-0.0531 1.7934 0.49498 2.5826 1.2166 5.7342 5.2436 9.3104 8.893 8.4359 8.6091-0.63676-0.20672-0.89172-0.10672-0.6643 0.26124 0.20315 0.32875 0.66571 0.49862 1.0286 0.37768 0.76871-0.25623 1.7223 0.59767 2.2631 2.0258 0.46508 1.2282 2.0513 1.3208 2.502 0.14629 0.18101-0.4717 0.56085-0.71506 0.84344-0.54039 0.28259 0.17465 0.51353 0.029 0.51353-0.32395 0-0.35294 0.29836-0.45663 0.66281-0.23138 0.36554 0.22592 0.50929 0.15935 0.31946-0.14779-0.18924-0.30621 2.5118-1.9064 6.0026-3.5559 6.0308-2.8498 6.4146-2.9548 7.7164-2.1019 0.75347 0.49371 1.3704 1.3573 1.3704 1.9183 0 2.3671 2.9452 3.2514 4.0366 1.2122 0.87725-1.6392-0.21903-2.8334-2.602-2.8334-1.0276 0-2.1865-0.38263-2.5751-0.85091-0.59869-0.72138-0.0179-1.1848 3.8037-3.0304 5.1169-2.4712 7.3333-2.6471 13.407-1.0689 2.0519 0.5332 4.8717 1.2654 6.2668 1.6272 2.0976 0.5439 2.3472 0.74131 1.4361 1.139-0.81752 0.35687-0.69499 0.40078 0.4762 0.17318 0.94311-0.18328 1.5779-0.0553 1.5779 0.31796 0 0.34369 0.58102 0.54277 1.2913 0.44188 0.84764-0.1204 1.2913-0.57815 1.2913-1.3316 0-0.93893-0.33438-1.1212-1.8406-1.0047-1.0128 0.0783-3.3383-0.26937-5.1666-0.77178s-4.9909-1.2832-7.0297-1.7361c-2.0388-0.45299-3.8876-1.1164-4.1082-1.4734-0.70181-1.1356 0.13805-2.1904 1.7063-2.1422l1.5167 0.0478-1.7227 0.7882c-2.6269 1.2028-0.78223 0.98952 2.0795-0.24034 3.5111-1.5089 13.268-2.1474 14.274-0.9345 1.4618 1.7613 3.5095 0.84774 4.1724-1.86 0.26171-1.069 0.079-1.2913-1.0644-1.2913-1.0299 0-1.3983-0.32826-1.448-1.2913-0.0567-1.0996-0.10853-1.1296-0.34634-0.20004-0.60796 2.3763-2.0463 3.1296-6.7714 3.5425-2.5204 0.22022-4.4527 0.27018-4.2948 0.11195 0.27109-0.27178 15.378-7.0722 17.218-7.7507 0.4735-0.17463-0.28999 0.88183-1.6973 2.3482s-2.3086 2.6662-2.0034 2.6662c0.30518 0 1.8157-1.4309 3.3573-3.1797 1.7213-1.9526 3.8231-3.6214 5.4473-4.3247 1.4546-0.62988 3.1619-1.4464 3.7932-1.8153 0.63134-0.36884 2.31-0.81274 3.7305-0.98525 2.0956-0.25453 2.5826-0.53009 2.5826-1.4615 0-0.63135 0.60269-2.0524 1.339-3.1573l1.3391-2.0078-1.548 1.7212c-1.7154 1.9084-1.7133 1.8937 0.91211-4.5919 2.3873-5.8975 3.6172-7.6281 5.5757-7.8537 1.2909-0.14874 1.5968-0.4997 1.7421-1.9974 0.13745-1.417-0.0836-1.8991-1.0047-2.1914-1.3073-0.41491-1.4506-0.97017-0.63295-2.4572 0.30142-0.54816 1.3811-3.2613 2.399-6.0295 1.2602-3.4272 2.0122-4.8013 2.3586-4.3053 0.32738 0.46877 0.38031 0.27036 0.14779-0.55682-0.21645-0.7699-2e-3 -1.7985 0.53592-2.5662 0.49372-0.7049 0.89867-1.7307 0.89867-2.2795s0.54923-1.5102 1.2211-2.1362c1.3436-1.2518 1.112-2.9244-0.40455-2.9244-0.58543 0-0.81968-0.31377-0.62101-0.8315 0.19017-0.49558 0.0413-0.72877-0.36872-0.57772-0.37851 0.13943-1.3931-0.972-2.2542-2.4691-0.86109-1.4971-2.7034-4.5303-4.0948-6.7401-1.3914-2.2097-2.4747-4.081-2.4064-4.159 0.4167-0.47667 5.4298 1.8183 5.713 2.6154 1.5732 4.4273 2.0169 5.4261 1.7391 3.9142-0.22654-1.2331-7e-3 -1.8556 0.87329-2.4721 1.9778-1.3853 1.1685-4.2023-1.2077-4.2023-0.69609 0-1.124-0.61988-1.3838-2.0048-0.20676-1.1021-0.58157-1.8766-0.83298-1.7212-0.25142 0.15539-0.17919 1.1857 0.15973 2.29 0.3387 1.1043 0.48702 2.1373 0.32991 2.2945-0.15709 0.15711-1.6253-0.17024-3.2633-0.727-2.5628-0.87114-3.3008-1.4905-5.2935-4.4456-3.2511-4.8212-4.5436-7.4382-4.5904-9.2943-0.034-1.349-0.10969-1.4253-0.47919-0.48069-0.3684 0.94174-0.82075 0.47668-2.8289-2.9035-1.315-2.2134-2.3915-4.2033-2.3915-4.4217s0.88798-0.39709 1.9735-0.39709c1.9204 0 1.9834 0.07472 2.3407 2.7274 0.54074 4.0139 0.90674 4.3852 0.56428 0.57324l-0.29707-3.3006h4.1217c2.9852 0 4.4021 0.25523 5.1427 0.92555 0.95363 0.86301 1.0484 0.82245 1.4092-0.61504 0.51335-2.0453-0.51181-3.1289-2.0511-2.1676-0.61354 0.38316-2.7797 0.84414-4.8143 1.0241-4.2388 0.37484-4.0364 0.61036-4.6844-5.4219l-0.3941-3.6738 1.6451 1.1853c0.90462 0.65217 2.8071 2.3643 4.2276 3.8052s2.8338 2.6255 3.1409 2.6318c0.30711 0.0063-0.33831-0.79526-1.4346-1.7809-6.6661-5.9933-6.8501-6.2138-6.5191-7.8686 0.4165-2.0825-1.0759-3.5069-2.6468-2.5258-0.87311 0.54526-1.3803 0.36931-2.9677-1.03-1.0527-0.92797-2.1713-1.6813-2.487-1.6734-0.31567 0.0078 0.32076 0.77806 1.4137 1.7123 2.1936 1.875 1.8731 1.974-3.0662 0.94644-3.7082-0.77146-3.1755-0.13508-8.2702-9.866-1.6863-3.2207-1.6731-3.1816-1.772-5.1831-0.0839-1.7002-1.676-2.5391-2.596-1.3674-0.73476 0.93581-0.85002 0.97057-6.9102 2.0496-5.2577 0.93616-6.0623 0.77319-6.0623-1.2211 0-1.051 0.30615-1.4525 1.1047-1.4525 1.0332 0 1.0494-0.10991 0.2508-1.7108-0.46931-0.94075-1.0988-1.8607-1.3973-2.0452-0.85624-0.52919-2.8274 0.30541-2.8274 1.1972 0 0.59156-0.46192 0.71642-1.7227 0.46426-1.0969-0.21938-1.7212-0.10978-1.7212 0.30155 0 0.35513 0.70981 0.6514 1.5779 0.65833 2.0298 0.01641 4.0201 1.6068 4.2605 3.4051 0.18471 1.3819 0.0387 1.4346-7.5596 2.7348-10.672 1.8263-10.691 1.8212-14.597-4.368-1.7941-2.8434-3.1961-5.7308-3.1961-6.5818 0-1.2347-0.26616-1.5167-1.4346-1.5167zm3.1558 1.7959c-0.26007 0-0.51925 0.03981-0.71655 0.11942-0.3946 0.15922-0.0726 0.28961 0.71655 0.28961 0.78914 0 1.1126-0.13038 0.71804-0.28961-0.19729-0.07961-0.45797-0.11942-0.71804-0.11942zm-5.6578 0.74641c4e-3 -0.01199-0.0229-0.01001-0.0821 0.0075-1.5397 0.45441-10.02 3.8953-10.905 4.4247-0.47351 0.28332-1.979 1.0475-3.3469 1.6973s-2.3693 1.3001-2.2243 1.445c0.14499 0.14499 1.2003-0.1825 2.3452-0.72849 2.0064-0.95676 2.1117-0.95341 2.9125 0.11793 0.52544 0.70294 0.74158 1.9563 0.58668 3.4081l-0.24482 2.2959 0.57771-2.3601c0.83867-3.4227 1.9898-3.7243 7.9433-2.0765 2.7161 0.75174 6.3222 1.7503 8.0134 2.2183s3.1849 0.74123 3.3185 0.60758c0.13365-0.13365-3.2918-1.2397-7.6119-2.4587-7.1515-2.0179-9.3988-3.0167-9.3988-4.1739 0-0.2266 2.0006-1.3694 4.4471-2.5408 2.1407-1.025 3.6441-1.8 3.6693-1.8839zm35.057 4.677c-0.41163-0.02839-0.70163 0.08099-0.70163 0.29558 0 0.28612 0.51663 0.52099 1.148 0.52099s1.148-0.09992 1.148-0.22094-0.51663-0.3544-1.148-0.5195c-0.15784-0.04127-0.30914-0.06667-0.44635-0.07613zm-35.781 0.31498c-0.31209-0.0038-0.64633 0.03024-0.92555 0.103-0.55843 0.14552-0.23943 0.27491 0.7076 0.28662 0.94699 0.0117 1.4037-0.10701 1.0151-0.26423-0.19429-0.07859-0.48508-0.12155-0.79716-0.1254zm41.761 2.5348c2.2832-0.0376 3.6464 1.1859 5.1218 4.2799 0.82797 1.7362 2.2721 4.5125 3.2096 6.1698 1.8618 3.2914 1.7153 3.4625-2.0989 2.4542-0.94703-0.25035-4.1658-0.9061-7.1521-1.4585-6.1169-1.1315-8.1809-2.5352-8.8912-6.0459-0.22037-1.0892-0.52099-2.4128-0.66879-2.9408-0.22088-0.7892 0.32266-1.0285 3.0558-1.348 1.8287-0.21378 4.3861-0.61424 5.6832-0.88972 0.63757-0.13542 1.2137-0.21226 1.7406-0.22094zm-11.607 1.6122c0.40998 0.05204 0.74389 1.2614 1.1584 4.1023 0.57444 3.9368 0.24594 3.9944-8.3001 1.4316-4.2298-1.2684-7.911-2.2331-8.1791-2.1437-0.26817 0.08939 2.9515 1.1669 7.1536 2.3945 4.202 1.2275 7.8722 2.3581 8.1567 2.5139 0.28457 0.1558 0.0413 0.63159-0.5404 1.0569-0.58167 0.42533-1.4605 0.75926-1.9526 0.74193-1.1788-0.04156-13.467-6.1213-13.683-6.7699-0.0922-0.27643 3.3737-1.0683 7.7029-1.7585 4.3292-0.69026 8.0658-1.3745 8.303-1.5212 0.0621-0.0384 0.12206-0.05521 0.18063-0.04777zm18.412 1.2331 1.3913 1.5779c0.76531 0.8681 1.4766 1.5779 1.5794 1.5779 0.45015 0 0.0839-0.46399-1.3913-1.7645zm-40.254 2.1123c0.99775-0.04315 1.5352 0.07274 1.4376 0.32991-0.17968 0.47337-5.3478 5.2782-15.613 14.518-6.2294 5.6066-7.5157 6.8543-7.073 6.8565 0.26603 0.0014 3.3772-2.6445 6.9147-5.8802 11.971-10.95 16.014-14.493 16.737-14.668 0.9199-0.22319 1.1108 0.40983 6.0146 19.869 0.20453 0.81162 0.37433 1.5289 0.56876 2.3154 0.23585 0.03933 0.47024 0.08176 0.70461 0.1254-0.85354-3.3123-1.8462-7.1834-2.1213-8.1776l-0.74343-2.6871 2.6512-1.1062c9.6474-4.0248 8.9652-3.8673 11.599-2.6796l2.3885 1.0763-0.35081 3.7559c-0.8455 9.0571-0.80663 10.66 0.094 3.8395l0.9748-7.376 4.562 2.3601c2.509 1.2985 4.7043 2.5819 4.8785 2.8513 0.95278 1.4732 10.017 10.938 10.251 10.703 0.27658-0.27658-3.6641-4.6078-7.2103-7.9254-1.027-0.96072-1.778-1.8361-1.669-1.9451 0.10909-0.10909 3.5016 1.3627 7.5387 3.2708s7.4253 3.3842 7.5298 3.2797c0.10445-0.10444-3.669-2.1066-8.3866-4.4486-7.3052-3.6267-9.1037-4.7941-12.123-7.8701-1.9499-1.9865-3.3797-3.7768-3.1782-3.9784 0.20153-0.20152 4.2168 0.36569 8.924 1.2599l8.5583 1.6257 2.0228 3.7664c4.7531 8.8503 4.9734 9.3526 4.4814 10.232-0.26971 0.48194-3.8164 2.2269-7.8821 3.8783-4.0656 1.6514-10.329 4.1966-13.918 5.6563-0.0328 0.01333-0.0524 0.02106-0.0851 0.03433 0.18007 0.1652 0.35307 0.33749 0.52994 0.50606l3.4365-1.3973c6.1224-2.4884 11.403-4.5247 11.734-4.5247 0.33038 0 1.9332 1.4212 3.5619 3.1573 2.9401 3.1341 2.958 3.1754 2.5288 5.8906-0.23777 1.5041-0.60178 4.6682-0.80762 7.0312s-0.74691 7.7432-1.2032 11.956c-0.8457 7.8084-1.0171 10.799-0.59264 10.372 0.13073-0.13153 0.64898-4.3719 1.151-9.4226 0.502-5.0508 1.0518-10.022 1.2226-11.048l0.31051-1.8645h3.7231c4.3516 0 4.9679 0.68524 3.4574 3.853-0.53184 1.1152-0.85299 2.1431-0.71357 2.2825 0.13942 0.13942 0.71612-0.79762 1.2823-2.081 0.63814-1.4464 1.4111-2.3333 2.0332-2.3333 0.55198 0 1.1541-0.24208 1.3376-0.53891 0.6076-0.98313 3.6563 0.57117 4.8039 2.4497 0.61133 1.0007 2.8202 4.5317 4.9084 7.8462 4.0725 6.4645 3.9875 6.2817 3.3573 7.2446-0.35537 0.54299-8.2797 4.8084-8.933 4.8084-0.11926 0-1.2128-4.7784-2.4318-10.618-1.219-5.84-2.3907-10.617-2.6035-10.617-0.21278 0-0.0415 1.484 0.38066 3.2991 1.429 6.1437 3.6998 17.072 3.6977 17.791-2e-3 0.3933-3.0368 2.1648-6.746 3.9366-9.8273 4.6941-10.357 4.899-10.79 4.1978-0.53485-0.86541 0.26768-5.6596 1.2734-7.6044 0.46613-0.90159 0.70059-1.7879 0.5195-1.969-0.18113-0.18111-0.32991-0.0279-0.32991 0.34036 0 0.36829-0.38785 0.67027-0.86136 0.67027-0.53929 0-0.85986 0.54384-0.85986 1.457 0 0.80176-0.51661 2.4706-1.148 3.7082l-1.148 2.2512-3.5872-3.8724c-0.29041-0.31341-0.63427-0.6933-0.94197-1.0285-0.0493 0.23142-0.10622 0.45982-0.15973 0.68968 0.53618 0.59625 2.0195 2.2664 2.2467 2.5139 3.2968 3.5911 2.3856 4.6059-5.1726 5.6787-0.10217 0.20695-0.2107 0.41022-0.31648 0.61504 1.0447-0.0599 2.4758-0.25283 3.4827-0.48666 1.3874-0.32219 2.1526-0.29596 2.1526 0.0747 0 0.93535-3.5626 8.1643-4.2486 8.621-0.3468 0.23087-0.98709-0.0282-1.4241-0.57473-0.7144-0.89338-0.76251-0.89661-0.46576-0.0313 0.5902 1.7209-0.8793 2.2768-4.159 1.5734-0.61116-0.13106-1.1693-0.22513-1.672-0.29856-0.12935 0.13548-0.25684 0.27248-0.38814 0.40604 0.54932 0.14914 1.2209 0.30915 2.0093 0.46427 2.0789 0.40898 3.4603 0.97463 3.4603 1.4167 0 0.40478-0.96884 1.5234-2.1526 2.4855-1.1838 0.96213-4.6055 3.7216-7.6044 6.1325s-5.9684 4.8426-6.5997 5.4025c-0.63134 0.55988-2.4392 2.039-4.0172 3.2887-3.6336 2.8775-4.5095 3.7082-3.9112 3.7082 0.26253 0 1.1245-0.58101 1.9138-1.2913 0.7893-0.71026 2.9818-2.5273 4.8725-4.0366 5.0224-4.0091 6.8627-5.5126 12.801-10.46 6.7259-5.6039 7.6351-5.2417 3.8097 1.5197-1.4931 2.639-3.2916 5.7009-3.9963 6.8057-0.70467 1.1048-3.1385 5.1735-5.4085 9.0405-4.008 6.8277-4.1853 7.0312-6.1011 7.0312-1.085 0-1.9763-0.19317-1.9825-0.42993-6e-3 -0.23676-0.92533-1.4647-2.0422-2.7274-1.1168-1.2627-4.4478-5.2654-7.4014-8.8957-1.7819-2.1901-4.2017-5.1635-6.5594-8.0612-0.26532-0.0115-0.52877-0.0293-0.79268-0.0462 4.7143 5.8529 9.345 11.776 9.345 12.113 0 0.27913-0.84007 1.0925-1.866 1.8078-1.0259 0.71528-3.1518 2.4128-4.7248 3.7708-3.4879 3.0114-5 3.1595-6.134 0.6031-0.81334-1.8336-0.82439-1.731-0.11793 1.0838l0.3523 1.4077-7.9597-0.30154c-4.3783-0.16578-9.1232-0.43998-10.544-0.60908-1.7979-0.21397-2.2284-0.1495-1.4182 0.21049 0.64021 0.28444 4.7252 0.70726 9.0793 0.94048 7.2721 0.38948 8.0548 0.54061 9.6122 1.8511 1.1082 0.93254 2.115 1.3172 2.905 1.1106 0.83187-0.21753 2.3526 0.46793 4.8785 2.1974l3.6693 2.5124-6.8908 3.4798c-3.7901 1.9138-6.9613 3.4529-7.0461 3.4215-0.0848-0.0315-0.72838-0.22464-1.4316-0.42993-1.555-0.45394-2.6402-1.3406-8.2702-6.7669-2.743-2.6438-4.0314-4.2425-3.4439-4.2724 3.9008-0.19845 14.801-1.5478 12.949-1.6033-1.2868-0.0384-5.1239 0.20984-8.527 0.55235l-6.1877 0.6225-1.5346-1.4704c-0.8439-0.80851-1.5897-2.1348-1.657-2.9483-0.12065-1.4578 1.8277-6.0101 2.5721-6.0101 0.21034 0 2.9811 1.1887 6.1579 2.6423 8.9113 4.0775 9.5839 4.359 9.8302 4.1127 0.12656-0.12655-0.86294-0.69308-2.1989-1.2599-1.336-0.56686-4.9492-2.2124-8.0298-3.6559-6.4557-3.025-6.2632-2.0253-2.0407-10.597 1.5072-3.0597 3.2305-6.6819 4.041-8.4792-0.19705-0.099-0.39309-0.19923-0.58817-0.30155-0.70589 1.5381-1.6512 3.5119-2.9304 6.1683-2.8088 5.8328-5.6707 11.915-6.3594 13.516-0.811 1.8852-1.6902 3.0292-2.496 3.2454-1.4597 0.39154-1.5804 0.38286-5.0547-0.34335l-2.6632-0.55683-2.9707-6.034c-1.6336-3.3191-2.7941-6.2027-2.5796-6.4072 0.21449-0.20444 2.1033 1.5543 4.1978 3.9082 4.8427 5.4426 9.0867 9.8386 8.0597 8.3478-0.94065-1.3655-8.0685-9.6099-8.73-10.097-0.25339-0.18677-0.3822-0.57462-0.28662-0.86136 0.09558-0.28675 0.0048-0.52099-0.20153-0.52099s-1.0841-0.76482-1.9511-1.7003l-1.5764-1.7018 8.5329-8.2c3.3226-3.193 5.3672-5.1858 6.9252-6.4131-0.21778-0.23083-0.43585-0.46096-0.64788-0.69715-1.2238 1.3243-3.5518 3.7022-6.4087 6.5161-4.2465 4.1827-8.0527 7.6806-8.4583 7.7731-0.9805 0.22352-1.7516-0.77825-3.2364-4.2053-1.6297-3.7614-4.6927-12.398-4.4635-12.586 0.11828-0.0969 15.129 0.78059 21.477 1.239-0.21329-0.25937-0.41597-0.52767-0.6225-0.79268-12.659-0.64145-21.175-1.315-21.564-1.7391-0.22711-0.24794-1.1177-2.4645-1.9795-4.9263l-1.566-4.477 1.8645-4.2769c1.0256-2.3523 1.9724-4.2769 2.1049-4.2769s1.9708 0.75203 4.0843 1.6705c2.1135 0.91842 6.2757 2.7256 9.2495 4.0157 0.36545 0.15854 0.69206 0.29179 1.0405 0.43889-0.0543-0.2031-0.10872-0.40615-0.15973-0.61056-4.5976-1.9483-13.605-6.0396-13.885-6.3191-0.0909-0.09089 2.0333-5.1156 4.7203-11.166 2.6869-6.0506 4.886-11.151 4.886-11.335 0-0.18411 0.48713-1.0206 1.0838-1.8586 0.59664-0.83791 1.0918-1.7388 1.1002-2.0019 0.0084-0.26307 0.20712-0.65091 0.44187-0.86135 0.23472-0.21045 0.24201-0.06021 0.01493 0.33439-0.24088 0.41857-0.10096 0.7192 0.33738 0.72103 0.23562 8.41e-4 1.7979 2.7105 3.9291 6.6833 0.14741-0.30584 0.30901-0.60339 0.46426-0.90465-2.4077-4.9889-3.2811-7.2328-2.9722-7.5417 0.43584-0.43584 1.6297-0.49591 8.0179 0.07017 0.1396-0.16182 0.27722-0.32572 0.41948-0.48516-0.67799-0.08219-0.88812-0.10304-1.6451-0.19705-2.2097-0.27444-4.7276-0.56325-5.5951-0.64191-0.86747-0.07867-1.5773-0.28048-1.5779-0.44934-6.28e-4 -0.16886 0.96737-1.1112 2.1511-2.0944 1.1838-0.98319 3.421-2.9918 4.9726-4.462 2.7113-2.5691 2.8605-2.6329 3.8276-1.6361 0.68795 0.70907 1.1334 2.445 1.4077 5.4861 0.0177 0.19622 0.0205 0.30207 0.0358 0.48218 0.16899-0.14583 0.3345-0.29598 0.50606-0.43889l-0.0627-0.57175c-0.38668-3.5191-0.35386-4.9998 0.12241-5.395 0.26904-0.22328 2.2546 0.47718 5.7309 1.9869 0.24256-0.13597 0.48571-0.27078 0.73148-0.40157-3.0248-1.4777-5.1625-2.5618-5.3323-2.7289-0.3397-0.33426-0.12398-0.85803 0.57473-1.3988 1.0243-0.79268 1.0278-0.83375 0.0537-0.49263-0.63569 0.22261-1.2628 0.05092-1.563-0.42844-0.42456-0.67802-0.74631-0.66141-2.0944 0.11196-0.87603 0.50255-1.538 1.1851-1.4704 1.5167 0.18323 0.89877-10.162 10.154-10.686 9.56-0.42481-0.48224-2.4857-11.213-2.1989-11.45 0.07391-0.06095 2.0721 0.23512 4.4396 0.65684 2.3676 0.42171 5.0795 0.75111 6.0265 0.73297 0.94702-0.01815-0.91857-0.47425-4.1455-1.0136s-6.0408-1.1548-6.2534-1.3674c-0.3842-0.3842-1.8531-7.844-1.9108-9.7048-0.01662-0.53521 0.59158-1.3109 1.351-1.7227 0.75942-0.41182 3.2767-2.205 5.5951-3.9858 4.1419-3.1814 4.2987-3.2446 9.0106-3.6455l4.7964-0.40903-0.31499 2.499-0.31498 2.4975 0.61504-2.4019c0.7023-2.7413 0.74673-2.7565 9.9377-3.3424 2.8411-0.1811 6.4238-0.47543 7.9612-0.65534 0.42817-0.05011 0.81241-0.08265 1.145-0.09703zm4.0784 0.5822c0.10675-0.10675 3.3444 1.3726 7.1939 3.2872 5.1864 2.5795 6.7235 3.5773 5.9369 3.8559-0.58382 0.20684-2.6113 1.0145-4.5053 1.7944-5.3948 2.2213-6.025 2.4295-6.0354 1.9854-5e-3 -0.22894-0.6346-2.7368-1.3973-5.5727-0.76267-2.8359-1.2995-5.2435-1.1928-5.3502zm-41.173 0.21944c-0.12097 0.0095-0.26303 0.03483-0.42097 0.07613-0.63179 0.16522-1.148 0.39997-1.148 0.52099 0 0.45289 1.6661 0.19831 1.975-0.30155 0.13268-0.21467-0.04313-0.32401-0.40604-0.29558zm81.639 0.81657c-0.30148 0-0.10617 0.51663 0.43441 1.148 0.54057 0.63135 1.0641 1.148 1.1629 1.148s-0.0965-0.51663-0.43441-1.148c-0.33788-0.63135-0.86142-1.148-1.1629-1.148zm-75.299 0.72402c0.98028 0.04444-0.09359 0.833-4.4635 4.0978-2.366 1.7677-4.4671 3.214-4.6695 3.214-0.68895 0-1.1878-5.2805-0.55831-5.9101 0.33307-0.33307 1.7095-0.68558 3.0588-0.78373s3.6051-0.31411 5.0129-0.47919c0.73689-0.08641 1.2929-0.15364 1.6197-0.13883zm-3.4081 1.1808c-0.17488-0.0093-0.58489 0.1377-1.0584 0.39112-0.63135 0.33789-1.1465 0.74382-1.1465 0.90166s0.51513 0.0095 1.1465-0.32842c0.63135-0.33789 1.148-0.74233 1.148-0.90017 0-0.03946-0.03128-0.06108-0.08957-0.06419zm-7.8388 1.0121c0.29168-0.03514 0.46899 0.28082 0.47322 0.95689 0.0034 0.55243 0.15949 1.9293 0.34633 3.0588 0.32887 1.9879 0.21429 2.1511-3.5932 5.1084-2.1633 1.6802-4.3039 3.3387-4.7576 3.6858-0.6656 0.50916-0.74968 0.42734-0.43142-0.42097 0.21694-0.57825 0.3956-1.175 0.3956-1.3256 0-0.15066 0.229-0.13127 0.50905 0.0418 0.28003 0.17307 0.47324-0.13468 0.42993-0.68371-0.04353-0.5521 0.26033-0.92768 0.68072-0.84045 0.41785 0.08674 0.60402-0.09688 0.41202-0.40754-0.38962-0.63042 0.85087-2.9065 1.5839-2.9065 0.25837 0 0.33081 0.2242 0.16122 0.4986-0.16958 0.2744 0.5245 0.32958 1.5436 0.12241 2.1578-0.43866 2.9074-2.6581 1.2958-3.8365-0.8112-0.59316-0.8411-0.87714-0.20302-1.8989 0.45691-0.73163 0.86227-1.1173 1.1539-1.1525zm63.804 1.9272c1.007-0.05476 2.1885 0.85104 1.766 1.5346-0.17298 0.27991-0.0402 0.50905 0.29408 0.50905 0.3343 0 0.60757-0.25906 0.60757-0.57473 1e-5 -1.2092 1.5765-0.48302 3.7201 1.7123 1.2274 1.2569 2.1198 2.3881 1.9825 2.5139-0.33204 0.30422-9.7096-4.4077-9.7152-4.8815-2e-3 -0.20298 0.41501-0.53144 0.92853-0.72849 0.13148-0.05045 0.27264-0.07727 0.4165-0.08509zm-41.676 0.55383c-0.1389-0.1389-0.69586 2.529-1.2375 5.928-0.54168 3.399-1.1096 6.6954-1.2614 7.3267-0.21167 0.87989-0.15542 0.94803 0.24184 0.28811 0.60369-1.0029 2.6314-13.169 2.2571-13.543zm65.506 2.8304c0.5873 0.0102 1.8247 0.17006 3.1902 0.42247 1.8206 0.33654 3.4566 0.46503 3.635 0.28662 0.17842-0.17841 0.79517 0.4499 1.3704 1.3958 0.57522 0.94589 1.2768 1.7197 1.56 1.7197 0.41399 0 1.351 6.5213 1.2778 8.8957-0.0246 0.8002-2.3868 0.87358-3.8694 0.11942-0.6783-0.34501-1.6149-1.2889-2.081-2.0959-2.5117-4.3486-5.6353-10.5-5.4338-10.702 0.0319-0.03183 0.15505-0.0452 0.35081-0.0418zm-86.594 1.4525 0.50308 1.3301c0.27678 0.73126 0.69019 2.9429 0.91808 4.9158 0.22789 1.973 0.1961 3.5583-0.07165 3.523-0.26775-0.03531-1.779-0.29418-3.3573-0.57473-1.5784-0.28055-3.7093-0.65058-4.7352-0.82254-2.533-0.42457-2.4198-1.1165 0.5598-3.4171 0.40884-0.31567 1.9673-1.5599 3.4633-2.7647zm-7.1595 0.31498c0.23751-0.03024-0.159 0.97755-1.2823 2.8274-1.4668 2.4154-3.0364 3.5001-3.0364 2.0989 0-0.31568 0.25459-0.57324 0.56578-0.57324 0.3112 1e-6 1.2531-1.0388 2.0929-2.3079 0.9068-1.3703 1.4753-2.0216 1.66-2.0452zm53.816 0.8927c-0.12336 0.01521-0.36677 0.078-0.73894 0.19108-1.4158 0.43017-23.226 9.1254-23.485 9.3629-0.85608 0.785 2.2666-0.31063 11.774-4.1306 8.2723-3.3238 13.314-5.5299 12.45-5.4234zm-60.599 6.9043c-0.14634 0-1.2614 1.2143-2.4781 2.699-1.2166 1.4847-1.9129 2.5149-1.5466 2.2885 0.78065-0.48247 4.416-4.9875 4.0246-4.9875zm6.4251 0.90315c0.8845 0.0022 2.1875 0.20045 4.4516 0.59563 2.7877 0.48659 5.1341 0.95122 5.2159 1.033 0.08182 0.08181 0.56163 2.5506 1.0659 5.4861 0.67545 3.9322 0.75644 5.6891 0.30752 6.6744-0.3651 0.80132-0.39693 1.4681-0.07912 1.6645 0.70611 0.4364-0.32588 3.0985-1.8197 4.6934-0.6434 0.6869-1.0211 1.4872-0.84045 1.7794 0.26462 0.42816-4.7128 12.367-8.2493 19.786-0.89156 1.8704-0.65777 1.8633-4.4426 0.14331-2.3228-1.0556-3.014-1.6617-3.014-2.6468 0-0.8729 2.493-3.7945 7.8656-9.2166 4.326-4.3658 7.6591-7.9373 7.4059-7.9373-0.45429 0-2.609 2.1374-11.46 11.366-2.4818 2.5876-4.6126 4.7039-4.7352 4.7039-0.12256 0-0.26172-0.83858-0.30901-1.8645-0.08005-1.7362-0.10288-1.7572-0.32543-0.28811-0.3437 2.2688-1.4716 1.9476-3.0125-0.85986-0.73638-1.3416-1.6555-2.8271-2.0422-3.3006-0.80817-0.98959-1.7291-3.8727-2.2795-7.1342-0.2786-1.6507-0.51994-2.0369-0.90017-1.4361-0.28583 0.45167-0.51666 0.56348-0.51054 0.24781 0.02907-1.619 2.2316-2.963 6.2862-3.835 2.3676-0.50922 4.4112-0.82384 4.5411-0.70013 0.12998 0.12371-0.09211 2.4361-0.49412 5.1383-0.402 2.7021-0.61224 5.0321-0.46576 5.1786 0.14648 0.14648 0.60197-2.0752 1.0121-4.9367 0.52094-3.6344 1.0221-5.344 1.663-5.6727 0.50458-0.25878 4.0822-1.0733 7.9492-1.8093 3.867-0.73598 7.0312-1.4944 7.0312-1.6869 0-0.19246-3.4232 0.32134-7.6059 1.1435-7.597 1.4933-7.6047 1.495-7.9776 0.32096-0.36235-1.141-0.37437-1.1396-0.42993 0.07464-0.05827 1.274-0.59076 1.4556-7.9492 2.708-2.0188 0.3436-2.4167-0.34142-1.1062-1.9048 0.41774-0.49837 2.7676-4.0703 5.2219-7.9373s4.711-7.0297 5.0144-7.0297c0.30333 0 0.39066-0.25906 0.19556-0.57473-0.1951-0.31568-0.08494-0.57324 0.24333-0.57324 0.6519 0 0.38674 3.0663-0.78074 9.039-0.38566 1.973-0.52314 3.5872-0.30454 3.5872 0.21861 0 0.70664-2.0021 1.0838-4.4486s0.82673-5.274 0.99869-6.2847c0.17675-1.039 0.88823-2.2155 1.6376-2.7065 0.5921-0.38795 1.0591-0.58145 1.9436-0.57921zm98.889 4.683c0.80409-0.09522 0.76149 0.36011 0.56578 4.7442-0.0564 1.2627-0.30687 2.2959-0.55682 2.2959s-1.5889-1.1552-2.9752-2.5676l-2.5214-2.5676 1.9705-0.82105c1.0838-0.45113 2.4872-0.91024 3.1185-1.0196 0.1515-0.02624 0.28371-0.05059 0.39858-0.06419zm1.8153 0.3314c0.1095-0.1095 1.5512 1.9242 3.2036 4.5202 2.5904 4.0697 3.9731 7.9042 4.05 11.229 0.0184 0.79532-1.6001-0.50132-4.58-3.6693l-3.5872-3.8141 0.35678-4.0336c0.19637-2.2185 0.44731-4.1226 0.55682-4.2321zm-112.66 0.79268c-0.06423 0.0042-0.14614 0.05657-0.24781 0.15824-0.32559 0.32559-1.036 0.59265-1.5779 0.59265-1.2232 0-1.6672 1.1095-0.97929 2.4467 0.76485 1.4867 2.57 0.31626 2.8916-1.875 0.13277-0.90464 0.10612-1.3352-0.08658-1.3226zm35.424 0.13435c-0.0156-0.0053-0.0616 0.01928-0.13883 0.07613-1.1673 0.85946-5.7519 5.3971-7.1252 7.0521-1.8546 2.2349-0.0222 0.63135 3.9589-3.4648 2.0647-2.1244 3.4139-3.6259 3.3051-3.6634zm46.891 0.3747c-0.0555 0.08088-0.0903 0.57091-0.10301 1.3107 0.10744 0.06225 0.21569 0.12334 0.32246 0.1866-0.0116-0.39099-0.0343-0.77836-0.0836-1.1047-0.0494-0.32717-0.0968-0.44957-0.13584-0.39261zm-79.728 3.6858c-0.15784 0-0.56377 0.51662-0.90166 1.148-0.33785 0.63135-0.48476 1.148-0.32693 1.148 0.15784 0 0.56228-0.51663 0.90017-1.148 0.33785-0.63135 0.48626-1.148 0.32842-1.148zm-5.0681 0.97182c-0.11785-0.0027-0.39297 0.49548-0.71207 1.3241-0.42548 1.1049-0.77328 2.3957-0.77328 2.8692 0 0.47351 0.3478-0.04312 0.77328-1.148 0.42548-1.1049 0.77328-2.3957 0.77328-2.8692 0-0.11838-0.02192-0.17526-0.06121-0.17615zm113.8 2.7587 3.7783 3.8455c2.0781 2.1151 3.6114 4.1172 3.4066 4.4486-0.2048 0.33138-2.0695 0.6016-4.144 0.6016h-3.7723l0.35529-2.1526c0.19566-1.1838 0.35963-3.1844 0.36574-4.4471zm8.509 2.2959 2.3422 3.6096c1.2884 1.9857 2.3422 3.7287 2.3422 3.8739 0 0.3591-1.7028 0.33786-1.7929-0.0224-0.0394-0.15784-0.10527-0.56651-0.14481-0.90763-0.0394-0.34112-0.50229-0.93484-1.0286-1.3196-0.52626-0.38481-1.1279-1.7192-1.3376-2.9662zm-11.099 7.2551-11.507 0.23437c0.0422 0.08346 0.0868 0.16549 0.12838 0.2493zm-115.73 5.6593c-0.2719 0-0.49412 0.64541-0.49412 1.4346s0.0999 1.4346 0.22094 1.4346 0.34326-0.64541 0.49412-1.4346 0.05096-1.4346-0.22094-1.4346zm124.04 0.98675c-0.28129 0.1286-2.0974 3.3068-3.0737 5.5145-0.79167 1.7901-1.3082 3.2558-1.148 3.2558 0.24248 7e-6 3.4324-6.4089 4.1426-8.3224 0.12791-0.34466 0.14403-0.47752 0.0791-0.44784zm-113.33 1.2196c-0.09413-0.05414-0.15973 0.4074-0.15973 1.236 0 1.1049 0.11687 1.5571 0.26124 1.0047 0.14436-0.55243 0.14436-1.4554 0-2.0078-0.03609-0.13811-0.07013-0.21483-0.10151-0.23288zm108.69 8.0687c-0.31044 0.07345-1.5729 2.3392-1.8839 3.4992-0.22117 0.82482 0.1121 0.47658 0.78372-0.81955 0.64261-1.2401 1.1689-2.3959 1.1689-2.5676 0-0.08861-0.0243-0.12245-0.0687-0.11196zm20.366 0.25378c-0.087-0.01315-0.14695 0.19715-0.16422 0.61504-0.0249 0.60504 0.11085 0.9431 0.30156 0.75237 0.19066-0.19072 0.21059-0.68439 0.0448-1.0987-0.0687-0.1717-0.12994-0.2608-0.18212-0.2687zm2.7498 3.8112c0.0386 0.0046 0.0658 0.01483 0.0806 0.03287 0.11836 0.14399-1.2821 4.0079-3.1125 8.5852s-3.411 8.5394-3.5111 8.8046c-0.18789 0.49795-2.7405-11.377-2.7334-12.711 2e-3 -0.41234 1.2309-1.2704 2.7304-1.9063s3.5545-1.5781 4.568-2.0944c0.8868-0.45174 1.7076-0.74169 1.978-0.71058zm-10.142 4.7367c0.0553 0.08263 0.78393 3.2912 1.6197 7.1312 1.8965 8.7133 1.603 10.234-2.0765 10.726-1.3222 0.17691-4.6472 0.49138-7.3879 0.69864l-4.983 0.37768-2.3019-4.5785c-2.1421-4.2604-2.5989-7.0311-1.1614-7.0311 0.27354 0 4.0275-1.6809 8.3433-3.7365s7.8923-3.6699 7.9477-3.5872zm-18.798 4.2545c0.0889 0.0288 0.12292 0.2549 0.12987 0.65534 0.0125 0.72347-0.49423 1.8691-1.1256 2.5468-1.437 1.5425-1.4409 1.2353-0.0224-1.6078 0.57082-1.144 0.87-1.6424 1.0181-1.5943zm-109.78 0.46576c-0.10381-0.0387-0.17764 0.29036-0.17764 0.88225 0 0.78915 0.13038 1.1126 0.28961 0.71805 0.15922-0.39459 0.15922-1.0415 0-1.4361-0.03981-0.0987-0.07736-0.15132-0.11196-0.16421zm10.638 1.4674c0.15784-3e-3 0.97357 1.9303 1.8138 4.2963l1.5286 4.3023-2.1019-0.0373c-1.1559-0.02-2.6615-0.26168-3.3454-0.53742l-1.2435-0.50158 1.5301-3.7574c0.84172-2.067 1.6604-3.7611 1.8182-3.7649zm125.9 0.18809c-0.087-0.0131-0.14546 0.19566-0.16272 0.61355-0.0249 0.60504 0.11082 0.94459 0.30155 0.75387 0.19066-0.19073 0.21058-0.68589 0.0448-1.1002-0.0687-0.17169-0.13143-0.25931-0.18361-0.26721zm-0.57324 2.2944c-0.087-0.0131-0.14695 0.19715-0.16422 0.61504-0.0249 0.60504 0.11084 0.9446 0.30156 0.75388 0.19066-0.19073 0.21059-0.68589 0.0448-1.1002-0.0687-0.17171-0.12994-0.26081-0.18212-0.26872zm-28.041 0.37619c1.2311 0 1.1363 0.28162-1.7809 5.2577-2.3676 4.0385-3.6768 5.7504-3.6768 4.8084 0-1.2906 4.758-10.066 5.4577-10.066zm2.0078 0.57324c0.27833 0 4.5198 8.0354 4.7636 9.0241 0.0607 0.24602-1.3091 0.61147-3.0453 0.81359l-3.1573 0.36872 6.7356-0.1612 5.5981 11.157-4.668 5.1532c-4.0022 4.4187-5.1898 5.3624-8.3254 6.6177-2.0114 0.80522-3.7448 1.4644-3.8515 1.4644-0.10668 0-0.53021-3.4907-0.94196-7.7567-0.41176-4.266-0.87095-7.6336-1.0211-7.4835-0.1501 0.15014 0.0434 3.5764 0.43143 7.6134 0.388 4.0369 0.69303 7.5633 0.67774 7.8373-0.0152 0.27395-2.8165 1.7331-6.2265 3.2409-5.7374 2.5369-11.08 4.0578-11.08 3.1558 0-0.20943 1.0794-2.2295 2.399-4.4889s2.6832-4.6284 3.0289-5.2652c0.34571-0.63674 2.686-4.6421 5.201-8.9002 4.3544-7.3725 4.5918-7.6601 4.9875-6.0265 0.37015 1.5283 0.39191 1.4885 0.19556-0.36872-0.1212-1.1465 2e-3 -2.3086 0.27318-2.5826 0.27199-0.27401 1.3663-2.1773 2.4318-4.2292 2.3552-4.5356 5.1868-9.1838 5.5936-9.1838zm-11.435 3.6156c-0.11413 0.17809-0.22485 0.35838-0.34185 0.53443 4e-3 8e-3 5e-3 0.0112 9e-3 0.0194 1.5008 3.3023 1.9472 3.3397 0.57174 0.0478-0.0928-0.22219-0.16133-0.40486-0.23885-0.60161zm-88.71 2.2049c0.37549-3e-3 0.79744 0.01 1.2704 0.0343l3.3081 0.17168 1.7973 4.8785c0.98867 2.6832 2.0836 5.5066 2.4333 6.2728 0.34964 0.76618 0.55661 1.4721 0.45979 1.569-0.09684 0.0968-2.6129-2.6381-5.5906-6.0772-2.9777-3.4392-5.5084-6.1605-5.6234-6.0474-0.19803 0.19483 1.0044 1.655 9.557 11.607 1.9844 2.3091 3.4542 4.4475 3.2663 4.7516-0.43158 0.6983 0.15389 0.9612-5.1517-2.3168-2.5254-1.5603-4.8959-2.8451-5.2681-2.8543-0.37222-9e-3 -0.97131-1.5019-1.3301-3.317s-0.91681-4.1501-1.2405-5.189c-0.83883-2.6922-0.51612-3.4638 2.1123-3.4827zm119.93 3.0349c0.1075 4e-3 0.17173 0.012 0.18511 0.0254 0.10585 0.10584-0.4039 1.3149-1.1316 2.6871-0.72767 1.3722-1.3503 2.7536-1.3838 3.0692-0.19971 1.882-1.0223 3.6702-1.5406 3.3499-0.3473-0.21463-0.43126-0.0959-0.19854 0.28065 0.41428 0.67032-1.3676 6.4131-1.9899 6.4131-0.19092 0-0.65635-0.67926-1.0345-1.5092-0.37816-0.82999-0.82709-1.3688-0.99869-1.1972-0.17159 0.1716-0.0474 0.80933 0.27766 1.4167 0.75927 1.4187 0.24216 3.4001-0.98077 3.7559-0.52323 0.15224-2.4684 0.96198-4.3217 1.7988l-3.3693 1.5212 2.2213-2.5199c1.222-1.3863 4.3807-4.8834 7.0192-7.7716s4.5361-5.2517 4.2157-5.2517c-0.32044 0-1.6684 1.2957-2.9946 2.8796l-2.4109 2.8796-2.5482-5.2443c-1.4015-2.8842-2.472-5.3167-2.378-5.4055 0.25348-0.23947 11.75-1.2312 13.362-1.1778zm-23.31 1.5451c-0.41612-2e-3 -0.85221 0.0313-1.2092 0.10002-0.71394 0.13729-0.26549 0.25513 0.9972 0.26125 1.2627 6e-3 1.8475-0.10715 1.2988-0.25079-0.27437-0.0719-0.67065-0.10836-1.0868-0.11048zm26.075 4.2605c-0.19613 4e-3 -0.44599 0.10288-0.78372 0.28364-0.61015 0.32652-1.1107 0.98048-1.1107 1.454s-0.40707 1.5628-0.90464 2.4199c-0.87355 1.5046-0.87099 1.5127 0.0702 0.26572 0.53607-0.71027 1.4456-1.2913 2.0198-1.2913 1.3376 0 1.8564-0.85384 1.3973-2.3004-0.18396-0.57961-0.36129-0.83742-0.68819-0.83149zm-122.1 3.835c0.35602-0.0148 1.3477 0.46943 2.3885 1.1823 1.1895 0.81472 2.8729 1.7978 3.741 2.1855 0.86811 0.38768 1.5779 0.92178 1.5779 1.1868s0.36999 0.48218 0.82254 0.48218c0.46739 0 0.9015 0.67181 1.0047 1.5555 0.12616 1.0807 0.59151 1.6522 1.5257 1.8705 1.0258 0.23973 1.9842 1.64 4.041 5.9056 2.0235 4.1964 2.4758 5.5809 1.8123 5.5503-0.48628-0.0224-3.3218-0.5526-6.3012-1.1778-3.7944-0.79628-5.7795-1.5136-6.6281-2.3975-0.84407-0.8791-1.7002-3.4924-2.8229-8.615-0.88628-4.0439-1.4591-7.5038-1.2734-7.6895 0.02321-0.0232 0.0611-0.0367 0.11196-0.0388zm42.617 0.36126c0.5037 1.3827 0.92326 2.3221 1.0196 2.2258 0.0767-0.0767-0.11538-0.89648-0.44187-2.0183-0.19303-0.0684-0.38614-0.13608-0.57772-0.2075zm1.3017 3.2872c-8e-3 4e-3 -0.0136 0.0161-0.0149 0.0388-0.0208 0.36249 0.77405 2.887 1.766 5.61 0.99196 2.723 1.9038 4.8512 2.0258 4.7292 0.12192-0.12193-0.67293-2.6464-1.766-5.61-1.0248-2.7784-1.8895-4.8221-2.0108-4.768zm-26.374 5.4562c-0.20182 0.0277 2.2159 1.3085 5.3726 2.8453s5.9974 2.7857 6.3131 2.7751c0.31567-0.0106-2.102-1.2914-5.3726-2.8453-3.2706-1.554-6.1113-2.8029-6.3131-2.7752zm89.627 4.2575c-0.27292 0.0107-0.64399 0.0466-1.1286 0.10002-1.1795 0.12998-2.4806 0.51405-2.8901 0.85389-0.80683 0.66961-0.99231 2.3337-0.33439 2.9916 0.83615 0.83615 3.3094 0.0772 3.5186-1.0793 0.11421-0.63134 0.57703-1.5649 1.0286-2.075 0.55649-0.62868 0.62467-0.82332-0.19407-0.79119zm-59.041 1.6063c-0.0211-5e-3 -0.0398 7.6e-4 -0.0567 0.0179-0.13529 0.1353-0.0738 0.93382 0.13734 1.775 0.21112 0.84113 0.49468 1.4191 0.62997 1.2838s0.0738-0.93381-0.13734-1.775c-0.18473-0.73598-0.42548-1.2703-0.57324-1.3017zm15.389 0.15973 1.2211 1.4525c4.1386 4.9216 4.916 6.0382 4.668 6.7087-0.152 0.41093-0.0394 0.60036 0.25079 0.42098 0.29025-0.17938 0.70793-0.0351 0.92704 0.31946 0.28971 0.4687 0.51464 0.45526 0.82552-0.0478 0.23512-0.38046 0.91273-0.56446 1.5063-0.40903 0.97659 0.25576 0.95669 0.32181-0.21199 0.69715-0.71026 0.22811-1.2913 0.57783-1.2913 0.77775v2e-3c0 0.4439-1.4494 0.45588-6.3131 0.0553-3.9708-0.3271-3.6925-0.95922 0.57324-1.3002 1.4205-0.11353-0.83913-0.0829-5.0218 0.0672-4.1827 0.14989-7.6044 0.14869-7.6044-3e-3 0-0.15167 2.3557-2.1806 5.2353-4.5083zm39.463 3.1095c-0.0297-0.0297-0.26139 0.14314-0.71655 0.5001-0.55243 0.43326-1.0047 0.88547-1.0047 1.0047 0 0.47238 0.47131 0.16934 1.2211-0.78671 0.35697-0.45517 0.52972-0.68842 0.5001-0.71805zm-50.221 6.8013 7.1745 0.36126c3.9459 0.1988 8.0546 0.54678 9.13 0.77327 1.9502 0.41073 1.9433 0.41691-2.8692 2.5557-2.6538 1.1794-4.975 2.1427-5.1577 2.1407-0.43419-6e-3 -5.0059-3.104-6.8416-4.6352z" style="fill:url(#e);stroke-width:.57395;stroke:url(#d)"/><path d="m81.817 5.5248-0.0029 0.00141c-42.45 0-76.847 34.4-76.847 76.848 0 9.6616 1.7848 18.902 5.0377 27.419 8.0187 2.8246 16.519 4.6449 25.503 4.6449 14.712 0 28.358-4.275 40.063-11.415-8.8661-2.6802-15.328-10.912-15.328-20.649 0-11.91 9.6654-21.575 21.575-21.575 9.5206 0 17.601 6.1784 20.463 14.74 6.569-11.352 10.561-24.372 10.561-38.431 0-9.5757-1.9504-18.65-5.1355-27.111-8.0893-2.893-16.803-4.473-25.888-4.473z" style="fill:url(#a);stroke-width:.71568"/><path d="m82.526 46.785c-19.74 0-35.741 16-35.741 35.741 0 19.737 16 35.741 35.741 35.741 19.74 0 35.741-16.002 35.741-35.741 0-19.74-16-35.741-35.741-35.741zm0 16.774c10.474 0 18.966 8.4924 18.966 18.966 0 10.474-8.4924 18.966-18.966 18.966s-18.966-8.4924-18.966-18.966c0-10.474 8.4924-18.966 18.966-18.966z" fill="#fefefe" opacity=".2" stroke="#e6e6e6" stroke-width="3.5098"/><path d="m106.11 47.898c3.242 2.963 5.3716 4.8135 6.5732 6.1408l-0.15855 0.0052c-2.01-2.1831-4.2712-4.1042-6.4145-6.1454z" opacity=".3" stroke-width="2.4601"/><path d="m126.83 72.826c-0.2987 0.05977-0.46634 0.35554-0.73997 0.4757 0.0409-0.07335 9.5e-4 -0.09427 0.072-0.15376z" opacity=".3" stroke-width="2.4601"/><path d="m119.04 65.406c-0.32043-0.06473-0.77259-0.03018-1.1388 0.15856-0.36617 0.18874-0.60127 0.4755-0.73995 0.71595l-0.0147 0.01921-0.01 0.02412c-0.44892 0.84018-0.39604 1.5117-0.30271 2.2776 0.0933 0.76581 0.3154 1.5734 0.85528 2.316 0.57794 0.79563 1.304 1.2842 1.9556 1.7394 0.40467 0.28264 0.53121 0.35153 0.75439 0.4901l0.14896 0.76879 0.9754 0.2018c0.27168 0.05587 0.50398 0.10146 0.81204 0.0961 0.30809-0.0052 0.84441-0.06899 1.2878-0.55256 0.44333-0.48359 0.44586-1.0465 0.42765-1.2877-0.0178-0.24119-0.0491-0.33541-0.0577-0.38439l-0.0625-0.38439-0.24505-0.30272c-0.51181-0.63496-1.2676-1.9249-1.9652-3.0702-0.34881-0.57272-0.68979-1.1137-1.0427-1.5809-0.17644-0.23359-0.34996-0.44712-0.5766-0.65829-0.22666-0.21115-0.489-0.47048-1.0619-0.5862z" opacity=".3" stroke-width="2.4601"/><path d="m106.09 47.878c3.2496 2.9681 5.3874 4.8243 6.5924 6.1553l-0.16337 0.0096c-2.0159-2.1893-4.2788-4.118-6.429-6.1648z" opacity=".3" stroke-width="2.4601"/><path d="m48.656 13.567c-1.8414-0.0249-2.2187 2.2805-0.62342 2.8683 8.9824 3.6511 17.349 7.9096 25.379 12.508l-1.8857 4.4464c-0.95686 2.256-0.91256 4.0458-0.72684 5.5213-3.472-1.6432-18.762-8.4843-45.571-8.6339-0.01554-0.0015-0.07969-0.02485-0.10902-0.03214-5.5168 6.0541-10.086 12.984-13.48 20.558l0.09924-0.06009c4.9763-3.0129 10.882-5.1023 17.976-5.6569h0.0098c21.064-1.7381 46.797 9.6502 72.111 21.429-0.019 2.9163 0.24602 5.8748 2.3902 8.5545 1.4638 1.8296 4.0524 3.0665 6.6871 4.3108 2.6346 1.2442 5.3488 2.375 6.4062 2.9815v-0.0054c2.4317 1.3958 10.575 6.6251 15.359 12.851l1.4174 1.8479 1.0987-2.0561c5e-3 -0.0096 0.73415-0.85616 1.6942-1.6592 0.95993-0.80299 2.1779-1.7186 3.3673-2.5748 2.3788-1.7123 4.6351-3.1842 4.6351-3.1842l4.4087-2.8683-5.2599 0.10623s-0.32626 0.01951-1.4132-0.1887c-1.087-0.20833-2.8206-0.64569-5.2892-1.5683-2.2556-0.84285-4.9713-2.6785-7.0645-4.3402-1.0466-0.83083-1.9475-1.6177-2.5832-2.2057-0.0652-0.06016-0.0915-0.0895-0.15099-0.14537 0.58498-0.63484 0.75886-1.5409 0.62902-2.1247-0.14165-0.63696-0.4115-1.143-0.71565-1.6355-0.60832-0.98491-1.3762-1.8547-1.9122-2.3902 0.0945 0.09452-0.14663-0.17971-0.3816-0.52278-0.23497-0.34298-0.53908-0.80771-0.88063-1.3447-0.68309-1.0741-1.5218-2.4425-2.3371-3.7894-1.6307-2.6937-3.0944-5.1871-3.2415-5.4333v-0.0054c4e-3 0.0072-0.37162-0.7642-1.0735-1.2329l-0.17894-0.1216-0.19846-0.06291c-0.0791-0.02546-0.14213 0.0053-0.21807-0.01399l1.2426-0.08389-1.8675-2.263s-23.133-28.033-67.234-41.695c-0.0034-0.0011-0.0051-0.0046-0.0083-0.0054-0.04232-0.0131-0.07798-0.03015-0.12021-0.04331v0.0029c-0.13564-0.02355-0.26443-0.03607-0.38719-0.03775zm24.926 15.478c4.0286 2.3128 7.974 4.7066 11.733 7.2913l-1.0218 2.5608c-0.91292 2.296-0.85101 4.1157-0.68632 5.6457-2.8596-1.1877-8.0027-3.825-9.2172-10.825l-0.80792-4.6729zm-49.797 3.8747c0.33697 0.14666 0.49674 0.28756 1.1713 0.34945l0.0615 0.0098h0.06848c29.537 0.13451 47.124 9.3331 47.124 9.3331l1.8814-2.1485c4.1208 6.1014 11.192 8.2023 11.192 8.2023l3.7363 1.0442-2.052-3.2905s-0.30957-0.45428-0.5032-1.5613c-0.03826-0.21867 0.14116-0.69971 0.12161-0.95886 2.9724 5.4414 6.4273 8.9602 10.389 10.636l3.3282 1.4076-1.3489-3.3533c-0.18962-0.47121-0.03374-0.64778-0.12161-1.0302 4.1347 6.4208 10.133 9.5514 10.133 9.5514l0.44029 0.21806 0.48783-0.08807s1.4302-0.25738 3.0095-0.45988c0.78962-0.10125 1.615-0.18751 2.2854-0.22225 0.50842-0.02644 0.72725 0.0053 0.86525 0.0098 2e-3 0.02313-0.0456-0.07321 0.0629 0.10763-3e-3 -0.0052 1.6147 2.7347 3.2569 5.4472 0.82157 1.3571 1.6659 2.7344 2.3706 3.8425 0.35235 0.55405 0.67175 1.0407 0.93932 1.4314 0.26758 0.39069 0.41134 0.63336 0.73106 0.95328 0.36558 0.3653 1.0689 1.1797 1.4789 1.8437 0.13044 0.21128 0.16079 0.31377 0.21803 0.4501-0.30186 0.19446-0.70619 0.22063-0.89457 0.5759-0.421 0.79382-0.16802 1.5588-0.0336 1.8731l6e-3 0.0054c0.23294 0.54199 0.25985 0.42288 0.34248 0.51718 0.0826 0.09434 0.16999 0.19142 0.27675 0.30053 0.21352 0.21818 0.49503 0.48748 0.84149 0.80792 0.69285 0.64089 1.6415 1.4739 2.7537 2.3567 2.2244 1.7658 5.0589 3.7456 7.881 4.8 1.824 0.68168 2.8836 0.90518 4.041 1.1937-0.77443 0.52855-0.88463 0.57338-1.8241 1.2496-1.2242 0.88121-2.4885 1.8264-3.5434 2.709-0.48375 0.40471-0.72641 0.80556-1.1071 1.1713-5.2618-6.1954-12.516-11.006-15.029-12.449v-0.0069c-1.5053-0.86353-4.0817-1.8897-6.6186-3.0877-2.537-1.1981-5.0002-2.6886-5.6234-3.4679-1.7764-2.2205-1.8878-4.5202-1.7948-7.6305l0.0293-0.98828-0.9016-0.42074c-25.597-11.92-51.878-23.926-74.43-22.069h-0.0098c-5.7367 0.4496-10.608 2.075-15.06 4.1473 0.99572-1.9486 1.921-3.9778 3.1073-5.7338 1.8017-2.6669 4.03-5.0959 6.2664-7.5776l0.0015-0.0015zm62.642 4.2437c3.8546 2.6995 7.6806 5.4287 11.226 8.4442l-1.5977 0.27677c0.01224 0.44842-0.37459 2.0981-0.36763 4.2144-3.2466-1.9589-6.1512-4.7506-8.5938-11.178l-0.66675-1.7571zm14.115 11.216c3.2952 2.9688 6.6102 5.915 9.5986 9.1993l0.46548 0.513c-0.19438 0.03238-0.52782 0.07812-0.63322 0.09645-0.47633-0.2455-6.0226-3.4417-9.4312-9.8083zm-87.584 68.659c0.8538 1.7178 1.7681 3.4005 2.7425 5.0433 8.762 4.9392 19.823 7.9941 33.473 7.8166 14.113 0.0358 28.09 1.2849 39.119 2.9032 17.065 2.5041 30.399 6.6743 41.041 11.678 0.87155-0.65955 1.7311-1.3347 2.5734-2.0296-11.159-5.4494-25.162-9.9751-43.181-12.62-11.171-1.639-25.263-2.9022-39.548-2.9382h-0.02517c-15.494 0.20487-27.421-3.7089-36.195-9.8548zm12.53 18.169c1.1774 1.2742 2.3958 2.5099 3.6552 3.7028 1.9018 0.27773 3.8284 0.47548 5.7953 0.52554 29.62 1.5769 49.729 1.7868 74.215 14.481 5e-3 2e-3 0.01 7e-3 0.0141 0.01 0.4976 0.27573 0.98331 0.63368 1.4677 0.99943 1.103-0.42857 2.193-0.88311 3.2708-1.36-1.0926-0.81987-2.1792-1.6626-3.3156-2.291l-0.0376-0.0195c-25.099-13.013-45.916-13.249-75.511-14.826h-0.03775c-3.2746-0.0833-6.4341-0.55022-9.5206-1.2231zm75.117 3.5155-0.78417 2.8948c6.7889 2.5313 12.522 6.1437 17.779 10.198 0.8813-0.44708 1.751-0.91295 2.6125-1.3922-2.2756-1.8377-4.5502-3.6774-7.1232-5.2445 3.615 1.0546 6.7382 2.3536 9.8613 3.6524 1.1753-0.7181 2.3279-1.4685 3.4609-2.2463-7.4595-3.2433-15.715-6.0964-25.806-7.8624z" style="opacity:.2;stroke-width:.72068"/><path d="m49.337 14.135c24.607 10.003 46.023 23.257 62.651 41.524l3.9921-0.26279s-22.868-27.744-66.643-41.261zm-24.515 16.44c-4.6384 5.1486-8.5945 10.922-11.733 17.178 4.8698-2.6934 10.564-4.5534 17.242-5.0754 21.921-1.8087 48.095 10.017 73.686 21.934-0.0951 3.1781 0.0366 6.0025 2.1247 8.6117 2.0873 2.6089 10.105 5.4544 12.667 6.9247 2.562 1.4706 10.769 6.692 15.799 13.239 1.0908-2.0403 10.2-7.969 10.2-7.969s-2.1823 0.04391-7.2591-1.8535c-5.0774-1.8973-11.102-7.637-11.245-7.969-0.14224-0.33234-0.23739-0.85158 0.94911-1.0889 0.90089-0.75847-1.1365-3.2268-2.038-4.1277-0.90088-0.90146-6.9284-11.149-7.0701-11.386-0.14219-0.23738-0.1926-0.47556-0.61923-0.7604-1.3288-0.42731-7.1596 0.62063-7.1596 0.62063s-8.9752-4.4125-12.068-13.916c0.04514 1.6646-1.539 3.482 0 7.3063-4.6794-1.9796-8.6997-5.3551-11.87-13.699-1.8869 4.7454 0 7.7665 0 7.7665s-11.021-3.0817-12.784-13.244c-1.935 4.5618 0 7.3063 0 7.3063s-17.966-9.3725-47.817-9.5077c-0.36617-0.0336-0.68471-0.15923-1.0022-0.28935zm93.99 36.46c0.81074 0.16378 2.4926 3.7715 3.809 5.4053 0.0638 0.37287 0.16927 0.60163-0.7031 0.42214-0.0734-0.38331-0.20269-0.49902-0.20269-0.49902s-2.1024-1.2513-2.748-2.14c-0.64612-0.88872-0.76091-2.4437-0.4459-3.0332 0.0769-0.13302 0.17492-0.17858 0.29074-0.15516zm-105.57 50.581c3.4158 6.7312 7.7815 12.898 12.924 18.323 3.0985 0.61004 6.2752 1.0018 9.5328 1.0847 29.62 1.5778 50.085 1.8014 74.888 14.661 1.0026 0.55438 1.9621 1.3304 2.934 2.0506 2.263-0.98657 4.4684-2.0782 6.613-3.268-5.6013-4.4485-11.727-8.4299-19.063-11.164 9.7546 1.707 17.766 4.4237 25.008 7.5117 1.9073-1.2948 3.7532-2.6742 5.5339-4.1291-10.945-5.2846-24.689-9.6809-42.38-12.277-11.1-1.6287-25.137-2.8812-39.338-2.9172-15.517 0.20517-27.629-3.7105-36.653-9.8756z" style="fill:#fff;stroke-width:.72068"/><path d="m148.18 131.49v4e-3h-5.5633v5.7087h5.7086v-3e-3h5.4178v5.4291h-5.4178v-3e-3h-5.7086v5.5674h-3e-3v5.7086h3e-3v5.5618h11.126v9.5e-4h5.7086v-5.7086h-5.5632v-9.5e-4h-5.5662v-5.4178h5.4207v9.5e-4h5.7086v-16.845h-5.5632v-4e-3zm-27.834 4e-3v5.7087h11.132v5.4262h-11.132v5.7086h11.136v5.4178h-11.136v5.7086h16.845v-16.836h-4e-3v-5.4262h4e-3v-5.7086h-11.136z" style="color-rendering:auto;color:#000000;dominant-baseline:auto;fill:#fff;font-feature-settings:normal;font-variant-alternates:normal;font-variant-caps:normal;font-variant-east-asian:normal;font-variant-ligatures:normal;font-variant-numeric:normal;font-variant-position:normal;font-variation-settings:normal;image-rendering:auto;inline-size:0;isolation:auto;mix-blend-mode:normal;shape-margin:0;shape-padding:0;shape-rendering:auto;solid-color:#000000;stop-color:#000000;stroke-width:.95423;text-decoration-color:#000000;text-decoration-line:none;text-decoration-style:solid;text-indent:0;text-orientation:mixed;text-transform:none;white-space:normal"/><path d="m114.82 125.96v39.037h50.172v-5.5688h4e-3v-33.463h-44.538v-4e-3zm5.6373 5.6415h16.628v27.758h-16.628v-5.4948h11.139v-5.6373h-11.139v-5.4986h11.139v-5.6374h-11.139zm22.265 0h16.634v16.626h-11.135v5.6373h11.135v5.4948h-16.634v-16.631h11.136v-5.6373h-11.136z" style="color-rendering:auto;color:#000000;dominant-baseline:auto;font-feature-settings:normal;font-variant-alternates:normal;font-variant-caps:normal;font-variant-east-asian:normal;font-variant-ligatures:normal;font-variant-numeric:normal;font-variant-position:normal;font-variation-settings:normal;image-rendering:auto;inline-size:0;isolation:auto;mix-blend-mode:normal;shape-margin:0;shape-padding:0;shape-rendering:auto;solid-color:#000000;stop-color:#000000;stroke-width:.95423;text-decoration-color:#000000;text-decoration-line:none;text-decoration-style:solid;text-indent:0;text-orientation:mixed;text-transform:none;white-space:normal"/></svg>
