<svg width="220" height="220" version="1.1" viewBox="0 0 165 165" xmlns="http://www.w3.org/2000/svg" xmlns:xlink="http://www.w3.org/1999/xlink"><defs><radialGradient id="a" cx="66.324" cy="67.941" r="56.524" gradientTransform="matrix(2.54 0 0 2.5644 -84.631 -90.643)" gradientUnits="userSpaceOnUse"><stop stop-color="#23bac2" style="stop-opacity:.428" offset="0"/><stop stop-color="#2b62c0" stop-opacity="0" offset="1"/></radialGradient><linearGradient id="b" x1="1.5059" x2="218.49" y1="110" y2="110" gradientTransform="matrix(.71567 0 0 .71567 3.8013 3.8036)" gradientUnits="userSpaceOnUse"><stop stop-color="#265ab1" offset="0"/><stop stop-color="#20a8af" offset="1"/></linearGradient><filter id="c" x="-.027" y="-.027" width="1.054" height="1.054" style="color-interpolation-filters:sRGB"><feGaussianBlur stdDeviation="1.747053"/></filter><linearGradient id="w" x1="192.65" x2="226.29" y1="232.82" y2="147.34" gradientTransform="translate(-109.52 -101.28)" gradientUnits="userSpaceOnUse" xlink:href="#b"><stop stop-color="#b8174c" offset="0"/><stop stop-color="#d41919" offset="1"/></linearGradient><linearGradient id="d" x1="137.38" x2="19.859" y1="73.829" y2="41.915" gradientUnits="userSpaceOnUse"><stop style="stop-color:#23bac2" offset="0"/><stop style="stop-color:#23bac2;stop-opacity:0" offset="1"/></linearGradient><filter id="g" x="-.079315" y="-.09066" width="1.1586" height="1.1813" style="color-interpolation-filters:sRGB"><feGaussianBlur stdDeviation="4.2269566"/></filter><filter id="f" x="-.05443" y="-.05443" width="1.1089" height="1.1089" style="color-interpolation-filters:sRGB"><feGaussianBlur stdDeviation="0.48967125"/></filter><filter id="e" x="-.068368" y="-.068368" width="1.1367" height="1.1367" style="color-interpolation-filters:sRGB"><feGaussianBlur stdDeviation="0.4243795"/></filter></defs><path d="m82.526 4.8813c-18.092 0-34.739 6.1876-47.939 16.561-1.4668 1.1526-2.89 2.3559-4.2689 3.6091-0.69201 0.62895-1.3691 1.2757-2.038 1.929-0.21941 0.2143-0.44148 0.42612-0.65836 0.64299-0.43909 0.4391-0.87422 0.88265-1.3027 1.3321-1.7141 1.7979-3.3415 3.6775-4.8783 5.6331-4.01e-4 5.16e-4 -9.55e-4 8.57e-4 -9.55e-4 9.53e-4 -0.76798 0.97732-1.5138 1.9742-2.2351 2.9885-0.72166 1.0148-1.4192 2.0473-2.0925 3.0975-0.33664 0.5251-0.66681 1.0542-0.99106 1.5879-2e-4 3.45e-4 2.1e-4 9.55e-4 0 9.55e-4 -0.97246 1.6005-1.8894 3.2395-2.7467 4.9132-0.57162 1.1161-1.117 2.2473-1.6355 3.3938-0.25919 0.57327-0.51205 1.1498-0.75761 1.7305-1.63e-4 4.01e-4 1.71e-4 9.53e-4 0 9.53e-4 -0.24538 0.58021-0.48409 1.1642-0.71568 1.7514-0.46348 1.1754-0.89858 2.3645-1.3056 3.5672-0.20349 0.60134-0.40083 1.2065-0.58988 1.8144-0.18904 0.60785-0.37073 1.2184-0.54513 1.8325-1.24e-4 4.3e-4 1.145e-4 9.55e-4 0 9.55e-4 -0.34869 1.2279-0.66854 2.4691-0.95748 3.7209-0.43359 1.8784-0.79853 3.7822-1.0931 5.71-0.19637 1.2853-0.36089 2.5807-0.49342 3.8859-4.75e-5 4.6e-4 4.8e-5 9.28e-4 0 2e-3 -0.13247 1.3047-0.23347 2.6188-0.30053 3.9418-2.85e-5 4.57e-4 1.9e-5 7.16e-4 0 9.54e-4 -0.033495 0.66126-0.05859 1.325-0.07548 1.9904-1.94e-5 4.69e-4 9.6e-6 7.17e-4 0 9.55e-4 -0.01689 0.66555-0.02519 1.3334-0.02519 2.003 0 4.0204 0.30549 7.9697 0.89459 11.826 0.29455 1.9278 0.65949 3.8315 1.0931 5.71 9.55e-5 4.5e-4 -1.05e-4 7.4e-4 0 9.7e-4 0.43353 1.878 0.93562 3.7304 1.5026 5.5534 0.56716 1.8236 1.2002 3.6184 1.8954 5.3815 0.46348 1.1754 0.9549 2.3368 1.4733 3.4834s1.0638 2.2778 1.6355 3.3938c1.9e-4 3.9e-4 -1.84e-4 7.5e-4 0 2e-3 1.1431 2.2318 2.3914 4.4011 3.7377 6.5012 0.67327 1.0502 1.3709 2.0827 2.0925 3.0976 0.36082 0.5074 0.72745 1.0114 1.1 1.5096 0.74524 0.9965 1.5138 1.9738 2.3049 2.9326 1.1868 1.438 2.4242 2.8324 3.7098 4.1808 0.42853 0.44948 0.86366 0.89439 1.3027 1.3336 3.5127 3.5128 7.3606 6.6905 11.491 9.4812 1.0327 0.69768 2.0819 1.3714 3.1493 2.0198 0.53364 0.32423 1.0725 0.64164 1.6145 0.95327 1.0839 0.62327 2.1841 1.2218 3.3002 1.7934 1.1161 0.57163 2.2473 1.117 3.3938 1.6354 1.1466 0.51838 2.3079 1.0098 3.4833 1.4732 1.1754 0.46348 2.3645 0.89856 3.5672 1.3056 1.804 0.61047 3.6382 1.1567 5.499 1.6355 1.2405 0.31912 2.4936 0.60804 3.7573 0.86662 1.2637 0.25857 2.5378 0.48715 3.823 0.68354 1.2853 0.19635 2.5807 0.36086 3.8859 0.49341 0.65258 0.0665 1.3081 0.12473 1.9653 0.17474 1.9717 0.15002 3.964 0.22641 5.9742 0.22641s4.0024-0.0766 5.9743-0.22641c0.65726-0.0499 1.3127-0.10846 1.9653-0.17474 1.3052-0.13255 2.6007-0.29706 3.8859-0.49341 1.2853-0.19638 2.5593-0.42497 3.8229-0.68354 1.2637-0.25858 2.5168-0.5475 3.7573-0.86662 1.8608-0.47874 3.695-1.025 5.499-1.6355 1.2027-0.40695 2.3918-0.84207 3.5672-1.3056 1.1754-0.4635 2.3368-0.9549 3.4834-1.4732 1.1466-0.51838 2.2778-1.0638 3.3938-1.6354 1.1161-0.57165 2.2163-1.1701 3.3002-1.7934 0.54197-0.31163 1.0808-0.62904 1.6144-0.95327 1.0672-0.64848 2.1165-1.3222 3.1492-2.0198 4.1308-2.7908 7.9786-5.9684 11.491-9.4812 0.4391-0.43912 0.87425-0.88403 1.3027-1.3336 1.2856-1.3484 2.523-2.7428 3.7098-4.1808 0.79118-0.95874 1.5598-1.936 2.305-2.9326 0.37264-0.49826 0.73925-1.0022 1.1-1.5096 0.72167-1.0148 1.4192-2.0473 2.0926-3.0976 1.3465-2.1004 2.5944-4.2704 3.7377-6.5025 0.57164-1.1161 1.117-2.2473 1.6354-3.3938 0.51837-1.1466 1.0098-2.3079 1.4733-3.4833 0.69522-1.7632 1.3283-3.558 1.8954-5.3815 0.56702-1.8232 1.0691-3.6755 1.5026-5.5534 9e-5 -4.7e-4 -1e-4 -7e-4 0-9.5e-4 0.4336-1.8784 0.79853-3.7822 1.0931-5.71 0.5891-3.8557 0.8946-7.805 0.8946-11.826 0-0.67053-9e-3 -1.338-0.0254-2.0045-0.0167-0.66553-0.042-1.3292-0.0756-1.9904-3e-5 -4.59e-4 3e-5 -7.16e-4 0-2e-3 -0.0673-1.3229-0.16806-2.6371-0.30053-3.9418-5e-5 -4.58e-4 5e-5 -9.25e-4 0-9.55e-4 -0.13255-1.3052-0.29706-2.6007-0.49344-3.8859-0.29453-1.9278-0.65947-3.8316-1.093-5.71-0.28897-1.2519-0.60881-2.493-0.9575-3.7209-0.17441-0.61415-0.35607-1.2261-0.54514-1.8339-0.18904-0.60785-0.38638-1.213-0.58987-1.8144-0.40698-1.2027-0.84206-2.3918-1.3056-3.5672-0.46348-1.1754-0.95491-2.3367-1.4733-3.4833-0.51837-1.1466-1.0638-2.2778-1.6355-3.3938-1.1433-2.2321-2.3911-4.4022-3.7377-6.5025-0.67327-1.0502-1.3708-2.0827-2.0926-3.0975-2.165-3.0444-4.5436-5.9263-7.1148-8.623-0.42853-0.44946-0.86366-0.89301-1.3027-1.3321-0.21687-0.21687-0.43894-0.42869-0.65838-0.64299-0.66883-0.65326-1.346-1.3-2.038-1.929-1.3788-1.2533-2.8022-2.4565-4.2688-3.6091-13.2-10.374-29.847-16.562-47.938-16.562zm0 56.47c11.696 0 21.176 9.4806 21.176 21.176 0 11.696-9.4806 21.175-21.176 21.175s-21.176-9.4792-21.176-21.175c0-11.696 9.4806-21.176 21.176-21.176z" style="filter:url(#c);opacity:.3;stroke-width:.95423"/><path d="m82.526 54.933c-15.239 0-27.592 12.353-27.592 27.592 0 15.238 12.353 27.592 27.592 27.592s27.592-12.354 27.592-27.592c0-15.239-12.353-27.592-27.592-27.592zm0 12.949c8.086 0 14.643 6.5564 14.643 14.643 0 8.0863-6.5564 14.643-14.643 14.643-8.0863 0-14.643-6.5564-14.643-14.643 0-8.0863 6.5564-14.643 14.643-14.643z" fill="#72a2f4" stroke="#5b739d" stroke-width="1.4308"/><path d="m82.526 4.8813c-18.092 0-34.739 6.1876-47.939 16.561-1.4668 1.1526-2.89 2.3559-4.2689 3.6091-0.69201 0.62895-1.3691 1.2757-2.038 1.929-0.21941 0.2143-0.44148 0.42612-0.65836 0.64299-0.43909 0.4391-0.87422 0.88265-1.3027 1.3321-1.7141 1.7979-3.3415 3.6775-4.8783 5.6331-4.01e-4 5.16e-4 -9.55e-4 8.57e-4 -9.55e-4 9.53e-4 -0.76798 0.97732-1.5138 1.9742-2.2351 2.9885-0.72166 1.0148-1.4192 2.0473-2.0925 3.0975-0.33664 0.5251-0.66681 1.0542-0.99106 1.5879-2e-4 3.45e-4 2.1e-4 9.55e-4 0 9.55e-4 -0.97246 1.6005-1.8894 3.2395-2.7467 4.9132-0.57162 1.1161-1.117 2.2473-1.6355 3.3938-0.25919 0.57327-0.51205 1.1498-0.75761 1.7305-1.63e-4 4.01e-4 1.71e-4 9.53e-4 0 9.53e-4 -0.24538 0.58021-0.48409 1.1642-0.71568 1.7514-0.46348 1.1754-0.89858 2.3645-1.3056 3.5672-0.20349 0.60134-0.40083 1.2065-0.58988 1.8144-0.18904 0.60785-0.37073 1.2184-0.54513 1.8325-1.24e-4 4.3e-4 1.145e-4 9.55e-4 0 9.55e-4 -0.34869 1.2279-0.66854 2.4691-0.95748 3.7209-0.43359 1.8784-0.79853 3.7822-1.0931 5.71-0.19637 1.2853-0.36089 2.5807-0.49342 3.8859-4.75e-5 4.6e-4 4.8e-5 9.28e-4 0 2e-3 -0.13247 1.3047-0.23347 2.6188-0.30053 3.9418-2.85e-5 4.57e-4 1.9e-5 7.16e-4 0 9.54e-4 -0.033495 0.66126-0.05859 1.325-0.07548 1.9904-1.94e-5 4.69e-4 9.6e-6 7.17e-4 0 9.55e-4 -0.01689 0.66555-0.02519 1.3334-0.02519 2.003 0 4.0204 0.30549 7.9697 0.89459 11.826 0.29455 1.9278 0.65949 3.8315 1.0931 5.71 9.55e-5 4.5e-4 -1.05e-4 7.4e-4 0 9.7e-4 0.43353 1.878 0.93562 3.7304 1.5026 5.5534 0.56716 1.8236 1.2002 3.6184 1.8954 5.3815 0.46348 1.1754 0.9549 2.3368 1.4733 3.4834s1.0638 2.2778 1.6355 3.3938c1.9e-4 3.9e-4 -1.84e-4 7.5e-4 0 2e-3 1.1431 2.2318 2.3914 4.4011 3.7377 6.5012 0.67327 1.0502 1.3709 2.0827 2.0925 3.0976 0.36082 0.5074 0.72745 1.0114 1.1 1.5096 0.74524 0.9965 1.5138 1.9738 2.3049 2.9326 1.1868 1.438 2.4242 2.8324 3.7098 4.1808 0.42853 0.44948 0.86366 0.89439 1.3027 1.3336 3.5127 3.5128 7.3606 6.6905 11.491 9.4812 1.0327 0.69768 2.0819 1.3714 3.1493 2.0198 0.53364 0.32423 1.0725 0.64164 1.6145 0.95327 1.0839 0.62327 2.1841 1.2218 3.3002 1.7934 1.1161 0.57163 2.2473 1.117 3.3938 1.6354 1.1466 0.51838 2.3079 1.0098 3.4833 1.4732 1.1754 0.46348 2.3645 0.89856 3.5672 1.3056 1.804 0.61047 3.6382 1.1567 5.499 1.6355 1.2405 0.31912 2.4936 0.60804 3.7573 0.86662 1.2637 0.25857 2.5378 0.48715 3.823 0.68354 1.2853 0.19635 2.5807 0.36086 3.8859 0.49341 0.65258 0.0665 1.3081 0.12473 1.9653 0.17474 1.9717 0.15002 3.964 0.22641 5.9742 0.22641s4.0024-0.0766 5.9743-0.22641c0.65726-0.0499 1.3127-0.10846 1.9653-0.17474 1.3052-0.13255 2.6007-0.29706 3.8859-0.49341 1.2853-0.19638 2.5593-0.42497 3.8229-0.68354 1.2637-0.25858 2.5168-0.5475 3.7573-0.86662 1.8608-0.47874 3.695-1.025 5.499-1.6355 1.2027-0.40695 2.3918-0.84207 3.5672-1.3056 1.1754-0.4635 2.3368-0.9549 3.4834-1.4732 1.1466-0.51838 2.2778-1.0638 3.3938-1.6354 1.1161-0.57165 2.2163-1.1701 3.3002-1.7934 0.54197-0.31163 1.0808-0.62904 1.6144-0.95327 1.0672-0.64848 2.1165-1.3222 3.1492-2.0198 4.1308-2.7908 7.9786-5.9684 11.491-9.4812 0.4391-0.43912 0.87425-0.88403 1.3027-1.3336 1.2856-1.3484 2.523-2.7428 3.7098-4.1808 0.79118-0.95874 1.5598-1.936 2.305-2.9326 0.37264-0.49826 0.73925-1.0022 1.1-1.5096 0.72167-1.0148 1.4192-2.0473 2.0926-3.0976 1.3465-2.1004 2.5944-4.2704 3.7377-6.5025 0.57164-1.1161 1.117-2.2473 1.6354-3.3938 0.51837-1.1466 1.0098-2.3079 1.4733-3.4833 0.69522-1.7632 1.3283-3.558 1.8954-5.3815 0.56702-1.8232 1.0691-3.6755 1.5026-5.5534 9e-5 -4.7e-4 -1e-4 -7e-4 0-9.5e-4 0.4336-1.8784 0.79853-3.7822 1.0931-5.71 0.5891-3.8557 0.8946-7.805 0.8946-11.826 0-0.67053-9e-3 -1.338-0.0254-2.0045-0.0167-0.66553-0.042-1.3292-0.0756-1.9904-3e-5 -4.59e-4 3e-5 -7.16e-4 0-2e-3 -0.0673-1.3229-0.16806-2.6371-0.30053-3.9418-5e-5 -4.58e-4 5e-5 -9.25e-4 0-9.55e-4 -0.13255-1.3052-0.29706-2.6007-0.49344-3.8859-0.29453-1.9278-0.65947-3.8316-1.093-5.71-0.28897-1.2519-0.60881-2.493-0.9575-3.7209-0.17441-0.61415-0.35607-1.2261-0.54514-1.8339-0.18904-0.60785-0.38638-1.213-0.58987-1.8144-0.40698-1.2027-0.84206-2.3918-1.3056-3.5672-0.46348-1.1754-0.95491-2.3367-1.4733-3.4833-0.51837-1.1466-1.0638-2.2778-1.6355-3.3938-1.1433-2.2321-2.3911-4.4022-3.7377-6.5025-0.67327-1.0502-1.3708-2.0827-2.0926-3.0975-2.165-3.0444-4.5436-5.9263-7.1148-8.623-0.42853-0.44946-0.86366-0.89301-1.3027-1.3321-0.21687-0.21687-0.43894-0.42869-0.65838-0.64299-0.66883-0.65326-1.346-1.3-2.038-1.929-1.3788-1.2533-2.8022-2.4565-4.2688-3.6091-13.2-10.374-29.847-16.562-47.938-16.562zm0 56.47c11.696 0 21.176 9.4806 21.176 21.176 0 11.696-9.4806 21.175-21.176 21.175s-21.176-9.4792-21.176-21.175c0-11.696 9.4806-21.176 21.176-21.176z" style="fill:url(#b);stroke-width:.95423"/><path d="m40.239 34.233c-19.393 17.064-26.612 44.182-18.267 68.629 8.344 24.447 30.635 41.492 56.415 43.139s50.058-12.423 61.446-35.609c11.387-23.187 7.9708-51.264-9.3859-70.396-8.3032-9.1524-16.747 1.1985-10.033 8.8281 13.52 15.365 16.447 37.308 7.4256 55.677-9.0214 18.371-28.176 29.469-48.6 28.164-20.424-1.3048-38.01-14.75-44.621-34.12-6.6104-19.369-0.91455-40.76 14.45-54.28z" fill="url(#w)" style="fill:url(#d);opacity:.54064;stroke-width:1.1094"/><path d="m40.239 34.233c-19.393 17.064-26.612 44.182-18.267 68.629 8.344 24.447 30.635 41.492 56.415 43.139s50.058-12.423 61.446-35.609c11.387-23.187 7.9708-51.264-9.3859-70.396-8.3032-9.1524-16.747 1.1985-10.033 8.8281 13.52 15.365 16.447 37.308 7.4256 55.677-9.0214 18.371-28.176 29.469-48.6 28.164-20.424-1.3048-38.01-14.75-44.621-34.12-6.6104-19.369-0.91455-40.76 14.45-54.28z" fill="url(#w)" style="fill:url(#d);filter:url(#g);stroke-width:1.1094"/><path d="m81.817 5.5248-0.0029 0.00141c-42.45 0-76.847 34.4-76.847 76.848 0 9.6616 1.7848 18.902 5.0377 27.419 8.0187 2.8246 16.519 4.6449 25.503 4.6449 14.712 0 28.358-4.275 40.063-11.415-8.8661-2.6802-15.328-10.912-15.328-20.649 0-11.91 9.6654-21.575 21.575-21.575 9.5206 0 17.601 6.1784 20.463 14.74 6.569-11.352 10.561-24.372 10.561-38.431 0-9.5757-1.9504-18.65-5.1355-27.111-8.0893-2.893-16.803-4.473-25.888-4.473z" style="fill:url(#a);stroke-width:.71568"/><path d="m82.526 46.785c-19.74 0-35.741 16-35.741 35.741 0 19.737 16 35.741 35.741 35.741 19.74 0 35.741-16.002 35.741-35.741 0-19.74-16-35.741-35.741-35.741zm0 16.774c10.474 0 18.966 8.4924 18.966 18.966 0 10.474-8.4924 18.966-18.966 18.966s-18.966-8.4924-18.966-18.966c0-10.474 8.4924-18.966 18.966-18.966z" fill="#fefefe" opacity=".2" stroke="#e6e6e6" stroke-width="3.5098"/><path d="m106.11 47.898c3.242 2.963 5.3716 4.8135 6.5732 6.1408l-0.15855 0.0052c-2.01-2.1831-4.2712-4.1042-6.4145-6.1454z" opacity=".3" stroke-width="2.4601"/><path d="m126.83 72.826c-0.2987 0.05977-0.46634 0.35554-0.73997 0.4757 0.0409-0.07335 9.5e-4 -0.09427 0.072-0.15376z" opacity=".3" stroke-width="2.4601"/><path d="m119.04 65.406c-0.32043-0.06473-0.77259-0.03018-1.1388 0.15856-0.36617 0.18874-0.60127 0.4755-0.73995 0.71595l-0.0147 0.01921-0.01 0.02412c-0.44892 0.84018-0.39604 1.5117-0.30271 2.2776 0.0933 0.76581 0.3154 1.5734 0.85528 2.316 0.57794 0.79563 1.304 1.2842 1.9556 1.7394 0.40467 0.28264 0.53121 0.35153 0.75439 0.4901l0.14896 0.76879 0.9754 0.2018c0.27168 0.05587 0.50398 0.10146 0.81204 0.0961 0.30809-0.0052 0.84441-0.06899 1.2878-0.55256 0.44333-0.48359 0.44586-1.0465 0.42765-1.2877-0.0178-0.24119-0.0491-0.33541-0.0577-0.38439l-0.0625-0.38439-0.24505-0.30272c-0.51181-0.63496-1.2676-1.9249-1.9652-3.0702-0.34881-0.57272-0.68979-1.1137-1.0427-1.5809-0.17644-0.23359-0.34996-0.44712-0.5766-0.65829-0.22666-0.21115-0.489-0.47048-1.0619-0.5862z" opacity=".3" stroke-width="2.4601"/><path d="m106.09 47.878c3.2496 2.9681 5.3874 4.8243 6.5924 6.1553l-0.16337 0.0096c-2.0159-2.1893-4.2788-4.118-6.429-6.1648z" opacity=".3" stroke-width="2.4601"/><path d="m48.656 13.567c-1.8414-0.0249-2.2187 2.2805-0.62342 2.8683 8.9824 3.6511 17.349 7.9096 25.379 12.508l-1.8857 4.4464c-0.95686 2.256-0.91256 4.0458-0.72684 5.5213-3.472-1.6432-18.762-8.4843-45.571-8.6339-0.01554-0.0015-0.07969-0.02485-0.10902-0.03214-5.5168 6.0541-10.086 12.984-13.48 20.558l0.09924-0.06009c4.9763-3.0129 10.882-5.1023 17.976-5.6569h0.0098c21.064-1.7381 46.797 9.6502 72.111 21.429-0.019 2.9163 0.24602 5.8748 2.3902 8.5545 1.4638 1.8296 4.0524 3.0665 6.6871 4.3108 2.6346 1.2442 5.3488 2.375 6.4062 2.9815v-0.0054c2.4317 1.3958 10.575 6.6251 15.359 12.851l1.4174 1.8479 1.0987-2.0561c5e-3 -0.0096 0.73415-0.85616 1.6942-1.6592 0.95993-0.80299 2.1779-1.7186 3.3673-2.5748 2.3788-1.7123 4.6351-3.1842 4.6351-3.1842l4.4087-2.8683-5.2599 0.10623s-0.32626 0.01951-1.4132-0.1887c-1.087-0.20833-2.8206-0.64569-5.2892-1.5683-2.2556-0.84285-4.9713-2.6785-7.0645-4.3402-1.0466-0.83083-1.9475-1.6177-2.5832-2.2057-0.0652-0.06016-0.0915-0.0895-0.15099-0.14537 0.58498-0.63484 0.75886-1.5409 0.62902-2.1247-0.14165-0.63696-0.4115-1.143-0.71565-1.6355-0.60832-0.98491-1.3762-1.8547-1.9122-2.3902 0.0945 0.09452-0.14663-0.17971-0.3816-0.52278-0.23497-0.34298-0.53908-0.80771-0.88063-1.3447-0.68309-1.0741-1.5218-2.4425-2.3371-3.7894-1.6307-2.6937-3.0944-5.1871-3.2415-5.4333v-0.0054c4e-3 0.0072-0.37162-0.7642-1.0735-1.2329l-0.17894-0.1216-0.19846-0.06291c-0.0791-0.02546-0.14213 0.0053-0.21807-0.01399l1.2426-0.08389-1.8675-2.263s-23.133-28.033-67.234-41.695c-0.0034-0.0011-0.0051-0.0046-0.0083-0.0054-0.04232-0.0131-0.07798-0.03015-0.12021-0.04331v0.0029c-0.13564-0.02355-0.26443-0.03607-0.38719-0.03775zm24.926 15.478c4.0286 2.3128 7.974 4.7066 11.733 7.2913l-1.0218 2.5608c-0.91292 2.296-0.85101 4.1157-0.68632 5.6457-2.8596-1.1877-8.0027-3.825-9.2172-10.825l-0.80792-4.6729zm-49.797 3.8747c0.33697 0.14666 0.49674 0.28756 1.1713 0.34945l0.0615 0.0098h0.06848c29.537 0.13451 47.124 9.3331 47.124 9.3331l1.8814-2.1485c4.1208 6.1014 11.192 8.2023 11.192 8.2023l3.7363 1.0442-2.052-3.2905s-0.30957-0.45428-0.5032-1.5613c-0.03826-0.21867 0.14116-0.69971 0.12161-0.95886 2.9724 5.4414 6.4273 8.9602 10.389 10.636l3.3282 1.4076-1.3489-3.3533c-0.18962-0.47121-0.03374-0.64778-0.12161-1.0302 4.1347 6.4208 10.133 9.5514 10.133 9.5514l0.44029 0.21806 0.48783-0.08807s1.4302-0.25738 3.0095-0.45988c0.78962-0.10125 1.615-0.18751 2.2854-0.22225 0.50842-0.02644 0.72725 0.0053 0.86525 0.0098 2e-3 0.02313-0.0456-0.07321 0.0629 0.10763-3e-3 -0.0052 1.6147 2.7347 3.2569 5.4472 0.82157 1.3571 1.6659 2.7344 2.3706 3.8425 0.35235 0.55405 0.67175 1.0407 0.93932 1.4314 0.26758 0.39069 0.41134 0.63336 0.73106 0.95328 0.36558 0.3653 1.0689 1.1797 1.4789 1.8437 0.13044 0.21128 0.16079 0.31377 0.21803 0.4501-0.30186 0.19446-0.70619 0.22063-0.89457 0.5759-0.421 0.79382-0.16802 1.5588-0.0336 1.8731l6e-3 0.0054c0.23294 0.54199 0.25985 0.42288 0.34248 0.51718 0.0826 0.09434 0.16999 0.19142 0.27675 0.30053 0.21352 0.21818 0.49503 0.48748 0.84149 0.80792 0.69285 0.64089 1.6415 1.4739 2.7537 2.3567 2.2244 1.7658 5.0589 3.7456 7.881 4.8 1.824 0.68168 2.8836 0.90518 4.041 1.1937-0.77443 0.52855-0.88463 0.57338-1.8241 1.2496-1.2242 0.88121-2.4885 1.8264-3.5434 2.709-0.48375 0.40471-0.72641 0.80556-1.1071 1.1713-5.2618-6.1954-12.516-11.006-15.029-12.449v-0.0069c-1.5053-0.86353-4.0817-1.8897-6.6186-3.0877-2.537-1.1981-5.0002-2.6886-5.6234-3.4679-1.7764-2.2205-1.8878-4.5202-1.7948-7.6305l0.0293-0.98828-0.9016-0.42074c-25.597-11.92-51.878-23.926-74.43-22.069h-0.0098c-5.7367 0.4496-10.608 2.075-15.06 4.1473 0.99572-1.9486 1.921-3.9778 3.1073-5.7338 1.8017-2.6669 4.03-5.0959 6.2664-7.5776l0.0015-0.0015zm62.642 4.2437c3.8546 2.6995 7.6806 5.4287 11.226 8.4442l-1.5977 0.27677c0.01224 0.44842-0.37459 2.0981-0.36763 4.2144-3.2466-1.9589-6.1512-4.7506-8.5938-11.178l-0.66675-1.7571zm14.115 11.216c3.2952 2.9688 6.6102 5.915 9.5986 9.1993l0.46548 0.513c-0.19438 0.03238-0.52782 0.07812-0.63322 0.09645-0.47633-0.2455-6.0226-3.4417-9.4312-9.8083zm-87.584 68.659c0.8538 1.7178 1.7681 3.4005 2.7425 5.0433 8.762 4.9392 19.823 7.9941 33.473 7.8166 14.113 0.0358 28.09 1.2849 39.119 2.9032 17.065 2.5041 30.399 6.6743 41.041 11.678 0.87155-0.65955 1.7311-1.3347 2.5734-2.0296-11.159-5.4494-25.162-9.9751-43.181-12.62-11.171-1.639-25.263-2.9022-39.548-2.9382h-0.02517c-15.494 0.20487-27.421-3.7089-36.195-9.8548zm12.53 18.169c1.1774 1.2742 2.3958 2.5099 3.6552 3.7028 1.9018 0.27773 3.8284 0.47548 5.7953 0.52554 29.62 1.5769 49.729 1.7868 74.215 14.481 5e-3 2e-3 0.01 7e-3 0.0141 0.01 0.4976 0.27573 0.98331 0.63368 1.4677 0.99943 1.103-0.42857 2.193-0.88311 3.2708-1.36-1.0926-0.81987-2.1792-1.6626-3.3156-2.291l-0.0376-0.0195c-25.099-13.013-45.916-13.249-75.511-14.826h-0.03775c-3.2746-0.0833-6.4341-0.55022-9.5206-1.2231zm75.117 3.5155-0.78417 2.8948c6.7889 2.5313 12.522 6.1437 17.779 10.198 0.8813-0.44708 1.751-0.91295 2.6125-1.3922-2.2756-1.8377-4.5502-3.6774-7.1232-5.2445 3.615 1.0546 6.7382 2.3536 9.8613 3.6524 1.1753-0.7181 2.3279-1.4685 3.4609-2.2463-7.4595-3.2433-15.715-6.0964-25.806-7.8624z" style="opacity:.2;stroke-width:.72068"/><path d="m49.337 14.135c24.607 10.003 46.023 23.257 62.651 41.524l3.9921-0.26279s-22.868-27.744-66.643-41.261zm-24.515 16.44c-4.6384 5.1486-8.5945 10.922-11.733 17.178 4.8698-2.6934 10.564-4.5534 17.242-5.0754 21.921-1.8087 48.095 10.017 73.686 21.934-0.0951 3.1781 0.0366 6.0025 2.1247 8.6117 2.0873 2.6089 10.105 5.4544 12.667 6.9247 2.562 1.4706 10.769 6.692 15.799 13.239 1.0908-2.0403 10.2-7.969 10.2-7.969s-2.1823 0.04391-7.2591-1.8535c-5.0774-1.8973-11.102-7.637-11.245-7.969-0.14224-0.33234-0.23739-0.85158 0.94911-1.0889 0.90089-0.75847-1.1365-3.2268-2.038-4.1277-0.90088-0.90146-6.9284-11.149-7.0701-11.386-0.14219-0.23738-0.1926-0.47556-0.61923-0.7604-1.3288-0.42731-7.1596 0.62063-7.1596 0.62063s-8.9752-4.4125-12.068-13.916c0.04514 1.6646-1.539 3.482 0 7.3063-4.6794-1.9796-8.6997-5.3551-11.87-13.699-1.8869 4.7454 0 7.7665 0 7.7665s-11.021-3.0817-12.784-13.244c-1.935 4.5618 0 7.3063 0 7.3063s-17.966-9.3725-47.817-9.5077c-0.36617-0.0336-0.68471-0.15923-1.0022-0.28935zm93.99 36.46c0.81074 0.16378 2.4926 3.7715 3.809 5.4053 0.0638 0.37287 0.16927 0.60163-0.7031 0.42214-0.0734-0.38331-0.20269-0.49902-0.20269-0.49902s-2.1024-1.2513-2.748-2.14c-0.64612-0.88872-0.76091-2.4437-0.4459-3.0332 0.0769-0.13302 0.17492-0.17858 0.29074-0.15516zm-105.57 50.581c3.4158 6.7312 7.7815 12.898 12.924 18.323 3.0985 0.61004 6.2752 1.0018 9.5328 1.0847 29.62 1.5778 50.085 1.8014 74.888 14.661 1.0026 0.55438 1.9621 1.3304 2.934 2.0506 2.263-0.98657 4.4684-2.0782 6.613-3.268-5.6013-4.4485-11.727-8.4299-19.063-11.164 9.7546 1.707 17.766 4.4237 25.008 7.5117 1.9073-1.2948 3.7532-2.6742 5.5339-4.1291-10.945-5.2846-24.689-9.6809-42.38-12.277-11.1-1.6287-25.137-2.8812-39.338-2.9172-15.517 0.20517-27.629-3.7105-36.653-9.8756z" style="fill:#fff;stroke-width:.72068"/><path d="m148.18 131.49v4e-3h-5.5633v5.7087h5.7086v-3e-3h5.4178v5.4291h-5.4178v-3e-3h-5.7086v5.5674h-3e-3v5.7086h3e-3v5.5618h11.126v9.5e-4h5.7086v-5.7086h-5.5632v-9.5e-4h-5.5662v-5.4178h5.4207v9.5e-4h5.7086v-16.845h-5.5632v-4e-3zm-27.834 4e-3v5.7087h11.132v5.4262h-11.132v5.7086h11.136v5.4178h-11.136v5.7086h16.845v-16.836h-4e-3v-5.4262h4e-3v-5.7086h-11.136z" style="color-rendering:auto;color:#000000;dominant-baseline:auto;fill:#fff;font-feature-settings:normal;font-variant-alternates:normal;font-variant-caps:normal;font-variant-east-asian:normal;font-variant-ligatures:normal;font-variant-numeric:normal;font-variant-position:normal;font-variation-settings:normal;image-rendering:auto;inline-size:0;isolation:auto;mix-blend-mode:normal;shape-margin:0;shape-padding:0;shape-rendering:auto;solid-color:#000000;stop-color:#000000;stroke-width:.95423;text-decoration-color:#000000;text-decoration-line:none;text-decoration-style:solid;text-indent:0;text-orientation:mixed;text-transform:none;white-space:normal"/><path d="m114.82 125.96v39.037h50.172v-5.5688h4e-3v-33.463h-44.538v-4e-3zm5.6373 5.6415h16.628v27.758h-16.628v-5.4948h11.139v-5.6373h-11.139v-5.4986h11.139v-5.6374h-11.139zm22.265 0h16.634v16.626h-11.135v5.6373h11.135v5.4948h-16.634v-16.631h11.136v-5.6373h-11.136z" style="color-rendering:auto;color:#000000;dominant-baseline:auto;font-feature-settings:normal;font-variant-alternates:normal;font-variant-caps:normal;font-variant-east-asian:normal;font-variant-ligatures:normal;font-variant-numeric:normal;font-variant-position:normal;font-variation-settings:normal;image-rendering:auto;inline-size:0;isolation:auto;mix-blend-mode:normal;shape-margin:0;shape-padding:0;shape-rendering:auto;solid-color:#000000;stop-color:#000000;stroke-width:.95423;text-decoration-color:#000000;text-decoration-line:none;text-decoration-style:solid;text-indent:0;text-orientation:mixed;text-transform:none;white-space:normal"/><path transform="matrix(1.4261 0 0 1.4261 -52.834 -18.419)" d="m131.1 50.336-5.1831-2.8242-0.76175 5.8533-2.5332-5.3314-4.0567 4.2876 1.0843-5.8022-5.8022 1.0843 4.2876-4.0567-5.3314-2.5332 5.8533-0.76175-2.8242-5.1831 5.1831 2.8242 0.76175-5.8533 2.5332 5.3314 4.0567-4.2876-1.0843 5.8022 5.8022-1.0843-4.2876 4.0567 5.3314 2.5332-5.8533 0.76175z" style="fill:#65cfd4;filter:url(#f);opacity:.63779"/><path d="m128.95 48.192-3.6208-1.9729-0.53214 4.089-1.7696-3.7244-2.8339 2.9952 0.75746-4.0533-4.0533 0.75746 2.9952-2.8339-3.7244-1.7697 4.089-0.53214-1.9729-3.6208 3.6208 1.9729 0.53214-4.089 1.7696 3.7244 2.8339-2.9952-0.75745 4.0533 4.0533-0.75746-2.9952 2.8339 3.7244 1.7697-4.089 0.53214z" style="fill:#65cfd4;filter:url(#e);mix-blend-mode:normal"/></svg>
