<svg width="220" height="220" version="1.1" viewBox="0 0 165 165" xmlns="http://www.w3.org/2000/svg"><defs><filter id="c" x="-.027" y="-.027" width="1.054" height="1.054" style="color-interpolation-filters:sRGB"><feGaussianBlur stdDeviation="1.7464731"/></filter></defs><radialGradient id="a" cx="106.31" cy="106.09" r="134.6" gradientTransform="matrix(.70719 0 0 .70719 4.7092 4.7092)" gradientUnits="userSpaceOnUse"><stop stop-color="#1b3f7c" style="stop-color:#2656a8" offset="0"/><stop stop-color="#2b62c0" stop-opacity="0" offset="1"/></radialGradient><linearGradient id="b" x1="61.578" x2="160.65" y1="52.014" y2="151.09" gradientTransform="matrix(.94674 0 0 .94674 4.3943 4.3943)" gradientUnits="userSpaceOnUse"><stop stop-color="#265ab1" style="stop-color:#4aaee6" offset="0"/><stop stop-color="#5cb6e8" style="stop-color:#316fd8" offset="1"/></linearGradient><path d="m82.5 4.8794c-18.086 0-34.727 6.1855-47.923 16.556-1.4662 1.1522-2.889 2.3551-4.2674 3.6079-0.69178 0.62875-1.3687 1.2753-2.0373 1.9283-0.21934 0.21423-0.44135 0.42598-0.65814 0.64278-0.43895 0.43895-0.8739 0.88235-1.3023 1.3316-1.7135 1.7972-3.3404 3.6763-4.8767 5.6313-4.05e-4 5.14e-4 -9.64e-4 8.82e-4 -0.0015 0.0015-0.76774 0.977-1.5133 1.9735-2.2343 2.9875-0.72145 1.0145-1.4188 2.0466-2.0918 3.0965-0.33653 0.52492-0.66659 1.0539-0.99074 1.5874-2.06e-4 3.38e-4 2.05e-4 0.0011 0 0.0015-0.97214 1.6-1.8888 3.2385-2.7458 4.9116-0.57144 1.1156-1.1167 2.2465-1.6349 3.3927-0.2591 0.57309-0.51187 1.1495-0.75736 1.7299-1.66e-4 3.93e-4 1.66e-4 9.64e-4 0 0.0015-0.24525 0.57987-0.48388 1.1636-0.71539 1.7507-0.46332 1.175-0.8983 2.3637-1.3051 3.566-0.20341 0.60114-0.40069 1.2061-0.58968 1.8138-0.18899 0.60769-0.3706 1.218-0.54496 1.8319-1.22e-4 4.31e-4 1.223e-4 9.64e-4 0 0.0015-0.34857 1.2275-0.66831 2.4683-0.95718 3.7197-0.43345 1.8778-0.79828 3.7809-1.0927 5.7081-0.1963 1.2848-0.36077 2.5799-0.49326 3.8846-4.68e-5 4.61e-4 4.68e-5 9.36e-4 0 0.0015-0.13243 1.3042-0.23339 2.6179-0.30043 3.9405-2.37e-5 4.65e-4 2.36e-5 9.31e-4 0 0.0014-0.033493 0.66105-0.058602 1.3245-0.075457 1.9898-1.17e-5 4.66e-4 1.19e-5 9.3e-4 0 0.0014-0.016842 0.66532-0.025152 1.333-0.025152 2.0024 0 4.019 0.30539 7.9671 0.8943 11.821 0.29445 1.9272 0.65927 3.8303 1.0927 5.7081 1.021e-4 4.4e-4 -1.023e-4 9.8e-4 0 9.8e-4 0.43338 1.8774 0.93529 3.7291 1.5021 5.5516 0.56696 1.8229 1.1998 3.6172 1.8948 5.3797 0.46332 1.175 0.95461 2.336 1.4728 3.4822s1.0634 2.277 1.6349 3.3928c1.91e-4 3.5e-4 -1.89e-4 9.6e-4 0 9.6e-4 1.1427 2.231 2.3906 4.3996 3.7365 6.499 0.67305 1.0498 1.3704 2.082 2.0918 3.0965 0.36071 0.50725 0.72724 1.011 1.0997 1.5092 0.74498 0.99615 1.5133 1.9732 2.3042 2.9316 1.1864 1.4376 2.4234 2.8315 3.7085 4.1794 0.42838 0.44933 0.86339 0.89408 1.3023 1.3331 3.5116 3.5116 7.3583 6.6883 11.488 9.4781 1.0324 0.69743 2.0813 1.3709 3.1482 2.0192 0.53346 0.32415 1.0722 0.64144 1.614 0.95295 1.0836 0.62307 2.1834 1.2213 3.2991 1.7928 1.1156 0.57146 2.2465 1.1166 3.3927 1.6349 1.1462 0.51819 2.3071 1.0095 3.4822 1.4728 1.175 0.46333 2.3637 0.8983 3.566 1.3051 1.8034 0.61024 3.637 1.1563 5.4971 1.6349 1.2401 0.31905 2.4928 0.60787 3.756 0.86633 1.2632 0.25852 2.5369 0.487 3.8217 0.6833 1.2848 0.19629 2.5799 0.36077 3.8846 0.49325 0.65236 0.0664 1.3076 0.12468 1.9647 0.17469 1.9711 0.14997 3.9627 0.22635 5.9722 0.22635s4.0011-0.0765 5.9722-0.22635c0.65704-0.0499 1.3123-0.10844 1.9647-0.17469 1.3047-0.13248 2.5998-0.29696 3.8846-0.49325s2.5585-0.42479 3.8217-0.6833c1.2632-0.25849 2.516-0.54731 3.7561-0.86633 1.8601-0.47855 3.6937-1.0246 5.4971-1.6349 1.2023-0.40684 2.391-0.84179 3.566-1.3051s2.336-0.95461 3.4822-1.4728c1.1462-0.51818 2.277-1.0634 3.3927-1.6349 1.1157-0.57145 2.2156-1.1698 3.2991-1.7928 0.54181-0.31153 1.0804-0.62883 1.614-0.95295 1.0669-0.64827 2.1158-1.3217 3.1482-2.0192 4.1294-2.7898 7.9757-5.9664 11.488-9.4781 0.43895-0.43897 0.87392-0.88371 1.3023-1.3331 1.2851-1.348 2.5221-2.7418 3.7085-4.1794 0.79093-0.9584 1.5592-1.9354 2.3042-2.9316 0.37248-0.49811 0.73897-1.0019 1.0997-1.5092 0.72145-1.0145 1.4188-2.0466 2.0918-3.0965 1.3461-2.0997 2.5936-4.269 3.7365-6.5004 0.57144-1.1157 1.1166-2.2465 1.6349-3.3928 0.51819-1.1462 1.0095-2.3072 1.4728-3.4822 0.69501-1.7626 1.3278-3.5568 1.8948-5.3797 0.56685-1.8225 1.0687-3.6743 1.5022-5.5516 1e-4 -4.6e-4 -1.2e-4 -9.5e-4 0-9.6e-4 0.43344-1.8778 0.79829-3.781 1.0927-5.7081 0.58891-3.8544 0.8943-7.8025 0.8943-11.821 0-0.67031-9e-3 -1.3375-0.0253-2.0038-0.0167-0.66531-0.042-1.3288-0.0756-1.9898-3e-5 -4.65e-4 1e-5 -9.3e-4 0-0.0014-0.0671-1.3226-0.16799-2.6362-0.30042-3.9405-4e-5 -4.62e-4 5e-5 -9.36e-4 0-0.0015-0.13249-1.3047-0.29696-2.5998-0.49328-3.8846-0.29443-1.9272-0.65926-3.8303-1.0927-5.7081-0.28887-1.2514-0.60861-2.4922-0.95718-3.7197-0.17437-0.61394-0.35597-1.2257-0.54498-1.8333-0.18898-0.60764-0.38624-1.2126-0.58967-1.8138-0.40684-1.2023-0.84177-2.391-1.3051-3.566-0.46332-1.175-0.95459-2.336-1.4728-3.4822-0.51819-1.1462-1.0634-2.277-1.6349-3.3927-1.1429-2.2314-2.3903-4.4007-3.7365-6.5004-0.67303-1.0498-1.3704-2.082-2.0918-3.0965-2.1643-3.0434-4.5422-5.9243-7.1124-8.6203-0.42838-0.44932-0.8634-0.89272-1.3023-1.3316-0.21679-0.2168-0.43881-0.42854-0.65814-0.64278-0.66864-0.65304-1.3455-1.2996-2.0373-1.9283-1.3784-1.2529-2.8012-2.4557-4.2674-3.608-13.196-10.37-29.837-16.556-47.923-16.556zm0 56.451c11.692 0 21.17 9.4774 21.17 21.17 0 11.692-9.4774 21.168-21.17 21.168-11.692 0-21.17-9.476-21.17-21.168s9.4774-21.17 21.17-21.17z" style="filter:url(#c);opacity:.3;stroke-width:.71544"/><path d="m82.5 54.917c-15.234 0-27.582 12.348-27.582 27.582 0 15.233 12.348 27.582 27.582 27.582s27.582-12.349 27.582-27.582c0-15.234-12.348-27.582-27.582-27.582zm0 12.945c8.0833 0 14.638 6.5543 14.638 14.638s-6.5543 14.638-14.638 14.638-14.638-6.5543-14.638-14.638 6.5543-14.638 14.638-14.638z" fill="#72a2f4" stroke="#5b739d" stroke-width="1.4303"/><path d="m82.5 4.8794c-18.086 0-34.727 6.1855-47.923 16.556-1.4662 1.1522-2.889 2.3551-4.2674 3.6079-0.69178 0.62875-1.3687 1.2753-2.0373 1.9283-0.21934 0.21423-0.44135 0.42598-0.65814 0.64278-0.43895 0.43895-0.8739 0.88235-1.3023 1.3316-1.7135 1.7972-3.3404 3.6763-4.8767 5.6313-4.05e-4 5.14e-4 -9.64e-4 8.82e-4 -0.0015 0.0015-0.76774 0.977-1.5133 1.9735-2.2343 2.9875-0.72145 1.0145-1.4188 2.0466-2.0918 3.0965-0.33653 0.52492-0.66659 1.0539-0.99074 1.5874-2.06e-4 3.38e-4 2.05e-4 0.0011 0 0.0015-0.97214 1.6-1.8888 3.2385-2.7458 4.9116-0.57144 1.1156-1.1167 2.2465-1.6349 3.3927-0.2591 0.57309-0.51187 1.1495-0.75736 1.7299-1.66e-4 3.93e-4 1.66e-4 9.64e-4 0 0.0015-0.24525 0.57987-0.48388 1.1636-0.71539 1.7507-0.46332 1.175-0.8983 2.3637-1.3051 3.566-0.20341 0.60114-0.40069 1.2061-0.58968 1.8138-0.18899 0.60769-0.3706 1.218-0.54496 1.8319-1.22e-4 4.31e-4 1.223e-4 9.64e-4 0 0.0015-0.34857 1.2275-0.66831 2.4683-0.95718 3.7197-0.43345 1.8778-0.79828 3.7809-1.0927 5.7081-0.1963 1.2848-0.36077 2.5799-0.49326 3.8846-4.68e-5 4.61e-4 4.68e-5 9.36e-4 0 0.0015-0.13243 1.3042-0.23339 2.6179-0.30043 3.9405-2.37e-5 4.65e-4 2.36e-5 9.31e-4 0 0.0014-0.033493 0.66105-0.058602 1.3245-0.075457 1.9898-1.17e-5 4.66e-4 1.19e-5 9.3e-4 0 0.0014-0.016842 0.66532-0.025152 1.333-0.025152 2.0024 0 4.019 0.30539 7.9671 0.8943 11.821 0.29445 1.9272 0.65927 3.8303 1.0927 5.7081 1.021e-4 4.4e-4 -1.023e-4 9.8e-4 0 9.8e-4 0.43338 1.8774 0.93529 3.7291 1.5021 5.5516 0.56696 1.8229 1.1998 3.6172 1.8948 5.3797 0.46332 1.175 0.95461 2.336 1.4728 3.4822s1.0634 2.277 1.6349 3.3928c1.91e-4 3.5e-4 -1.89e-4 9.6e-4 0 9.6e-4 1.1427 2.231 2.3906 4.3996 3.7365 6.499 0.67305 1.0498 1.3704 2.082 2.0918 3.0965 0.36071 0.50725 0.72724 1.011 1.0997 1.5092 0.74498 0.99615 1.5133 1.9732 2.3042 2.9316 1.1864 1.4376 2.4234 2.8315 3.7085 4.1794 0.42838 0.44933 0.86339 0.89408 1.3023 1.3331 3.5116 3.5116 7.3583 6.6883 11.488 9.4781 1.0324 0.69743 2.0813 1.3709 3.1482 2.0192 0.53346 0.32415 1.0722 0.64144 1.614 0.95295 1.0836 0.62307 2.1834 1.2213 3.2991 1.7928 1.1156 0.57146 2.2465 1.1166 3.3927 1.6349 1.1462 0.51819 2.3071 1.0095 3.4822 1.4728 1.175 0.46333 2.3637 0.8983 3.566 1.3051 1.8034 0.61024 3.637 1.1563 5.4971 1.6349 1.2401 0.31905 2.4928 0.60787 3.756 0.86633 1.2632 0.25852 2.5369 0.487 3.8217 0.6833 1.2848 0.19629 2.5799 0.36077 3.8846 0.49325 0.65236 0.0664 1.3076 0.12468 1.9647 0.17469 1.9711 0.14997 3.9627 0.22635 5.9722 0.22635s4.0011-0.0765 5.9722-0.22635c0.65704-0.0499 1.3123-0.10844 1.9647-0.17469 1.3047-0.13248 2.5998-0.29696 3.8846-0.49325s2.5585-0.42479 3.8217-0.6833c1.2632-0.25849 2.516-0.54731 3.7561-0.86633 1.8601-0.47855 3.6937-1.0246 5.4971-1.6349 1.2023-0.40684 2.391-0.84179 3.566-1.3051s2.336-0.95461 3.4822-1.4728c1.1462-0.51818 2.277-1.0634 3.3927-1.6349 1.1157-0.57145 2.2156-1.1698 3.2991-1.7928 0.54181-0.31153 1.0804-0.62883 1.614-0.95295 1.0669-0.64827 2.1158-1.3217 3.1482-2.0192 4.1294-2.7898 7.9757-5.9664 11.488-9.4781 0.43895-0.43897 0.87392-0.88371 1.3023-1.3331 1.2851-1.348 2.5221-2.7418 3.7085-4.1794 0.79093-0.9584 1.5592-1.9354 2.3042-2.9316 0.37248-0.49811 0.73897-1.0019 1.0997-1.5092 0.72145-1.0145 1.4188-2.0466 2.0918-3.0965 1.3461-2.0997 2.5936-4.269 3.7365-6.5004 0.57144-1.1157 1.1166-2.2465 1.6349-3.3928 0.51819-1.1462 1.0095-2.3072 1.4728-3.4822 0.69501-1.7626 1.3278-3.5568 1.8948-5.3797 0.56685-1.8225 1.0687-3.6743 1.5022-5.5516 1e-4 -4.6e-4 -1.2e-4 -9.5e-4 0-9.6e-4 0.43344-1.8778 0.79829-3.781 1.0927-5.7081 0.58891-3.8544 0.8943-7.8025 0.8943-11.821 0-0.67031-9e-3 -1.3375-0.0253-2.0038-0.0167-0.66531-0.042-1.3288-0.0756-1.9898-3e-5 -4.65e-4 1e-5 -9.3e-4 0-0.0014-0.0671-1.3226-0.16799-2.6362-0.30042-3.9405-4e-5 -4.62e-4 5e-5 -9.36e-4 0-0.0015-0.13249-1.3047-0.29696-2.5998-0.49328-3.8846-0.29443-1.9272-0.65926-3.8303-1.0927-5.7081-0.28887-1.2514-0.60861-2.4922-0.95718-3.7197-0.17437-0.61394-0.35597-1.2257-0.54498-1.8333-0.18898-0.60764-0.38624-1.2126-0.58967-1.8138-0.40684-1.2023-0.84177-2.391-1.3051-3.566-0.46332-1.175-0.95459-2.336-1.4728-3.4822-0.51819-1.1462-1.0634-2.277-1.6349-3.3927-1.1429-2.2314-2.3903-4.4007-3.7365-6.5004-0.67303-1.0498-1.3704-2.082-2.0918-3.0965-2.1643-3.0434-4.5422-5.9243-7.1124-8.6203-0.42838-0.44932-0.8634-0.89272-1.3023-1.3316-0.21679-0.2168-0.43881-0.42854-0.65814-0.64278-0.66864-0.65304-1.3455-1.2996-2.0373-1.9283-1.3784-1.2529-2.8012-2.4557-4.2674-3.608-13.196-10.37-29.837-16.556-47.923-16.556zm0 56.451c11.692 0 21.17 9.4774 21.17 21.17 0 11.692-9.4774 21.168-21.17 21.168-11.692 0-21.17-9.476-21.17-21.168s9.4774-21.17 21.17-21.17z" style="fill:url(#b);stroke-width:.71544"/><path d="m82.5 5.6745-0.0029 0.00141c-42.436 0-76.824 34.389-76.824 76.824 0 9.6584 1.7842 18.896 5.036 27.41 8.0157 2.8236 16.513 4.6433 25.495 4.6433 14.707 0 28.348-4.2737 40.049-11.412-8.8635-2.6794-15.323-10.908-15.323-20.642 0-11.906 9.6627-21.568 21.568-21.568 9.5174 0 17.595 6.1763 20.456 14.735 6.5668-11.348 10.558-24.364 10.558-38.418 0-9.5725-1.9498-18.644-5.1338-27.101-8.0865-2.892-16.798-4.4715-25.88-4.4715z" style="fill:url(#a);opacity:.46408;stroke-width:.71544"/><path d="m82.5 46.771c-19.734 0-35.729 15.994-35.729 35.729 0 19.731 15.994 35.729 35.729 35.729 19.734 0 35.729-15.996 35.729-35.729 0-19.734-15.994-35.729-35.729-35.729zm0 16.768c10.47 0 18.96 8.4896 18.96 18.96 0 10.47-8.4896 18.96-18.96 18.96-10.47 0-18.96-8.4896-18.96-18.96 0-10.47 8.4896-18.96 18.96-18.96z" fill="#fefefe" opacity=".2" stroke="#e6e6e6" stroke-width="3.5086"/><path d="m106.08 47.883c3.241 2.962 5.3699 4.8119 6.571 6.1387l-0.15851 0.0052c-2.0093-2.1824-4.2698-4.1029-6.4124-6.1434z" opacity=".3" stroke-width="2.4593"/><path d="m126.79 72.803c-0.2986 0.05972-0.46619 0.35542-0.73969 0.47554 0.0409-0.0733 9.5e-4 -0.09422 0.072-0.1537z" opacity=".3" stroke-width="2.4593"/><path d="m119.01 65.386c-0.32032-0.06472-0.77234-0.03018-1.1384 0.1585-0.36603 0.18868-0.60107 0.47534-0.7397 0.71571l-0.0147 0.01918-0.01 0.02412c-0.44876 0.8399-0.39588 1.5112-0.3026 2.2768 0.0933 0.76556 0.3153 1.5729 0.85499 2.3152 0.57773 0.79536 1.3035 1.2838 1.955 1.7388 0.40455 0.28255 0.53102 0.35141 0.75414 0.48994l0.1489 0.76853 0.9751 0.20173c0.27156 0.05587 0.50378 0.10142 0.81176 0.09605 0.30798-0.0052 0.84414-0.06894 1.2873-0.55238 0.44316-0.48342 0.44572-1.0462 0.42749-1.2873-0.0178-0.24111-0.0491-0.3353-0.0575-0.38426l-0.0625-0.38427-0.24498-0.30262c-0.51162-0.63475-1.2672-1.9242-1.9646-3.0692-0.34871-0.57253-0.68955-1.1133-1.0423-1.5804-0.1764-0.23351-0.34984-0.44698-0.57642-0.65807-0.22658-0.21108-0.48884-0.47032-1.0615-0.58601z" opacity=".3" stroke-width="2.4593"/><path d="m106.05 47.863c3.2484 2.9672 5.3856 4.8227 6.5902 6.1532l-0.16331 0.0096c-2.0152-2.1886-4.2774-4.1166-6.4269-6.1628z" opacity=".3" stroke-width="2.4593"/><path d="m48.641 13.564c-1.8408-0.0249-2.218 2.2797-0.62321 2.8673 8.9794 3.6499 17.343 7.907 25.37 12.504l-1.885 4.4449c-0.95654 2.2553-0.91225 4.0444-0.7266 5.5194-3.4709-1.6426-18.756-8.4815-45.556-8.631-0.01554-0.0015-0.07967-0.02484-0.10899-0.03214-5.5149 6.0521-10.083 12.98-13.476 20.551l0.09921-0.06009c4.9746-3.0118 10.878-5.1006 17.97-5.655h0.0098c21.057-1.7375 46.781 9.6469 72.087 21.422-0.019 2.9153 0.24595 5.8728 2.3894 8.5516 1.4633 1.829 4.0511 3.0655 6.6849 4.3094 2.6337 1.2438 5.347 2.3742 6.404 2.9805v-0.0054c2.4309 1.3953 10.571 6.6229 15.354 12.847l1.4169 1.8473 1.0983-2.0554c5e-3 -0.0096 0.73389-0.85588 1.6936-1.6587 0.95962-0.80272 2.1772-1.718 3.3662-2.5739 2.3781-1.7117 4.6336-3.1831 4.6336-3.1831l4.4072-2.8673-5.2582 0.10619s-0.32616 0.01951-1.4127-0.18864c-1.0866-0.20826-2.8197-0.64547-5.2875-1.5678-2.2549-0.84257-4.9697-2.6776-7.0622-4.3388-1.0462-0.83055-1.9468-1.6172-2.5823-2.205-0.0652-0.06016-0.0915-0.08948-0.1509-0.14532 0.58478-0.63464 0.75857-1.5404 0.62882-2.124-0.14164-0.63674-0.41139-1.1426-0.71544-1.6349-0.60812-0.98458-1.3758-1.854-1.9116-2.3894 0.0945 0.09452-0.14661-0.17965-0.3815-0.52261-0.23488-0.34286-0.53888-0.80744-0.88033-1.3442-0.68284-1.0737-1.5212-2.4417-2.3363-3.7882-1.6301-2.6928-3.0934-5.1854-3.2404-5.4314v-0.0054c4e-3 0.0072-0.3715-0.76394-1.0732-1.2325l-0.17885-0.12157-0.19841-0.06287c-0.0791-0.02542-0.14208 0.0053-0.21797-0.01398l1.2422-0.08384-1.8668-2.2623s-23.126-28.024-67.212-41.681c-0.0034-0.0011-0.0051-0.0046-0.0083-0.0054-0.04232-0.01309-0.07797-0.03015-0.12017-0.04331v0.0029c-0.13559-0.02355-0.26434-0.03606-0.38707-0.03774zm24.917 15.473c4.0273 2.3121 7.9714 4.7051 11.73 7.2889l-1.0214 2.5599c-0.91261 2.2952-0.85073 4.1143-0.68609 5.6439-2.8587-1.1873-8-3.8237-9.2141-10.821l-0.80766-4.6713zm-49.78 3.8734c0.33686 0.14662 0.49658 0.28747 1.171 0.34933l0.0615 0.0098h0.06847c29.527 0.13447 47.109 9.33 47.109 9.33l1.8808-2.1477c4.1194 6.0994 11.189 8.1996 11.189 8.1996l3.7351 1.0438-2.0513-3.2894s-0.30947-0.45412-0.50304-1.5608c-0.03826-0.2186 0.14111-0.69948 0.12157-0.95854 2.9714 5.4396 6.4251 8.9573 10.385 10.632l3.3271 1.4071-1.3485-3.3522c-0.18955-0.47105-0.03369-0.64757-0.12156-1.0299 4.1333 6.4187 10.129 9.5482 10.129 9.5482l0.44017 0.21799 0.48764-0.08804s1.4298-0.2573 3.0085-0.45972c0.78937-0.10121 1.6145-0.18744 2.2847-0.22218 0.50827-0.02641 0.72701 0.0053 0.86496 0.0098 2e-3 0.02313-0.0456-0.07316 0.0629 0.1076-3e-3 -0.0052 1.6142 2.7338 3.2558 5.4454 0.8213 1.3567 1.6654 2.7335 2.3699 3.8412 0.3522 0.55386 0.67153 1.0403 0.93899 1.4309 0.26749 0.39056 0.4112 0.63315 0.73082 0.95296 0.36545 0.36518 1.0685 1.1793 1.4784 1.8431 0.13044 0.2112 0.16074 0.31367 0.21798 0.44994-0.30176 0.1944-0.70599 0.22056-0.8943 0.5757-0.42083 0.79356-0.16794 1.5583-0.0336 1.8724l6e-3 0.0054c0.23285 0.54182 0.25976 0.42274 0.34235 0.51701 0.0826 0.09429 0.16993 0.19136 0.27668 0.30043 0.21347 0.21811 0.49488 0.48731 0.84121 0.80766 0.69263 0.64068 1.6409 1.4734 2.7528 2.3559 2.2237 1.7652 5.0572 3.7444 7.8784 4.7984 1.8234 0.68145 2.8826 0.90488 4.0397 1.1933-0.77417 0.52837-0.88437 0.57319-1.8235 1.2492-1.2238 0.88092-2.4876 1.8258-3.5423 2.7081-0.4836 0.40457-0.72616 0.8053-1.1067 1.171-5.26-6.1934-12.512-11.003-15.024-12.445v-0.0069c-1.5048-0.86325-4.0803-1.889-6.6164-3.0867-2.536-1.1977-4.9984-2.6878-5.6214-3.4668-1.7758-2.2198-1.8872-4.5187-1.7942-7.628l0.0293-0.98795-0.90131-0.4206c-25.589-11.916-51.861-23.918-74.406-22.061h-0.0098c-5.7348 0.44945-10.605 2.0743-15.055 4.1459 0.99539-1.9479 1.9204-3.9765 3.1063-5.7319 1.8011-2.666 4.0287-5.0942 6.2643-7.575l0.0015-0.0015zm62.621 4.2423c3.8533 2.6986 7.6781 5.4269 11.222 8.4414l-1.5971 0.27667c0.01224 0.44827-0.37447 2.0974-0.36751 4.213-3.2455-1.9583-6.1491-4.7491-8.591-11.174l-0.66653-1.7565zm14.111 11.212c3.2941 2.9678 6.608 5.913 9.5954 9.1962l0.4653 0.51282c-0.19429 0.03238-0.52763 0.0781-0.63298 0.09642-0.47618-0.24542-6.0206-3.4405-9.428-9.8051zm-87.555 68.636c0.85352 1.7173 1.7675 3.3994 2.7416 5.0416 8.7591 4.9375 19.816 7.9914 33.462 7.814 14.108 0.0356 28.081 1.2845 39.106 2.9022 17.059 2.5032 30.389 6.6721 41.027 11.674 0.87125-0.6593 1.7305-1.3343 2.5725-2.0289-11.155-5.4476-25.153-9.9718-43.167-12.615-11.167-1.6385-25.254-2.9012-39.535-2.9372h-0.02516c-15.488 0.20477-27.412-3.7077-36.182-9.8516zm12.526 18.163c1.177 1.2738 2.395 2.509 3.654 3.7015 1.9012 0.27767 3.8272 0.47535 5.7934 0.52542 29.61 1.5764 49.712 1.7862 74.191 14.476 5e-3 2e-3 0.01 7e-3 0.0141 0.01 0.49744 0.2756 0.983 0.63348 1.4672 0.99908 1.1026-0.42846 2.1922-0.88285 3.2698-1.3596-1.0923-0.8196-2.1785-1.662-3.3145-2.2902l-0.0376-0.0195c-25.091-13.008-45.9-13.244-75.486-14.821h-0.03773c-3.2736-0.0833-6.4319-0.55002-9.5174-1.2227zm75.092 3.5143-0.78392 2.8939c6.7867 2.5304 12.518 6.1417 17.773 10.195 0.881-0.44689 1.7504-0.9126 2.6116-1.3917-2.2748-1.8371-4.5487-3.6762-7.1208-5.2428 3.6138 1.0543 6.7359 2.3528 9.858 3.6512 1.1749-0.71788 2.3271-1.468 3.4598-2.2456-7.457-3.2422-15.71-6.0944-25.798-7.8598z" style="opacity:.2;stroke-width:.72044"/><path d="m49.322 14.132c24.599 9.9996 46.008 23.25 62.63 41.51l3.9908-0.2627s-22.86-27.735-66.621-41.248zm-24.507 16.434c-4.6369 5.1469-8.5917 10.918-11.73 17.172 4.8682-2.6925 10.561-4.5519 17.236-5.0737 21.914-1.8081 48.079 10.014 73.661 21.927-0.0951 3.177 0.0366 6.0005 2.124 8.6088 2.0866 2.6081 10.101 5.4526 12.662 6.9224 2.5612 1.4701 10.766 6.6898 15.794 13.234 1.0904-2.0396 10.196-7.9664 10.196-7.9664s-2.1816 0.04391-7.2566-1.8528c-5.0757-1.8967-11.099-7.6344-11.242-7.9664-0.1422-0.33223-0.23731-0.8513 0.9488-1.0885 0.9006-0.75822-1.1361-3.2258-2.0374-4.1263-0.90056-0.90116-6.926-11.145-7.0677-11.383-0.14214-0.2373-0.19251-0.4754-0.61899-0.76015-1.3284-0.42717-7.1572 0.62042-7.1572 0.62042s-8.9723-4.411-12.064-13.912c0.0451 1.664-1.5385 3.4808 0 7.3039-4.6778-1.9789-8.6968-5.3533-11.866-13.694-1.8862 4.7438 0 7.7639 0 7.7639s-11.018-3.0807-12.78-13.24c-1.9343 4.5603 0 7.3039 0 7.3039s-17.96-9.3694-47.801-9.5046c-0.36605-0.03359-0.68448-0.15918-1.0019-0.28925zm93.958 36.448c0.81045 0.16372 2.4917 3.7703 3.8078 5.4035 0.0638 0.37274 0.16921 0.60143-0.70287 0.42199-0.0734-0.38318-0.2026-0.49885-0.2026-0.49885s-2.1017-1.2509-2.7472-2.1393c-0.6459-0.88843-0.76065-2.4429-0.44574-3.0322 0.0769-0.13298 0.17488-0.17852 0.29064-0.1551zm-105.53 50.564c3.4146 6.7289 7.7789 12.894 12.92 18.317 3.0975 0.60983 6.2732 1.0015 9.5296 1.0843 29.61 1.5772 50.068 1.8008 74.863 14.656 1.0022 0.5542 1.9614 1.33 2.933 2.0499 2.2623-0.98623 4.4669-2.0775 6.6108-3.267-5.5994-4.447-11.723-8.4271-19.057-11.161 9.7514 1.7065 17.76 4.4223 24.999 7.5092 1.9066-1.2944 3.7519-2.6733 5.532-4.1277-10.941-5.2828-24.681-9.6777-42.366-12.273-11.096-1.6281-25.129-2.8803-39.325-2.9163-15.511 0.20512-27.62-3.7092-36.641-9.8723z" style="fill:#fff;stroke-width:.72044"/><path d="m120.04 131.24v28.732h17.625v-17.616h-11.116v-4.6058h11.116v-6.5104h-12.064zm22.231 0v17.625h11.106v11.106h6.509v-28.732h-6.509v11.116h-4.5975v-11.116zm-15.722 17.625h4.6058v4.5975h-4.6058z" style="color-rendering:auto;color:#000000;dominant-baseline:auto;fill:#fff;font-feature-settings:normal;font-variant-alternates:normal;font-variant-caps:normal;font-variant-east-asian:normal;font-variant-ligatures:normal;font-variant-numeric:normal;font-variant-position:normal;font-variation-settings:normal;image-rendering:auto;inline-size:0;isolation:auto;mix-blend-mode:normal;shape-margin:0;shape-padding:0;shape-rendering:auto;solid-color:#000000;stop-color:#000000;stroke-width:.95251;text-decoration-color:#000000;text-decoration-line:none;text-decoration-style:solid;text-indent:0;text-orientation:mixed;text-transform:none;white-space:normal"/><path d="m114.85 125.96v39.037h27.929v-5.6983h-6e-3v-5.4137h5.4179v5.4137h-4e-3v5.6983h16.814v-5.5588h3e-3v-33.474h-44.456v-4e-3h-5.6983zm5.6983 5.7025h16.527v5.4081h-11.107v5.6983h11.107v16.53h-16.527v-27.637zm22.225 0h5.4179v11.107h5.6983v-11.107h5.4164v27.637h-5.4164v-11.112h-11.116v-16.524zm-16.804 16.524v5.6983h5.6984v-5.6983z" style="color-rendering:auto;color:#000000;dominant-baseline:auto;font-feature-settings:normal;font-variant-alternates:normal;font-variant-caps:normal;font-variant-east-asian:normal;font-variant-ligatures:normal;font-variant-numeric:normal;font-variant-position:normal;font-variation-settings:normal;image-rendering:auto;inline-size:0;isolation:auto;mix-blend-mode:normal;shape-margin:0;shape-padding:0;shape-rendering:auto;solid-color:#000000;stop-color:#000000;stroke-width:.71438;text-decoration-color:#000000;text-decoration-line:none;text-decoration-style:solid;text-indent:0;text-orientation:mixed;text-transform:none;white-space:normal"/></svg>
