<svg height="512" viewBox="0 0 384 384" width="512" xmlns="http://www.w3.org/2000/svg" xmlns:xlink="http://www.w3.org/1999/xlink"><filter id="a" color-interpolation-filters="sRGB" height="1.1804" width="1.1154" x="-.057708" y="-.090224"><feGaussianBlur stdDeviation="7.1958942"/></filter><filter id="b" color-interpolation-filters="sRGB" height="1.1651" width="1.1056" x="-.052785" y="-.082527"><feGaussianBlur stdDeviation="6.5820094"/></filter><filter id="c" color-interpolation-filters="sRGB" height="1.8235" width="1.8235" x="-.41173" y="-.41173"><feGaussianBlur stdDeviation="13.491256"/></filter><rect fill="#0ba05c" fill-opacity=".99608" filter="url(#c)" height="78.641" opacity=".6" rx="12.229" transform="matrix(1.3309 0 0 1.3309 1539.3 13.343)" width="78.641" x="-1006.6" y="49.915"/><rect fill="#d31818" filter="url(#c)" height="78.641" opacity=".6" rx="12.229" transform="matrix(1.3309 0 0 1.3309 1539.3 13.343)" width="78.641" x="-1096.6" y="49.915"/><rect fill="#ffc62f" filter="url(#c)" height="78.641" opacity=".6" rx="12.229" transform="matrix(1.3309 0 0 1.3309 1539.3 13.343)" width="78.641" x="-1006.6" y="139.91"/><rect fill="#357aef" filter="url(#c)" height="78.641" opacity=".6" rx="12.229" transform="matrix(1.3309 0 0 1.3309 1539.3 13.343)" width="78.641" x="-1096.6" y="139.91"/><rect fill="#0ba05c" fill-opacity=".99608" height="104.67" rx="16.276" width="104.67" x="199.56" y="79.776"/><rect fill="#d31818" height="104.67" rx="16.276" width="104.67" x="79.776" y="79.776"/><rect fill="#ffc62f" height="104.67" rx="16.276" width="104.67" x="199.56" y="199.56"/><rect fill="#357aef" height="104.67" rx="16.276" width="104.67" x="79.776" y="199.56"/><g fill-opacity=".99608"><path d="m106.37 214.22v10c0 12.023 9.6786 21.703 21.701 21.703h96.15c12.023-.00001 21.703-9.6805 21.703-21.703v-10c-.00001 12.023-9.6805 21.703-21.703 21.703h-96.15c-12.023-.00001-21.701-9.6805-21.701-21.703zm159.71 0v10c0 12.023 9.6805 21.703 21.703 21.703h96.15c12.023-.00001 21.701-9.6805 21.701-21.703v-10c0 12.023-9.6786 21.703-21.701 21.703h-96.15c-12.023-.00001-21.703-9.6805-21.703-21.703zm-159.71 159.71v10c0 12.023 9.6786 21.701 21.701 21.701h96.15c12.023 0 21.703-9.6786 21.703-21.701v-10c-.00001 12.023-9.6805 21.701-21.703 21.701h-96.15c-12.023 0-21.701-9.6786-21.701-21.701zm159.71 0v10c0 12.023 9.6805 21.701 21.703 21.701h96.15c12.023 0 21.701-9.6786 21.701-21.701v-10c0 12.023-9.6786 21.701-21.701 21.701h-96.15c-12.023 0-21.703-9.6786-21.703-21.701z" filter="url(#a)" opacity=".3" transform="scale(.75)"/><path d="m128.07 106.37c-12.023 0-21.701 9.6786-21.701 21.701v10c0-12.023 9.6786-21.701 21.701-21.701h96.15c12.023 0 21.703 9.6786 21.703 21.701v-10c0-12.023-9.6805-21.701-21.703-21.701zm159.71 0c-12.023 0-21.703 9.6786-21.703 21.701v10c0-12.023 9.6805-21.701 21.703-21.701h96.15c12.023 0 21.701 9.6786 21.701 21.701v-10c0-12.023-9.6786-21.701-21.701-21.701zm-159.71 159.71c-12.023.00001-21.701 9.6805-21.701 21.703v10c0-12.023 9.6786-21.703 21.701-21.703h96.15c12.023 0 21.703 9.6805 21.703 21.703v-10c0-12.023-9.6805-21.703-21.703-21.703zm159.71 0c-12.023.00001-21.703 9.6805-21.703 21.703v10c0-12.023 9.6805-21.703 21.703-21.703h96.15c12.023 0 21.701 9.6805 21.701 21.703v-10c0-12.023-9.6786-21.703-21.701-21.703z" fill="#fff" filter="url(#b)" opacity=".47279" transform="matrix(.75 0 0 .75 0 -1.6513)"/></g></svg>