<svg height="512" viewBox="0 0 384 384" width="512" xmlns="http://www.w3.org/2000/svg" xmlns:xlink="http://www.w3.org/1999/xlink"><linearGradient id="a"><stop offset="0" stop-color="#ccc"/><stop offset="1" stop-color="#999"/></linearGradient><linearGradient id="b"><stop offset="0" stop-color="#ccc"/><stop offset="1" stop-color="#808080"/></linearGradient><linearGradient id="c"><stop offset="0" stop-color="#e6e6e6"/><stop offset="1" stop-color="#808080"/></linearGradient><linearGradient id="d" gradientUnits="userSpaceOnUse" x1="192.761221" x2="192.761221" y1="290.499104" y2="204.071387"><stop offset="0" stop-color="#b8174c"/><stop offset="1" stop-color="#d41919"/></linearGradient><filter id="e" color-interpolation-filters="sRGB" height="1.5102" width="1.1107" x="-.055335" y="-.25512"><feGaussianBlur stdDeviation="6.8986048"/></filter><filter id="f" color-interpolation-filters="sRGB" height="1.2128" width="1.0309" x="-.015462" y="-.10641"><feGaussianBlur stdDeviation="2.8418682"/></filter><filter id="g" color-interpolation-filters="sRGB" height="1.1227" width="1.0194" x="-.009685" y="-.06133"><feGaussianBlur stdDeviation="1.4318783"/></filter><filter id="h" color-interpolation-filters="sRGB" height="1.3641" width="1.0569" x="-.028456" y="-.18204"><feGaussianBlur stdDeviation="5.7271145"/></filter><radialGradient id="i" cx="146.978737" cy="135.69387" gradientUnits="userSpaceOnUse" r="15.131056"><stop offset="0" stop-color="#333"/><stop offset="1"/></radialGradient><linearGradient id="j" gradientUnits="userSpaceOnUse" x1="187.276387" x2="187.276387" y1="239.744299" y2="104.630545"><stop offset="0" stop-color="#fff"/><stop offset="1" stop-color="#4c4f5c"/></linearGradient><filter id="k" color-interpolation-filters="sRGB" height="1.216" width="1.216" x="-.108" y="-.108"><feGaussianBlur stdDeviation="10.098"/></filter><filter id="l" color-interpolation-filters="sRGB" height="1.3712" width="1.2366" x="-.1183" y="-.18559"><feGaussianBlur stdDeviation="1.0974128"/></filter><linearGradient id="m" gradientUnits="userSpaceOnUse" x1="207.943861" x2="208.919379" xlink:href="#c" y1="338.081021" y2="299.844549"/><radialGradient id="n" cx="198.69" cy="270.6" gradientTransform="matrix(3.568 .00000008 .03147 .9666 -508.28 30.237)" gradientUnits="userSpaceOnUse" r="8.3393" xlink:href="#b"/><linearGradient id="o" gradientTransform="matrix(1.2752 0 .055326 1.274 -52.835 -53.159)" gradientUnits="userSpaceOnUse" x1="193.26" x2="193.92" xlink:href="#a" y1="254.04" y2="265.75"/><filter id="p" color-interpolation-filters="sRGB" height="2.7538" width="1.1112" x="-.055609" y="-.87692"><feGaussianBlur stdDeviation=".40637492"/></filter><radialGradient id="q" cx="198.69" cy="270.6" gradientTransform="matrix(3.568 .00000008 .03147 .9666 -474.59 30.237)" gradientUnits="userSpaceOnUse" r="8.3393" xlink:href="#b"/><linearGradient id="r" gradientTransform="matrix(1.2752 0 .055326 1.274 -19.14 -53.159)" gradientUnits="userSpaceOnUse" x1="193.26" x2="193.92" xlink:href="#a" y1="254.04" y2="265.75"/><linearGradient id="s" gradientUnits="userSpaceOnUse" x1="241.638861" x2="242.614379" xlink:href="#c" y1="338.081021" y2="299.844549"/><radialGradient id="t" cx="198.69" cy="270.6" gradientTransform="matrix(-3.568 .00000008 -.03147 .9666 891.74 30.237)" gradientUnits="userSpaceOnUse" r="8.3393" xlink:href="#b"/><linearGradient id="u" gradientTransform="matrix(-1.2752 0 -.055326 1.274 436.29 -53.159)" gradientUnits="userSpaceOnUse" x1="193.26" x2="193.92" xlink:href="#a" y1="254.04" y2="265.75"/><linearGradient id="v" gradientTransform="matrix(-.95639 0 0 .95639 436.29 -53.159)" gradientUnits="userSpaceOnUse" x1="272.67" x2="273.69" xlink:href="#c" y1="409.08" y2="369.1"/><radialGradient id="w" cx="198.69" cy="270.6" gradientTransform="matrix(-3.568 .00000008 -.03147 .9666 858.04 30.237)" gradientUnits="userSpaceOnUse" r="8.3393" xlink:href="#b"/><linearGradient id="x" gradientTransform="matrix(-1.2752 0 -.055326 1.274 402.6 -53.159)" gradientUnits="userSpaceOnUse" x1="193.26" x2="193.92" xlink:href="#a" y1="254.04" y2="265.75"/><linearGradient id="y" gradientTransform="matrix(-.95639 0 0 .95639 402.6 -53.159)" gradientUnits="userSpaceOnUse" x1="272.67" x2="273.69" xlink:href="#c" y1="409.08" y2="369.1"/><filter id="z" color-interpolation-filters="sRGB" height="1.1184" width="1.3558" x="-.17791" y="-.059215"><feGaussianBlur stdDeviation="2.1169886"/></filter><filter id="A" color-interpolation-filters="sRGB" height="1.1184" width="1.426" x="-.21301" y="-.059218"><feGaussianBlur stdDeviation="2.1169886"/></filter><filter id="B" color-interpolation-filters="sRGB" height="1.0402" width="1.0267" x="-.013346" y="-.020111"><feGaussianBlur stdDeviation=".91681487"/></filter><filter id="C" color-interpolation-filters="sRGB" height="1.0613" width="1.0258" x="-.012914" y="-.030654"><feGaussianBlur stdDeviation=".83619907"/></filter><rect fill="url(#d)" filter="url(#k)" height="224.4" rx="41.174" stroke-width=".70974" width="224.4" x="79.798" y="79.798"/><rect fill="url(#d)" height="224.4" rx="41.174" stroke-width=".70974" width="224.4" x="79.798" y="79.798"/><path d="m106.4 340.71v10c0 30.414 24.485 54.898 54.898 54.898h189.41c30.414 0 54.898-24.485 54.898-54.898v-10c0 30.414-24.485 54.898-54.898 54.898h-189.41c-30.414 0-54.898-24.485-54.898-54.898z" filter="url(#e)" opacity=".3" stroke-width=".94632" transform="scale(.75)"/><rect fill="#ccc" height="13.571" rx="3.0542" stroke-width=".95639" width="21.293" x="136.18" y="98.84"/><path d="m-281.87 97.314c-1.7692 0-3.1934 1.4242-3.1934 3.1934v7.8027c0 1.7692 1.4242 3.1953 3.1934 3.1953h15.877c1.7692 0 3.1934-1.4261 3.1934-3.1953v-7.8027c0-1.7692-1.4242-3.1934-3.1934-3.1934zm1.4023 1.2539h13.07c1.4565 0 2.6289 1.1724 2.6289 2.6289v6.4238c0 1.4565-1.1724 2.6289-2.6289 2.6289h-13.07c-1.4565 0-2.6289-1.1724-2.6289-2.6289v-6.4238c0-1.4565 1.1724-2.6289 2.6289-2.6289z" filter="url(#l)" opacity=".50924" transform="matrix(.98513 0 0 .98513 416.68 2.7678)"/><rect fill="#ccc" height="13.571" rx="3.0542" stroke-width=".95639" width="21.293" x="166.89" y="98.84"/><path d="m-281.87 97.314c-1.7692 0-3.1934 1.4242-3.1934 3.1934v7.8027c0 1.7692 1.4242 3.1953 3.1934 3.1953h15.877c1.7692 0 3.1934-1.4261 3.1934-3.1953v-7.8027c0-1.7692-1.4242-3.1934-3.1934-3.1934zm1.4023 1.2539h13.07c1.4565 0 2.6289 1.1724 2.6289 2.6289v6.4238c0 1.4565-1.1724 2.6289-2.6289 2.6289h-13.07c-1.4565 0-2.6289-1.1724-2.6289-2.6289v-6.4238c0-1.4565 1.1724-2.6289 2.6289-2.6289z" filter="url(#l)" opacity=".50924" transform="matrix(.98513 0 0 .98513 447.39 2.7678)"/><rect fill="#ccc" height="13.571" rx="3.0542" stroke-width=".95639" width="21.293" x="196.92" y="98.84"/><path d="m-281.87 97.314c-1.7692 0-3.1934 1.4242-3.1934 3.1934v7.8027c0 1.7692 1.4242 3.1953 3.1934 3.1953h15.877c1.7692 0 3.1934-1.4261 3.1934-3.1953v-7.8027c0-1.7692-1.4242-3.1934-3.1934-3.1934zm1.4023 1.2539h13.07c1.4565 0 2.6289 1.1724 2.6289 2.6289v6.4238c0 1.4565-1.1724 2.6289-2.6289 2.6289h-13.07c-1.4565 0-2.6289-1.1724-2.6289-2.6289v-6.4238c0-1.4565 1.1724-2.6289 2.6289-2.6289z" filter="url(#l)" opacity=".50924" transform="matrix(.98513 0 0 .98513 477.42 2.7678)"/><rect fill="#ccc" height="13.571" rx="3.0542" stroke-width=".95639" width="21.293" x="226.95" y="98.84"/><path d="m-281.87 97.314c-1.7692 0-3.1934 1.4242-3.1934 3.1934v7.8027c0 1.7692 1.4242 3.1953 3.1934 3.1953h15.877c1.7692 0 3.1934-1.4261 3.1934-3.1953v-7.8027c0-1.7692-1.4242-3.1934-3.1934-3.1934zm1.4023 1.2539h13.07c1.4565 0 2.6289 1.1724 2.6289 2.6289v6.4238c0 1.4565-1.1724 2.6289-2.6289 2.6289h-13.07c-1.4565 0-2.6289-1.1724-2.6289-2.6289v-6.4238c0-1.4565 1.1724-2.6289 2.6289-2.6289z" filter="url(#l)" opacity=".50924" transform="matrix(.98513 0 0 .98513 507.45 2.7678)"/><g fill-opacity=".99608"><path d="m133.28 105.59h117.43c12.951 0 22.972 10.433 23.377 23.377l3.7691 120.29c.40559 12.945-9.6668 26.416-22.618 26.416h-126.49c-12.951 0-23.024-13.471-22.618-26.416l3.7691-120.29c.40558-12.945 10.426-23.377 23.377-23.377z" fill="#272a34" stroke-width=".3992"/><path d="m134.49 105.59h115.02c12.685 0 22.5 9.9837 22.898 22.371l3.6917 115.11c.39729 12.388-9.4683 25.279-22.154 25.279h-123.89c-12.685 0-22.551-12.891-22.154-25.279l3.6917-115.11c.39729-12.388 10.212-22.371 22.898-22.371z" fill="#4c4f5c" stroke-width=".38649"/><path d="m133.69 105.59h116.61c12.126 0 21.723 9.7633 21.888 21.888l1.5315 112.63c.16488 12.125-9.051 24.733-21.177 24.733h-121.1c-12.126 0-21.342-12.608-21.177-24.733l1.5315-112.63c.16488-12.125 9.7622-21.888 21.888-21.888z" fill="#272a34" stroke-width=".37377"/></g><path d="m136.53 105.59h110.93c11.535 0 20.598 9.2888 20.822 20.822l2.1334 109.85c.224 11.533-9.2866 20.822-20.822 20.822h-115.2c-11.535 0-21.046-9.2888-20.822-20.822l2.1334-109.85c.22396-11.533 9.2866-20.822 20.822-20.822z" fill="url(#j)" opacity=".1" stroke-width=".35557"/><circle cx="146.99" cy="135.69" fill="url(#i)" opacity=".5" r="15.131" stroke-width=".35557"/><path d="m2132.8 313.54c-1.7762 30.333-27.515 54.096-58.453 54.096h-323.98c-30.929 0-56.664-23.749-58.453-54.07l-.1074 5.5098c-.63 32.436 26.118 58.561 58.56 58.561h323.98c32.442.00001 59.19-26.124 58.56-58.561z" fill="#fff" filter="url(#f)" opacity=".1" transform="matrix(.35557 0 0 .35557 -487.97 122.81)"/><path d="m467.34 297.32-.086 2.7129c-.8381 26.129 19.971 53.32 46.728 53.32h261.33c26.757 0 47.566-27.191 46.728-53.32l-.086-2.7129c-1.6377 24.559-21.517 48.533-46.642 48.533h-261.33c-25.125 0-45.004-23.975-46.642-48.533z" fill="#4c4f5c" fill-opacity=".99608" filter="url(#g)" stroke-width=".81522" transform="matrix(.47409 0 0 .47409 -113.62 102.97)"/><path d="m1670.9 354.42-.037 1.2129c-1.1406 36.406 27.188 74.291 63.611 74.291h355.74c36.424 0 64.752-37.885 63.611-74.291l-.037-1.2129c-1.3377 34.864-28.745 69.504-63.574 69.504h-355.74c-34.829 0-62.237-34.64-63.574-69.504z" fill-opacity=".99608" filter="url(#h)" stroke-width="1.1227" transform="matrix(.35557 0 0 .35557 -487.97 123.52)"/><path d="m145.84 203.28c-6.235-1.3371-10.511-5.7162-12.35-12.647-.40596-1.5304-.46428-2.1269-.4737-4.8444-.009-2.551.0582-3.3948.37926-4.7712 1.4871-6.3746 5.6958-10.852 11.745-12.493 1.2643-.34315 1.9641-.41069 4.1632-.40186 2.3604.009 2.7994.0626 4.1018.49656 1.9164.63857 3.0984 1.3392 4.5505 2.6976l1.192 1.115v-3.5055h8.0213v33.726h-8.0213v-3.3589l-.86587.84083c-1.6124 1.5656-4.0664 2.82-6.3229 3.232-1.472.26877-4.6756.22397-6.1192-.0856zm6.8287-7.1058c3.0804-.80233 5.4442-3.0998 6.4974-6.3151.38339-1.1705.4363-1.6631.42662-3.9792-.0102-2.3633-.0623-2.7979-.49845-4.1018-1.3454-4.0248-4.6809-6.4815-8.7807-6.4672-2.5527.009-4.3271.74731-6.1143 2.5447-3.8348 3.8565-4.1144 10.995-.60347 15.411 2.0562 2.586 5.7561 3.7718 9.0729 2.9079zm23.616-10.385v-16.863h8.0212v2.7668l1.2088-1.1076c1.3761-1.261 2.8864-2.0841 4.4025-2.3994 1.4933-.31055 4.9561-.12343 6.2542.33807.85753.30487 2.1183.87187 2.3179 1.0424.0476.0404-3.0266 6.9949-3.1699 7.1718-.029.0353-.52909-.16971-1.112-.45575-.97031-.47615-1.2292-.52007-3.0652-.52007-1.8238 0-2.0987.0459-3.0372.50676-1.193.58585-2.1277 1.5462-2.8041 2.881-.9387 1.8526-.98838 2.5245-.9918 13.43v10.072h-8.0212zm26.981 0v-16.863h8.0212v2.8931l1.0257-.97769c1.0957-1.0444 2.4572-1.8433 4.0787-2.3932.74901-.25402 1.5331-.34004 3.0992-.34004 2.222 0 3.1558.21203 4.9978 1.1348.85525.42844 3.1551 2.5208 3.5076 3.1912.14398.27391.35533.13335 1.5278-1.0161 2.1956-2.1525 4.5418-3.1402 7.9235-3.3354 5.5679-.32146 10.039 2.8202 11.448 8.0442.58792 2.179.67472 4.1546.67472 15.354v11.171h-8.0212v-10.378c0-6.1631-.0771-10.957-.18997-11.804-.24789-1.8612-1.0467-3.5419-2.0179-4.2454-2.5097-1.818-6.3693-.67659-7.8953 2.3349-.94969 1.8741-1.0172 2.7952-1.0172 13.876v10.217h-8.0212l-.008-9.7987c-.008-12.684-.16176-14.241-1.5873-15.906-2.2408-2.618-6.6172-1.8991-8.4657 1.3906-1.0634 1.8925-1.11 2.4343-1.1954 13.878l-.0779 10.437h-7.8103z" fill="#b3b3b3" stroke-width=".1823"/><text fill="#666" font-family="sans-serif" font-size="14.223" stroke-width=".35557" x="180.9726" y="140.65372"><tspan fill="#666" font-family="'FiraCode Nerd Font'" font-weight="bold" stroke-width=".35557" x="180.9726" y="140.65372">00350179</tspan></text><path d="m137.73 211.37h111.83v7.0141h-111.83z" fill="#b3b3b3" stroke-width=".35866"/><path d="m263.38 334.12c-.19547 0-.38782.0193-.57031.0566-.18245.0375-.35947.0949-.52539.16602-.99853.42881-1.6644 1.4327-1.6133 2.6094l1.5 54.045c-.0552 1.3422.57207 2.5214 1.5742 3.2168.20043.13908.41458.25762.64258.35547.45643.19612.96249.30469 1.5.30469h2.002l3.4629 24.326c.14793 1.0392 1.6224.87289 1.8105 0l5.2441-24.326h2.0781c.53688 0 1.0546-.10713 1.5293-.30274.23679-.0976.46301-.21878.67579-.35742.42639-.27807.80007-.63256 1.0957-1.0449.14781-.20618.27626-.42807.38281-.66016.21311-.46418.33776-.97456.35156-1.5117l-1.9336-54.045c-.0596-1.3721-1.077-2.5115-2.3809-2.7754h-.002c-.18639-.0376-.37809-.0566-.57422-.0566z" filter="url(#A)" opacity=".4" transform="matrix(.95639 0 0 .95639 -52.835 -50.651)"/><path d="m200.56 266.39c-1.5006 0-2.656 1.2081-2.5908 2.7085l.70795 16.309.0115 12.795-.78454 22.583c-.0844 2.0539 1.5008 3.7079 3.5547 3.7079h1.9146l3.3119 23.265c.14148.99386 1.5516.83482 1.7316 0l5.0154-23.265h1.9875c2.0539 0 3.8063-1.653 3.8592-3.7079l.58095-22.583-.2223-12.795-.70795-16.309c-.0652-1.5004-1.3274-2.7085-2.8281-2.7085z" fill="#ccc" stroke-width=".95639"/><path d="m198.68 285.41h20.959l.22195 12.795h-21.17z" fill="url(#n)" stroke-width=".95639"/><path d="m200.56 266.39h15.542c1.5006 0 2.7612 1.2079 2.8263 2.7084l.70828 16.31h-20.959l-.70828-16.31c-.0652-1.5004 1.0905-2.7084 2.5911-2.7084z" fill="url(#o)" stroke-width="1.2117"/><path d="m198.69 298.2-.78453 22.583c-.0844 2.0539 1.5008 3.7079 3.5547 3.7079h1.9146l3.3119 23.265c.14148.99386 1.5516.83482 1.7316 0l5.0154-23.265h1.9875c2.0539 0 3.8063-1.653 3.8592-3.7079l.58093-22.583z" fill="url(#m)" stroke-width=".95638"/><rect fill="#fff" filter="url(#p)" height="1.1122" opacity=".57001" rx=".5561" transform="matrix(1.2381 0 0 .97891 -45.212 28.541)" width="17.539" x="196.82" y="275.07"/><rect fill="#fff" filter="url(#p)" height="1.1122" opacity=".57001" rx=".5561" transform="matrix(1.2381 0 0 .97891 -45.324 15.966)" width="17.539" x="196.82" y="275.07"/><path d="m257.59 334.12c-.19547 0-.38782.0193-.57031.0566-.18245.0375-.35947.0949-.52539.16602-.99853.42881-1.6644 1.4327-1.6133 2.6094l6.2052 54.045c-.0552 1.3422.57207 2.5214 1.5742 3.2168.20043.13908.41458.25762.64258.35547.45643.19612.96249.30469 1.5.30469h2.002l1.286 24.326c.0554 1.0482 1.6224.87289 1.8105 0l7.421-24.326h2.0781c.53688 0 1.0546-.10713 1.5293-.30274.23679-.0976.46301-.21878.67579-.35742.42639-.27807.80007-.63256 1.0957-1.0449.14781-.20618.27626-.42807.38281-.66016.21311-.46418.33776-.97456.35156-1.5117l-6.6388-54.045c-.0596-1.3721-1.077-2.5115-2.3809-2.7754h-.002c-.18639-.0376-.37809-.0566-.57422-.0566z" filter="url(#z)" opacity=".4" transform="matrix(.95639 0 0 .95639 -19.14 -50.651)"/><path d="m233.21 266.39c-1.5006 0-2.656 1.2081-2.5908 2.7085l1.7489 16.309.0115 12.795-1.8255 22.583c-.0844 2.0539 1.5008 3.7079 3.5547 3.7079h1.9146l1.2299 23.265c.053 1.0025 1.4824.81684 1.7316 0l7.0974-23.265h1.9875c2.0539 0 3.8063-1.653 3.8592-3.7079l1.6219-22.583-.2223-12.795-1.7489-16.309c-.0652-1.5004-1.3274-2.7085-2.8281-2.7085z" fill="#ccc" stroke-width=".95639"/><path d="m232.37 285.41h20.959l.22193 12.795h-21.17z" fill="url(#q)" stroke-width=".95639"/><path d="m233.21 266.39h15.542c1.5006 0 2.6662 1.2151 2.8263 2.7084l1.7493 16.31h-20.959l-1.7493-16.31c-.16015-1.4933 1.0905-2.7084 2.5911-2.7084z" fill="url(#r)" stroke-width="1.2117"/><path d="m232.38 298.2-1.8255 22.583c-.0844 2.0539 1.5008 3.7079 3.5547 3.7079h1.9146l1.23 23.265c.053 1.0025 1.4824.81683 1.7316 0l7.0974-23.265h1.9875c2.0539 0 3.8064-1.653 3.8592-3.7079l1.6219-22.583z" fill="url(#s)" stroke-width=".95638"/><rect fill="#fff" filter="url(#p)" height="1.1122" opacity=".57001" rx=".5561" transform="matrix(1.2381 0 0 .97891 -11.517 28.541)" width="17.539" x="196.82" y="275.07"/><rect fill="#fff" filter="url(#p)" height="1.1122" opacity=".57001" rx=".5561" transform="matrix(1.2381 0 0 .97891 -11.629 15.966)" width="17.539" x="196.82" y="275.07"/><path d="m263.38 334.12c-.19547 0-.38782.0193-.57031.0566-.18245.0375-.35947.0949-.52539.16602-.99853.42881-1.6644 1.4327-1.6133 2.6094l1.5 54.045c-.0552 1.3422.57207 2.5214 1.5742 3.2168.20043.13908.41458.25762.64258.35547.45643.19612.96249.30469 1.5.30469h2.002l3.4629 24.326c.14793 1.0392 1.6224.87289 1.8105 0l5.2441-24.326h2.0781c.53688 0 1.0546-.10713 1.5293-.30274.23679-.0976.46301-.21878.67579-.35742.42639-.27807.80007-.63256 1.0957-1.0449.14781-.20618.27626-.42807.38281-.66016.21311-.46418.33776-.97456.35156-1.5117l-1.9336-54.045c-.0596-1.3721-1.077-2.5115-2.3809-2.7754h-.002c-.18639-.0376-.37809-.0566-.57422-.0566z" filter="url(#A)" opacity=".4" transform="matrix(-.95639 0 0 .95639 436.29 -50.651)"/><path d="m182.9 266.39c1.5006 0 2.656 1.2081 2.5909 2.7085l-.70796 16.309-.0115 12.795.78455 22.583c.0844 2.0539-1.5008 3.7079-3.5547 3.7079h-1.9146l-3.3119 23.265c-.14148.99386-1.5516.83482-1.7316 0l-5.0154-23.265h-1.9875c-2.0539 0-3.8063-1.653-3.8592-3.7079l-.58095-22.583.22231-12.795.70794-16.309c.0652-1.5004 1.3274-2.7085 2.8281-2.7085z" fill="#ccc" stroke-width=".95639"/><path d="m184.78 285.41h-20.959l-.22194 12.795h21.17z" fill="url(#t)" stroke-width=".95639"/><path d="m182.9 266.39h-15.542c-1.5006 0-2.7612 1.2079-2.8263 2.7084l-.70829 16.31h20.959l.70829-16.31c.0652-1.5004-1.0905-2.7084-2.5911-2.7084z" fill="url(#u)" stroke-width="1.2117"/><path d="m184.77 298.2.78453 22.583c.0844 2.0539-1.5008 3.7079-3.5547 3.7079h-1.9146l-3.3119 23.265c-.14148.99386-1.5516.83482-1.7316 0l-5.0154-23.265h-1.9875c-2.0539 0-3.8063-1.653-3.8592-3.7079l-.58094-22.583z" fill="url(#v)" stroke-width=".95638"/><rect fill="#fff" filter="url(#p)" height="1.1122" opacity=".57001" rx=".5561" transform="matrix(-1.2381 0 0 .97891 428.67 28.541)" width="17.539" x="196.82" y="275.07"/><rect fill="#fff" filter="url(#p)" height="1.1122" opacity=".57001" rx=".5561" transform="matrix(-1.2381 0 0 .97891 428.78 15.966)" width="17.539" x="196.82" y="275.07"/><path d="m257.59 334.12c-.19547 0-.38782.0193-.57031.0566-.18245.0375-.35947.0949-.52539.16602-.99853.42881-1.6644 1.4327-1.6133 2.6094l6.2052 54.045c-.0552 1.3422.57207 2.5214 1.5742 3.2168.20043.13908.41458.25762.64258.35547.45643.19612.96249.30469 1.5.30469h2.002l1.286 24.326c.0554 1.0482 1.6224.87289 1.8105 0l7.421-24.326h2.0781c.53688 0 1.0546-.10713 1.5293-.30274.23679-.0976.46301-.21878.67579-.35742.42639-.27807.80007-.63256 1.0957-1.0449.14781-.20618.27626-.42807.38281-.66016.21311-.46418.33776-.97456.35156-1.5117l-6.6388-54.045c-.0596-1.3721-1.077-2.5115-2.3809-2.7754h-.002c-.18639-.0376-.37809-.0566-.57422-.0566z" filter="url(#z)" opacity=".4" transform="matrix(-.95639 0 0 .95639 402.6 -50.651)"/><path d="m150.24 266.39c1.5006 0 2.656 1.2081 2.5908 2.7085l-1.7489 16.309-.0115 12.795 1.8255 22.583c.0844 2.0539-1.5008 3.7079-3.5547 3.7079h-1.9146l-1.2299 23.265c-.053 1.0025-1.4824.81684-1.7316 0l-7.0974-23.265h-1.9875c-2.0539 0-3.8063-1.653-3.8592-3.7079l-1.6219-22.583.2223-12.795 1.7489-16.309c.0652-1.5004 1.3274-2.7085 2.8281-2.7085z" fill="#ccc" stroke-width=".95639"/><path d="m151.08 285.41h-20.959l-.22193 12.795h21.17z" fill="url(#w)" stroke-width=".95639"/><path d="m150.24 266.39h-15.542c-1.5006 0-2.6662 1.2151-2.8263 2.7084l-1.7493 16.31h20.959l1.7493-16.31c.16015-1.4933-1.0905-2.7084-2.5911-2.7084z" fill="url(#x)" stroke-width="1.2117"/><path d="m151.07 298.2 1.8255 22.583c.0844 2.0539-1.5008 3.7079-3.5547 3.7079h-1.9146l-1.23 23.265c-.0531 1.0025-1.4824.81683-1.7316 0l-7.0974-23.265h-1.9875c-2.0539 0-3.8063-1.653-3.8592-3.7079l-1.6219-22.583z" fill="url(#y)" stroke-width=".95638"/><rect fill="#fff" filter="url(#p)" height="1.1122" opacity=".57001" rx=".5561" transform="matrix(-1.2381 0 0 .97891 394.97 28.541)" width="17.539" x="196.82" y="275.07"/><rect fill="#fff" filter="url(#p)" height="1.1122" opacity=".57001" rx=".5561" transform="matrix(-1.2381 0 0 .97891 395.09 15.966)" width="17.539" x="196.82" y="275.07"/><path d="m179.6 354.69c-2.2704 0-4.0277 1.8386-4.2656 4.0566l-2.334 21.768-.29687 17.105 2.1621 30.111c.00001.00066-.00002.0013 0 .00196.0786 3.016 2.6385 5.4277 5.6445 5.4277h2.2793l9.3555 30.668c.24088.78961.98473 1.2196 1.7012 1.2617.35822.02104.735-.0567 1.0449-.29297.30991-.23627.517-.63461.54101-1.0879l1.6152-30.549h2.0781c3.0069 0 5.3638-2.4586 5.2402-5.4648v-.00977l-2.4356-30.1.01563-17.014 2.3301-21.721c.24603-2.2941-1.6827-4.1621-3.9531-4.1621h-20.723zm43.539 0c-2.2688 0-4.171 1.8195-4.2695 4.0879l-.94336 21.752-.29687 17.078.77344 30.123c.07754 3.0171 2.6398 5.4297 5.6465 5.4297h2.2461l6.6035 30.627c.17528.81312.92005 1.2723 1.6367 1.3086.35833.01814.73291-.06635 1.0469-.29297.31396-.22663.54367-.60293.60743-1.0508l4.3555-30.592h2.1191c3.0055 0 5.3595-2.4568 5.2383-5.4609v-.0039l-1.0449-30.098.01367-17.041.94336-21.736c.09854-2.2679-1.6843-4.1309-3.9531-4.1309h-20.723zm44.271 0c-2.2688 0-4.0536 1.8626-3.9551 4.1309l.94531 21.736.01368 17.041-1.0449 30.098v.0039c-.12124 3.0041 2.2328 5.4609 5.2383 5.4609h2.1191l4.3555 30.592c.06376.44785.29346.82415.60743 1.0508.31396.22662.68854.31111 1.0469.29297.71667-.03628 1.4614-.49548 1.6367-1.3086l6.6035-30.627h2.2461c3.0067 0 5.567-2.4128 5.6445-5.4297l.78906-30.625h-.02343l-.28711-16.576-.94532-21.752c-.09847-2.2681-1.9987-4.0879-4.2676-4.0879h-20.723zm43.539 0c-2.2704 0-4.1992 1.868-3.9531 4.1621l2.3301 21.721.01368 17.014-2.4336 30.1v.00977c-.12353 3.0062 2.2334 5.4648 5.2402 5.4648h2.0781l1.6152 30.549c.02396.45328.2311.85161.54101 1.0879.30992.23628.6867.31401 1.0449.29297.71646-.04208 1.4603-.47209 1.7012-1.2617l9.3555-30.668h2.2793c3.006 0 5.5659-2.4118 5.6445-5.4277l2.1621-30.113-.29687-17.105-2.334-21.768c-.23789-2.2181-1.9952-4.0566-4.2656-4.0566h-20.723zm-131.35 1h20.723c1.7312 0 3.1381 1.3686 2.957 3.0566l-2.334 21.771-.01563 17.107 2.4356 30.113c.10153 2.4708-1.7701 4.4219-4.2402 4.4219h-3.0273l-1.666 31.494c-.01139.21504-.06881.28844-.14648.34766-.07767.05921-.21231.09974-.38086.08984-.33709-.0198-.71137-.25714-.80273-.55664l-9.5703-31.375h-3.0215c-2.4703 0-4.5812-1.9941-4.6445-4.457v-.00977l-2.1621-30.102.29687-17.016 2.3301-21.725c.18919-1.764 1.5383-3.1621 3.2695-3.1621zm43.539 0h20.723c1.7328 0 3.0284 1.3547 2.9531 3.0879l-.94336 21.756-.01367 17.08 1.0449 30.123v.00196c.10154 2.471-1.7682 4.4219-4.2383 4.4219h-2.9863l-4.4766 31.451c-.03056.21473-.10598.30933-.20507.38086-.0991.07153-.24492.11188-.41016.10352-.33049-.01673-.64627-.21955-.71094-.51953l-6.7715-31.416h-3.0547c-2.4703 0-4.5832-1.9943-4.6465-4.457l-.77344-30.1.29687-17.043.94336-21.74c.07524-1.7328 1.5367-3.1309 3.2695-3.1309zm44.271 0h20.723c1.7328 0 3.1923 1.3978 3.2676 3.1309l.94532 21.74.29492 17.102-.77344 30.041c-.06331 2.4629-2.1742 4.457-4.6445 4.457h-3.0547l-6.7715 31.416c-.06466.29998-.38045.5028-.71094.51953-.16525.00836-.31106-.03199-.41016-.10352-.09909-.07153-.17451-.16614-.20507-.38086l-4.4766-31.451h-2.9863c-2.4701 0-4.3398-1.9508-4.2383-4.4219v-.00196l1.0449-30.123-.01368-17.08-.94531-21.756c-.0753-1.7329 1.2223-3.0879 2.9551-3.0879zm43.539 0h20.723c1.7312 0 3.0803 1.3981 3.2695 3.1621l2.3301 21.725.29687 17.016-2.1621 30.102v.00977c-.0633 2.4629-2.1743 4.457-4.6445 4.457h-3.0215l-9.5703 31.375c-.09137.29948-.46563.53684-.80274.55664-.16856.0099-.3032-.03064-.38086-.08984-.07765-.05921-.13512-.13263-.14648-.34766l-1.666-31.494h-3.0273c-2.4701 0-4.3418-1.9511-4.2402-4.4219l2.4336-30.113-.01368-17.107-2.334-21.771c-.18103-1.688 1.2258-3.0566 2.957-3.0566z" filter="url(#B)" opacity=".39746" transform="scale(.75)"/><path d="m263.97 225.71c-1.153 2.6781-3.4136 7.7574-3.5547 7.9316-.0387.0471-.70517-.22602-1.4824-.60742-1.2938-.63482-1.638-.69336-4.0859-.69336-2.4317 0-2.7994.0613-4.0508.67578-1.5907.78114-2.8364 2.0602-3.7383 3.8398-1.2516 2.47-1.3183 3.3662-1.3223 17.906v2c.005-14.54.0707-15.436 1.3223-17.906.90192-1.7797 2.1476-3.0587 3.7383-3.8398 1.2513-.61448 1.619-.67578 4.0508-.67578 2.448 0 2.7922.0585 4.0859.69336.77725.38139 1.4438.65449 1.4824.60742.19108-.23586 4.29-9.5086 4.2266-9.5625-.0868-.0742-.35207-.21295-.67187-.36914zm-63.561 6.0274c-3.4036.012-5.7694.99806-8.1523 3.3945-2.9364 2.953-4.3006 7.349-4.0508 11.672.21123-3.6441 1.5677-7.1747 4.0508-9.6719 2.3829-2.3965 4.7487-3.3825 8.1523-3.3945 5.4664-.019 9.9132 3.2567 11.707 8.623.53616 1.6028.63318 2.309.65625 4.8652.005-.42157.0102-.83147.008-1.3945-.0136-3.151-.0825-3.7322-.66407-5.4707-1.7939-5.3664-6.2406-8.642-11.707-8.623zm115.19.0586c-2.7443-.0685-5.6128 1.5129-7.0117 4.2734-1.2663 2.4988-1.3555 3.7277-1.3555 18.502v2c0-14.774.0892-16.003 1.3555-18.502 2.0347-4.0154 7.1811-5.5373 10.527-3.1133 1.2949.93798 2.3609 3.1785 2.6914 5.6602.15049 1.1292.25195 7.5208.25195 15.738v-2c0-8.2175-.10146-14.609-.25195-15.738-.33052-2.4816-1.3965-4.7222-2.6914-5.6602-1.0457-.7575-2.2682-1.129-3.5156-1.1602zm-26.225.01c-2.4125.11619-4.8656 1.4995-6.252 3.9668-1.4179 2.5234-1.48 3.2462-1.5938 18.504l-.10547 13.916h-10.412v2h10.412l.10547-13.916c.11377-15.258.17589-15.981 1.5938-18.504 2.4646-4.3863 8.2994-5.3441 11.287-1.8535 1.9008 2.2207 2.1065 4.2967 2.1172 21.209l.01 13.064h10.695v-2h-10.695l-.01-13.064c-.0106-16.912-.21641-18.988-2.1172-21.209-1.3072-1.5272-3.1588-2.2036-5.0352-2.1133zm-112.02 14.586c-.004.42156-.01.80055-.008 1.3164.0126 3.6233.0915 4.4184.63281 6.459 2.4512 9.2409 8.1534 15.081 16.467 16.863 1.9248.41276 6.1956.47164 8.1582.11328 3.0088-.54934 6.2798-2.2211 8.4297-4.3086l1.1562-1.1211v-2l-1.1562 1.1211c-2.1499 2.0875-5.4209 3.7593-8.4297 4.3086-1.9626.3583-6.2334.29948-8.1582-.11328-8.3134-1.7828-14.016-7.6224-16.467-16.863-.50021-1.8856-.60234-2.8026-.625-5.7754zm34.836 21.801v2h10.693v-2h-5.3477zm22.852 0v2h10.695v-2h-5.3476zm87.014 0v2h10.695v-2h-5.3477zm-138.42 20.986v2h149.11v-2z" filter="url(#C)" stroke-width=".24307" transform="matrix(.75 0 0 .75 0 1.0102)"/></svg>