<svg height="512" viewBox="0 0 384 384" width="512" xmlns="http://www.w3.org/2000/svg" xmlns:xlink="http://www.w3.org/1999/xlink"><linearGradient id="a"><stop offset="0" stop-color="#999"/><stop offset="1" stop-color="#e6e6e6"/></linearGradient><linearGradient id="b" gradientUnits="userSpaceOnUse" x1="192.685174" x2="192.685174" xlink:href="#a" y1="280.831739" y2="94.445082"/><filter id="c" color-interpolation-filters="sRGB" height="1.216" width="1.216" x="-.108" y="-.108"><feGaussianBlur stdDeviation="10.098"/></filter><filter id="d" color-interpolation-filters="sRGB" height="1.2488" width="1.054" x="-.026983" y="-.1244"><feGaussianBlur stdDeviation="3.3639114"/></filter><linearGradient id="e" gradientUnits="userSpaceOnUse" x1="192.761221" x2="192.761221" xlink:href="#a" y1="294.999104" y2="208.571387"/><linearGradient id="f" gradientUnits="userSpaceOnUse" x1="192.762442" x2="192.762442" xlink:href="#a" y1="290.723624" y2="83.583878"/><filter id="g" color-interpolation-filters="sRGB" height="1.216" width="1.216" x="-.108" y="-.108"><feGaussianBlur stdDeviation="11.222327"/></filter><linearGradient id="h" gradientUnits="userSpaceOnUse" x1="192.846172" x2="192.846172" xlink:href="#a" y1="301.466281" y2="71.788144"/><filter id="i" color-interpolation-filters="sRGB" height="1.331" width="1.1603" x="-.080153" y="-.1655"><feGaussianBlur stdDeviation="3.7649497"/></filter><filter id="j" color-interpolation-filters="sRGB" height="1.114" width="1.1001" x="-.050044" y="-.056999"><feGaussianBlur stdDeviation="2.40353"/></filter><radialGradient id="k" cx="191.9948" cy="182.9957" gradientUnits="userSpaceOnUse" r="86.476513"><stop offset="0" stop-color="#fff"/><stop offset="1" stop-color="#e6e6e6"/></radialGradient><filter id="l" color-interpolation-filters="sRGB" height="1.216" width="1.216" x="-.108" y="-.108"><feGaussianBlur stdDeviation="6.9870767"/></filter><filter id="m" color-interpolation-filters="sRGB" height="1.384" width="1.384" x="-.192" y="-.192"><feGaussianBlur stdDeviation="20.067549"/></filter><linearGradient id="n"><stop offset="0" stop-color="#23bac2"/><stop offset="1" stop-color="#2777ff"/></linearGradient><linearGradient id="o" gradientTransform="matrix(.59119 0 0 .59119 105.04 111.42)" gradientUnits="userSpaceOnUse" x1="101.97" x2="363.63" xlink:href="#n" y1="67.036" y2="320.19"/><linearGradient id="p" gradientTransform="matrix(.59119 0 0 .59119 105.04 111.42)" gradientUnits="userSpaceOnUse" x1="101.97" x2="363.63" xlink:href="#o" y1="67.036" y2="320.19"/><linearGradient id="q" gradientUnits="userSpaceOnUse" x1="90.723" x2="213.99" xlink:href="#o" y1="60.509" y2="216.04"/><filter id="r" color-interpolation-filters="sRGB" height="1.1951" width="1.2528" x="-.12639" y="-.097532"><feGaussianBlur stdDeviation="7.461736"/></filter><filter id="s" color-interpolation-filters="sRGB" height="1.0938" width="1.0773" x="-.038644" y="-.046896"><feGaussianBlur stdDeviation="3.0420165"/></filter><filter id="t" color-interpolation-filters="sRGB" height="1.1394" width="1.0732" x="-.036598" y="-.069722"><feGaussianBlur stdDeviation="2.8809179"/></filter><filter id="u" color-interpolation-filters="sRGB" height="1.253" width="1.1884" x="-.094221" y="-.1265"><feGaussianBlur stdDeviation=".72294311"/></filter><linearGradient id="v" gradientUnits="userSpaceOnUse" x1="90.723" x2="161.09" xlink:href="#n" y1="60.509" y2="182.38"/><linearGradient id="w" gradientUnits="userSpaceOnUse" x1="192.65" x2="226.29" y1="232.82" y2="147.34"><stop offset="0" stop-color="#b8174c"/><stop offset="1" stop-color="#d41919"/></linearGradient><filter id="x" color-interpolation-filters="sRGB" height="1.4183" width="1.0923" x="-.046129" y="-.20916"><feGaussianBlur stdDeviation="5.1864009"/></filter><rect fill="url(#h)" filter="url(#g)" height="249.39" rx="45.758" stroke-width=".78876" transform="matrix(.90187 0 0 .90187 18.84 18.84)" width="249.39" x="67.305" y="67.305"/><rect fill="url(#f)" height="224.91" rx="41.268" stroke-width=".90187" width="224.91" x="79.541" y="79.541"/><rect fill="url(#e)" filter="url(#c)" height="224.4" rx="41.174" stroke-width=".70974" transform="matrix(.93914 0 0 .93914 11.685 11.518)" width="224.4" x="79.798" y="84.298"/><rect fill="url(#b)" height="202.38" rx="37.134" stroke-width=".90187" width="202.38" x="90.808" y="90.808"/><path d="m170.59 121.08c-27.43 0-49.512 22.082-49.512 49.512v10c0-27.43 22.082-49.512 49.512-49.512h170.82c27.43 0 49.512 22.082 49.512 49.512v-10c0-27.43-22.082-49.512-49.512-49.512z" fill="#fff" filter="url(#x)" stroke-width="1.2025" transform="matrix(.75 0 0 .75 0 -6.3093)"/><path d="m213.81 89.111c0 39.127-41.295 83.216-70.846 112.77-28.283-28.283-70.846-73.641-70.846-112.77 0-39.127 31.719-70.846 70.846-70.846 39.127.000001 70.846 31.719 70.846 70.846z" fill="url(#q)" filter="url(#r)" opacity=".4"/><circle cx="192" cy="186" filter="url(#l)" opacity=".2" r="77.634"/><circle cx="192" cy="183" fill="url(#k)" r="77.634"/><path d="m151.26 142.26c-16.464 16.464-21.399 41.272-12.488 62.783 8.9104 21.511 29.941 35.562 53.225 35.562 23.284-.00001 44.314-14.051 53.225-35.562 8.9104-21.511 4.224-46.571-12.488-62.783-7.9948-7.7556-14.995 2.0404-8.5176 8.5176 13.044 13.044 16.938 32.614 9.8789 49.656-7.0593 17.043-23.651 28.127-42.098 28.127s-35.038-11.084-42.098-28.127c-7.0592-17.043-3.1649-36.612 9.8789-49.656z" fill="url(#w)" filter="url(#j)"/><path d="m151.26 142.26c-16.464 16.464-21.399 41.272-12.488 62.783 8.9104 21.511 29.941 35.562 53.225 35.562 23.284-.00001 44.314-14.051 53.225-35.562 8.9104-21.511 4.224-46.571-12.488-62.783-7.9948-7.7556-14.995 2.0404-8.5176 8.5176 13.044 13.044 16.938 32.614 9.8789 49.656-7.0593 17.043-23.651 28.127-42.098 28.127s-35.038-11.084-42.098-28.127c-7.0592-17.043-3.1649-36.612 9.8789-49.656z" fill="url(#w)"/><path d="m191.96 149.93a33.072 33.072 0 0 0 -33.035 33.074 33.072 33.072 0 0 0 33.072 33.072 33.072 33.072 0 0 0 33.072-33.072 33.072 33.072 0 0 0 -33.072-33.074 33.072 33.072 0 0 0 -.0365 0zm-.19181 14.319a18.755 18.755 0 0 1 .22835 0 18.755 18.755 0 0 1 18.755 18.755 18.755 18.755 0 0 1 -18.755 18.755 18.755 18.755 0 0 1 -18.755-18.755 18.755 18.755 0 0 1 18.526-18.755z" fill="#ccc"/><circle cx="192" cy="183" fill="#ccc" r="11.868"/><circle cx="192" cy="183" fill="#b3b3b3" r="5.4856"/><g fill="#666"><circle cx="166" cy="181.53" opacity=".4" r="2.9503"/><circle cx="217.64" cy="181.53" opacity=".4" r="2.9503"/><circle cx="-207.35" cy="191.82" opacity=".4" r="2.9503" transform="rotate(-90)"/><circle cx="-155.71" cy="191.82" opacity=".4" r="2.9503" transform="rotate(-90)"/><circle cx="-18.545" cy="264" opacity=".4" r="1.4503" transform="matrix(.70710678 -.70710678 .70710678 .70710678 0 0)"/><circle cx="33.094" cy="264" opacity=".4" r="1.4503" transform="matrix(.70710678 -.70710678 .70710678 .70710678 0 0)"/><g transform="matrix(-.70710678 -.70710678 .70710678 -.70710678 0 0)"><circle cx="-289.82" cy="7.2746" opacity=".4" r="1.4503"/><circle cx="-238.18" cy="7.2746" opacity=".4" r="1.4503"/></g></g><path d="m106.4 340.71v10c0 30.414 24.485 54.898 54.898 54.898h189.41c30.414 0 54.898-24.485 54.898-54.898v-10c0 30.414-24.485 54.898-54.898 54.898h-189.41c-30.414 0-54.898-24.485-54.898-54.898z" filter="url(#d)" opacity=".38669" stroke-width=".94632" transform="matrix(.67641 0 0 .67641 18.84 18.84)"/><path d="m119.27 269.32a5.8935 5.8935 0 0 0 .45147-.2377 5.8935 5.8935 0 0 0 .003-.002l103.87-53.797-108.74 43.127a5.8935 5.8935 0 0 0 -.54449.21559 5.8935 5.8935 0 0 0 -2.9184 7.8069 5.8935 5.8935 0 0 0 7.8076 2.9181 5.8935 5.8935 0 0 0 .0667-.0303z" filter="url(#i)" opacity=".4"/><path d="m298.13 283.04-144.98 57.502a7.858 7.858 0 0 0 -.72656.28906 7.858 7.858 0 0 0 -3.8906 10.408 7.858 7.858 0 0 0 10.41 3.8906 7.858 7.858 0 0 0 .08789-.04102h.00195a7.858 7.858 0 0 0 .60157-.3164 7.858 7.858 0 0 0 .0039-.00391l138.5-71.729zm-142.97 62.023a3.2938 3.2938 0 0 1 3.293 3.293 3.2938 3.2938 0 0 1 -3.293 3.2949 3.2938 3.2938 0 0 1 -3.293-3.2949 3.2938 3.2938 0 0 1 3.293-3.293z" fill="#e6e6e6" transform="scale(.75)"/><path d="m213.81 89.111c0 39.127-41.295 83.216-70.846 112.77-28.283-28.283-70.846-73.641-70.846-112.77 0-39.127 31.719-70.846 70.846-70.846 39.127.000001 70.846 31.719 70.846 70.846z" fill="url(#v)"/><path d="m96.307 113.49c-.09795 1.7626-.15234 3.5371-.15234 5.3242 0 52.17 56.753 112.65 94.463 150.36 39.402-39.402 94.461-98.188 94.461-150.36 0-1.7765-.0536-3.5406-.15039-5.293-3.1399 50.968-56.09 107.43-94.311 145.65-36.589-36.589-91.101-94.611-94.311-145.68z" filter="url(#s)" opacity=".3" transform="matrix(.75 0 0 .75 0 3)"/><path d="m190.62 24.354c-52.17.000001-94.463 42.291-94.463 94.461 0 1.5514.05396 3.1105.15234 4.6758 2.7615-49.692 43.928-89.137 94.311-89.137 50.393.000001 91.565 39.461 94.311 89.168.097-1.5748.15039-3.1434.15039-4.707 0-52.17-42.291-94.461-94.461-94.461z" fill="#fff" filter="url(#t)" opacity=".4" transform="matrix(.75 0 0 .75 0 -2.9982)"/><circle cx="282.31" cy="262.76" fill="url(#p)" filter="url(#m)" opacity=".59533" r="125.42" stroke-width=".55744" transform="matrix(.51097 0 0 .51097 -2.7725 -45.3)"/><path d="m12.145 5.2026c-.37846-.12017-.8525-.25043-1.1752-.25043-.36492 0-.52692-.038047-.84021-.19719-.27651-.14059-.42859-.26484-.52136-.43609-.092749-.17121-.13182-.40994-.13182-.78642v-.69002l-.59791-.2348c-1.7368-.68179-3.511-.91035-6.8389-.88961-.47268.00233-.82748.00464-1.0776.00695-.25011.00233-.3868.00464-.45686.011599-.008769.0006264-.016518.00185-.027315.00464-.005522.00123-.011414.00184-.021552.00464-.010138.00233-.024062.00185-.056837.033638-.016379.01624-.040329.048258-.04315.09303-.003063.044545.018281.083054.034434.10161.032226.037118.047449.036191.057761.040135.020624.00695.027254.00695.03591.00928.034434.00695.072215.00928.13413.013919.12384.00928.32504.020879.59403.037583 3.1858.19093 5.1644.49529 6.8116 1.0419l.14592.048483-.61706.023663c-2.8516.10975-4.9941.31321-6.8594.65264-.56457.10277-.90035.1668-1.0963.2139-.097978.023664-.15786.039438-.21322.067975-.027684.013919-.064432.028766-.091385.091639-.013432.031319-.015659.076094-.004917.10857.010486.032478.027438.052664.041185.06635.034251.034335.053034.034335.065525.037583.012528.00464.020322.00464.027375.00464.014175.00184.025043.00184.037198.00184.024368.0002321.052606-.0006029.087543-.00233.069816-.00464.16473-.011606.28013-.023205.2308-.023201.54239-.057537.88101-.10092 1.7761-.22665 3.4424-.37643 4.8477-.43602.64205-.027144 1.5198-.023198 2.2336.00233.078111.00233.1227.00695.19638.011599-1.4916.24402-3.9122 1.0315-5.435 1.7845-.44042.21784-.87255.46105-1.189.66174-.15823.10045-.28688.1893-.37751.26343-.0453.037119-.080748.068902-.11086.10741-.015033.018559-.030507.039438-.041248.077254-.010741.037815-.003681.11391.039223.15706.052052.051965.086592.04199.10356.04199.017006-.0000928.025658-.00185.0337-.00464.016031-.00233.027314-.00695.04045-.011599.026211-.00928.056838-.020879.095119-.035726.07648-.03085.18136-.076551.30916-.13385.2556-.11484.60178-.27727.97858-.45999 2.1995-.98298 4.0605-1.6934 6.6956-1.8036.037814.079574.084051.18258.13418.30131l.2293.52552c-2.19 1.3846-1.5016 4.5734.91524 4.9777.31801.05196.68009.08306 1.0966.09953 1.2668.05035 1.7229.17422 2.5645.69608.63213.39188 1.1814.96709 1.6143 1.6957.17149.28869.3802.76236.54208 1.2047.08095.22109.15068.43532.19961.61493.04893.17956.07544.33003.07563.39628.000221.08167.01025.1559.032.22132.0109.03272.02387.06379.04897.09605.02504.03224.07361.074.14307.074.04603 0 .09298-.02506.11771-.05057.02472-.02575.03542-.04942.04334-.07076.016-.04245.02042-.0805.0235-.12435.0062-.08769.0012-.19673-.0109-.32586-.02499-.25842-.08254-.59321-.16492-.92394-.27766-1.1145-1.0076-2.2668-1.9196-3.052 1.1862.39362 2.1466 1.2827 2.499 2.3185.01833.05359.03928.09859.07848.14059.01948.02088.0445.04477.09194.0573.04744.0116.12064-.007.15648-.04222.0716-.07169.05826-.132.05474-.1842-.0037-.0522-.01462-.10648-.03076-.16796-.03223-.12319-.08577-.27289-.1521-.43313-.13264-.32052-.31315-.6772-.48362-.90875-.63401-.86126-1.9756-1.5697-3.4865-1.8802-.36034-.074007-1.1772-.19882-1.8526-.19882-.04915 0-.70826-.055445-.94685-.076094-2.4033-.20996-2.2418-3.6609.21448-3.6609.34918 0 .56517.01624.88846.10881.3233.09303.7549.26723 1.5011.58375.32548.13803.50908.22434.60242.28825.09335.064031.10166.085838.12931.17887.03364.11321.04057.27377.13808.36485.09753.091173.50736.2299.68906.33077.30984.18142.46695.29092.73742.64451.28797-.37158.40968-.38241.75097-.49615-.50894-.056837-1.1842-.57368-.83974-.62841-.31116-.27895-.38189-.7692-.53328-.85351-.03517-.030159-.07477-.051505-.1157-.06867l-.62368-.063093c-.67024-.39643-1.6431-.88156-2.1335-1.0388zm2.7855.99604c0-.051505-.01507-.071455-.02576-.090478-.01067-.018559-.02204-.034335-.03449-.050344-.02522-.032015-.05635-.065423-.09419-.10347-.85509-.81212-1.9149-1.4368-3.0113-1.8223-.08119-.028303-.14748-.048485-.2068-.058463-.02965-.00464-.05592-.00928-.0983-.00233-.02111.00464-.04971.011599-.0805.037583-.03081.026678-.05297.077951-.05297.11623 0 .051966.01786.07099.02688.083517.0088.011599.01507.018559.02042.023431.01067.00928.01764.01624.02535.020879.01531.011599.0313.020879.05119.033407.03971.024126.09335.054287.15917.090246.85379.4088 1.528.68244 2.2089 1.2424.23287.17028.29203.35413.56027.39534z" filter="url(#u)" opacity=".5" stroke-width=".028101" transform="matrix(9.0217 0 0 9.0217 42.248 25.599)"/><path d="m88.156 47.682c-2.3603-.008434-4.7892-.005828-7.291.009765-5.6858.027894-9.9542.055931-12.963.083985-3.0086.027893-4.6533.054834-5.4961.13867-.10537.0076-.19825.023334-.32812.056641-.06632.0148-.13781.021221-.25977.054688-.12211.027893-.28936.023938-.68359.40625-.19708.19531-.48364.58059-.51758 1.1191-.03688.53582.21976.99744.41406 1.2207.38763.44647.56931.43693.69336.48438.24809.08368.32949.083435.43359.11133.41421.083679.86864.10998 1.6133.16602 1.4896.11157 3.909.25219 7.1445.45312 38.322 2.2967 62.121 5.9579 81.936 12.533l1.7559.58203-7.4238.28516c-34.302 1.3202-60.072 3.7687-82.51 7.8516-6.7911 1.2362-10.83 2.0057-13.188 2.5723-1.1785.28464-1.8986.47511-2.5645.81836-.33299.16761-.7754.34528-1.0996 1.1016-.16162.37671-.18781.91597-.058594 1.3066.12613.39067.3307.63226.49609.79688.41199.413.63686.41404.78711.45312.15078.055627.24527.054688.33008.054688.1705.02216.30109.023437.44727.023437.29311.0028.63251-.008603 1.0527-.029296.83981-.055627 1.981-.13963 3.3691-.2793 2.7761-.27908 6.5245-.69105 10.598-1.2129 21.364-2.7264 41.408-4.5273 58.312-5.2441 7.723-.3265 18.279-.2796 26.865.027344.93956.027893 1.477.082888 2.3633.13867-17.941 2.9356-47.059 12.407-65.377 21.465-5.2978 2.6204-10.495 5.5468-14.301 7.9609-1.9034 1.2083-3.4509 2.2765-4.541 3.168-.54489.44647-.97175.82973-1.334 1.293-.18085.22324-.36689.47285-.49609.92774-.12939.45485-.04344 1.3715.47266 1.8906.62613.62507 1.042.50391 1.2461.50391.20455-.00112.30756-.02138.4043-.05469.19276-.02789.32835-.08289.48633-.13867.3153-.11157.68407-.25305 1.1445-.43164.91995-.37119 2.1814-.92008 3.7188-1.6094 3.0744-1.3816 7.2391-3.3354 11.771-5.5332 26.458-11.824 48.844-20.368 80.539-21.693.45485.95717 1.0102 2.1948 1.6133 3.623l2.7578 6.3223c-26.343 16.655-18.062 55.011 11.01 59.875 3.8253.62503 8.1798.99914 13.189 1.1973 15.238.60564 20.726 2.0958 30.85 8.373 7.6037 4.7139 14.211 11.632 19.418 20.396 2.0628 3.4725 4.5723 9.171 6.5195 14.492.97378 2.6594 1.8118 5.236 2.4004 7.3965.58838 2.1598.90783 3.9687.91016 4.7656.00267.98245.12385 1.877.38477 2.6641.13173.3936.28797.76644.58984 1.1543.30109.38786.88548.89062 1.7207.89062.55368 0 1.1188-.30271 1.416-.60937.29737-.30978.42634-.59284.52148-.84961.19324-.51059.24421-.96862.28125-1.4961.0744-1.0548.01528-2.3668-.13086-3.9199-.30061-3.1085-.99356-7.1352-1.9844-11.113-3.3399-13.406-12.12-27.268-23.09-36.713 14.268 4.7346 25.82 15.429 30.059 27.889.2205.64463.47166 1.1861.94336 1.6914.23429.25103.5367.53852 1.1074.68945.57041.13947 1.4499-.08505 1.8809-.50781.86126-.8622.70065-1.5889.6582-2.2168-.04493-.62805-.17513-1.2799-.36914-2.0195-.38756-1.4817-1.0323-3.2835-1.8301-5.2109-1.5955-3.8554-3.7658-8.1444-5.8164-10.93-7.6253-10.36-23.764-18.881-41.938-22.617-4.3344-.89021-14.161-2.3906-22.283-2.3906-.59117 0-8.5187-.66764-11.389-.91601-28.909-2.5256-26.966-44.037 2.5801-44.037 4.2002 0 6.7988.19511 10.688 1.3086 3.8889 1.119 9.0793 3.2143 18.055 7.0215 3.9151 1.6604 6.1232 2.7 7.2461 3.4688 1.123.77021 1.2241 1.0314 1.5566 2.1504.40475 1.3618.4871 3.2931 1.6602 4.3887 1.1732 1.0967 6.1034 2.7652 8.2891 3.9785 3.727 2.1822 5.6158 3.5006 8.8691 7.7539 3.4638-4.4697 4.9278-4.6008 9.0332-5.9688-6.1218-.68367-14.243-6.9003-10.1-7.5586-3.7429-3.3554-4.5951-9.2535-6.416-10.268-.4232-.36276-.89847-.61777-1.3906-.82422l-7.502-.75977c-8.0621-4.7684-19.765-10.605-25.664-12.496l-.00586.023438c-4.5524-1.4455-10.254-3.0117-14.135-3.0117-4.3896 0-6.3389-.45676-10.107-2.3711-3.326-1.6911-5.1558-3.1862-6.2715-5.2461-1.1157-2.0594-1.5859-4.9304-1.5859-9.459v-8.3008l-7.1914-2.8242c-19.586-7.6884-39.566-10.584-74.971-10.711zm106.67 28.279c-.18731-.010481-.39346-.004731-.64844.037109-.25383.055627-.59839.14051-.96875.45312-.37067.32091-.63672.93802-.63672 1.3984 0 .62508.21559.85321.32422 1.0039.10693.13946.18195.22264.24609.28125.12867.11157.21202.1961.30469.25195.18317.13946.37597.25164.61523.40234.47774.29021 1.1224.65146 1.9141 1.084 10.27 4.9173 18.381 8.2094 26.572 14.945 2.8011 2.0483 3.5117 4.2603 6.7383 4.7559l6.6406 1.0137c0-.61954-.18224-.85906-.31055-1.0879-.12867-.22323-.26422-.41288-.41406-.60547-.30325-.38509-.67755-.78845-1.1328-1.2461-10.286-9.7687-23.034-17.282-36.223-21.918-.97656-.34046-1.7727-.58309-2.4863-.70312-.17828-.027814-.34785-.055926-.53515-.066406zm40.141 30.131c.70969.14299 2.1819 3.3006 3.334 4.7305.05586.3263.14823.52425-.61524.36718-.06427-.33543-.17578-.43164-.17578-.43164s-1.8432-1.0972-2.4082-1.875c-.56542-.77775-.66432-2.1384-.38868-2.6543.06714-.11641.15253-.15715.25391-.13672z" fill="#fff" transform="scale(.75)"/></svg>