<svg height="512" viewBox="0 0 384 384" width="512" xmlns="http://www.w3.org/2000/svg" xmlns:xlink="http://www.w3.org/1999/xlink"><linearGradient id="a"><stop offset="0" stop-opacity=".37054"/><stop offset="1" stop-opacity="0"/></linearGradient><linearGradient id="b"><stop offset="0" stop-color="#1b3f7c"/><stop offset="1" stop-color="#23bac2"/></linearGradient><linearGradient id="c"><stop offset="0" stop-color="#4aaee6"/><stop offset="1" stop-color="#72a2f4"/></linearGradient><linearGradient id="d"><stop offset="0" stop-color="#367bf0"/><stop offset="1" stop-color="#4aaee6"/></linearGradient><linearGradient id="e"><stop offset="0" stop-color="#80c6ed"/><stop offset="1" stop-color="#fff"/></linearGradient><linearGradient id="f" gradientUnits="userSpaceOnUse" x1="234.60919" x2="268.420642" xlink:href="#e" y1="139.975525" y2="81.837602"/><linearGradient id="g" gradientUnits="userSpaceOnUse" x1="157.688" x2="157.688" xlink:href="#e" y1="195.79044" y2="143.229"/><linearGradient id="h" gradientUnits="userSpaceOnUse" x1="192.761221" x2="192.761221" xlink:href="#d" y1="290.499104" y2="204.071387"/><filter id="i" color-interpolation-filters="sRGB" height="2.0172" width="1.626" x="-.31299" y="-.5086"><feGaussianBlur stdDeviation="25.268432"/></filter><filter id="j" color-interpolation-filters="sRGB" height="2.2777" width="1.7043" x="-.35217" y="-.63883"><feGaussianBlur stdDeviation="25.938101"/></filter><linearGradient id="k" gradientUnits="userSpaceOnUse" x1="192.761221" x2="192.761221" xlink:href="#d" y1="294.999104" y2="208.571387"/><filter id="l" color-interpolation-filters="sRGB" height="1.216" width="1.216" x="-.108" y="-.108"><feGaussianBlur stdDeviation="10.098213"/></filter><filter id="m" color-interpolation-filters="sRGB" height="1.5102" width="1.1107" x="-.055335" y="-.25512"><feGaussianBlur stdDeviation="6.8986048"/></filter><filter id="n" color-interpolation-filters="sRGB" height="1.4682" width="1.096" x="-.048016" y="-.23408"><feGaussianBlur stdDeviation="6.9872312"/></filter><filter id="o" color-interpolation-filters="sRGB" height="1.5623" width="1.1367" x="-.068345" y="-.28116"><feGaussianBlur stdDeviation="6.8050109"/></filter><filter id="p" color-interpolation-filters="sRGB" height="1.2828" width="1.1747" x="-.087373" y="-.14138"><feGaussianBlur stdDeviation="1.3576786"/></filter><linearGradient id="q" gradientUnits="userSpaceOnUse" x1="430.02" x2="430.02" xlink:href="#c" y1="385.99" y2="359.86"/><filter id="r" color-interpolation-filters="sRGB" height="1.6091" width="1.2108" x="-.10539" y="-.30456"><feGaussianBlur stdDeviation="2.3744343"/></filter><linearGradient id="s" gradientUnits="userSpaceOnUse" x1="430.16646" x2="430.16646" xlink:href="#c" y1="400.99" y2="374.86"/><linearGradient id="t" gradientUnits="userSpaceOnUse" x1="430.16637" x2="430.16637" xlink:href="#c" y1="415.99" y2="389.86"/><linearGradient id="u" gradientUnits="userSpaceOnUse" x1="175.16" x2="187.93" y1="157.21" y2="208.25"><stop offset="0" stop-color="#20a8af"/><stop offset=".46557" stop-color="#20a8af"/><stop offset=".5644" stop-color="#65cfd4"/><stop offset=".64526" stop-color="#65cfd4"/><stop offset=".77277" stop-color="#39c1c8"/><stop offset="1" stop-color="#39c1c8"/></linearGradient><filter id="v" color-interpolation-filters="sRGB" height="1.1128" width="1.2249" x="-.11244" y="-.05638"><feGaussianBlur stdDeviation="1.0244995"/></filter><filter id="w" color-interpolation-filters="sRGB" height="1.0668" width="1.1873" x="-.093652" y="-.033386"><feGaussianBlur stdDeviation=".85331689"/></filter><radialGradient id="x" cx="172.061186" cy="161.141609" gradientUnits="userSpaceOnUse" r="9.978638" xlink:href="#b"/><filter id="y" color-interpolation-filters="sRGB" height="1.0669" width="1.2307" x="-.11535" y="-.033435"><feGaussianBlur stdDeviation=".93995081"/></filter><filter id="z" color-interpolation-filters="sRGB" height="1.0429" width="1.2158" x="-.1079" y="-.021448"><feGaussianBlur stdDeviation=".61177702"/></filter><filter id="A" color-interpolation-filters="sRGB" height="1.1144" width="1.0606" x="-.030283" y="-.057209"><feGaussianBlur stdDeviation=".43218538"/></filter><filter id="B" color-interpolation-filters="sRGB" height="1.1314" width="1.0696" x="-.034778" y="-.065708"><feGaussianBlur stdDeviation=".49634101"/></filter><filter id="C" color-interpolation-filters="sRGB" height="1.2145" width="1.6435" x="-.32177" y="-.10725"><feGaussianBlur stdDeviation="1.9224736"/></filter><filter id="D" color-interpolation-filters="sRGB" height="1.2106" width="1.3077" x="-.15384" y="-.10532"><feGaussianBlur stdDeviation="3.9104507"/></filter><linearGradient id="E" gradientUnits="userSpaceOnUse" x1="199.19" x2="217.93" y1="159.05" y2="208.25"><stop offset="0" stop-color="#20a8af"/><stop offset=".43761" stop-color="#20a8af"/><stop offset=".5644" stop-color="#65cfd4"/><stop offset=".64526" stop-color="#65cfd4"/><stop offset=".77277" stop-color="#39c1c8"/><stop offset="1" stop-color="#39c1c8"/></linearGradient><linearGradient id="F" gradientUnits="userSpaceOnUse" x1="239.09" x2="211.29" xlink:href="#a" y1="234.22" y2="234.22"/><linearGradient id="G" gradientUnits="userSpaceOnUse" x1="164.084" x2="136.284" xlink:href="#a" y1="234.222143" y2="234.222143"/><radialGradient id="H" cx="244.061186" cy="161.141609" gradientUnits="userSpaceOnUse" r="9.978638" xlink:href="#b"/><rect fill="url(#k)" filter="url(#l)" height="224.4" rx="41.174" stroke-width=".70974" width="224.4" x="79.798" y="84.298"/><rect fill="url(#h)" height="224.4" rx="41.174" stroke-width=".70974" width="224.4" x="79.798" y="79.798"/><g stroke-width=".80792"><path d="m236.52 80.455c-18.178.01257-34.855 10.09-43.323 26.176-3.7873-1.2972-7.7611-1.9662-11.763-1.9788-20.227 0-36.625 16.399-36.625 36.625s16.399 36.623 36.625 36.623h103.23c20.384 0 36.907-16.525 36.907-36.907 0-20.384-16.522-36.91-36.907-36.91-2.0073.006-4.0112.17359-5.9902.50496-8.793-14.934-24.823-24.112-42.152-24.134z" fill="#4aaee6" filter="url(#j)"/><path d="m236.51 80.462c-18.178.01257-34.856 10.09-43.324 26.177-3.7873-1.2972-7.7596-1.967-11.762-1.9797-18.162 0-33.229 13.225-36.119 30.568-.00074.006-.002.0123-.003.0184-.0681.41036-.12658.82368-.18095 1.2385-.0192.14531-.0377.29085-.0553.43667-.0424.35664-.0817.71412-.11377 1.0738-.0232.25358-.0406.50887-.0585.76398-.0193.2826-.0413.5641-.0542.84845-.022.46927-.0323.94121-.0357 1.4152-.00062.0882-.007.17498-.007.2633 0 1.2196.0634 2.4247.17988 3.6137.004.0434.005.0877.01.13111.0626.61592.14029 1.2269.23297 1.8334.0926.60616.19984 1.2071.32182 1.8031.00007.00034-.00007.00074 0 .00074.12192.59567.25912 1.1858.40958 1.7706.00009.00033-.00008.00074 0 .00074.15049.58474.31477 1.1639.49303 1.737.71346 2.2939 1.6461 4.4904 2.7739 6.5664.28193.51892.57614 1.0298.88204 1.5333 2.1413 3.524 4.8602 6.6574 8.0259 9.2701.90438.74637 1.8452 1.4505 2.8194 2.1086 1.4614.98722 2.9975 1.8714 4.5987 2.6428.00029.00014.00074-.00014.00074 0 1.0671.51413 2.1638.97849 3.2854 1.3891 1.1218.41075 2.269.76842 3.4392 1.0695.58513.15052 1.1756.28655 1.7716.4085.00034.00007.00074-.00007.00074 0 1.7878.36576 3.6236.60183 5.4958.69676.62425.0317 1.2522.0477 1.8844.0477h103.23c1.274 0 2.5322-.0647 3.773-.19071s2.4633-.31327 3.6646-.55911c1.802-.36876 3.5562-.86887 5.252-1.4899 1.6958-.62097 3.3332-1.3625 4.902-2.2149 1.5688-.85229 3.0693-1.8151 4.4904-2.8779.94706-.70834 1.8591-1.4618 2.7328-2.256.43693-.39715.86443-.80481 1.2818-1.2222 1.252-1.2522 2.4158-2.5938 3.4782-4.0146.00017-.00025-.00018-.00074 0-.00074 1.0627-1.421 2.0247-2.9203 2.8768-4.4892.47962-.88292.91636-1.7929 1.3241-2.7176.0751-.17035.15818-.33652.2308-.5082.00013-.00031-.00013-.00074 0-.00074.2333-.55163.45303-1.1102.65986-1.6752.00012-.00032-.00011-.00074 0-.00074.82775-2.2607 1.4416-4.625 1.815-7.068.00004-.00035-.00006-.00074 0-.00074.18661-1.2214.31329-2.4622.37708-3.7199.00002-.00036-.00003-.00073 0-.00074.0319-.62902.0476-1.2615.0476-1.8984 0-.57099-.0158-1.138-.0422-1.7023-.0118-.25914-.0328-.51595-.0499-.77367-.0195-.28664-.039-.57336-.065-.85821-.0306-.34119-.0675-.68012-.10728-1.0185-.0193-.16215-.0394-.32391-.0607-.48543-.0526-.40139-.10909-.80126-.17446-1.1985-.001-.008-.002-.0152-.003-.0228-2.8912-17.5-18.085-30.851-36.404-30.851-2.0073.006-4.011.17356-5.9901.50494-8.793-14.934-24.822-24.112-42.152-24.133h-.003z" fill="#fff"/><path d="m236.52 80.455c-18.178.01257-34.855 10.09-43.323 26.176-3.7873-1.2972-7.7611-1.9662-11.763-1.9788-20.227 0-36.625 16.399-36.625 36.625s16.399 36.623 36.625 36.623h103.23c20.384 0 36.907-16.525 36.907-36.907 0-20.384-16.522-36.91-36.907-36.91-2.0073.006-4.0112.17359-5.9902.50496-8.793-14.934-24.823-24.112-42.152-24.134z" fill="url(#f)" opacity=".3"/></g><path d="m366.48 114.85c-3.9083 23.656-24.447 41.705-49.213 41.705h-139.56c-24.552 0-44.92-17.875-48.826-41.319-.44424 2.6662-.68638 5.4011-.68638 8.1934 0 27.344 22.168 49.509 49.512 49.509h139.56c27.557 0 49.893-22.341 49.893-49.895 0-2.792-.23923-5.5263-.67999-8.1934z" fill="#80c6ed" filter="url(#o)" opacity=".56098" stroke-width="1.0922" transform="matrix(.73971 0 0 .73971 49.975 49.975)"/><g stroke-width=".55479"><path d="m185.02 88.584c-19.406.02315-37.022 11.343-45.107 28.984-5.2558-2.7096-11.082-4.1309-16.996-4.1436-19.601.0232-35.832 15.224-37.135 34.781-.04136-.001-.0843-.002-.12569-.003-13.719 0-24.84 11.122-24.84 24.84v9.9358c0 13.719 11.122 24.84 24.84 24.84h139.11a29.809 29.809 0 0 0 29.809-29.809v-9.9358a29.809 29.809 0 0 0 -19.96-28.1c.0381-.56832.0678-1.1383.0867-1.7077 0-27.438-22.242-49.681-49.681-49.681v-.0022z" fill="#4aaee6" filter="url(#i)"/><path d="m185.02 88.584c-3.6386.0044-7.2144.40552-10.676 1.1713-1.1539.25527-2.2952.55132-3.4219.8864-4.5067 1.3401-8.7804 3.3084-12.701 5.8275-.98004.62973-1.9375 1.2943-2.8714 1.9916-2.3348 1.7434-4.52 3.6935-6.5254 5.833-.00018.00018.00018.00074 0 .00074-1.2029 1.2834-2.3415 2.6343-3.4089 4.0493-.00017.00023.00017.00074 0 .00074-1.0673 1.4151-2.0641 2.8934-2.9831 4.4318-.00016.00026.00016.00074 0 .00074-.3062.51262-.60517 1.0313-.89395 1.5571-.00015.00027.00016.00074 0 .00074-.5777 1.0517-1.1202 2.13-1.6254 3.2322-.32879-.16949-.65942-.33363-.99255-.49302-.33283-.15926-.66752-.31358-1.0045-.46268-.67385-.2982-1.3558-.57603-2.0447-.83329-1.0333-.38584-2.0817-.7251-3.1434-1.0175-1.4157-.38979-2.8543-.69636-4.3072-.91672-.72683-.11021-1.4566-.19839-2.1899-.26547-.36649-.0335-.73315-.0618-1.1009-.0845-.73548-.0453-1.4735-.0689-2.2126-.0704-.61254.00072-1.2213.0166-1.8269.0466-1.2112.0601-2.4085.17771-3.5877.35107-4.1269.60683-8.0414 1.8916-11.621 3.7404-1.0229.52826-2.0187 1.1029-2.9842 1.7207-4.3444 2.78-8.0799 6.44-10.948 10.738-.6375.95526-1.2323 1.9414-1.7814 2.9571-.27456.50784-.53744 1.0232-.78883 1.5452-1.0056 2.0879-1.8235 4.2866-2.4305 6.5742-.15172.57188-.28998 1.1489-.41501 1.7315-.25005 1.1653-.44606 2.3516-.58513 3.5562-.06953.60233-.12505 1.2092-.16578 1.8204-.04136-.001-.0843-.002-.12569-.003-.42872 0-.85518.011-1.2786.0325-1.2702.0643-2.5147.22426-3.7275.47243-.80851.16545-1.6028.37029-2.3806.61221-.66802.20777-1.3209.44841-1.9634.70974-1.3742.55884-2.6861 1.2371-3.9246 2.0219-.87974.5575-1.7255 1.1632-2.5258 1.8236-.61343.50624-1.2021 1.0418-1.7641 1.6037-.56196.56189-1.0974 1.1506-1.6037 1.7641-.25312.30672-.49948.61959-.73792.93841-.23842.31881-.46919.64266-.69237.97302-2.2323 3.304-3.6902 7.1734-4.1143 11.349-.0424.41753-.07389.83787-.09536 1.2612-.0215.42374-.03251.84949-.03251 1.2786v9.9358c0 .8574.04305 1.7048.12786 2.5399.0424.41754.09538.83166.1582 1.2429.06286.41152.13608.81871.21888 1.2233.08272.40427.17528.80481.27739 1.2017.10218.39719.21376.78971.33482 1.179.12096.38892.25078.77352.39008 1.154.000117.00033-.000118.00074 0 .00074.13921.38014.28835.75569.44534 1.1269.15724.37181.32278.73864.49736 1.1009.17442.36199.35708.71856.54828 1.0706.000153.00028-.000154.00074 0 .00074.19107.35169.39082.69798.59812 1.0392.20761.34172.42243.67817.64583 1.0088.2232.33039.45398.65421.69237.97302.000177.00024-.000176.00074 0 .00074.23826.31858.48497.63079.73792.9373.000181.00021-.000181.00073 0 .00073.50607.61321 1.042 1.2012 1.6037 1.763.56205.56211 1.1504 1.0973 1.7641 1.6037.92013.75932 1.8949 1.4537 2.9191 2.0761.000261.00016.000814-.00015.0011 0 .34119.20729.68854.40708 1.0402.59812 1.0559.57359 2.158 1.073 3.2995 1.491.76094.27861 1.5392.5207 2.3329.72488 1.9842.51054 4.0641.78232 6.2075.78232h139.1a29.809 29.809 0 0 0 .3424-.002 29.809 29.809 0 0 0 1.7077-.0683 29.809 29.809 0 0 0 .68155-.0553 29.809 29.809 0 0 0 .6805-.0704 29.809 29.809 0 0 0 .33915-.0412 29.809 29.809 0 0 0 .33916-.0445 29.809 29.809 0 0 0 .33808-.0487 29.809 29.809 0 0 0 .67617-.10945 29.809 29.809 0 0 0 1.0066-.19288 29.809 29.809 0 0 0 .33482-.0726 29.809 29.809 0 0 0 .6653-.15495 29.809 29.809 0 0 0 .66313-.17121 29.809 29.809 0 0 0 .32941-.091 29.809 29.809 0 0 0 .98167-.29581 29.809 29.809 0 0 0 .97199-.3294 29.809 29.809 0 0 0 .32074-.11703 29.809 29.809 0 0 0 .32073-.12136 29.809 29.809 0 0 0 .31748-.12461 29.809 29.809 0 0 0 .31748-.12786 29.809 29.809 0 0 0 .31532-.1322 29.809 29.809 0 0 0 .31424-.13544 29.809 29.809 0 0 0 .31207-.1387 29.809 29.809 0 0 0 .31206-.14303 29.809 29.809 0 0 0 .61548-.29581 29.809 29.809 0 0 0 .61005-.3099 29.809 29.809 0 0 0 1.491-.83544 29.809 29.809 0 0 0 1.4422-.91887 29.809 29.809 0 0 0 .83765-.59051 29.809 29.809 0 0 0 .54828-.41068 29.809 29.809 0 0 0 .26981-.20913 29.809 29.809 0 0 0 .79637-.64688 29.809 29.809 0 0 0 .77256-.67395 29.809 29.809 0 0 0 .25355-.2308 29.809 29.809 0 0 0 .49628-.47027 29.809 29.809 0 0 0 .24489-.23839 29.809 29.809 0 0 0 .24163-.24271 29.809 29.809 0 0 0 .70863-.74112 29.809 29.809 0 0 0 .90371-1.0272 29.809 29.809 0 0 0 .43343-.52878 29.809 29.809 0 0 0 .21237-.26764 29.809 29.809 0 0 0 .41609-.54287 29.809 29.809 0 0 0 .79319-1.115 29.809 29.809 0 0 0 .37709-.56994 29.809 29.809 0 0 0 .36407-.57864 29.809 29.809 0 0 0 .17662-.29256 29.809 29.809 0 0 0 .83433-1.4932 29.809 29.809 0 0 0 .6046-1.2266 29.809 29.809 0 0 0 .41609-.93722 29.809 29.809 0 0 0 .26006-.63279 29.809 29.809 0 0 0 .24488-.63822 29.809 29.809 0 0 0 .22972-.64472 29.809 29.809 0 0 0 .21563-.64904 29.809 29.809 0 0 0 .38575-1.3122 29.809 29.809 0 0 0 .17012-.66209 29.809 29.809 0 0 0 .15495-.6664 29.809 29.809 0 0 0 .13979-.66857 29.809 29.809 0 0 0 0-.00074 29.809 29.809 0 0 0 .0639-.33483 29.809 29.809 0 0 0 0-.00074 29.809 29.809 0 0 0 .0607-.3359 29.809 29.809 0 0 0 .27956-2.0328 29.809 29.809 0 0 0 .0618-.6805 29.809 29.809 0 0 0 .0466-.68267 29.809 29.809 0 0 0 .0173-.34133 29.809 29.809 0 0 0 .0303-1.3425v-9.9358a29.809 29.809 0 0 0 -.002-.34241 29.809 29.809 0 0 0 -.007-.34132 29.809 29.809 0 0 0 -.01-.3424 29.809 29.809 0 0 0 -.0141-.34025 29.809 29.809 0 0 0 0-.00074 29.809 29.809 0 0 0 -.0184-.34133 29.809 29.809 0 0 0 -.0476-.68266 29.809 29.809 0 0 0 -.002-.0271 29.809 29.809 0 0 0 -.0953-.95897 29.809 29.809 0 0 0 -.003-.0347 29.809 29.809 0 0 0 -.004-.0368 29.809 29.809 0 0 0 -.1322-.97953 29.809 29.809 0 0 0 -.0531-.33806 29.809 29.809 0 0 0 -.009-.0477 29.809 29.809 0 0 0 -.0997-.57432 29.809 29.809 0 0 0 -.01-.052 29.809 29.809 0 0 0 -.0109-.0531 29.809 29.809 0 0 0 -.11052-.56022 29.809 29.809 0 0 0 -.0119-.0574 29.809 29.809 0 0 0 -.013-.0585 29.809 29.809 0 0 0 -.12136-.54611 29.809 29.809 0 0 0 -.014-.0629 29.809 29.809 0 0 0 -.0802-.33157 29.809 29.809 0 0 0 0-.00074 29.809 29.809 0 0 0 -.0834-.33049 29.809 29.809 0 0 0 -.0878-.33156 29.809 29.809 0 0 0 -.0249-.091 29.809 29.809 0 0 0 -.2308-.79423 29.809 29.809 0 0 0 -.0303-.0997 29.809 29.809 0 0 0 -.0325-.10186 29.809 29.809 0 0 0 -.14195-.44209 29.809 29.809 0 0 0 -.0347-.10727 29.809 29.809 0 0 0 -.0282-.0813 29.809 29.809 0 0 0 -.31315-.88529 29.809 29.809 0 0 0 -.12136-.31965 29.809 29.809 0 0 0 -.21671-.54395 29.809 29.809 0 0 0 -.0368-.0921 29.809 29.809 0 0 0 -.1322-.31423 29.809 29.809 0 0 0 0-.00074 29.809 29.809 0 0 0 -.0412-.0943 29.809 29.809 0 0 0 -.23405-.53095 29.809 29.809 0 0 0 -.28931-.61981 29.809 29.809 0 0 0 -.7271-1.413 29.809 29.809 0 0 0 -.0585-.1062 29.809 29.809 0 0 0 -.0607-.10618 29.809 29.809 0 0 0 -.27739-.48761 29.809 29.809 0 0 0 -.35217-.58729 29.809 29.809 0 0 0 -.74326-1.1475 29.809 29.809 0 0 0 -.39117-.56128 29.809 29.809 0 0 0 -.20046-.27632 29.809 29.809 0 0 0 -.20371-.27521 29.809 29.809 0 0 0 -.62957-.8094 29.809 29.809 0 0 0 -.88203-1.0457 29.809 29.809 0 0 0 -.69238-.75636 29.809 29.809 0 0 0 -.47568-.49085 29.809 29.809 0 0 0 -.00074-.00074 29.809 29.809 0 0 0 -.24164-.24056 29.809 29.809 0 0 0 -.37166-.35973 29.809 29.809 0 0 0 -.12028-.11487 29.809 29.809 0 0 0 -.00074 0 29.809 29.809 0 0 0 -.24922-.23296 29.809 29.809 0 0 0 -.00074 0 29.809 29.809 0 0 0 -.12027-.10944 29.809 29.809 0 0 0 -.38792-.34783 29.809 29.809 0 0 0 -.25898-.22429 29.809 29.809 0 0 0 -.26005-.22105 29.809 29.809 0 0 0 -.26331-.21888 29.809 29.809 0 0 0 -.26547-.21455 29.809 29.809 0 0 0 -.26872-.21238 29.809 29.809 0 0 0 -.26981-.20913 29.809 29.809 0 0 0 -.00074 0 29.809 29.809 0 0 0 -.27198-.20587 29.809 29.809 0 0 0 -.00074 0 29.809 29.809 0 0 0 -.27414-.20263 29.809 29.809 0 0 0 -.00074 0 29.809 29.809 0 0 0 -.27631-.19938 29.809 29.809 0 0 0 -.00074 0 29.809 29.809 0 0 0 -.27957-.19612 29.809 29.809 0 0 0 -.28281-.19396 29.809 29.809 0 0 0 -.28389-.18962 29.809 29.809 0 0 0 -.28715-.18638 29.809 29.809 0 0 0 -.28715-.18313 29.809 29.809 0 0 0 -.00074 0 29.809 29.809 0 0 0 -.17986-.1116 29.809 29.809 0 0 0 -.11161-.0693 29.809 29.809 0 0 0 -.29148-.17553 29.809 29.809 0 0 0 -.00074-.00074 29.809 29.809 0 0 0 -.29364-.17229 29.809 29.809 0 0 0 -.00074 0 29.809 29.809 0 0 0 -.29582-.17013 29.809 29.809 0 0 0 -.00074 0 29.809 29.809 0 0 0 -.29799-.16686 29.809 29.809 0 0 0 -.30123-.16254 29.809 29.809 0 0 0 -.30123-.16036 29.809 29.809 0 0 0 -.00074 0 29.809 29.809 0 0 0 -.3034-.15604 29.809 29.809 0 0 0 -.00074 0 29.809 29.809 0 0 0 -.30448-.15278 29.809 29.809 0 0 0 -.00074 0 29.809 29.809 0 0 0 -.30665-.14845 29.809 29.809 0 0 0 -.00074 0 29.809 29.809 0 0 0 -.1452-.0683 29.809 29.809 0 0 0 -.1647-.078 29.809 29.809 0 0 0 -.30989-.14195 29.809 29.809 0 0 0 -.00074 0 29.809 29.809 0 0 0 -.31099-.13761 29.809 29.809 0 0 0 -.00074 0 29.809 29.809 0 0 0 -.31423-.13545 29.809 29.809 0 0 0 -.3164-.13111 29.809 29.809 0 0 0 -.3164-.12786 29.809 29.809 0 0 0 -.00074 0 29.809 29.809 0 0 0 -.31749-.12353 29.809 29.809 0 0 0 -.00074 0 29.809 29.809 0 0 0 -.31857-.12028 29.809 29.809 0 0 0 -.00074 0 29.809 29.809 0 0 0 -.32073-.11593 29.809 29.809 0 0 0 -.00074 0 29.809 29.809 0 0 0 -.1517-.0542c.0381-.56832.0678-1.1383.0867-1.7077 0-.42836-.005-.85607-.0163-1.2819 0-.00036.00001-.00072 0-.00074-.0432-1.7044-.17178-3.3874-.3825-5.0452-.0527-.41406-.11061-.82663-.17337-1.2375-.00005-.00036.00006-.00074 0-.00074-.0627-.41081-.13094-.82027-.20371-1.2277-.00006-.00035.00007-.00073 0-.00074-.0728-.40743-.15032-.81294-.23297-1.2168-.00007-.00034.00008-.00073 0-.00074-.33083-1.6167-.74067-3.2047-1.2244-4.7601-.0001-.00033.0001-.00074 0-.00074-.12086-.38858-.247-.77499-.37709-1.1594-.0001-.00033.00011-.00074 0-.00074-.78106-2.3082-1.7278-4.5403-2.8248-6.6824-.00015-.00028.00015-.00074 0-.00074-.36562-.71379-.74778-1.4175-1.1464-2.1108-.00015-.00028.00016-.00074 0-.00074-.39879-.69354-.8142-1.376-1.245-2.048-.21524-.33572-.4347-.6689-.65776-.99906-.00017-.00024.00017-.00074 0-.00074-.66946-.99092-1.3745-1.956-2.1119-2.8942-.00017-.00023.00018-.00074 0-.00074-.4915-.62542-.99773-1.2381-1.518-1.8389-.00017-.0002.00017-.00074 0-.00074-.2601-.30026-.52497-.59678-.79209-.89069-.00018-.0002.00018-.00074 0-.00074-.53459-.58818-1.0829-1.1631-1.6448-1.725-.56189-.56194-1.1369-1.1102-1.725-1.6448-.58815-.5346-1.1896-1.0552-1.8031-1.5614-.30671-.25312-.61581-.50291-.92864-.74874-.49362-.38791-.99772-.76405-1.5061-1.1334-.13576-.09862-.26955-.19962-.40634-.2969-.00024-.000171-.00074.000177-.00074 0-.97369-.69242-1.9731-1.3509-2.9971-1.9731-.00027-.000156-.00074.000162-.00074 0-.12686-.07707-.256-.1505-.38359-.22646-.4361-.25966-.87626-.51303-1.3209-.75954-.12529-.06946-.24895-.14179-.37491-.21021-.00028-.000155-.00074.000155-.00074 0-.70369-.38226-1.4174-.74889-2.1412-1.0977-.0003-.00014-.00074.000141-.00074 0-.3617-.17428-.72572-.34465-1.0923-.51037-.00029-.000133-.00074.000141-.00074 0-.36649-.1657-.73514-.32735-1.1063-.48435-.00031-.000133-.00074.000133-.00074 0-.74268-.31412-1.4943-.61109-2.2549-.88958-.00033-.000118-.00074.000118-.00074 0-1.5216-.55712-3.0777-1.0426-4.6648-1.4509-.00034-.000089-.00074.000081-.00074 0-.39651-.10202-.7949-.19907-1.1952-.29148-.00035-.000089-.00074.000074-.00074 0-.0715-.0165-.14398-.0304-.21563-.0466-.73092-.16529-1.4666-.317-2.2094-.44968-.81516-.14561-1.6377-.27175-2.4662-.37708-.00036-.000045-.00074.000044-.00074 0-.0471-.0059-.0948-.01036-.14195-.01627-1.6119-.20021-3.2471-.32429-4.9031-.36625-.42612-.0108-.85319-.01627-1.2819-.01627v-.0022z" fill="#fff"/><path d="m185.02 88.584c-19.406.02315-37.022 11.343-45.107 28.984-5.2558-2.7096-11.082-4.1309-16.996-4.1436-19.601.0232-35.832 15.224-37.135 34.781-.04136-.001-.0843-.002-.12569-.003-13.719 0-24.84 11.122-24.84 24.84v9.9358c0 13.719 11.122 24.84 24.84 24.84h139.11a29.809 29.809 0 0 0 29.809-29.809v-9.9358a29.809 29.809 0 0 0 -19.96-28.1c.0381-.56832.0678-1.1383.0867-1.7077 0-27.438-22.242-49.681-49.681-49.681v-.0022z" fill="url(#g)" opacity=".2"/></g><path d="m370.25 349.83a53.73 53.73 0 0 1 -53.73 53.73h-250.74c-24.729 0-44.775-20.047-44.775-44.775v17.91c0 24.729 20.047 44.775 44.775 44.775h250.74a53.73 53.73 0 0 0 53.73-53.73z" fill="#80c6ed" filter="url(#n)" opacity=".62318" transform="matrix(.55479 0 0 .55479 49.166 -26.004)"/><path d="m207.96 181.61a17.297 27.987 89.917 0 0 -27.998 17.297 17.297 27.987 89.917 0 0 -.0002.0439l-.004 2.0142a17.297 27.987 89.917 0 0 -.00064.0132 17.297 27.987 89.917 0 0 .00072.0117l-.0195 8.2705a17.297 27.987 89.917 0 0 1.373 5.376 17.297 27.987 89.917 0 0 -1.1947 4.9761h-.20362l-.0239 10.352a17.297 27.987 89.917 0 0 1.2712 5.1753 17.297 27.987 89.917 0 0 -1.2951 5.1768 17.297 27.987 89.917 0 0 -.0003.0425l-.0236 10.31a17.297 27.987 89.917 0 0 2.8624 7.6406 15.907 25.738 89.917 0 0 25.078 12.407 15.907 25.738 89.917 0 0 25.134-12.406 17.297 27.987 89.917 0 0 2.8987-7.6421l.0153-6.2095a17.297 27.987 89.917 0 0 .20707-2.0728 17.297 27.987 89.917 0 0 -.0489-1.0268 17.297 27.987 89.917 0 0 .054-1.043 17.297 27.987 89.917 0 0 -1.3745-5.376 17.297 27.987 89.917 0 0 1.1962-4.9761l.0141-6.2051a17.297 27.987 89.917 0 0 .20688-2.0757 17.297 27.987 89.917 0 0 -.0481-1.0371 17.297 27.987 89.917 0 0 .0531-1.0342 17.297 27.987 89.917 0 0 -1.3745-5.376 17.297 27.987 89.917 0 0 1.1962-4.9761l.0199-8.2632a17.297 27.987 89.917 0 0 .00029-.019l.005-2.0698a17.297 27.987 89.917 0 1 -.00009-.001 17.297 27.987 89.917 0 0 -27.947-17.297 17.297 27.987 89.917 0 0 -.0293 0z" fill="#0f2751" filter="url(#D)" opacity=".78922" stroke-width=".95201" transform="matrix(1.0171 0 .091104 .75899 -100.95 65.469)"/><path d="m106.4 340.71v10c0 30.414 24.485 54.898 54.898 54.898h189.41c30.414 0 54.898-24.485 54.898-54.898v-10c0 30.414-24.485 54.898-54.898 54.898h-189.41c-30.414 0-54.898-24.485-54.898-54.898z" filter="url(#m)" opacity=".3" stroke-width=".94632" transform="scale(.75)"/><path d="m207.96 181.61a17.297 27.987 89.917 0 0 -27.998 17.297 17.297 27.987 89.917 0 0 -.0002.0439l-.004 2.0142a17.297 27.987 89.917 0 0 -.00064.0132 17.297 27.987 89.917 0 0 .00072.0117l-.0195 8.2705a17.297 27.987 89.917 0 0 1.373 5.376 17.297 27.987 89.917 0 0 -1.1947 4.9761h-.20362l-.0239 10.352a17.297 27.987 89.917 0 0 1.2712 5.1753 17.297 27.987 89.917 0 0 -1.2951 5.1768 17.297 27.987 89.917 0 0 -.0003.0425l-.0236 10.31a17.297 27.987 89.917 0 0 2.8624 7.6406 15.907 25.738 89.917 0 0 25.078 12.407 15.907 25.738 89.917 0 0 25.134-12.406 17.297 27.987 89.917 0 0 2.8987-7.6421l.0153-6.2095a17.297 27.987 89.917 0 0 .20707-2.0728 17.297 27.987 89.917 0 0 -.0489-1.0268 17.297 27.987 89.917 0 0 .054-1.043 17.297 27.987 89.917 0 0 -1.3745-5.376 17.297 27.987 89.917 0 0 1.1962-4.9761l.0141-6.2051a17.297 27.987 89.917 0 0 .20688-2.0757 17.297 27.987 89.917 0 0 -.0481-1.0371 17.297 27.987 89.917 0 0 .0531-1.0342 17.297 27.987 89.917 0 0 -1.3745-5.376 17.297 27.987 89.917 0 0 1.1962-4.9761l.0199-8.2632a17.297 27.987 89.917 0 0 .00029-.019l.005-2.0698a17.297 27.987 89.917 0 1 -.00009-.001 17.297 27.987 89.917 0 0 -27.947-17.297 17.297 27.987 89.917 0 0 -.0293 0z" fill="#0f2751" filter="url(#D)" opacity=".78922" stroke-width=".95201" transform="matrix(1.0171 0 .091104 .75899 -26.297 65.469)"/><g transform="matrix(1.3803 0 -.088717 1.3803 -347.99 -310.38)"><path d="m430.02 400.99a18.647 11.524 0 0 0 -14.756 4.6273h-3.7072v6.8972a18.647 11.524 0 0 0 18.647 11.523 18.647 11.524 0 0 0 18.647-11.523v-6.8972h-3.7086a18.647 11.524 0 0 0 -14.938-4.6273 18.647 11.524 0 0 0 -.18321 0z" filter="url(#p)" opacity=".3" stroke-width=".68972"/><path d="m450.48 402.01a20.276 12.531 0 0 1 -20.276 12.531 20.276 12.531 0 0 1 -20.276-12.531 20.276 12.531 0 0 1 20.276-12.531 20.276 12.531 0 0 1 20.276 12.531z" fill="#4aaee6" stroke-width=".75"/><path d="m430 396.98a20.276 12.531 0 0 0 -16.046 5.0317h-4.0312v7.5a20.276 12.531 0 0 0 20.276 12.53 20.276 12.531 0 0 0 20.276-12.53v-7.5h-4.0327a20.276 12.531 0 0 0 -16.244-5.0317 20.276 12.531 0 0 0 -.19922 0z" fill="#0f2751" stroke-width=".75"/><path d="m430.02 385.99a18.647 11.524 0 0 0 -14.756 4.6273h-3.7072v6.8972a18.647 11.524 0 0 0 18.647 11.523 18.647 11.524 0 0 0 18.647-11.523v-6.8972h-3.7086a18.647 11.524 0 0 0 -14.938-4.6273 18.647 11.524 0 0 0 -.18321 0z" filter="url(#p)" opacity=".3" stroke-width=".68972"/><path d="m450.63 402.01a20.276 12.531 0 0 1 -20.276 12.531 20.276 12.531 0 0 1 -20.276-12.531 20.276 12.531 0 0 1 20.276-12.531 20.276 12.531 0 0 1 20.276 12.531z" fill="url(#t)" stroke-width=".75"/><path d="m430 381.98a20.276 12.531 0 0 0 -16.046 5.0317h-4.0312v7.5a20.276 12.531 0 0 0 20.276 12.53 20.276 12.531 0 0 0 20.276-12.53v-7.5h-4.0327a20.276 12.531 0 0 0 -16.244-5.0317 20.276 12.531 0 0 0 -.19922 0z" fill="#0f2751" stroke-width=".75"/><path d="m546.77 494.01a27.035 16.709 0 0 0 -.19531 2.002 27.035 16.709 0 0 0 27.035 16.709 27.035 16.709 0 0 0 27.035-16.709 27.035 16.709 0 0 0 -.19531-2 27.035 16.709 0 0 1 -26.84 14.709 27.035 16.709 0 0 1 -26.84-14.711z" fill="#367bf0" filter="url(#r)" transform="matrix(.75 0 0 .75 .14637 31.5)"/><path d="m450.63 387.01a20.276 12.531 0 0 1 -20.276 12.531 20.276 12.531 0 0 1 -20.276-12.531 20.276 12.531 0 0 1 20.276-12.531 20.276 12.531 0 0 1 20.276 12.531z" fill="url(#s)" stroke-width=".75"/><path d="m546.77 494.01a27.035 16.709 0 0 0 -.19531 2.002 27.035 16.709 0 0 0 27.035 16.709 27.035 16.709 0 0 0 27.035-16.709 27.035 16.709 0 0 0 -.19531-2 27.035 16.709 0 0 1 -26.84 14.709 27.035 16.709 0 0 1 -26.84-14.711z" fill="#367bf0" filter="url(#r)" transform="matrix(.75 0 0 .75 .14646 16.5)"/><path d="m430.02 370.99a18.647 11.524 0 0 0 -14.756 4.6273h-3.7072v6.8972a18.647 11.524 0 0 0 18.647 11.523 18.647 11.524 0 0 0 18.647-11.523v-6.8972h-3.7086a18.647 11.524 0 0 0 -14.938-4.6273 18.647 11.524 0 0 0 -.18321 0z" filter="url(#p)" opacity=".3" stroke-width=".68972"/><path d="m430 366.98a20.276 12.531 0 0 0 -16.046 5.0317h-4.0312v7.5a20.276 12.531 0 0 0 20.276 12.53 20.276 12.531 0 0 0 20.276-12.53v-7.5h-4.0327a20.276 12.531 0 0 0 -16.244-5.0317 20.276 12.531 0 0 0 -.19922 0z" fill="#0f2751" stroke-width=".75"/><path d="m450.48 372.01a20.276 12.531 0 0 1 -20.276 12.531 20.276 12.531 0 0 1 -20.276-12.531 20.276 12.531 0 0 1 20.276-12.531 20.276 12.531 0 0 1 20.276 12.531z" fill="url(#q)" stroke-width=".75"/><path d="m546.77 494.01a27.035 16.709 0 0 0 -.19531 2.002 27.035 16.709 0 0 0 27.035 16.709 27.035 16.709 0 0 0 27.035-16.709 27.035 16.709 0 0 0 -.19531-2 27.035 16.709 0 0 1 -26.84 14.709 27.035 16.709 0 0 1 -26.84-14.711z" fill="#367bf0" filter="url(#r)" transform="matrix(.75 0 0 .75 0 1.5)"/></g><g transform="matrix(1.3803 0 -.088717 1.3803 -422.99 -310.38)"><path d="m430.02 400.99a18.647 11.524 0 0 0 -14.756 4.6273h-3.7072v6.8972a18.647 11.524 0 0 0 18.647 11.523 18.647 11.524 0 0 0 18.647-11.523v-6.8972h-3.7086a18.647 11.524 0 0 0 -14.938-4.6273 18.647 11.524 0 0 0 -.18321 0z" filter="url(#p)" opacity=".3" stroke-width=".68972"/><path d="m450.48 402.01a20.276 12.531 0 0 1 -20.276 12.531 20.276 12.531 0 0 1 -20.276-12.531 20.276 12.531 0 0 1 20.276-12.531 20.276 12.531 0 0 1 20.276 12.531z" fill="#4aaee6" stroke-width=".75"/><path d="m430 396.98a20.276 12.531 0 0 0 -16.046 5.0317h-4.0312v7.5a20.276 12.531 0 0 0 20.276 12.53 20.276 12.531 0 0 0 20.276-12.53v-7.5h-4.0327a20.276 12.531 0 0 0 -16.244-5.0317 20.276 12.531 0 0 0 -.19922 0z" fill="#0f2751" stroke-width=".75"/><path d="m430.02 385.99a18.647 11.524 0 0 0 -14.756 4.6273h-3.7072v6.8972a18.647 11.524 0 0 0 18.647 11.523 18.647 11.524 0 0 0 18.647-11.523v-6.8972h-3.7086a18.647 11.524 0 0 0 -14.938-4.6273 18.647 11.524 0 0 0 -.18321 0z" filter="url(#p)" opacity=".3" stroke-width=".68972"/><path d="m450.63 402.01a20.276 12.531 0 0 1 -20.276 12.531 20.276 12.531 0 0 1 -20.276-12.531 20.276 12.531 0 0 1 20.276-12.531 20.276 12.531 0 0 1 20.276 12.531z" fill="url(#t)" stroke-width=".75"/><path d="m430 381.98a20.276 12.531 0 0 0 -16.046 5.0317h-4.0312v7.5a20.276 12.531 0 0 0 20.276 12.53 20.276 12.531 0 0 0 20.276-12.53v-7.5h-4.0327a20.276 12.531 0 0 0 -16.244-5.0317 20.276 12.531 0 0 0 -.19922 0z" fill="#0f2751" stroke-width=".75"/><path d="m546.77 494.01a27.035 16.709 0 0 0 -.19531 2.002 27.035 16.709 0 0 0 27.035 16.709 27.035 16.709 0 0 0 27.035-16.709 27.035 16.709 0 0 0 -.19531-2 27.035 16.709 0 0 1 -26.84 14.709 27.035 16.709 0 0 1 -26.84-14.711z" fill="#367bf0" filter="url(#r)" transform="matrix(.75 0 0 .75 .14637 31.5)"/><path d="m450.63 387.01a20.276 12.531 0 0 1 -20.276 12.531 20.276 12.531 0 0 1 -20.276-12.531 20.276 12.531 0 0 1 20.276-12.531 20.276 12.531 0 0 1 20.276 12.531z" fill="url(#s)" stroke-width=".75"/><path d="m546.77 494.01a27.035 16.709 0 0 0 -.19531 2.002 27.035 16.709 0 0 0 27.035 16.709 27.035 16.709 0 0 0 27.035-16.709 27.035 16.709 0 0 0 -.19531-2 27.035 16.709 0 0 1 -26.84 14.709 27.035 16.709 0 0 1 -26.84-14.711z" fill="#367bf0" filter="url(#r)" transform="matrix(.75 0 0 .75 .14646 16.5)"/><path d="m430.02 370.99a18.647 11.524 0 0 0 -14.756 4.6273h-3.7072v6.8972a18.647 11.524 0 0 0 18.647 11.523 18.647 11.524 0 0 0 18.647-11.523v-6.8972h-3.7086a18.647 11.524 0 0 0 -14.938-4.6273 18.647 11.524 0 0 0 -.18321 0z" filter="url(#p)" opacity=".3" stroke-width=".68972"/><path d="m430 366.98a20.276 12.531 0 0 0 -16.046 5.0317h-4.0312v7.5a20.276 12.531 0 0 0 20.276 12.53 20.276 12.531 0 0 0 20.276-12.53v-7.5h-4.0327a20.276 12.531 0 0 0 -16.244-5.0317 20.276 12.531 0 0 0 -.19922 0z" fill="#0f2751" stroke-width=".75"/><path d="m450.48 372.01a20.276 12.531 0 0 1 -20.276 12.531 20.276 12.531 0 0 1 -20.276-12.531 20.276 12.531 0 0 1 20.276-12.531 20.276 12.531 0 0 1 20.276 12.531z" fill="url(#q)" stroke-width=".75"/><path d="m546.77 494.01a27.035 16.709 0 0 0 -.19531 2.002 27.035 16.709 0 0 0 27.035 16.709 27.035 16.709 0 0 0 27.035-16.709 27.035 16.709 0 0 0 -.19531-2 27.035 16.709 0 0 1 -26.84 14.709 27.035 16.709 0 0 1 -26.84-14.711z" fill="#367bf0" filter="url(#r)" transform="matrix(.75 0 0 .75 0 1.5)"/></g><path d="m213.93 185.81a17.275 28.023 87.735 0 0 -29.099 17.297 17.275 28.023 87.735 0 0 0 .003h-.007l-.66503 10.352a17.275 28.023 87.735 0 0 1.0459 5.3848 17.275 28.023 87.735 0 0 -1.4971 4.9658 17.275 28.023 87.735 0 1 0 .001h-.21386l-.66504 10.352a17.275 28.023 87.735 0 0 .95215 5.1826 17.275 28.023 87.735 0 0 -1.6113 5.168 17.275 28.023 87.735 0 1 0 .001h-.007l-.66504 10.354a17.275 28.023 87.735 0 0 26.875 17.294 17.275 28.023 87.735 0 0 29.099-17.294l.3955-6.1538a17.276 28.023 87.734 0 0 .3501-2.1328 17.276 28.023 87.734 0 0 .0161-1.0254 17.275 28.023 87.735 0 0 .11719-1.043 17.275 28.023 87.735 0 0 -1.0459-5.3877 17.275 28.023 87.735 0 0 1.4971-4.9629l.39404-6.1465a17.276 28.023 87.734 0 0 .35302-2.1387 17.276 28.023 87.734 0 0 .0161-1.0356 17.275 28.023 87.735 0 0 .11718-1.0327 17.275 28.023 87.735 0 0 -1.0459-5.3862 17.275 28.023 87.735 0 0 1.4971-4.9644l.50244-7.8164a17.276 28.023 87.734 0 0 .041-.46875 17.276 28.023 87.734 0 0 .019-.46582l.0806-1.2495a17.275 28.023 87.735 0 0 .0293-.35449 17.275 28.023 87.735 0 0 -26.875-17.297z" fill="url(#F)" stroke-width=".75"/><path d="m138.92 185.81a17.275 28.023 87.735 0 0 -29.099 17.297 17.275 28.023 87.735 0 0 0 .003h-.007l-.66503 10.352a17.275 28.023 87.735 0 0 1.0459 5.3848 17.275 28.023 87.735 0 0 -1.4971 4.9658 17.275 28.023 87.735 0 1 0 .001h-.21386l-.66504 10.352a17.275 28.023 87.735 0 0 .95215 5.1826 17.275 28.023 87.735 0 0 -1.6113 5.168 17.275 28.023 87.735 0 1 0 .001h-.007l-.66504 10.354a17.275 28.023 87.735 0 0 26.875 17.294 17.275 28.023 87.735 0 0 29.099-17.294l.3955-6.1538a17.276 28.023 87.734 0 0 .3501-2.1328 17.276 28.023 87.734 0 0 .0161-1.0254 17.275 28.023 87.735 0 0 .11719-1.043 17.275 28.023 87.735 0 0 -1.0459-5.3877 17.275 28.023 87.735 0 0 1.4971-4.9629l.39404-6.1465a17.276 28.023 87.734 0 0 .35302-2.1387 17.276 28.023 87.734 0 0 .0161-1.0356 17.275 28.023 87.735 0 0 .11718-1.0327 17.275 28.023 87.735 0 0 -1.0459-5.3862 17.275 28.023 87.735 0 0 1.4971-4.9644l.50244-7.8164a17.276 28.023 87.734 0 0 .041-.46875 17.276 28.023 87.734 0 0 .019-.46582l.0806-1.2495a17.275 28.023 87.735 0 0 .0293-.35449 17.275 28.023 87.735 0 0 -26.875-17.297z" fill="url(#G)" stroke-width=".75"/><g transform="translate(-45)"><path d="m435.74 371.62a5.5568 3.4343 0 0 1 -5.5568 3.4343 5.5568 3.4343 0 0 1 -5.5568-3.4343 5.5568 3.4343 0 0 1 5.5568-3.4343 5.5568 3.4343 0 0 1 5.5568 3.4343z" fill="#0f2751" stroke-width=".20554" transform="matrix(1.3803 0 -.088717 1.3803 -377.99 -310.38)"/><path d="m224.71 224.99c-2.9711 1.6344-5.0649 4.5234-3.875 7.5391l14 35.48v-17.361z" filter="url(#C)" opacity=".26923" transform="scale(.75)"/><circle cx="172.06" cy="161.14" fill="url(#x)" r="12.845"/><path d="m246.51 213.86c-.52718 9.056-8.0244 16.13-17.096 16.131-9.0692-.00062-16.566-7.0713-17.096-16.125-.0195.33233-.0292.66515-.0293.99805-.00044 9.4584 7.6666 17.126 17.125 17.127 9.4591.00044 17.127-7.6678 17.127-17.127-.0006-.33487-.011-.66965-.0312-1.0039z" filter="url(#A)" opacity=".3" transform="scale(.75)"/><path d="m172.31 154.7c3.7027 0 5.2263 3.2797 6.6836 6.6836l7.7983 16.297c2.3657 4.9441 2.7017 7.5304 2.7017 13.178v9.999c0 3.7027-2.9809 5.1836-6.6836 5.1836s-6.6836-1.4809-6.6836-5.1836v-12.864l-10.5-26.61c-1.359-3.4443 2.9809-6.6836 6.6836-6.6836z" fill="url(#u)"/><path d="m229.75 206.26c-4.937 0-9.4652 4.0062-8.9121 8.9121l.0234.20312c.56676-4.0502 4.571-7.1152 8.8887-7.1152 4.937 0 8.3571 4.0062 8.9102 8.9121l14 29.258v-2l-14-29.258c-.55308-4.9059-3.9732-8.9121-8.9102-8.9121z" filter="url(#v)" opacity=".2" transform="scale(.75)"/><path d="m220.86 213.38c-.0813.58093-.0928 1.1815-.0234 1.7969l14 35.48v-2zm13.977 52.43v2c0 4.937 3.9752 6.9121 8.9121 6.9121s8.9102-1.9752 8.9102-6.9121v-2c0 4.937-3.9732 6.9121-8.9102 6.9121s-8.9121-1.9752-8.9121-6.9121z" filter="url(#w)" opacity=".34915" transform="matrix(.75 0 0 .75 0 .22325)"/><path d="m225.58 207.25c-3.0098 1.4802-6.0199 4.6976-4.7461 7.9258l14 35.48v17.152c0 4.937 3.9752 6.9121 8.9121 6.9121 2.6257 0 4.9715-.56635 6.5996-1.832-1.464.67676-3.2592.99023-5.209.99023-4.937 0-8.9102-1.9752-8.9102-6.9121v-17.15l-14-35.48c-1.0661-2.7019 1.1129-5.4553 3.3535-7.0859z" filter="url(#y)" opacity=".31741" transform="matrix(.75 0 0 .75 -.2283 0)"/><path d="m229.75 206.26c-.23387 0-.46573.0175-.69727.0351 4.5631.35517 7.6958 4.2037 8.2227 8.877l14 29.258v23.375c0 4.6993-3.6123 6.6919-8.2168 6.875.23219.009.45446.0371.69141.0371 4.937 0 8.9102-1.9752 8.9102-6.9121v-23.375l-14-29.258c-.55308-4.9059-3.9732-8.9121-8.9102-8.9121z" fill="#fff" filter="url(#z)" opacity=".36724" transform="scale(.75)"/><path d="m229.42 197.73c-9.4584.00063-17.125 7.6686-17.125 17.127-.00001.3342.01.66832.0293 1.002.52817-9.0552 8.0251-16.128 17.096-16.129 9.0685.00055 16.565 7.0701 17.096 16.123.0201-.33166.0305-.66383.0312-.99609.00045-9.4591-7.6678-17.127-17.127-17.127z" fill="#fff" filter="url(#B)" opacity=".32193" transform="matrix(.75 0 0 .75 0 -.27578)"/><circle cx="244.06" cy="161.14" fill="url(#H)" r="12.845"/></g><path d="m220.49 202.57c-.16827 2.618-3.7387 4.7404-7.9747 4.7404s-7.5336-2.1223-7.3654-4.7404 3.7387-4.7404 7.9747-4.7404c4.2361 0 7.5336 2.1223 7.3654 4.7404z" fill="#0f2751" stroke-width=".28371"/><path d="m220.71 224.99c-2.9711 1.6344-5.0649 4.5234-3.875 7.5391l18 35.48v-17.361z" filter="url(#C)" opacity=".26923" transform="matrix(.75 0 0 .75 30 0)"/><path d="m242.51 213.86c-.52718 9.056-8.0244 16.13-17.096 16.131-9.0692-.00062-16.566-7.0713-17.096-16.125-.0195.33233-.0292.66515-.0293.99805-.00044 9.4584 7.6666 17.126 17.125 17.127 9.4591.00044 17.127-7.6678 17.127-17.127-.0006-.33487-.011-.66965-.0312-1.0039z" filter="url(#A)" opacity=".3" transform="matrix(.75 0 0 .75 30 0)"/><path d="m199.31 154.7c3.7027 0 5.2263 3.2797 6.6836 6.6836l11.623 19.2c2.3657 4.9441 1.8771 4.627 1.8771 10.275v9.999c0 3.7027-2.9809 5.1836-6.6836 5.1836s-6.6836-1.4809-6.6836-5.1836v-12.864l-13.5-26.61c-1.359-3.4443 2.9809-6.6836 6.6836-6.6836z" fill="url(#E)"/><path d="m216.84 215.17.0234.20312c3.8123-11.121 16.558-7.3459 17.799 1.7969l18 29.258v-2l-18-29.258c-1.6372-9.7624-18.327-13.014-17.822-.00002z" filter="url(#v)" opacity=".2" transform="matrix(.75 0 0 .75 30 0)"/><path d="m216.86 213.38c-.0813.58093-.0928 1.1815-.0234 1.7969l18 35.48v-2zm17.977 52.43v2c0 4.937 3.9752 6.9121 8.9121 6.9121s8.9102-1.9752 8.9102-6.9121v-2c0 4.937-3.9732 6.9121-8.9102 6.9121s-8.9121-1.9752-8.9121-6.9121z" filter="url(#w)" opacity=".34915" transform="matrix(.75 0 0 .75 30 .22325)"/><path d="m221.58 207.25c-3.0098 1.4802-6.0199 4.6976-4.7461 7.9258l18 35.48v17.152c0 4.937 3.9752 6.9121 8.9121 6.9121 2.6257 0 4.9715-.56635 6.5996-1.832-1.464.67676-3.2592.99023-5.209.99023-4.937 0-8.9102-1.9752-8.9102-6.9121v-17.15l-18-35.48c-1.0661-2.7019 1.6639-4.8894 3.3535-7.0859z" filter="url(#y)" opacity=".31741" transform="matrix(.75 0 0 .75 29.772 0)"/><path d="m225.75 206.26c-.23387 0-.46573.0175-.69727.0351 4.5631.35517 7.6958 4.2037 8.2227 8.877l18 29.258v23.375c0 4.6993-3.6123 6.6919-8.2168 6.875.23219.009.45446.0371.69141.0371 4.937 0 8.9102-1.9752 8.9102-6.9121v-23.375l-18-29.258c-.55308-4.9059-3.9732-8.9121-8.9102-8.9121z" fill="#fff" filter="url(#z)" opacity=".36724" transform="matrix(.75 0 0 .75 30 0)"/><path d="m225.42 197.73c-9.4584.00063-17.125 7.6686-17.125 17.127-.00001.3342.01.66832.0293 1.002.52817-9.0552 8.0251-16.128 17.096-16.129 9.0685.00055 16.565 7.0701 17.096 16.123.0201-.33166.0305-.66383.0312-.99609.00045-9.4591-7.6678-17.127-17.127-17.127z" fill="#fff" filter="url(#B)" opacity=".32193" transform="matrix(.75 0 0 .75 30 -.27578)"/></svg>