<svg height="512" viewBox="0 0 384 384" width="512" xmlns="http://www.w3.org/2000/svg" xmlns:xlink="http://www.w3.org/1999/xlink"><filter id="a" color-interpolation-filters="sRGB" height="1.0547" width="1.0889" x="-.044443" y="-.027325"><feGaussianBlur stdDeviation="1.2058067"/></filter><filter id="b" color-interpolation-filters="sRGB" height="1.0833" width="1.0481" x="-.024033" y="-.041626"><feGaussianBlur stdDeviation="1.2058067"/></filter><filter id="c" color-interpolation-filters="sRGB" height="1.6814" width="1.7703" x="-.38515" y="-.34071"><feGaussianBlur stdDeviation="18.034215"/></filter><filter id="d" color-interpolation-filters="sRGB" height="1.6814" width="1.7703" x="-.38514" y="-.34071"><feGaussianBlur stdDeviation="18.034215"/></filter><filter id="e" color-interpolation-filters="sRGB" height="1.3833" width="1.4333" x="-.21665" y="-.19165"><feGaussianBlur stdDeviation="10.144246"/></filter><path d="m180.91 247.19c-3.0165 0-6.0324.66751-8.3438 2.002l-2.3301 1.3438h-.00195l-38.256 22.09-15.025 8.6738c-5.8787 3.394-10.647 11.442-10.939 18.312-.0001.00133.0001.00319 0 .00585-.004.08654-.0032.17167-.00586.25782-.004.1284-.00782.25542-.00782.38672v.00976 63.223c0 .21896.00501.43381.01368.64453.00009.00133-.00008.00319 0 .00586.29225 6.8701 5.0609 14.918 10.939 18.312l53.281 30.762c.0552.032.10901.05695.16406.08789l2.1836 1.2598c4.6227 2.6689 12.066 2.6689 16.689 0l2.3301-1.3457 38.258-22.09 15.023-8.6738c5.8785-3.394 10.649-11.44 10.941-18.311.00007-.00133-.00008-.00452 0-.00586.00267-.07013.00124-.14367.00391-.21484.004-.14358.00781-.28725.00781-.42969v-63.223-.01171c0-.22087-.005-.4379-.01367-.65039-.29224-6.8701-5.059-14.916-10.938-18.311l-53.283-30.764c-.05534-.03187-.109-.05501-.16407-.08594l-2.1816-1.2598c-2.3113-1.3344-5.3292-2.002-8.3457-2.002zm150.17 0c-3.0165 0-6.0344.66751-8.3457 2.002l-2.3301 1.3438-38.256 22.09-15.025 8.6738c-5.8785 3.394-10.649 11.442-10.941 18.312-.00009.00133.00009.00452 0 .00585-.004.08654-.00124.17167-.00391.25782-.004.1284-.00976.25541-.00976.38672v.00976 63.223c0 .21896.005.43381.01367.64453.00009.00133-.00009.00452 0 .00586.29225 6.8701 5.0609 14.918 10.939 18.312l53.281 30.762c.05534.03186.109.05695.16407.08789l2.1836 1.2598c4.6227 2.6689 12.066 2.6689 16.689 0l2.3301-1.3457h.00195l53.281-30.764c5.8785-3.394 10.647-11.44 10.939-18.311.00006-.00133-.00008-.00452 0-.00586.00266-.07026-.0001-.14367.0039-.21484.00534-.14356.00977-.28725.00977-.42969v-63.223-.01171c0-.22087-.00501-.43596-.01367-.64844-.29226-6.8701-5.0609-14.918-10.939-18.312l-53.281-30.764c-.0552-.03187-.10899-.05501-.16406-.08594l-2.1836-1.2598c-2.3113-1.3344-5.3272-2.002-8.3438-2.002z" filter="url(#e)" opacity=".3" stroke-width="1.3333" transform="scale(.75)"/><path d="m135.68 177.89c-2.2624 0-4.5252.50067-6.2587 1.5015l-1.7477 1.0091h-.001l-28.692 16.566-11.269 6.5057c-4.409 2.5455-7.9856 8.5813-8.2048 13.734-.00007.001.00008.003 0 .005-.003.0649-.002.12895-.004.19356-.003.0963-.006.19146-.006.28993v47.424c0 .16422.004.32545.0105.48349.00007.001-.00006.003 0 .005.21919 5.1526 3.7951 11.188 8.204 13.734l39.962 23.072c.0414.024.0818.0416.12309.0648l1.6368.94512c3.467 2.0017 9.0496 2.0017 12.517 0l1.7477-1.0091.001-.00072 28.692-16.566 11.269-6.5057c4.4089-2.5455 7.9856-8.5813 8.2048-13.734.00005-.001-.00006-.003 0-.004.002-.0526.001-.10779.003-.16117.003-.10768.007-.21549.007-.32232v-47.425c0-.16565-.004-.32818-.0105-.48755-.21918-5.1526-3.7951-11.188-8.204-13.734l-39.962-23.072c-.0415-.0239-.0818-.0416-.1231-.0648l-1.6368-.94513c-1.7335-1.0008-3.9955-1.5015-6.2579-1.5015z" fill="#e43030" filter="url(#c)" opacity=".6"/><path d="m191.98 79.077c-2.2624 0-4.5252.50068-6.2587 1.5015l-1.7477 1.0091h-.001l-28.692 16.566-11.269 6.5057c-4.409 2.5455-7.9856 8.5813-8.2048 13.734-.00008.002.00007.003 0 .005-.003.0649-.002.12894-.004.19355-.003.0963-.006.19146-.006.28993v47.424c0 .16422.004.32545.0105.48349.00007.002-.00007.003 0 .005.21918 5.1526 3.7951 11.188 8.204 13.734l39.962 23.072c.0415.0239.0818.0416.12309.0648l1.6368.94513c3.467 2.0017 9.0496 2.0017 12.517 0l1.7477-1.0091.001-.00055 28.692-16.566 11.269-6.5057c4.409-2.5455 7.9856-8.5813 8.2048-13.734.00006-.001-.00006-.003 0-.004.002-.0527.001-.1078.004-.16117.004-.10768.007-.2155.007-.32233v-47.425c0-.16565-.004-.32818-.0105-.48754-.21919-5.1526-3.7951-11.188-8.204-13.734l-39.962-23.072c-.0414-.02394-.0818-.04163-.1231-.06479l-1.6368-.94513c-1.7335-1.0008-3.9955-1.5015-6.2579-1.5015z" fill="#ffc730" filter="url(#d)" opacity=".6"/><path d="m248.31 177.89c-2.2624 0-4.5252.50067-6.2587 1.5015l-1.7477 1.0091h-.001l-28.692 16.566-11.269 6.5057c-4.4089 2.5455-7.9856 8.5813-8.2048 13.734-.00007.001.00007.004 0 .005-.003.0649-.002.12894-.004.19355-.003.0963-.007.19145-.007.28993v47.424c0 .16422.004.32544.0105.48348.00007.001-.00007.004 0 .005.21919 5.1526 3.7951 11.188 8.204 13.734l39.962 23.072c.0415.0239.0818.0416.1231.0648l1.6368.94513c3.467 2.0017 9.0496 2.0017 12.517 0l1.7477-1.0091.001-.00055 28.692-16.566 11.269-6.5057c4.4089-2.5455 7.9856-8.5813 8.2048-13.734.00005-.001-.00006-.003 0-.004.002-.0527.001-.1078.004-.16118.004-.10767.007-.21549.007-.32232v-47.425c0-.16565-.004-.32818-.0105-.48754-.21919-5.1526-3.7951-11.188-8.204-13.734l-39.962-23.072c-.0414-.0239-.0818-.0416-.1231-.0648l-1.6368-.94512c-1.7335-1.0008-3.9955-1.5015-6.2579-1.5015z" fill="#23bac2" filter="url(#d)" opacity=".6"/><path d="m135.68 177.89c-2.2624 0-4.5252.50067-6.2587 1.5015l-1.7477 1.0091h-.001l-28.692 16.566-11.269 6.5057c-4.409 2.5455-7.9856 8.5813-8.2048 13.734-.00007.001.00008.003 0 .005-.003.0649-.002.12895-.004.19356-.003.0963-.006.19146-.006.28993v47.424c0 .16422.004.32545.0105.48349.00007.001-.00006.003 0 .005.21919 5.1526 3.7951 11.188 8.204 13.734l39.962 23.072c.0414.024.0818.0416.12309.0648l1.6368.94512c3.467 2.0017 9.0496 2.0017 12.517 0l1.7477-1.0091.001-.00072 28.692-16.566 11.269-6.5057c4.4089-2.5455 7.9856-8.5813 8.2048-13.734.00005-.001-.00006-.003 0-.004.002-.0526.001-.10779.003-.16117.003-.10768.007-.21549.007-.32232v-47.425c0-.16565-.004-.32818-.0105-.48755-.21918-5.1526-3.7951-11.188-8.204-13.734l-39.962-23.072c-.0415-.0239-.0818-.0416-.1231-.0648l-1.6368-.94513c-1.7335-1.0008-3.9955-1.5015-6.2579-1.5015z" fill="#e43030"/><path d="m248.31 177.89c-2.2624 0-4.5252.50067-6.2587 1.5015l-1.7477 1.0091h-.001l-28.692 16.566-11.269 6.5057c-4.4089 2.5455-7.9856 8.5813-8.2048 13.734-.00007.001.00007.004 0 .005-.003.0649-.002.12894-.004.19355-.003.0963-.007.19145-.007.28993v47.424c0 .16422.004.32544.0105.48348.00007.001-.00007.004 0 .005.21919 5.1526 3.7951 11.188 8.204 13.734l39.962 23.072c.0415.0239.0818.0416.1231.0648l1.6368.94513c3.467 2.0017 9.0496 2.0017 12.517 0l1.7477-1.0091.001-.00055 28.692-16.566 11.269-6.5057c4.4089-2.5455 7.9856-8.5813 8.2048-13.734.00005-.001-.00006-.003 0-.004.002-.0527.001-.1078.004-.16118.004-.10767.007-.21549.007-.32232v-47.425c0-.16565-.004-.32818-.0105-.48754-.21919-5.1526-3.7951-11.188-8.204-13.734l-39.962-23.072c-.0414-.0239-.0818-.0416-.1231-.0648l-1.6368-.94512c-1.7335-1.0008-3.9955-1.5015-6.2579-1.5015z" fill="#23bac2"/><path d="m191.98 79.077c-2.2624 0-4.5252.50068-6.2587 1.5015l-1.7477 1.0091h-.001l-28.692 16.566-11.269 6.5057c-4.409 2.5455-7.9856 8.5813-8.2048 13.734-.00008.002.00007.003 0 .005-.003.0649-.002.12894-.004.19355-.003.0963-.006.19146-.006.28993v47.424c0 .16422.004.32545.0105.48349.00007.002-.00007.003 0 .005.21918 5.1526 3.7951 11.188 8.204 13.734l39.962 23.072c.0415.0239.0818.0416.12309.0648l1.6368.94513c3.467 2.0017 9.0496 2.0017 12.517 0l1.7477-1.0091.001-.00055 28.692-16.566 11.269-6.5057c4.409-2.5455 7.9856-8.5813 8.2048-13.734.00006-.001-.00006-.003 0-.004.002-.0527.001-.1078.004-.16117.004-.10768.007-.2155.007-.32233v-47.425c0-.16565-.004-.32818-.0105-.48754-.21919-5.1526-3.7951-11.188-8.204-13.734l-39.962-23.072c-.0414-.02394-.0818-.04163-.1231-.06479l-1.6368-.94513c-1.7335-1.0008-3.9955-1.5015-6.2579-1.5015z" fill="#ffc730"/><rect fill="#fd4949" filter="url(#b)" height="66.389" rx="9.486" transform="matrix(.86603 -.5 .86603 .5 0 0)" width="65.115" x="-162.54" y="254.02"/><rect fill="#fd5d5d" filter="url(#a)" height="66.389" rx="9.486" transform="matrix(.86603 .5 0 1 0 0)" width="65.115" x="91.799" y="162.31"/><rect fill="#fd3535" filter="url(#a)" height="66.389" rx="9.486" transform="matrix(-.86603 .5 0 1 0 0)" width="65.115" x="-221.56" y="318.99"/><rect fill="#4fc8ce" filter="url(#b)" height="66.389" rx="9.486" transform="matrix(.86603 -.5 .86603 .5 0 0)" width="65.115" x="-97.521" y="319.05"/><rect fill="#65cfd4" filter="url(#a)" height="66.389" rx="9.486" transform="matrix(.86603 .5 0 1 0 0)" width="65.115" x="221.84" y="97.286"/><rect fill="#39c1c8" filter="url(#a)" height="66.389" rx="9.486" transform="matrix(-.86603 .5 0 1 0 0)" width="65.115" x="-351.61" y="384.01"/><rect fill="#ffd259" filter="url(#b)" height="66.389" rx="9.486" transform="matrix(.86603 -.5 .86603 .5 0 0)" width="65.115" x="-31.227" y="187.72"/><rect fill="#ffd86e" filter="url(#a)" height="66.389" rx="9.486" transform="matrix(.86603 .5 0 1 0 0)" width="65.115" x="156.81" y="30.992"/><rect fill="#fc4" filter="url(#a)" height="66.389" rx="9.486" transform="matrix(-.86603 .5 0 1 0 0)" width="65.115" x="-286.57" y="252.68"/></svg>