<svg width="512" height="512" version="1.1" viewBox="0 0 384 384" xmlns="http://www.w3.org/2000/svg">
 <filter id="a" x="-.045682" y="-.053306" width="1.0914" height="1.1066" color-interpolation-filters="sRGB">
  <feGaussianBlur stdDeviation="5.6915401"/>
 </filter>
 <filter id="b" x="-.040419" y="-.059081" width="1.0808" height="1.1182" color-interpolation-filters="sRGB">
  <feGaussianBlur stdDeviation="5.0358203"/>
 </filter>
 <filter id="c" x="-.11043" y="-.1022" width="1.2209" height="1.2044" color-interpolation-filters="sRGB">
  <feGaussianBlur stdDeviation="13.758435"/>
 </filter>
 <path transform="matrix(.74646 0 0 .74646 .90483 16.838)" d="m254.67 84.678c-7.1621 0-14.325 1.5854-19.812 4.7539l-96.375 55.641c-10.976 6.3369-10.976 16.542 0 22.879l99.033 57.176c10.976 6.3369 28.649 6.3369 39.625 0l96.375-55.643c10.976-6.337 10.976-16.54 0-22.877l-99.033-57.176c-5.488-3.1685-12.65-4.7539-19.812-4.7539zm139.62 101.89c-2.5995 0.0587-5.5166 0.93648-8.6035 2.7188l-96.375 55.643c-10.976 6.3369-19.812 21.641-19.812 34.314v114.35c0 12.674 8.8366 17.776 19.812 11.439l96.375-55.643c10.976-6.3369 19.812-21.641 19.812-34.314v-114.36c0-9.1094-4.5659-14.306-11.209-14.156zm-276.59 0.0117c-6.6431-0.14993-11.207 5.0488-11.207 14.158v114.35c0 12.674 8.8346 27.977 19.811 34.314l96.375 55.643c10.976 6.3369 19.812 1.2364 19.812-11.438v-114.36c0-12.674-8.8366-27.978-19.812-34.314l-96.375-55.643c-3.087-1.7823-6.004-2.6601-8.6035-2.7188z" fill="#19a187" filter="url(#c)" opacity=".49181" stroke-width=".75369"/>
 <rect transform="matrix(.86603 .5 0 1 0 0)" x="92.834" y="95.724" width="117.22" height="119.51" rx="17.077" fill="#5ebdab" style="stroke-width:.99528"/>
 <rect transform="matrix(-.86603 .5 0 1 0 0)" x="-350.57" y="317.43" width="117.22" height="119.51" rx="17.077" fill="#30aa93" style="stroke-width:.99528"/>
 <rect transform="matrix(.86603 -.5 .86603 .5 0 0)" x="-74.544" y="177.88" width="117.22" height="119.51" rx="17.077" fill="#47b49f" style="stroke-width:.99528"/>
 <path transform="matrix(.74646 0 0 .74646 1.312 24.156)" d="m131.09 135.72c-3.1581 5.5966-0.88037 11.975 6.8496 16.438l99.033 57.178c10.976 6.3369 28.649 6.3369 39.625 0l96.371-55.641c7.7293-4.4625 10.006-10.841 6.8496-16.438-1.3261 2.3502-3.6038 4.5635-6.8496 6.4375l-96.371 55.641c-10.976 6.3369-28.649 6.3369-39.625 0l-99.033-57.178c-3.2458-1.874-5.5235-4.0875-6.8496-6.4375zm-25.143 153.57v10c0 12.674 8.8348 27.98 19.811 34.316l96.373 55.641c10.976 6.3369 19.812 1.2343 19.812-11.439v-10c0 12.674-8.8367 17.776-19.812 11.439l-96.373-55.641c-10.976-6.3369-19.811-21.643-19.811-34.316zm299.02 0c0 12.674-8.8367 27.98-19.812 34.316l-96.371 55.641c-10.976 6.3369-19.812 1.2343-19.812-11.439v10c0 12.674 8.8367 17.776 19.812 11.439l96.371-55.641c10.976-6.3369 19.812-21.643 19.812-34.316z" filter="url(#a)" opacity=".22053"/>
 <path transform="matrix(.74646 0 0 .74646 1.312 18.906)" d="m254.12 68.885c-7.162 0-14.325 1.5855-19.812 4.7539l-96.373 55.641c-7.73 4.4629-10.008 10.841-6.8496 16.438 1.3261-2.35 3.6038-4.5635 6.8496-6.4375l96.373-55.641c5.4879-3.1684 12.65-4.7539 19.812-4.7539s14.323 1.5855 19.811 4.7539l99.033 57.176c3.2465 1.8744 5.5236 4.0887 6.8496 6.4395 3.1581-5.5971 0.88036-11.977-6.8496-16.439l-99.033-57.176c-5.4879-3.1684-12.649-4.7539-19.811-4.7539zm-136.97 101.89c-6.6431-0.14992-11.207 5.047-11.207 14.156v10c0-9.1092 4.564-14.306 11.207-14.156 2.5995 0.0587 5.5166 0.93651 8.6035 2.7188l96.373 55.641c10.976 6.3369 19.812 21.641 19.812 34.314v-10c0-12.674-8.8367-27.978-19.812-34.314l-96.373-55.641c-3.0869-1.7822-6.0041-2.6601-8.6035-2.7188zm276.6 0c-2.5995 0.0587-5.5185 0.93651-8.6055 2.7188l-96.371 55.641c-10.976 6.3369-19.812 21.641-19.812 34.314v10c0-12.674 8.8367-27.978 19.812-34.314l96.371-55.641c3.0869-1.7822 6.006-2.6601 8.6055-2.7188 6.6431-0.14993 11.207 5.047 11.207 14.156v-10c0-9.1092-4.564-14.306-11.207-14.156z" fill="#fff" filter="url(#b)" opacity=".3"/>
</svg>
