<svg width="512" height="512" version="1.1" viewBox="0 0 384 384" xmlns="http://www.w3.org/2000/svg" xmlns:xlink="http://www.w3.org/1999/xlink"><defs><linearGradient id="b" x1="193.03" x2="193.03" y1="325.16" y2="208.32" gradientTransform="matrix(.73971 0 0 .73971 49.975 49.975)" gradientUnits="userSpaceOnUse"><stop stop-color="#fd7d00" style="stop-color:#4aaee6" offset="0"/><stop stop-color="#ffc730" style="stop-color:#367bf0" offset="1"/></linearGradient><linearGradient id="g" x1="185.43" x2="185.43" y1="302.28" y2="208.91" gradientTransform="matrix(1.4612 0 0 1.2449 -88.563 -48.461)" gradientUnits="userSpaceOnUse" xlink:href="#b"/><linearGradient id="f" x1="202.39" x2="211.54" y1="163.47" y2="137.06" gradientUnits="userSpaceOnUse"><stop offset="0"/><stop style="stop-color:#1a1a1a" offset="1"/></linearGradient><linearGradient id="e" x1="192.16" x2="192.16" y1="269.54" y2="253.42" gradientTransform="translate(.016815)" gradientUnits="userSpaceOnUse"><stop style="stop-color:#fff" offset="0"/><stop style="stop-color:#fff;stop-opacity:0" offset="1"/></linearGradient><linearGradient id="c" x1="192.06" x2="192.06" y1="84.779" y2="83.676" gradientUnits="userSpaceOnUse"><stop offset="0"/><stop style="stop-opacity:0" offset="1"/></linearGradient><filter id="o" x="-.085065" y="-.14787" width="1.1701" height="1.2957" style="color-interpolation-filters:sRGB"><feGaussianBlur stdDeviation="4.833656"/></filter><filter id="n" x="-.029732" y="-.1645" width="1.0595" height="1.329" style="color-interpolation-filters:sRGB"><feGaussianBlur stdDeviation="0.49905855"/></filter></defs><linearGradient id="a" x1="193.03" x2="193.03" y1="325.16" y2="208.32" gradientTransform="matrix(.73971 0 0 .73971 49.975 49.975)" gradientUnits="userSpaceOnUse"><stop stop-color="#fd7d00" offset="0"/><stop stop-color="#ffc730" offset="1"/></linearGradient><filter x="-.038859" y="-.062764" width="1.0777" height="1.1255" color-interpolation-filters="sRGB"><feGaussianBlur stdDeviation="1.6426611"/></filter><filter x="-.055609" y="-.87692" width="1.1112" height="2.7538" color-interpolation-filters="sRGB"><feGaussianBlur stdDeviation=".40637492"/></filter><linearGradient id="d" x1="185.98" x2="185.98" y1="253.71" y2="106.67" gradientTransform="matrix(1.3095 0 0 1.2248 -59.421 -34.371)" gradientUnits="userSpaceOnUse" xlink:href="#a"/><filter x="-.011708" y="-.014498" width="1.0234" height="1.029" color-interpolation-filters="sRGB"><feGaussianBlur stdDeviation=".64813779"/></filter><linearGradient id="h" x1="185.43" x2="185.43" y1="302.28" y2="208.91" gradientTransform="matrix(1.746,0,0,1.746,-79.228,-127.75)" gradientUnits="userSpaceOnUse" xlink:href="#b"/><linearGradient id="i" x1="185.98" x2="185.98" y1="253.71" y2="106.67" gradientTransform="matrix(1.3095,0,0,1.3095,-59.421,-64.364)" gradientUnits="userSpaceOnUse" xlink:href="#a"/><filter id="j" x="-.024169" y="-.14707" width="1.0483" height="1.2941" color-interpolation-filters="sRGB"><feGaussianBlur stdDeviation="1.9217811"/></filter><filter id="k" x="-.11707" y="-.10023" width="1.2341" height="1.2005" color-interpolation-filters="sRGB"><feGaussianBlur stdDeviation="12.945828"/></filter><filter id="l" x="-.069624" y="-.24064" width="1.1392" height="1.4813" color-interpolation-filters="sRGB"><feGaussianBlur stdDeviation="7.6982589"/></filter><filter id="m" x="-.11072" y="-.10541" width="1.2214" height="1.2108" color-interpolation-filters="sRGB"><feGaussianBlur stdDeviation="12.24235"/></filter><filter x="-.067309" y="-.047435" width="1.1346" height="1.0949" color-interpolation-filters="sRGB"><feGaussianBlur stdDeviation="2.2437829"/></filter><path transform="matrix(.83689 0 0 .71298 -22.258 42.623)" d="m177.76 56.615c-21.172 0-37.929 18.994-38.217 42.584l-15.63 178.88c-1.0088 18.047-0.4047 36.244-0.40684 54.335 0 18.936 15.924 34.182 35.703 34.182h193.58c19.779 0 35.703-15.245 35.703-34.182-0.61393-18.084 0.9553-36.274-0.24336-54.335l-15.799-178.88c-0.28809-23.589-17.044-42.584-38.217-42.584h-156.46z" fill="url(#h)" filter="url(#k)" style="fill:url(#h)"/><path d="m126.51 82.988c-17.719 0-31.742 13.542-31.984 30.362l-13.081 145.95-0.34048 20.328c0 13.501 13.327 24.371 29.88 24.371h162.01c16.553 0 29.88-10.869 29.88-24.371l-0.20367-20.328-13.222-145.95c-0.24111-16.819-14.264-30.362-31.984-30.362h-130.94z" fill="url(#h)" style="fill:url(#g);stroke-width:.77246"/><path transform="matrix(.83689 0 0 .71298 -22.258 45.285)" d="m388.67 289.82c-0.11335 9.1731-0.40702 18.355-0.28125 27.516 0.10966-9.1719 0.3991-18.353 0.28125-27.516zm-265.32 7.9473c-0.0833 11.549 0.15761 23.121 0.15625 34.65 0 18.936 15.924 34.182 35.703 34.182h193.58c19.779 0 35.703-15.245 35.703-34.182-0.08-2.356-0.12185-4.7132-0.13867-7.0723-1.5432 17.554-16.817 31.254-35.564 31.254h-193.58c-19.779 0-35.703-15.245-35.703-34.182 9.7e-4 -8.2029-0.11481-16.428-0.15625-24.65z" filter="url(#l)" opacity=".2"/><path d="m127.65 83.718h128.68c15.66 0 27.964 12.695 28.268 28.459l13.856 150.14c0.30411 15.763-12.608 28.459-28.268 28.459h-156.4c-15.66 0-28.573-12.695-28.268-28.459l13.856-150.14c0.30406-15.763 12.608-28.459 28.268-28.459z" fill="url(#d)" stroke-width="1.0792" style="fill:url(#f)"/><path transform="matrix(1.1409 0 0 1.0529 -29.353 12.241)" d="m96.942 240.94-0.35302 4.0928c-0.27253 15.103 11.299 27.268 25.333 27.268h140.16c14.035 0 25.607-12.165 25.334-27.268l-0.35302-4.0928c-2.0202 12.71-12.528 22.291-24.981 22.291h-140.16c-12.453 0-22.96-9.58-24.98-22.291z" fill="url(#i)" filter="url(#j)" opacity=".62885" stroke-width=".75" style="fill:#4aaee6"/><path transform="matrix(.83689 0 0 .71298 -22.258 38.423)" d="m177.76 56.615c-21.172 0-37.929 18.994-38.217 42.584l-15.631 178.88c-0.5514 9.8641-0.61246 19.772-0.5625 29.684 0.0474-6.573 0.19658-13.138 0.5625-19.684l15.631-178.88c0.28787-23.59 17.045-42.584 38.217-42.584h156.47c21.173 0 37.929 18.995 38.217 42.584l15.799 178.88c0.25928 3.9067 0.3715 7.82 0.42188 11.736 0.0897-7.2564 0.058-14.506-0.42188-21.736l-15.799-178.88c-0.28809-23.589-17.044-42.584-38.217-42.584h-156.46zm210.63 270.72c-0.0319 2.671-0.0542 5.3413-0.0352 8.0098 0.0849-0.96589 0.13867-1.9401 0.13867-2.9277-0.0575-1.6931-0.0802-3.3873-0.10351-5.082z" fill="#fff" filter="url(#m)"/><ellipse cx="192" cy="266.49" rx="17.128" ry="10.586" style="fill:url(#e);opacity:.15;stroke-width:.56693"/><rect x="165.11" y="83.14" width="53.789" height="2.3651" rx="1.5341" ry="1.1826" style="fill:url(#c);opacity:.35051;stroke-width:.56693"/><rect transform="rotate(-5.2568)" x="276.2" y="152.28" width="2.6984" height="43.174" rx="1.5341" ry="1.1826" style="fill:#2b62c0;stroke-width:.56693"/><path d="m123.82 208.98c0.58639-0.77915 8.0224-3.9492 13.211-5.6321 5.1642-1.6749 12.629-3.6012 19.175-4.9478 5.3029-1.091 13.256-2.3802 16.553-2.6832l1.1467-0.10539 0.2264-1.25c0.32618-1.8009 0.28097-4.2898-0.10116-5.5689-0.69225-2.3173-2.3558-4.7019-5.0498-7.2388-2.8304-2.6654-3.9286-5.2832-4.1298-9.8443l-0.1083-2.4559-0.7355 0.31075c-0.73278 0.30959-1.4692 0.88413-2.1504 1.6777l-0.35848 0.41761 0.11961-0.79131c0.16712-1.1056 1.209-2.7102 2.3548-3.6267 0.87635-0.70095 1.0024-0.90096 1.3256-2.1039 0.4057-1.5098 1.1017-3.0192 1.7218-3.7344 0.23189-0.26743 0.42162-0.54089 0.42162-0.6077 0-0.0669-0.66366-0.0857-1.4748-0.042-1.0462 0.0563-1.7791 0.20663-2.5218 0.51721-0.97112 0.40608-1.0395 0.41416-0.94314 0.11159 0.14935-0.46902 1.6248-1.7982 2.4993-2.2515 0.78796-0.40847 3.1988-1.079 3.9367-1.0949 0.33498-7e-3 0.5914-0.27653 1.1044-1.16 0.69255-1.1925 1.9762-2.4236 3.1256-2.9976l0.66373-0.33146-0.80484-0.28693c-0.57815-0.20612-1.3918-0.29011-2.8888-0.29823-1.1462-7e-3 -2.0845-0.0626-2.085-0.1252-2e-3 -0.22456 1.2493-0.83884 2.3934-1.1749 1.556-0.45704 4.7486-0.60035 5.7423-0.25775 0.66282 0.22851 0.77647 0.21901 1.6462-0.13749 0.5138-0.21062 1.7954-0.59013 2.8479-0.84337 1.0525-0.25323 1.9494-0.48143 1.9929-0.50712 0.11353-0.0669-0.99854-1.2391-1.6026-1.6893-0.28094-0.20935-1.06-0.61813-1.7313-0.9084l-1.2205-0.52775 1.0171-0.15115c2.3015-0.34205 5.8011 0.4726 7.5516 1.7579 0.78712 0.57792 0.7933 0.57919 3.3313 0.68891 1.3985 0.0604 2.9005 0.15834 3.3377 0.21754l0.79493 0.1076-0.13004-0.90165c-0.16045-1.1125-1.0853-2.6911-2.1687-3.7019-0.44921-0.41908-0.81675-0.8065-0.81675-0.86094 0-0.0544 0.47849 0.0503 1.0633 0.23282 2.3745 0.74092 4.753 2.5573 6.424 4.9059 0.58826 0.82681 1.1267 1.3786 1.4531 1.4893 3.5425 1.201 5.922 2.3865 9.0007 4.4843 2.4727 1.6848 8.2197 6.2718 10.075 8.0413l1.7447 1.6641 1.0373-0.0821c0.57052-0.0452 2.0726-0.18187 3.338-0.30376 1.5408-0.14843 2.4061-0.16703 2.6199-0.0563 0.17556 0.0909 0.86941 0.95219 1.5419 1.9139 3.2171 4.6006 4.7286 6.5477 6.1564 7.93 2.1313 2.0635 2.4097 2.7174 1.3154 3.0896-0.33564 0.11417-0.61026 0.30846-0.61026 0.43177 0 0.46512 2.5833 2.4671 4.6428 3.598 2.2032 1.2098 5.3581 2.5874 7.2143 3.15 1.6375 0.49634 4.0351 1.0055 4.7346 1.0055 0.3472 0 0.68639 0.0453 0.75374 0.10056 0.0673 0.0553-0.87853 0.65224-2.1019 1.3266-2.8458 1.5685-4.4295 2.572-6.0948 3.8622l-1.3339 1.0333-1.0086-1.0053c-1.6051-1.5997-5.7347-4.6173-9.654-7.0542-2.3157-1.4398-4.0646-2.2214-9.9676-4.4544-5.3272-2.0152-6.9352-3.0022-7.7117-4.7333-0.53621-1.1954-0.91354-3.3535-0.7824-4.4744 0.11394-0.9736 0.21926-0.89097-3.6904-2.8948-5.1448-2.6369-11.438-4.9026-15.277-5.5005-2.0381-0.31737-5.1386-0.35639-6.7129-0.0845-2.7135 0.46869-5.4736 2.1192-6.4628 3.8648-1.7302 3.053-0.14293 7.7761 3.7531 11.168 1.0033 0.87337 2.1291 1.5647 4.6711 2.8687 4.3878 2.2507 6.4425 3.5274 8.9468 5.5594 3.3253 2.6982 5.7737 5.7089 7.5256 9.2542 0.67797 1.3719 0.98041 1.7972 1.3409 1.8856 0.25602 0.0627 1.5639 0.20004 2.9065 0.30511 13.193 1.0324 32.325 5.8765 46.38 11.743 2.4545 1.0245 2.5615 1.2183 0.25959 0.47013-0.81406-0.26458-3.4482-1.0099-5.8536-1.6562-9.2952-2.4976-18.109-4.3254-27.877-5.7812-11.904-1.7741-20.827-2.434-32.945-2.4367-25.909-6e-3 -46.413 3.0491-67.091 9.9957-0.59477 0.19981-1.0186 0.27985-0.94186 0.17788zm83.086-13.061c0-0.025-0.26939-0.62007-0.59864-1.3222-1.5857-3.3816-3.8491-6.1482-7.4248-9.0752-2.8335-2.3194-4.9269-3.6202-8.8674-5.5099-4.2437-2.0351-5.8554-3.3786-7.6148-6.3478-1.27-2.1434-1.577-2.9828-1.6861-4.6104-0.17236-2.5725 0.61869-4.3589 2.7034-6.1049 1.376-1.1525 3.2585-1.9938 5.384-2.4061 1.8087-0.35089 5.2867-0.27475 7.4861 0.16387 4.3546 0.86847 10.224 3.2211 15.575 6.2426 2.4341 1.3745 2.5103 1.3886 1.278 0.23587-2.1655-2.0255-7.5746-5.9671-10.71-7.8045-2.4574-1.44-4.3287-2.2156-6.5094-2.6981-2.3114-0.51141-7.5093-0.5556-10.171-0.0865-4.5159 0.7959-8.2812 2.7365-9.8034 5.0526-1.8401 2.7998-1.9695 7.2165-0.33231 11.347 1.3418 3.3856 3.0531 5.6068 6.5624 8.5181 3.5964 2.9834 5.0519 4.9304 6.0285 8.0641 0.40783 1.3086 0.56835 4.334 0.28001 5.2774l-0.13483 0.44115h3.5245c3.6253 0 10.326 0.26616 12.488 0.49604 1.3102 0.13932 2.5428 0.20067 2.5428 0.12657zm24.66-21.295c-0.32881-0.34454-1.0155-1.2156-1.526-1.9358-0.83716-1.181-0.94972-1.2762-1.1483-0.9715-0.43225 0.66323-0.25579 1.2819 0.59095 2.0718 0.63649 0.59378 2.1867 1.4609 2.6132 1.4618 0.0374 7e-5 -0.20108-0.28176-0.52989-0.62629zm-11.438-13.823c-14.765-12.277-34.989-23.01-54.785-29.075-1.7701-0.5423-3.1208-1.0127-3.0016-1.0453 0.37365-0.10228 10.518 2.767 14.458 4.0895 4.582 1.5378 12.845 4.8292 16.992 6.7682 8.1981 3.8332 16.021 8.3446 23.081 13.31 2.7254 1.9169 9.3573 7.1474 9.3573 7.38 0 0.13874-0.78928 0.26738-2.5428 0.41442l-1.2205 0.10235z" style="fill:#fff;filter:url(#o);opacity:.6;stroke-width:.18434"/><path d="m123.82 208.98c0.58639-0.77915 8.0224-3.9492 13.211-5.6321 5.1642-1.6749 12.629-3.6012 19.175-4.9478 5.3029-1.091 13.256-2.3802 16.553-2.6832l1.1467-0.10539 0.2264-1.25c0.32618-1.8009 0.28097-4.2898-0.10116-5.5689-0.69225-2.3173-2.3558-4.7019-5.0498-7.2388-2.8304-2.6654-3.9286-5.2832-4.1298-9.8443l-0.1083-2.4559-0.7355 0.31075c-0.73278 0.30959-1.4692 0.88413-2.1504 1.6777l-0.35848 0.41761 0.11961-0.79131c0.16712-1.1056 1.209-2.7102 2.3548-3.6267 0.87635-0.70095 1.0024-0.90096 1.3256-2.1039 0.4057-1.5098 1.1017-3.0192 1.7218-3.7344 0.23189-0.26743 0.42162-0.54089 0.42162-0.6077 0-0.0669-0.66366-0.0857-1.4748-0.042-1.0462 0.0563-1.7791 0.20663-2.5218 0.51721-0.97112 0.40608-1.0395 0.41416-0.94314 0.11159 0.14935-0.46902 1.6248-1.7982 2.4993-2.2515 0.78796-0.40847 3.1988-1.079 3.9367-1.0949 0.33498-7e-3 0.5914-0.27653 1.1044-1.16 0.69255-1.1925 1.9762-2.4236 3.1256-2.9976l0.66373-0.33146-0.80484-0.28693c-0.57815-0.20612-1.3918-0.29011-2.8888-0.29823-1.1462-7e-3 -2.0845-0.0626-2.085-0.1252-2e-3 -0.22456 1.2493-0.83884 2.3934-1.1749 1.556-0.45704 4.7486-0.60035 5.7423-0.25775 0.66282 0.22851 0.77647 0.21901 1.6462-0.13749 0.5138-0.21062 1.7954-0.59013 2.8479-0.84337 1.0525-0.25323 1.9494-0.48143 1.9929-0.50712 0.11353-0.0669-0.99854-1.2391-1.6026-1.6893-0.28094-0.20935-1.06-0.61813-1.7313-0.9084l-1.2205-0.52775 1.0171-0.15115c2.3015-0.34205 5.8011 0.4726 7.5516 1.7579 0.78712 0.57792 0.7933 0.57919 3.3313 0.68891 1.3985 0.0604 2.9005 0.15834 3.3377 0.21754l0.79493 0.1076-0.13004-0.90165c-0.16045-1.1125-1.0853-2.6911-2.1687-3.7019-0.44921-0.41908-0.81675-0.8065-0.81675-0.86094 0-0.0544 0.47849 0.0503 1.0633 0.23282 2.3745 0.74092 4.753 2.5573 6.424 4.9059 0.58826 0.82681 1.1267 1.3786 1.4531 1.4893 3.5425 1.201 5.922 2.3865 9.0007 4.4843 2.4727 1.6848 8.2197 6.2718 10.075 8.0413l1.7447 1.6641 1.0373-0.0821c0.57052-0.0452 2.0726-0.18187 3.338-0.30376 1.5408-0.14843 2.4061-0.16703 2.6199-0.0563 0.17556 0.0909 0.86941 0.95219 1.5419 1.9139 3.2171 4.6006 4.7286 6.5477 6.1564 7.93 2.1313 2.0635 2.4097 2.7174 1.3154 3.0896-0.33564 0.11417-0.61026 0.30846-0.61026 0.43177 0 0.46512 2.5833 2.4671 4.6428 3.598 2.2032 1.2098 5.3581 2.5874 7.2143 3.15 1.6375 0.49634 4.0351 1.0055 4.7346 1.0055 0.3472 0 0.68639 0.0453 0.75374 0.10056 0.0673 0.0553-0.87853 0.65224-2.1019 1.3266-2.8458 1.5685-4.4295 2.572-6.0948 3.8622l-1.3339 1.0333-1.0086-1.0053c-1.6051-1.5997-5.7347-4.6173-9.654-7.0542-2.3157-1.4398-4.0646-2.2214-9.9676-4.4544-5.3272-2.0152-6.9352-3.0022-7.7117-4.7333-0.53621-1.1954-0.91354-3.3535-0.7824-4.4744 0.11394-0.9736 0.21926-0.89097-3.6904-2.8948-5.1448-2.6369-11.438-4.9026-15.277-5.5005-2.0381-0.31737-5.1386-0.35639-6.7129-0.0845-2.7135 0.46869-5.4736 2.1192-6.4628 3.8648-1.7302 3.053-0.14293 7.7761 3.7531 11.168 1.0033 0.87337 2.1291 1.5647 4.6711 2.8687 4.3878 2.2507 6.4425 3.5274 8.9468 5.5594 3.3253 2.6982 5.7737 5.7089 7.5256 9.2542 0.67797 1.3719 0.98041 1.7972 1.3409 1.8856 0.25602 0.0627 1.5639 0.20004 2.9065 0.30511 13.193 1.0324 32.325 5.8765 46.38 11.743 2.4545 1.0245 2.5615 1.2183 0.25959 0.47013-0.81406-0.26458-3.4482-1.0099-5.8536-1.6562-9.2952-2.4976-18.109-4.3254-27.877-5.7812-11.904-1.7741-20.827-2.434-32.945-2.4367-25.909-6e-3 -46.413 3.0491-67.091 9.9957-0.59477 0.19981-1.0186 0.27985-0.94186 0.17788zm83.086-13.061c0-0.025-0.26939-0.62007-0.59864-1.3222-1.5857-3.3816-3.8491-6.1482-7.4248-9.0752-2.8335-2.3194-4.9269-3.6202-8.8674-5.5099-4.2437-2.0351-5.8554-3.3786-7.6148-6.3478-1.27-2.1434-1.577-2.9828-1.6861-4.6104-0.17236-2.5725 0.61869-4.3589 2.7034-6.1049 1.376-1.1525 3.2585-1.9938 5.384-2.4061 1.8087-0.35089 5.2867-0.27475 7.4861 0.16387 4.3546 0.86847 10.224 3.2211 15.575 6.2426 2.4341 1.3745 2.5103 1.3886 1.278 0.23587-2.1655-2.0255-7.5746-5.9671-10.71-7.8045-2.4574-1.44-4.3287-2.2156-6.5094-2.6981-2.3114-0.51141-7.5093-0.5556-10.171-0.0865-4.5159 0.7959-8.2812 2.7365-9.8034 5.0526-1.8401 2.7998-1.9695 7.2165-0.33231 11.347 1.3418 3.3856 3.0531 5.6068 6.5624 8.5181 3.5964 2.9834 5.0519 4.9304 6.0285 8.0641 0.40783 1.3086 0.56835 4.334 0.28001 5.2774l-0.13483 0.44115h3.5245c3.6253 0 10.326 0.26616 12.488 0.49604 1.3102 0.13932 2.5428 0.20067 2.5428 0.12657zm24.66-21.295c-0.32881-0.34454-1.0155-1.2156-1.526-1.9358-0.83716-1.181-0.94972-1.2762-1.1483-0.9715-0.43225 0.66323-0.25579 1.2819 0.59095 2.0718 0.63649 0.59378 2.1867 1.4609 2.6132 1.4618 0.0374 7e-5 -0.20108-0.28176-0.52989-0.62629zm-11.438-13.823c-14.765-12.277-34.989-23.01-54.785-29.075-1.7701-0.5423-3.1208-1.0127-3.0016-1.0453 0.37365-0.10228 10.518 2.767 14.458 4.0895 4.582 1.5378 12.845 4.8292 16.992 6.7682 8.1981 3.8332 16.021 8.3446 23.081 13.31 2.7254 1.9169 9.3573 7.1474 9.3573 7.38 0 0.13874-0.78928 0.26738-2.5428 0.41442l-1.2205 0.10235z" style="fill:#fff;opacity:.7;stroke-width:.18434"/><rect x="176.89" y="293.53" width="30.215" height="7.9196" rx="5.0359" ry="3.9598" style="opacity:.1"/><path transform="matrix(.75 0 0 .75 0 -.37027)" d="m236.36 394.65c-0.31974 0.6167-0.49805 1.2908-0.49805 2 0 2.925 2.993 5.2812 6.7129 5.2812h26.859c3.7198 0 6.7129-2.3563 6.7129-5.2812 0-0.70918-0.17831-1.3833-0.49805-2-0.99894 1.927-3.3968 3.2812-6.2148 3.2812h-26.859c-2.818 0-5.2159-1.3543-6.2148-3.2812z" style="filter:url(#n);opacity:.1"/></svg>
