<svg width="512" height="512" version="1.1" viewBox="0 0 384 384" xmlns="http://www.w3.org/2000/svg" xmlns:xlink="http://www.w3.org/1999/xlink">
 <defs>
  <linearGradient id="o" x1="185.43" x2="185.43" y1="302.28" y2="208.91" gradientTransform="matrix(1.1187 0 0 1.1187 -22.801 -34.286)" gradientUnits="userSpaceOnUse" xlink:href="#a"/>
 </defs>
 <linearGradient id="a" x1="193.03" x2="193.03" y1="325.16" y2="208.32" gradientTransform="matrix(.73971 0 0 .73971 49.975 49.975)" gradientUnits="userSpaceOnUse">
  <stop stop-color="#fd7d00" offset="0"/>
  <stop stop-color="#ffc730" offset="1"/>
 </linearGradient>
 <filter id="b" x="-.038859" y="-.062764" width="1.0777" height="1.1255" color-interpolation-filters="sRGB">
  <feGaussianBlur stdDeviation="1.6426611"/>
 </filter>
 <filter id="c" x="-.055609" y="-.87692" width="1.1112" height="2.7538" color-interpolation-filters="sRGB">
  <feGaussianBlur stdDeviation=".40637492"/>
 </filter>
 <linearGradient id="d" x1="185.98" x2="185.98" y1="253.71" y2="106.67" gradientTransform="matrix(1.1187 0 0 1.0464 -22.801 -26.646)" gradientUnits="userSpaceOnUse" xlink:href="#a"/>
 <linearGradient id="e" x1="189.86" x2="190.13" y1="314.25" y2="242.83" gradientTransform="matrix(.85431 0 0 .85431 27.963 47.567)" gradientUnits="userSpaceOnUse">
  <stop stop-color="#fff" offset="0"/>
  <stop stop-color="#ccc" offset=".13909"/>
  <stop stop-color="#fff" offset=".21092"/>
  <stop stop-color="#b3b3b3" offset="1"/>
 </linearGradient>
 <filter id="f" x="-.011708" y="-.014498" width="1.0234" height="1.029" color-interpolation-filters="sRGB">
  <feGaussianBlur stdDeviation=".64813779"/>
 </filter>
 <linearGradient id="g" x1="189.3" x2="189.3" y1="318.56" y2="257.37" gradientTransform="matrix(.85431 0 0 .85431 27.963 47.567)" gradientUnits="userSpaceOnUse">
  <stop offset="0"/>
  <stop stop-color="#333" offset=".13026"/>
  <stop offset=".15294"/>
  <stop offset="1"/>
 </linearGradient>
 <linearGradient id="h" x1="185.43" x2="185.43" y1="302.28" y2="208.91" gradientTransform="matrix(1.746,0,0,1.746,-79.228,-127.75)" gradientUnits="userSpaceOnUse" xlink:href="#a"/>
 <linearGradient id="i" x1="185.98" x2="185.98" y1="253.71" y2="106.67" gradientTransform="matrix(1.3095,0,0,1.3095,-59.421,-64.364)" gradientUnits="userSpaceOnUse" xlink:href="#a"/>
 <filter id="j" x="-.024169" y="-.14707" width="1.0483" height="1.2941" color-interpolation-filters="sRGB">
  <feGaussianBlur stdDeviation="1.9217811"/>
 </filter>
 <filter id="k" x="-.11707" y="-.10023" width="1.2341" height="1.2005" color-interpolation-filters="sRGB">
  <feGaussianBlur stdDeviation="12.945828"/>
 </filter>
 <filter id="l" x="-.069624" y="-.24064" width="1.1392" height="1.4813" color-interpolation-filters="sRGB">
  <feGaussianBlur stdDeviation="7.6982589"/>
 </filter>
 <filter id="m" x="-.11072" y="-.10541" width="1.2214" height="1.2108" color-interpolation-filters="sRGB">
  <feGaussianBlur stdDeviation="12.24235"/>
 </filter>
 <filter id="n" x="-.067309" y="-.047435" width="1.1346" height="1.0949" color-interpolation-filters="sRGB">
  <feGaussianBlur stdDeviation="2.2437829"/>
 </filter>
 <path transform="matrix(.64073 0 0 .64073 27.963 47.567)" d="m177.76 56.615c-21.172 0-37.929 18.994-38.217 42.584l-15.63 178.88c-1.0088 18.047-0.4047 36.244-0.40684 54.335 0 18.936 15.924 34.182 35.703 34.182h193.58c19.779 0 35.703-15.245 35.703-34.182-0.61393-18.084 0.9553-36.274-0.24336-54.335l-15.799-178.88c-0.28809-23.589-17.044-42.584-38.217-42.584h-156.46z" fill="url(#h)" filter="url(#k)" style="fill:url(#h)"/>
 <path d="m141.86 83.842c-13.566 0-24.302 12.17-24.487 27.285l-10.015 114.61c-0.64636 11.563-0.2593 23.223-0.26067 34.814 0 12.133 10.203 21.901 22.876 21.901h124.03c12.673 0 22.876-9.7679 22.876-21.901-0.39336-11.587 0.6121-23.242-0.15592-34.814l-10.123-114.61c-0.18459-15.114-10.921-27.285-24.487-27.285h-100.25z" fill="url(#h)" style="fill:url(#o);stroke-width:.64073"/>
 <path transform="matrix(.64073 0 0 .64073 27.963 49.96)" d="m388.67 289.82c-0.11335 9.1731-0.40702 18.355-0.28125 27.516 0.10966-9.1719 0.3991-18.353 0.28125-27.516zm-265.32 7.9473c-0.0833 11.549 0.15761 23.121 0.15625 34.65 0 18.936 15.924 34.182 35.703 34.182h193.58c19.779 0 35.703-15.245 35.703-34.182-0.08-2.356-0.12185-4.7132-0.13867-7.0723-1.5432 17.554-16.817 31.254-35.564 31.254h-193.58c-19.779 0-35.703-15.245-35.703-34.182 9.7e-4 -8.2029-0.11481-16.428-0.15625-24.65z" filter="url(#l)" opacity=".2"/>
 <path d="m142.73 83.842h98.519c11.989 0 21.41 9.7195 21.642 21.788l10.608 114.95c0.23283 12.068-9.6528 21.788-21.642 21.788h-119.74c-11.989 0-21.875-9.7195-21.642-21.788l10.608-114.95c0.2328-12.068 9.6528-21.788 21.642-21.788z" fill="url(#d)" stroke-width=".99232" style="fill:url(#d)"/>
 <path transform="matrix(.85431 0 0 .85431 27.963 47.567)" d="m206.3 96.536c0 6.4949-4.447 10.939-10.474 12.361v5.7927c3.4644 3.3075 8.3368 5.2107 12.865 6.9753 9.7752 3.8249 18.284 7.1416 15.519 19.928 4.4875 1.0994 7.7898 4.8319 7.7898 9.2757 0 5.3031-4.7103 9.6083-10.525 9.6083s-10.535-4.3053-10.535-9.6083c0-3.8248 2.4514-7.1231 6.0069-8.6752l-0.12156-0.0277c0.40519-1.3858 0.60779-2.6238 0.63818-3.7325 0.15195-6.2731-5.3181-8.4165-11.528-10.837-0.37481-0.14783-0.74961-0.29564-1.1345-0.44346-2.9984-1.1826-6.0778-2.4483-8.9648-4.1759v53.243h9.684l-1.1447 1.7554-12.561 19.309-13.706-21.074h10.646v-40.623c-2.887 1.7646-5.9867 3.058-9.0054 4.2498-0.45584 0.18477-0.9218 0.36032-1.3776 0.54509-6.2804 2.4483-11.811 4.6194-11.518 11.068 0.0405 0.86845 0.18234 1.8108 0.44571 2.8456h5.0041c0.84077 0 1.5195 0.62824 1.5195 1.3858v16.852c0 0.76682-0.68883 1.3858-1.5195 1.3858h-18.791c-0.84077 0-1.5195-0.61899-1.5195-1.3858v-16.852c0-0.75758 0.68882-1.3858 1.5195-1.3858h6.5641c-2.7046-12.703 5.7841-16.029 15.539-19.836 4.6496-1.82 9.6638-3.7787 13.148-7.2524v-18.302c-6.0272-1.432-10.474-5.8666-10.474-12.362 0-6.5133 6.2703-12.786 13.999-12.786 7.729 0 14.009 6.2731 14.009 12.777z" clip-rule="evenodd" fill-rule="evenodd" filter="url(#n)" opacity=".59907" stroke-width=".96741"/>
 <path d="m153.38 253.01c-1.5794 0.01-2.7656 0.21482-2.7656 2.1324l-1.5618 50.572v12.196c0 2.4808 1.5081 3.8088 3.8431 3.8444h76.158c4.1837 0 5.1258-2.5283 5.1258-5.1258l-8.5e-4 -8.3545v-2.5604h8.5e-4l-1.5542-50.349c0-1.7958-1.0341-2.3514-2.9258-2.3514h-75.622c-0.23939-2e-3 -0.47265-5e-3 -0.69829-3e-3z" fill="url(#e)" stroke-width=".99232" style="fill:url(#e)"/>
 <path d="m164.52 272.6-0.46679 13.324h12.896l0.18896-13.324zm41.597 0 0.18646 13.324h12.896l-0.46552-13.324zm-55.45 33.118v11.609c0 0.68315 0.27505 1.3 0.72083 1.7458 0.44575 0.44577 1.0614 0.72082 1.7445 0.72082h76.988c0.68313 0 1.3-0.27505 1.7458-0.72082 0.44577-0.44578 0.71957-1.0626 0.71957-1.7458l-8.5e-4 -10.505v-1.1038z" fill="url(#g)" stroke-width=".99232" style="fill:url(#g)"/>
 <path transform="matrix(.83906 0 0 .83906 -26.817 -47.039)" d="m215.6 356.61c-2.2825-0.02-4.1289-0.0768-4.1289 2.5352-1.9946 63.585-2.3213 81.267 0 6 0-2.6119 1.8464-2.5552 4.1289-2.5352h90.127c2.2546 0 3.4863 0.66251 3.4863 2.8027 2.3156 74.939 1.9519 57.259 0-6 0-2.1402-1.2317-2.8027-3.4863-2.8027z" filter="url(#b)" opacity=".1" stroke-width="1.1361"/>
 <rect transform="matrix(4.7181 0 0 5.4413 -777.95 -1195.1)" x="196.82" y="275.07" width="17.539" height="1.1122" rx=".5561" fill="#808080" filter="url(#c)" opacity=".44611"/>
 <path transform="matrix(.64073 0 0 .64073 23.954 11.248)" d="m202.01 377.33c-2.4651 0.0153-4.3164 0.33527-4.3164 3.3281l-2.4375 78.928v19.035c0 3.8719 2.3537 5.9445 5.998 6h118.86c6.5296 0 8-3.946 8-8l-2e-3 -13.039v-3.9961h2e-3l-2.4258-78.58c0-2.8027-1.6139-3.6699-4.5664-3.6699h-118.02c-0.37362-3e-3 -0.73768-8e-3 -1.0898-6e-3z" fill="none" filter="url(#f)" opacity=".26522" stroke="#000"/>
 <path transform="matrix(.85173 0 0 .80612 26.712 25.275)" d="m96.942 240.94-0.35302 4.0928c-0.27253 15.103 11.299 27.268 25.333 27.268h140.16c14.035 0 25.607-12.165 25.334-27.268l-0.35302-4.0928c-2.0202 12.71-12.528 22.291-24.981 22.291h-140.16c-12.453 0-22.96-9.58-24.98-22.291z" fill="url(#i)" filter="url(#j)" opacity=".62885" stroke-width=".75" style="fill:url(#i)"/>
 <path transform="matrix(.64073 0 0 .64073 27.963 43.793)" d="m177.76 56.615c-21.172 0-37.929 18.994-38.217 42.584l-15.631 178.88c-0.5514 9.8641-0.61246 19.772-0.5625 29.684 0.0474-6.573 0.19658-13.138 0.5625-19.684l15.631-178.88c0.28787-23.59 17.045-42.584 38.217-42.584h156.47c21.173 0 37.929 18.995 38.217 42.584l15.799 178.88c0.25928 3.9067 0.3715 7.82 0.42188 11.736 0.0897-7.2564 0.058-14.506-0.42188-21.736l-15.799-178.88c-0.28809-23.589-17.044-42.584-38.217-42.584h-156.46zm210.63 270.72c-0.0319 2.671-0.0542 5.3413-0.0352 8.0098 0.0849-0.96589 0.13867-1.9401 0.13867-2.9277-0.0575-1.6931-0.0802-3.3873-0.10351-5.082z" fill="#fff" filter="url(#m)"/>
 <path d="m204.21 126.19c0 5.5486-3.7991 9.3453-8.948 10.56v4.9487c2.9597 2.8256 7.1222 4.4516 10.991 5.9591 8.351 3.2676 15.62 6.1011 13.258 17.025 3.8337 0.93922 6.6549 4.1279 6.6549 7.9243 0 4.5305-4.024 8.2084-8.9916 8.2084s-9.0001-3.6781-9.0001-8.2084c0-3.2676 2.0942-6.0853 5.1317-7.4113l-0.10385-0.0236c0.34616-1.1839 0.51925-2.2415 0.5452-3.1887 0.12982-5.3592-4.5433-7.1903-9.8484-9.2581-0.3202-0.12629-0.6404-0.25258-0.96922-0.37885-2.5616-1.0103-5.1923-2.0916-7.6587-3.5675v45.486h8.2731l-0.97793 1.4997-10.731 16.496-11.709-18.004h9.095v-34.705c-2.4664 1.5075-5.1145 2.6125-7.6934 3.6306-0.38945 0.15784-0.78751 0.30782-1.1769 0.46567-5.3654 2.0916-10.09 3.9464-9.8399 9.4555 0.0346 0.74193 0.15578 1.547 0.38078 2.431h4.275c0.71829 0 1.2981 0.53671 1.2981 1.1839v14.397c0 0.65509-0.58847 1.1839-1.2981 1.1839h-16.053c-0.71829 0-1.2981-0.52882-1.2981-1.1839v-14.397c0-0.6472 0.58846-1.1839 1.2981-1.1839h5.6078c-2.3106-10.852 4.9414-13.694 13.275-16.946 3.9722-1.5549 8.2559-3.2282 11.232-6.1958v-15.636c-5.1491-1.2234-8.948-5.0119-8.948-10.561 0-5.5644 5.3568-10.923 11.959-10.923 6.603 0 11.968 5.3592 11.968 10.915z" clip-rule="evenodd" fill-rule="evenodd" stroke-width=".99232"/>
</svg>
